<svg width="124" height="124" viewBox="0 0 124 124" fill="none" xmlns="http://www.w3.org/2000/svg">
<g filter="url(#filter0_d_15_506)">
<rect x="39" y="39" width="46" height="46" rx="6" stroke="#36389C" stroke-width="4"/>
<rect width="42" height="42" transform="translate(41 41)" fill="#494CEB"/>
<g clip-path="url(#clip0_15_506)">
<path d="M69.7409 56.5926C69.6466 56.3446 69.4647 56.147 69.2351 56.0431C69.1222 55.9907 69.0008 55.9625 68.8778 55.9604L64.1704 55.9379C63.9207 55.9367 63.6807 56.0423 63.5033 56.2315C63.3258 56.4206 63.2254 56.6778 63.2241 56.9465C63.2228 57.2152 63.3208 57.4734 63.4964 57.6642C63.6721 57.8551 63.911 57.963 64.1607 57.9641L66.5991 57.9758L61.3093 63.614L58.2278 60.256C58.1408 60.1606 58.037 60.0847 57.9225 60.0327C57.808 59.9807 57.6851 59.9537 57.5608 59.9531C57.4365 59.9525 57.3133 59.9784 57.1984 60.0293C57.0834 60.0802 56.9789 60.155 56.8909 60.2496L51.2131 66.3014C51.1244 66.3951 51.0539 66.5068 51.0055 66.6301C50.9571 66.7533 50.9319 66.8856 50.9312 67.0194C50.9306 67.1531 50.9546 67.2856 51.0018 67.4093C51.049 67.533 51.1185 67.6454 51.2063 67.74C51.2933 67.8354 51.3971 67.9112 51.5116 67.9632C51.6261 68.0152 51.749 68.0423 51.8733 68.0429C51.9976 68.0435 52.1207 68.0176 52.2357 67.9667C52.3507 67.9158 52.4552 67.8409 52.5432 67.7464L57.5491 62.4006L60.6306 65.7587C60.7177 65.854 60.8215 65.9299 60.9359 65.9819C61.0504 66.0339 61.1734 66.0609 61.2976 66.0615C61.4219 66.0621 61.5451 66.0362 61.6601 65.9853C61.7751 65.9345 61.8795 65.8596 61.9675 65.765L67.9198 59.4106L67.9073 62.0346C67.906 62.3033 68.004 62.5615 68.1796 62.7523C68.3553 62.9431 68.5942 63.051 68.8439 63.0522C69.0936 63.0534 69.3336 62.9478 69.5111 62.7587C69.6885 62.5695 69.7889 62.3123 69.7902 62.0436L69.8144 56.978C69.8135 56.8456 69.7886 56.7147 69.7409 56.5926Z" fill="white"/>
</g>
<rect x="51.4414" y="51" width="22" height="22" rx="3" stroke="white" stroke-width="2"/>
</g>
<defs>
<filter id="filter0_d_15_506" x="0.545334" y="0.545334" width="122.909" height="122.909" filterUnits="userSpaceOnUse" color-interpolation-filters="sRGB">
<feFlood flood-opacity="0" result="BackgroundImageFix"/>
<feColorMatrix in="SourceAlpha" type="matrix" values="0 0 0 0 0 0 0 0 0 0 0 0 0 0 0 0 0 0 127 0" result="hardAlpha"/>
<feOffset/>
<feGaussianBlur stdDeviation="18.2273"/>
<feColorMatrix type="matrix" values="0 0 0 0 0.286275 0 0 0 0 0.298039 0 0 0 0 0.921569 0 0 0 1 0"/>
<feBlend mode="normal" in2="BackgroundImageFix" result="effect1_dropShadow_15_506"/>
<feBlend mode="normal" in="SourceGraphic" in2="effect1_dropShadow_15_506" result="shape"/>
</filter>
<clipPath id="clip0_15_506">
<rect x="50.4414" y="50" width="24" height="24" rx="4" fill="white"/>
</clipPath>
</defs>
</svg>
