<svg width="124" height="124" viewBox="0 0 124 124" fill="none" xmlns="http://www.w3.org/2000/svg">
<g filter="url(#filter0_d_15_475)">
<rect x="39" y="39" width="46" height="46" rx="6" fill="#494CEB"/>
<rect x="39" y="39" width="46" height="46" rx="6" stroke="#36389C" stroke-width="4"/>
<rect width="42" height="42" transform="translate(41 41)" fill="#494CEB"/>
<path d="M62 55C63.3 54.025 64.8458 53.4313 66.4642 53.2854C68.0826 53.1394 69.7097 53.4471 71.1631 54.1738C72.6165 54.9005 73.8389 56.0176 74.6932 57.3999C75.5475 58.7821 76 60.375 76 62C76 63.625 75.5475 65.2179 74.6932 66.6002C73.8389 67.9824 72.6165 69.0995 71.1631 69.8262C69.7097 70.553 68.0826 70.8606 66.4642 70.7146C64.8458 70.5687 63.3 69.975 62 69C60.7 69.975 59.1542 70.5687 57.5358 70.7146C55.9174 70.8606 54.2903 70.553 52.8369 69.8262C51.3835 69.0995 50.1611 67.9824 49.3068 66.6002C48.4525 65.2179 48 63.625 48 62C48 60.375 48.4525 58.7821 49.3068 57.3999C50.1611 56.0176 51.3835 54.9005 52.8369 54.1738C54.2903 53.4471 55.9174 53.1394 57.5358 53.2854C59.1542 53.4313 60.7 54.025 62 55ZM60.6875 56.211C59.6353 55.4954 58.4079 55.0801 57.1374 55.0098C55.8668 54.9395 54.6011 55.2169 53.4764 55.8122C52.3517 56.4074 51.4105 57.298 50.7541 58.3881C50.0977 59.4782 49.7508 60.7266 49.7508 61.9991C49.7508 63.2716 50.0977 64.5201 50.7541 65.6102C51.4105 66.7003 52.3517 67.5909 53.4764 68.1861C54.6011 68.7813 55.8668 69.0587 57.1374 68.9884C58.4079 68.9182 59.6353 68.5029 60.6875 67.7873C59.2751 66.1906 58.4968 64.1317 58.5 62C58.5 59.781 59.326 57.7545 60.6875 56.211ZM67.859 67.25L71.4955 57.3853H70.2023L67.3043 65.6575H67.1957L64.2977 57.3853H63.0045L66.641 67.25H67.859Z" fill="white"/>
</g>
<defs>
<filter id="filter0_d_15_475" x="0.545334" y="0.545334" width="122.909" height="122.909" filterUnits="userSpaceOnUse" color-interpolation-filters="sRGB">
<feFlood flood-opacity="0" result="BackgroundImageFix"/>
<feColorMatrix in="SourceAlpha" type="matrix" values="0 0 0 0 0 0 0 0 0 0 0 0 0 0 0 0 0 0 127 0" result="hardAlpha"/>
<feOffset/>
<feGaussianBlur stdDeviation="18.2273"/>
<feColorMatrix type="matrix" values="0 0 0 0 0.286275 0 0 0 0 0.298039 0 0 0 0 0.921569 0 0 0 1 0"/>
<feBlend mode="normal" in2="BackgroundImageFix" result="effect1_dropShadow_15_475"/>
<feBlend mode="normal" in="SourceGraphic" in2="effect1_dropShadow_15_475" result="shape"/>
</filter>
</defs>
</svg>
