<svg width="124" height="124" viewBox="0 0 124 124" fill="none" xmlns="http://www.w3.org/2000/svg">
<g filter="url(#filter0_d_15_486)">
<rect x="39" y="39" width="46" height="46" rx="6" stroke="#36389C" stroke-width="4"/>
<rect width="42" height="42" transform="translate(41 41)" fill="#494CEB"/>
<g clip-path="url(#clip0_15_486)">
<path d="M71 60.5312H70.25V55.2812C70.25 54.4562 69.575 53.7812 68.75 53.7812H64.25V55.2812H68.75V60.5312H68C67.175 60.5312 66.5 61.2063 66.5 62.0312V68.7812H57.425C57.125 67.7313 56.3 66.9062 55.25 66.6063V55.2812H59.9L57.95 57.2313L59 58.2812L62.75 54.5312L59 50.7812L57.95 51.8313L59.9 53.7812H55.25C54.425 53.7812 53.75 54.4562 53.75 55.2812V66.6063C52.475 66.9062 51.5 68.1063 51.5 69.5312C51.5 71.1812 52.85 72.5312 54.5 72.5312C55.925 72.5312 57.05 71.5562 57.425 70.2812H66.5V71.0312C66.5 71.8563 67.175 72.5312 68 72.5312H71C71.825 72.5312 72.5 71.8563 72.5 71.0312V62.0312C72.5 61.2063 71.825 60.5312 71 60.5312ZM54.5 71.0312C53.675 71.0312 53 70.3563 53 69.5312C53 68.7062 53.675 68.0312 54.5 68.0312C55.325 68.0312 56 68.7062 56 69.5312C56 70.3563 55.325 71.0312 54.5 71.0312ZM68 71.0312V62.0312H71V71.0312H68Z" fill="white"/>
</g>
</g>
<defs>
<filter id="filter0_d_15_486" x="0.545334" y="0.545334" width="122.909" height="122.909" filterUnits="userSpaceOnUse" color-interpolation-filters="sRGB">
<feFlood flood-opacity="0" result="BackgroundImageFix"/>
<feColorMatrix in="SourceAlpha" type="matrix" values="0 0 0 0 0 0 0 0 0 0 0 0 0 0 0 0 0 0 127 0" result="hardAlpha"/>
<feOffset/>
<feGaussianBlur stdDeviation="18.2273"/>
<feColorMatrix type="matrix" values="0 0 0 0 0.286275 0 0 0 0 0.298039 0 0 0 0 0.921569 0 0 0 1 0"/>
<feBlend mode="normal" in2="BackgroundImageFix" result="effect1_dropShadow_15_486"/>
<feBlend mode="normal" in="SourceGraphic" in2="effect1_dropShadow_15_486" result="shape"/>
</filter>
<clipPath id="clip0_15_486">
<rect width="24" height="24" fill="white" transform="translate(50 50.0312)"/>
</clipPath>
</defs>
</svg>
