<svg width="1856" height="1149" viewBox="0 0 1856 1149" fill="none" xmlns="http://www.w3.org/2000/svg">
<path opacity="0.5" d="M1256.89 657.782C1251.93 677.362 1238.05 693.738 1217.12 706.575C1196.18 719.413 1168.22 728.69 1135.16 734.069C1069.05 744.827 982.668 739.975 891.706 716.94C800.744 693.906 722.468 657.062 669.443 616.135C642.93 595.67 622.75 574.201 610.447 552.945C598.146 531.692 593.734 510.684 598.692 491.104C603.651 471.525 617.529 455.148 638.463 442.312C659.4 429.474 687.366 420.196 720.424 414.817C786.536 404.06 872.914 408.912 963.876 431.946C1054.84 454.981 1133.11 491.825 1186.14 532.752C1212.65 553.216 1232.83 574.686 1245.14 595.942C1257.44 617.194 1261.85 638.202 1256.89 657.782Z" stroke="url(#paint0_linear_101_42)"/>
<path opacity="0.5" d="M1502.48 719.901C1493.79 754.204 1469.49 782.864 1432.88 805.308C1396.28 827.754 1347.41 843.962 1289.66 853.358C1174.19 872.148 1023.34 863.67 864.5 823.448C705.664 783.225 568.962 718.885 476.344 647.397C430.034 611.653 394.765 574.137 373.255 536.974C351.746 499.815 344.008 463.039 352.695 428.736C361.382 394.434 385.69 365.773 422.292 343.329C458.897 320.884 507.771 304.675 565.512 295.28C680.991 276.489 831.84 284.967 990.676 325.19C1149.51 365.412 1286.21 429.752 1378.83 501.24C1425.14 536.984 1460.41 574.501 1481.92 611.663C1503.43 648.823 1511.17 685.598 1502.48 719.901Z" stroke="url(#paint1_linear_101_42)"/>
<path opacity="0.5" d="M1763.33 785.947C1750.69 835.86 1715.32 877.545 1662.1 910.176C1608.89 942.808 1537.85 966.365 1453.93 980.019C1286.11 1007.33 1066.91 995.004 836.107 936.558C605.307 878.111 406.657 784.618 272.059 680.729C204.76 628.783 153.493 574.254 122.221 520.226C90.9496 466.2 79.6857 412.707 92.3253 362.794C104.965 312.882 140.331 271.197 193.546 238.566C246.764 205.934 317.805 182.377 401.716 168.723C569.537 141.416 788.742 153.738 1019.54 212.184C1250.34 270.631 1448.99 364.123 1583.59 468.013C1650.89 519.959 1702.16 574.488 1733.43 628.516C1764.7 682.541 1775.96 736.035 1763.33 785.947Z" stroke="url(#paint2_linear_101_42)"/>
<defs>
<linearGradient id="paint0_linear_101_42" x1="621.293" y1="479.673" x2="1191.85" y2="716.375" gradientUnits="userSpaceOnUse">
<stop stop-color="#484848"/>
<stop offset="0.491388" stop-color="white" stop-opacity="0.36"/>
<stop offset="1" stop-color="#484848"/>
</linearGradient>
<linearGradient id="paint1_linear_101_42" x1="392.512" y1="408.871" x2="1388.57" y2="822.1" gradientUnits="userSpaceOnUse">
<stop stop-color="#484848"/>
<stop offset="0.491388" stop-color="white" stop-opacity="0.36"/>
<stop offset="1" stop-color="#484848"/>
</linearGradient>
<linearGradient id="paint2_linear_101_42" x1="150.396" y1="333.986" x2="1597.6" y2="934.38" gradientUnits="userSpaceOnUse">
<stop stop-color="#484848"/>
<stop offset="0.491388" stop-color="white" stop-opacity="0.36"/>
<stop offset="1" stop-color="#484848"/>
</linearGradient>
</defs>
</svg>
