<svg width="664" height="333" viewBox="0 0 664 333" fill="none" xmlns="http://www.w3.org/2000/svg">
<path opacity="0.5" d="M660.89 249.782C655.932 269.362 642.053 285.738 621.119 298.575C600.182 311.413 572.216 320.69 539.159 326.069C473.046 336.827 386.668 331.975 295.706 308.94C204.744 285.906 126.468 249.062 73.4433 208.135C46.9303 187.67 26.7503 166.201 14.4471 144.945C2.14553 123.692 -2.26581 102.684 2.69246 83.1045C7.65073 63.5246 21.5291 47.1482 42.4631 34.3118C63.3999 21.4738 91.3663 12.1962 124.424 6.81721C190.536 -3.94042 276.914 0.911715 367.876 23.9463C458.838 46.9808 537.115 83.8248 590.139 124.752C616.652 145.216 636.832 166.686 649.135 187.942C661.437 209.194 665.848 230.202 660.89 249.782Z" stroke="url(#paint0_linear_316_676)"/>
<defs>
<linearGradient id="paint0_linear_316_676" x1="25.2931" y1="71.6727" x2="595.848" y2="308.375" gradientUnits="userSpaceOnUse">
<stop stop-color="#484848"/>
<stop offset="0.491388" stop-color="white" stop-opacity="0.36"/>
<stop offset="1" stop-color="#484848"/>
</linearGradient>
</defs>
</svg>
