<svg width="1440" height="841" viewBox="0 0 1440 841" fill="none" xmlns="http://www.w3.org/2000/svg">
<path opacity="0.5" d="M1535.27 631.82C1522.63 681.733 1487.27 723.418 1434.05 756.049C1380.83 788.681 1309.79 812.238 1225.88 825.892C1058.06 853.199 838.855 840.877 608.054 782.431C377.254 723.984 178.604 630.491 44.0059 526.601C-23.2935 474.656 -74.56 420.126 -105.833 366.098C-137.104 312.073 -148.368 258.58 -135.728 208.667C-123.088 158.754 -87.7222 117.069 -34.507 84.4388C18.7109 51.8067 89.7516 28.2494 173.663 14.5956C341.484 -12.7116 560.689 -0.389593 791.49 58.0569C1022.29 116.503 1220.94 209.996 1355.54 313.886C1422.84 365.831 1474.1 420.361 1505.38 474.389C1536.65 528.414 1547.91 581.908 1535.27 631.82Z" stroke="url(#paint0_linear_316_674)"/>
<defs>
<linearGradient id="paint0_linear_316_674" x1="-77.657" y1="179.859" x2="1369.55" y2="780.253" gradientUnits="userSpaceOnUse">
<stop stop-color="#484848"/>
<stop offset="0.491388" stop-color="white" stop-opacity="0.36"/>
<stop offset="1" stop-color="#484848"/>
</linearGradient>
</defs>
</svg>
