<svg width="116" height="869" viewBox="0 0 116 869" fill="none" xmlns="http://www.w3.org/2000/svg">
<path d="M-446.123 19.7121C-374.725 -2.26646 -298.863 -5.44723 -225.876 10.4774C-152.889 26.4021 -85.2467 60.8931 -29.4925 110.614C26.2617 160.335 68.2407 223.604 92.3839 294.299C116.527 364.994 122.017 440.724 108.323 514.162C94.6291 587.6 62.2145 656.262 14.2148 713.505C-33.7849 770.748 -95.7451 814.634 -165.672 840.92C-235.599 867.205 -311.126 875 -384.948 863.549C-458.769 852.098 -528.386 821.79 -587.065 775.556L-507.381 674.425C-466.107 706.945 -417.139 728.264 -365.213 736.318C-313.287 744.373 -260.161 738.89 -210.975 720.401C-161.788 701.912 -118.206 671.042 -84.4427 630.778C-50.6798 590.513 -27.8795 542.217 -18.2472 490.561C-8.61484 438.904 -12.4766 385.636 -29.4588 335.909C-46.441 286.182 -75.969 241.68 -115.186 206.706C-154.404 171.732 -201.983 147.471 -253.322 136.27C-304.661 125.069 -358.022 127.306 -408.243 142.766L-446.123 19.7121Z" fill="url(#paint0_linear_314_155)"/>
<defs>
<linearGradient id="paint0_linear_314_155" x1="-711.489" y1="295.526" x2="96.4666" y2="306.877" gradientUnits="userSpaceOnUse">
<stop stop-color="#FC72FF"/>
<stop offset="1" stop-color="#8F68FF" stop-opacity="0.25"/>
</linearGradient>
</defs>
</svg>
