<svg width="32" height="42" viewBox="0 0 32 42" fill="none" xmlns="http://www.w3.org/2000/svg">
<path fill-rule="evenodd" clip-rule="evenodd" d="M16.947 28.7775C24.4394 28.7775 30.5118 22.7051 30.5118 15.2127C30.5118 7.72034 24.4394 1.64795 16.9283 1.64795H7.13775C7.12747 1.64795 7.11719 1.64798 7.10692 1.64805H2.52238C1.13974 1.64805 0 2.78779 0 4.17043V37.8769C0 39.2595 1.12106 40.3992 2.52238 40.3992H8.09029C9.49161 40.3992 10.6314 39.2595 10.6127 37.8769V28.7775H16.947Z" fill="black" fill-opacity="0.2"/>
<path d="M5.85498 40.8153L7.24272 40.8105C9.05919 40.8042 10.5284 39.3299 10.5284 37.5135V28.8699H16.4632C21.1565 28.7962 30.5142 25.9059 30.3982 14.935C30.2821 3.96405 21.0598 1.07377 16.4632 1" stroke="white" stroke-width="1.64854"/>
</svg>
