<svg width="20" height="20" viewBox="0 0 20 20" fill="none" xmlns="http://www.w3.org/2000/svg">
<path d="M14.9754 17.4999C16.7325 16.3363 18.0256 14.5929 18.6292 12.5737C19.2328 10.5544 19.1086 8.38741 18.2783 6.45034C17.448 4.51327 15.9642 2.92902 14.0856 1.97374C12.2071 1.01847 10.0528 0.752758 7.99838 1.22293M14.9754 17.4999V13.9999M14.9754 17.4999H18.4984M4.99838 2.51593C3.24729 3.68384 1.96092 5.42855 1.36298 7.44667C0.765043 9.46479 0.893354 11.6286 1.7256 13.562C2.55785 15.4953 4.04139 17.0757 5.91824 18.0285C7.79508 18.9813 9.94651 19.2461 11.9984 18.7769M4.99838 2.51593V5.99993M4.99838 2.51593H1.49838" stroke="url(#paint0_linear_625_1017)" stroke-linecap="round" stroke-linejoin="round"/>
<defs>
<linearGradient id="paint0_linear_625_1017" x1="9.9992" y1="0.996094" x2="9.9992" y2="19.0034" gradientUnits="userSpaceOnUse">
<stop stop-color="white"/>
<stop offset="1" stop-color="#999999"/>
</linearGradient>
</defs>
</svg>
