<svg width="24" height="24" viewBox="0 0 24 24" fill="none" xmlns="http://www.w3.org/2000/svg">
<path d="M8 6C11.314 6 14 5.105 14 4C14 2.895 11.314 2 8 2C4.686 2 2 2.895 2 4C2 5.105 4.686 6 8 6ZM15.5 9C13.7761 9 12.1228 9.68482 10.9038 10.9038C9.68482 12.1228 9 13.7761 9 15.5C9 17.2239 9.68482 18.8772 10.9038 20.0962C12.1228 21.3152 13.7761 22 15.5 22C17.2239 22 18.8772 21.3152 20.0962 20.0962C21.3152 18.8772 22 17.2239 22 15.5C22 13.7761 21.3152 12.1228 20.0962 10.9038C18.8772 9.68482 17.2239 9 15.5 9Z" stroke="url(#paint0_linear_625_995)" stroke-linecap="round" stroke-linejoin="round"/>
<path d="M15.5 19C15.605 19 15.702 18.95 15.897 18.852L17.461 18.056C18.154 17.704 18.5 17.529 18.5 17.25V13.75M15.5 19C15.395 19 15.298 18.95 15.103 18.852L13.539 18.056C12.846 17.704 12.5 17.529 12.5 17.25V13.75M15.5 19V15.5M18.5 13.75C18.5 13.471 18.154 13.296 17.461 12.944L15.897 12.148C15.702 12.05 15.605 12 15.5 12C15.395 12 15.298 12.05 15.103 12.148L13.539 12.944C12.846 13.295 12.5 13.471 12.5 13.75M18.5 13.75C18.5 14.029 18.154 14.204 17.461 14.556L15.897 15.352C15.702 15.45 15.605 15.5 15.5 15.5M12.5 13.75C12.5 14.029 12.846 14.204 13.539 14.556L15.103 15.352C15.298 15.45 15.395 15.5 15.5 15.5M2 4V12.043C2 12.747 3.178 13.633 6.13 14M2.107 8.548C3.312 9.61 5.46 10.06 7.754 10.06M13.988 4.121V6.136" stroke="url(#paint1_linear_625_995)" stroke-linecap="round" stroke-linejoin="round"/>
<defs>
<linearGradient id="paint0_linear_625_995" x1="12" y1="2" x2="12" y2="22" gradientUnits="userSpaceOnUse">
<stop stop-color="white"/>
<stop offset="1" stop-color="#999999"/>
</linearGradient>
<linearGradient id="paint1_linear_625_995" x1="10.25" y1="4" x2="10.25" y2="19" gradientUnits="userSpaceOnUse">
<stop stop-color="white"/>
<stop offset="1" stop-color="#999999"/>
</linearGradient>
</defs>
</svg>
