<svg width="24" height="24" viewBox="0 0 24 24" fill="none" xmlns="http://www.w3.org/2000/svg">
<g id="token:zee">
<path id="Vector" fill-rule="evenodd" clip-rule="evenodd" d="M8.49973 12.064V6.52402C7.5798 7.11187 6.82274 7.92195 6.29843 8.87952C5.77411 9.8371 5.49943 10.9113 5.49973 12.003C5.49973 13.993 6.39373 15.773 7.80073 16.965L7.87173 16.907C10.7387 14.555 13.7517 12.082 14.2767 11.705C14.8607 11.285 15.4807 11.584 15.4997 11.953V17.481C16.4195 16.8933 17.1765 16.0833 17.7008 15.126C18.2251 14.1686 18.4999 13.0946 18.4997 12.003C18.5006 11.0537 18.2932 10.1157 17.8922 9.25529C17.4912 8.39484 16.9063 7.63283 16.1787 7.02302C13.2417 9.36002 10.1027 11.823 9.57373 12.203C8.80073 12.758 8.51873 12.433 8.49973 12.064ZM14.4997 18.004V13.003L8.83573 17.682C9.80273 18.222 10.8917 18.504 11.9997 18.502C12.8578 18.5027 13.7074 18.3334 14.4997 18.004ZM8.01573 18.358C9.61035 19.3595 11.5233 19.7244 13.3746 19.3804C15.2259 19.0364 16.8801 18.0086 18.0086 16.5012C19.137 14.9938 19.6571 13.117 19.4656 11.2438C19.274 9.37054 18.3849 7.63789 16.9747 6.39002C17.928 5.63038 18.878 4.8667 19.8247 4.09902C19.9567 3.94902 20.1417 3.55902 19.8247 3.19902C19.5057 2.83902 18.9847 3.04902 18.7637 3.19902L15.8567 5.56902C14.2545 4.60771 12.351 4.27913 10.5192 4.6476C8.68736 5.01607 7.05903 6.05507 5.95307 7.56114C4.8471 9.0672 4.34314 10.9319 4.53989 12.79C4.73663 14.6482 5.61989 16.3659 7.01673 17.607C5.96673 18.47 4.97373 19.283 4.17573 19.934C4.04273 20.084 3.85773 20.474 4.17573 20.834C4.48173 21.182 4.89773 20.898 5.12573 20.743L5.15073 20.726L8.01573 18.358ZM9.49973 10.753V6.00002C10.2917 5.67002 11.1417 5.50002 11.9997 5.50202C13.0917 5.50202 14.1207 5.77202 15.0247 6.24702L9.49973 10.753Z" fill="url(#paint0_linear_624_905)"/>
</g>
<defs>
<linearGradient id="paint0_linear_624_905" x1="11.9999" y1="3.00024" x2="11.9999" y2="20.9998" gradientUnits="userSpaceOnUse">
<stop stop-color="white"/>
<stop offset="1" stop-color="#999999"/>
</linearGradient>
</defs>
</svg>
