<svg width="336" height="250" viewBox="0 0 336 250" fill="none" xmlns="http://www.w3.org/2000/svg">
<g clip-path="url(#clip0_316_775)">
<rect width="336" height="250" rx="20" fill="#1D1D1D"/>
<path opacity="0.2" d="M162.328 93.9666L79.0524 46.8608L78.666 90.025L161.942 137.131L162.328 93.9666Z" fill="url(#paint0_linear_316_775)"/>
<path opacity="0.15" d="M100.268 69.312L125.308 83.494L125.27 88.6721L100.229 74.4902L100.268 69.312Z" fill="white"/>
<path opacity="0.15" d="M100.19 79.707L153.518 109.887L153.479 115.143L100.152 84.9625L100.19 79.707Z" fill="white"/>
<path d="M95.8238 70.8969C95.7851 74.452 93.6597 76.1523 91.032 74.6452C88.4043 73.1768 86.3176 69.0807 86.3562 65.5255C86.3949 61.9704 88.5202 60.2701 91.148 61.7771C93.7757 63.2456 95.8624 67.3417 95.8238 70.8969Z" fill="#F2C94C"/>
<path opacity="0.2" d="M351.678 287.336L268.441 240.23L268.055 283.394L351.331 330.5L351.678 287.336Z" fill="url(#paint1_linear_316_775)"/>
<path opacity="0.1" d="M254.569 11.0001C238.88 14.0529 203.599 17.9945 188.219 9.2998C188.335 70.8194 203.406 158.114 252.675 230.106C302.718 214.301 319.141 144.859 320.3 84.0739C304.921 75.3406 270.065 31.7127 254.569 11.0001Z" fill="url(#paint2_linear_316_775)"/>
<path opacity="0.3" d="M235.402 23.752C219.713 26.8048 184.432 30.7464 169.052 22.0518C169.168 83.5714 184.238 170.866 233.508 242.858C283.551 227.053 299.974 157.573 301.133 96.8259C285.753 88.0926 250.897 44.4647 235.402 23.752Z" fill="url(#paint3_linear_316_775)"/>
<path opacity="0.4" d="M301.172 96.7877C285.754 88.0543 250.936 44.4651 235.44 23.7524L233.547 242.819C283.551 227.053 299.974 157.573 301.172 96.7877Z" fill="url(#paint4_linear_316_775)"/>
<path opacity="0.1" d="M151.74 139.99L229.296 182.691L229.335 325.167L151.779 282.505L151.74 139.99Z" fill="url(#paint5_linear_316_775)"/>
<path opacity="0.2" d="M161.787 223.266L220.254 255.455L220.408 306.541L161.942 274.352L161.787 223.266Z" fill="url(#paint6_linear_316_775)"/>
<path opacity="0.15" d="M162.83 189.26L189.88 204.137V209.393L162.83 194.515V189.26Z" fill="white"/>
<path opacity="0.15" d="M162.946 199.693L189.996 214.571V219.826L162.946 204.949V199.693Z" fill="white"/>
<path opacity="0.15" d="M162.908 209.741L214.225 237.989V243.244L162.908 214.996V209.741Z" fill="white"/>
<path opacity="0.2" d="M151.74 139.99L229.296 182.691L229.374 207.306L151.779 164.644L151.74 139.99Z" fill="url(#paint7_linear_316_775)"/>
<path opacity="0.2" d="M171.139 163.137C171.139 166.847 168.936 168.663 166.231 167.156C163.526 165.649 161.285 161.437 161.285 157.689C161.285 153.979 163.487 152.163 166.192 153.67C168.936 155.177 171.139 159.428 171.139 163.137Z" fill="white"/>
<path d="M197.802 222.802L197.725 201.625L250.318 230.569L250.395 251.745L197.802 222.802Z" fill="#F2C94C"/>
<path opacity="0.3" d="M137.751 133.382L22.7499 67.0322L22.7885 126.967L127.627 187.482L137.79 202.514L137.751 133.382Z" fill="url(#paint8_linear_316_775)"/>
<path d="M10.5 90.3727V74.104L53.896 99.1446V115.413L10.5 90.3727Z" fill="#F2994A"/>
<path opacity="0.15" d="M108.189 130.909L82.9941 116.379V121.635L108.189 136.165V130.909Z" fill="white"/>
<path opacity="0.15" d="M108.189 141.459L59.6152 113.442V118.698L108.189 146.714V141.459Z" fill="white"/>
<path opacity="0.15" d="M108.189 151.97L49.3362 118.002V123.258L108.189 157.225V151.97Z" fill="white"/>
<path d="M114.372 139.99C114.372 144.937 117.309 150.617 120.903 152.704C124.497 154.791 127.434 152.472 127.434 147.526C127.434 142.579 124.497 136.899 120.903 134.812C117.309 132.726 114.372 135.044 114.372 139.99Z" fill="#F2994A"/>
<path opacity="0.2" d="M100.731 195.134C103.05 196.448 104.905 199.694 104.905 202.36V214.146L112.711 218.629C115.029 219.943 116.884 223.189 116.884 225.855C116.884 228.522 115.029 229.604 112.711 228.29L104.905 223.807V235.593C104.905 238.26 103.05 239.342 100.731 238.028C98.4128 236.714 96.5579 233.468 96.5579 230.801V219.015L88.7521 214.494C86.4335 213.18 84.5786 209.934 84.5786 207.268C84.5786 204.602 86.4335 203.52 88.7521 204.833L96.5579 209.316V197.53C96.5579 194.902 98.4128 193.82 100.731 195.134Z" fill="url(#paint9_linear_316_775)"/>
</g>
<defs>
<linearGradient id="paint0_linear_316_775" x1="13.7063" y1="91.9958" x2="216.771" y2="91.9958" gradientUnits="userSpaceOnUse">
<stop stop-color="#8F68FF" stop-opacity="0.5"/>
<stop offset="0.504" stop-color="#FC72FF"/>
<stop offset="1" stop-color="#8F68FF" stop-opacity="0.5"/>
</linearGradient>
<linearGradient id="paint1_linear_316_775" x1="319.168" y1="268.931" x2="300.578" y2="301.785" gradientUnits="userSpaceOnUse">
<stop stop-color="white"/>
<stop offset="1" stop-color="white" stop-opacity="0"/>
</linearGradient>
<linearGradient id="paint2_linear_316_775" x1="85.6635" y1="119.703" x2="406.252" y2="119.703" gradientUnits="userSpaceOnUse">
<stop stop-color="#8F68FF" stop-opacity="0.5"/>
<stop offset="0.504" stop-color="#FC72FF"/>
<stop offset="1" stop-color="#8F68FF" stop-opacity="0.5"/>
</linearGradient>
<linearGradient id="paint3_linear_316_775" x1="66.4964" y1="132.455" x2="387.085" y2="132.455" gradientUnits="userSpaceOnUse">
<stop stop-color="#8F68FF" stop-opacity="0.5"/>
<stop offset="0.504" stop-color="#FC72FF"/>
<stop offset="1" stop-color="#8F68FF" stop-opacity="0.5"/>
</linearGradient>
<linearGradient id="paint4_linear_316_775" x1="306.754" y1="119.455" x2="220.403" y2="135.982" gradientUnits="userSpaceOnUse">
<stop stop-color="white"/>
<stop offset="1" stop-color="white" stop-opacity="0"/>
</linearGradient>
<linearGradient id="paint5_linear_316_775" x1="91.4908" y1="232.579" x2="279.829" y2="232.579" gradientUnits="userSpaceOnUse">
<stop stop-color="#8F68FF" stop-opacity="0.5"/>
<stop offset="0.47" stop-color="#FC72FF"/>
<stop offset="1" stop-color="#8F68FF" stop-opacity="0.5"/>
</linearGradient>
<linearGradient id="paint6_linear_316_775" x1="172.097" y1="224.391" x2="206.934" y2="298.678" gradientUnits="userSpaceOnUse">
<stop stop-color="white"/>
<stop offset="1" stop-color="white" stop-opacity="0"/>
</linearGradient>
<linearGradient id="paint7_linear_316_775" x1="178.048" y1="139.919" x2="202.315" y2="205.465" gradientUnits="userSpaceOnUse">
<stop stop-color="white"/>
<stop offset="1" stop-color="white" stop-opacity="0"/>
</linearGradient>
<linearGradient id="paint8_linear_316_775" x1="-66.5736" y1="134.773" x2="212.652" y2="134.773" gradientUnits="userSpaceOnUse">
<stop stop-color="#8F68FF" stop-opacity="0.5"/>
<stop offset="0.504" stop-color="#FC72FF"/>
<stop offset="1" stop-color="#8F68FF" stop-opacity="0.5"/>
</linearGradient>
<linearGradient id="paint9_linear_316_775" x1="108.805" y1="210.215" x2="88.572" y2="226.182" gradientUnits="userSpaceOnUse">
<stop stop-color="white"/>
<stop offset="1" stop-color="white" stop-opacity="0"/>
</linearGradient>
<clipPath id="clip0_316_775">
<rect width="336" height="250" rx="20" fill="white"/>
</clipPath>
</defs>
</svg>
