<svg width="20" height="20" viewBox="0 0 20 20" fill="none" xmlns="http://www.w3.org/2000/svg">
<g id="Social Icons">
<path id="Vector" d="M19.9998 9.85647C19.9998 12.5059 19.5557 14.655 19.0078 14.655C18.4599 14.655 18.0161 12.5065 18.0161 9.85647C18.0161 7.20646 18.4601 5.05792 19.0078 5.05792C19.5555 5.05792 19.9998 7.20627 19.9998 9.85647Z" fill="url(#paint0_linear_869_1016)"/>
<path id="Vector_2" d="M17.4688 9.85646C17.4688 12.8142 16.2061 15.2129 14.6485 15.2129C13.0908 15.2129 11.8281 12.8142 11.8281 9.85646C11.8281 6.8987 13.0906 4.5 14.6483 4.5C16.2059 4.5 17.4686 6.89793 17.4686 9.85646" fill="url(#paint1_linear_869_1016)"/>
<path id="Vector_3" d="M11.2812 9.8565C11.2812 12.9988 8.75578 15.5461 5.6407 15.5461C2.52561 15.5461 0 12.9982 0 9.8565C0 6.71481 2.52542 4.16675 5.6407 4.16675C8.75598 4.16675 11.2812 6.71423 11.2812 9.8565Z" fill="url(#paint2_linear_869_1016)"/>
</g>
<defs>
<linearGradient id="paint0_linear_869_1016" x1="19.0079" y1="9.93036" x2="14.0679" y2="12.6992" gradientUnits="userSpaceOnUse">
<stop stop-color="white"/>
<stop offset="1"/>
</linearGradient>
<linearGradient id="paint1_linear_869_1016" x1="14.6484" y1="9.93895" x2="8.57319" y2="18.6132" gradientUnits="userSpaceOnUse">
<stop stop-color="white"/>
<stop offset="1"/>
</linearGradient>
<linearGradient id="paint2_linear_869_1016" x1="5.6405" y1="9.94402" x2="1.1529" y2="22.0082" gradientUnits="userSpaceOnUse">
<stop stop-color="white"/>
<stop offset="1"/>
</linearGradient>
</defs>
</svg>
