<svg width="20" height="20" viewBox="0 0 20 20" fill="none" xmlns="http://www.w3.org/2000/svg">
<g id="Social Icons">
<path id="Vector" d="M12.0342 4.71577C12.2076 5.45093 12.8678 5.99858 13.6561 5.99858C14.5764 5.99858 15.3225 5.25249 15.3225 4.33218C15.3225 3.41187 14.5764 2.66577 13.6561 2.66577C12.8514 2.66577 12.1803 3.23608 12.024 3.99468C10.6764 4.13921 9.62402 5.28218 9.62402 6.66733C9.62402 6.67046 9.62402 6.6728 9.62402 6.67593C8.1584 6.73765 6.82012 7.15483 5.75762 7.81343C5.36309 7.50796 4.86777 7.32593 4.33027 7.32593C3.04043 7.32593 1.99512 8.37124 1.99512 9.66108C1.99512 10.597 2.54512 11.4033 3.33965 11.7759C3.41699 14.4869 6.3709 16.6673 10.0045 16.6673C13.6381 16.6673 16.5959 14.4845 16.6693 11.7712C17.4576 11.3962 18.0029 10.5923 18.0029 9.66187C18.0029 8.37202 16.9576 7.32671 15.6678 7.32671C15.1326 7.32671 14.6396 7.50718 14.2459 7.8103C13.174 7.14702 11.8209 6.72983 10.3404 6.67437C10.3404 6.67202 10.3404 6.67046 10.3404 6.66812C10.3404 5.67593 11.0779 4.85249 12.0342 4.71733V4.71577ZM5.66387 11.1431C5.70293 10.2962 6.26543 9.64624 6.91934 9.64624C7.57324 9.64624 8.07324 10.333 8.03418 11.1798C7.99512 12.0267 7.50684 12.3345 6.85215 12.3345C6.19746 12.3345 5.6248 11.99 5.66387 11.1431ZM13.0904 9.64624C13.7451 9.64624 14.3076 10.2962 14.3459 11.1431C14.385 11.99 13.8115 12.3345 13.1576 12.3345C12.5037 12.3345 12.0146 12.0275 11.9756 11.1798C11.9365 10.333 12.4357 9.64624 13.0904 9.64624ZM12.3123 13.1025C12.435 13.115 12.5131 13.2423 12.4654 13.3564C12.0631 14.3181 11.1131 14.9939 10.0045 14.9939C8.8959 14.9939 7.94668 14.3181 7.54355 13.3564C7.4959 13.2423 7.57402 13.115 7.69668 13.1025C8.41543 13.0298 9.19277 12.99 10.0045 12.99C10.8162 12.99 11.5928 13.0298 12.3123 13.1025Z" fill="url(#paint0_linear_869_1021)"/>
</g>
<defs>
<linearGradient id="paint0_linear_869_1021" x1="9.99888" y1="9.77437" x2="5.06197" y2="25.0802" gradientUnits="userSpaceOnUse">
<stop stop-color="white"/>
<stop offset="1"/>
</linearGradient>
</defs>
</svg>
