<svg width="21" height="21" viewBox="0 0 21 21" fill="none" xmlns="http://www.w3.org/2000/svg">
<path id="Vector" d="M19.467 0.233091L0.817251 8.70104C0.817251 8.70104 -0.0644826 9.0507 0.0037671 9.6956C0.0738543 10.3417 0.793364 10.6372 0.793364 10.6372L5.48606 12.4648C5.48606 12.4648 6.9025 17.8405 7.18127 18.8634C7.46005 19.8835 7.6837 19.9075 7.6837 19.9075C7.94331 20.0381 8.17929 19.8302 8.17929 19.8302L11.2112 16.6318L15.9364 20.8248C17.2145 21.47 17.6797 20.1257 17.6797 20.1257L21 0.744834C21 -0.54612 19.467 0.233091 19.467 0.233091ZM16.1653 18.567L11.1101 14.0825L9.5414 15.7369L9.88632 12.2171L16.6247 5.25L7.43957 11.199L3.36533 9.61255L18.9097 2.55412L16.1653 18.567Z" fill="url(#paint0_linear_869_1001)"/>
<defs>
<linearGradient id="paint0_linear_869_1001" x1="13.5" y1="5.5" x2="1.5" y2="31.5" gradientUnits="userSpaceOnUse">
<stop stop-color="white"/>
<stop offset="1"/>
</linearGradient>
</defs>
</svg>
