<svg width="24" height="24" viewBox="0 0 24 24" fill="none" xmlns="http://www.w3.org/2000/svg">
<g id="carbon:wifi-bridge-alt">
<path id="Vector" d="M9.75 19.5H8.25C8.24881 18.5058 7.85334 17.5527 7.15034 16.8497C6.44733 16.1467 5.4942 15.7512 4.5 15.75V14.25C5.89178 14.252 7.22598 14.8057 8.21012 15.7899C9.19426 16.774 9.74802 18.1082 9.75 19.5Z" fill="url(#paint0_linear_625_972)"/>
<path id="Vector_2" d="M13.5 19.5H12C11.998 17.5115 11.2072 15.605 9.80111 14.1989C8.39502 12.7928 6.48851 12.002 4.5 12V10.5C6.8861 10.5028 9.17367 11.4519 10.8609 13.1391C12.5481 14.8263 13.4972 17.1139 13.5 19.5ZM19.5 9.75C18.1082 9.74802 16.774 9.19426 15.7899 8.21012C14.8057 7.22598 14.252 5.89178 14.25 4.5H15.75C15.7512 5.4942 16.1467 6.44733 16.8497 7.15034C17.5527 7.85334 18.5058 8.24881 19.5 8.25V9.75Z" fill="url(#paint1_linear_625_972)"/>
<path id="Vector_3" d="M19.5 13.5C17.1139 13.4972 14.8263 12.5481 13.1391 10.8609C11.4519 9.17367 10.5028 6.8861 10.5 4.5H12C12.002 6.48851 12.7928 8.39502 14.1989 9.80111C15.605 11.2072 17.5115 11.998 19.5 12V13.5ZM5.78025 18.2197C5.6396 18.0791 5.44887 18.0002 5.25 18.0002C5.05113 18.0002 4.8604 18.0791 4.71975 18.2197L1.5 21.4395L2.5605 22.5L5.78025 19.2803C5.92085 19.1396 5.99984 18.9489 5.99984 18.75C5.99984 18.5511 5.92085 18.3604 5.78025 18.2197ZM21.4395 1.5L18.2197 4.71975C18.0831 4.8612 18.0075 5.05065 18.0092 5.2473C18.011 5.44395 18.0898 5.63206 18.2289 5.77111C18.3679 5.91017 18.5561 5.98905 18.7527 5.99076C18.9493 5.99246 19.1388 5.91687 19.2803 5.78025L22.5 2.5605L21.4395 1.5Z" fill="url(#paint2_linear_625_972)"/>
</g>
<defs>
<linearGradient id="paint0_linear_625_972" x1="7.125" y1="14.25" x2="7.125" y2="19.5" gradientUnits="userSpaceOnUse">
<stop stop-color="white"/>
<stop offset="1" stop-color="#999999"/>
</linearGradient>
<linearGradient id="paint1_linear_625_972" x1="12" y1="4.5" x2="12" y2="19.5" gradientUnits="userSpaceOnUse">
<stop stop-color="white"/>
<stop offset="1" stop-color="#999999"/>
</linearGradient>
<linearGradient id="paint2_linear_625_972" x1="12" y1="1.5" x2="12" y2="22.5" gradientUnits="userSpaceOnUse">
<stop stop-color="white"/>
<stop offset="1" stop-color="#999999"/>
</linearGradient>
</defs>
</svg>
