<svg width="16" height="20" viewBox="0 0 16 20" fill="none" xmlns="http://www.w3.org/2000/svg">
<path d="M8 0C8 0 3 2 3 10C3 13.1 3.76 15.75 4.67 17.83C4.82991 18.1806 5.08768 18.4775 5.41233 18.6851C5.73698 18.8926 6.11468 19.002 6.5 19H9.5C9.88532 19.002 10.263 18.8926 10.5877 18.6851C10.9123 18.4775 11.1701 18.1806 11.33 17.83C12.25 15.75 13 13.1 13 10C13 2 8 0 8 0ZM9.5 17H6.5C5.5 14.76 5 12.41 5 10C5 5.36 6.9 3.2 8 2.33C9.1 3.2 11 5.36 11 10C11 12.41 10.5 14.76 9.5 17ZM16 20L12.14 18.45C12.84 16.92 13.34 15.34 13.65 13.73M3.86 18.45L0 20L2.35 13.73C2.66 15.34 3.16 16.92 3.86 18.45ZM8 10C6.9 10 6 9.1 6 8C6 6.9 6.9 6 8 6C9.1 6 10 6.9 10 8C10 9.1 9.1 10 8 10Z" fill="#D9D9D9"/>
</svg>
