<svg width="116" height="21" viewBox="0 0 116 21" fill="none" xmlns="http://www.w3.org/2000/svg">
<path d="M17.523 17.4811C11.106 17.5767 7.8448 7.38726 14.1355 3.58751C9.50424 4.53672 8.5649 8.74314 8.67413 10.7277C2.67096 14.4554 2.26661 16.8549 2.81482 17.5887C4.29643 18.8073 9.34815 17.3247 11.6888 16.4311C13.3001 18.0234 16.2496 17.7946 17.523 17.4811Z" fill="white"/>
<path d="M17.644 13.453C25.0636 9.39188 22.8446 5.79013 20.6565 4.43508C26.6077 2.14494 28.9906 2.8549 29.2018 3.65404C29.38 6.54945 22.2886 11.0053 17.644 13.453C17.1952 13.6987 16.7112 13.946 16.1897 14.1946C16.6347 13.9759 17.124 13.7271 17.644 13.453Z" fill="white"/>
<path d="M116 15.0047H113.987V11.3157C113.987 10.2163 113.649 9.94758 112.351 9.94758H110.162C108.892 9.94758 108.527 10.2163 108.527 11.3157V15.0047H106.514V11.2546C106.514 9.14137 107.311 8.38403 110.027 8.38403H112.473C115.203 8.38403 116 9.14137 116 11.2546V15.0047Z" fill="white"/>
<path d="M105.006 15.0047H102.952V8.55505H105.006V15.0047ZM104.303 8.00537H103.641C103.141 8.00537 102.952 7.83435 102.952 7.44347V6.73499C102.952 6.3441 103.141 6.1853 103.641 6.1853H104.303C104.817 6.1853 105.006 6.3441 105.006 6.73499V7.44347C105.006 7.83435 104.817 8.00537 104.303 8.00537Z" fill="white"/>
<path d="M98.106 15.0047H94.1466C92.0385 15.0047 91.4709 14.3328 91.4709 13.2579V12.6349C91.4709 11.5233 91.9845 10.8881 94.0115 10.8881H99.4303V10.7416C99.4303 9.89872 99.0789 9.67884 98.1871 9.67884H91.4709V8.38403H98.1871C100.525 8.38403 101.444 9.14138 101.444 10.8271V12.4395C101.444 14.3573 100.701 15.0047 98.106 15.0047ZM99.4303 12.5738V12.0119H94.2277C93.7547 12.0119 93.4709 12.1585 93.4709 12.6838V13.1357C93.4709 13.5999 93.7817 13.7587 94.2952 13.7587H98.079C99.0249 13.7587 99.4303 13.5633 99.4303 12.5738Z" fill="white"/>
<path d="M89.9633 15.0047H87.9498V11.3157C87.9498 10.2041 87.612 9.9476 86.3687 9.9476H82.3553V15.0047H80.3418V6.2464H82.3553V8.38405H86.4228C89.166 8.38405 89.9633 9.1414 89.9633 11.2546V15.0047Z" fill="white"/>
<path d="M78.834 15.0047H73.5232C70.8071 15.0047 70.0098 14.2473 70.0098 12.1463V11.2546C70.0098 9.14137 70.8071 8.38403 73.5232 8.38403H78.8205V9.94758H73.5908C72.3205 9.94758 72.0232 10.2285 72.0232 11.3157V12.0974C72.0232 13.148 72.3341 13.4655 73.5908 13.4655H78.834V15.0047Z" fill="white"/>
<path d="M57.4535 12.3662H49.9266V12.6716C49.9266 13.4778 50.1968 13.6243 51.1428 13.6243H57.1142V15.0047H51.1428C48.8185 15.0047 47.9131 14.2473 47.9131 12.4883V10.9614C47.9131 9.03144 48.6563 8.38403 51.2374 8.38403H54.7779C56.8724 8.38403 57.4535 9.14137 57.4535 10.1919V12.3662ZM55.44 11.1935V10.3385C55.44 9.89872 55.2238 9.78878 54.6157 9.78878H51.2644C50.2509 9.78878 49.9266 9.8865 49.9266 10.8393V11.1935H55.44Z" fill="white"/>
<path d="M68.5018 12.3662H60.9749V12.6716C60.9749 13.4778 61.2452 13.6243 62.1911 13.6243H68.1625V15.0047H62.1911C59.8668 15.0047 58.9614 14.2473 58.9614 12.4883V10.9614C58.9614 9.03144 59.7047 8.38403 62.2857 8.38403H65.8262C67.9208 8.38403 68.5018 9.14137 68.5018 10.1919V12.3662ZM66.4883 11.1935V10.3385C66.4883 9.89872 66.2721 9.78878 65.664 9.78878H62.3127C61.2992 9.78878 60.9749 9.8865 60.9749 10.8393V11.1935H66.4883Z" fill="white"/>
<path d="M46.162 7.52895C46.162 7.82212 46.0269 8.09085 45.7701 8.29851L39.3108 13.4167H46.4053V15.0046H36.8919C36.3243 15.0046 36 14.6748 36 14.1862C36 13.8931 36.1351 13.6121 36.4189 13.3922L43.0134 8.27408H36.2162V6.67389H45.2701C45.8377 6.67389 46.162 7.05256 46.162 7.52895Z" fill="white"/>
</svg>
