<svg width="24" height="24" viewBox="0 0 24 24" fill="none" xmlns="http://www.w3.org/2000/svg">
<path d="M13.3523 13.3681L12.4673 15.7581C12.4432 15.8243 12.4432 15.8969 12.4673 15.9631L13.9903 20.0751L15.7503 19.0741L13.6373 13.3681C13.6265 13.339 13.607 13.3139 13.5816 13.2962C13.5561 13.2785 13.5258 13.269 13.4948 13.269C13.4637 13.269 13.4335 13.2785 13.408 13.2962C13.3825 13.3139 13.3631 13.339 13.3523 13.3681ZM15.1263 9.34911C15.1155 9.32002 15.096 9.29493 15.0706 9.27721C15.0451 9.2595 15.0148 9.25 14.9838 9.25C14.9527 9.25 14.9225 9.2595 14.897 9.27721C14.8715 9.29493 14.8521 9.32002 14.8413 9.34911L13.9563 11.7391C13.9322 11.8053 13.9322 11.8779 13.9563 11.9441L16.4503 18.6761L18.2113 17.6751L15.1263 9.34911Z" fill="url(#paint0_linear_15_180)"/>
<path d="M11.9964 4.115C12.0403 4.11664 12.0834 4.12791 12.1224 4.148L18.8374 7.966C18.8753 7.9876 18.9068 8.01871 18.9289 8.05625C18.951 8.09379 18.9629 8.13645 18.9634 8.18V15.815C18.9634 15.904 18.9154 15.985 18.8374 16.029L12.1224 19.848C12.084 19.8696 12.0405 19.8806 11.9964 19.88C11.9529 19.8785 11.9103 19.8676 11.8714 19.848L5.15644 16.033C5.11847 16.0113 5.08685 15.98 5.06474 15.9423C5.04263 15.9046 5.0308 15.8617 5.03044 15.818V8.182C5.03044 8.093 5.07844 8.012 5.15644 7.967L11.8714 4.149C11.9096 4.1273 11.9526 4.11561 11.9964 4.115ZM11.9964 3C11.7584 3 11.5184 3.06 11.3044 3.183L4.59144 7C4.38165 7.11806 4.20696 7.28969 4.08521 7.49735C3.96346 7.70502 3.89901 7.94128 3.89844 8.182V15.817C3.89844 16.304 4.16244 16.755 4.59144 16.998L11.3054 20.817C11.5169 20.9363 11.7556 20.9991 11.9984 20.9991C12.2413 20.9991 12.48 20.9363 12.6914 20.817L19.4054 16.999C19.6152 16.8809 19.7899 16.7093 19.9117 16.5016C20.0334 16.294 20.0979 16.0577 20.0984 15.817V8.182C20.0979 7.94128 20.0334 7.70502 19.9117 7.49735C19.7899 7.28969 19.6152 7.11806 19.4054 7L12.6894 3.183C12.4782 3.0629 12.2394 2.99983 11.9964 3Z" fill="url(#paint1_linear_15_180)"/>
<path d="M7.55888 18.6828L8.17587 17.0168L9.41988 18.0348L8.25688 19.0808L7.55888 18.6828ZM11.4329 7.63283H9.73088C9.66883 7.63216 9.6081 7.65075 9.55706 7.68603C9.50602 7.72131 9.46718 7.77155 9.44588 7.82983L5.79688 17.6818L7.55888 18.6828L11.5759 7.83383C11.5839 7.81108 11.5864 7.78672 11.583 7.76283C11.5796 7.73893 11.5705 7.71621 11.5565 7.69658C11.5424 7.67695 11.5239 7.66099 11.5024 7.65007C11.4808 7.63915 11.457 7.63258 11.4329 7.63283Z" fill="url(#paint2_linear_15_180)"/>
<path d="M14.4118 7.63282H12.7088C12.6469 7.63236 12.5864 7.65104 12.5356 7.68631C12.4847 7.72158 12.4461 7.7717 12.4248 7.82982L8.25781 19.0798L10.0188 20.0798L14.5538 7.83382C14.5618 7.81115 14.5643 7.78688 14.5609 7.76307C14.5576 7.73925 14.5486 7.71659 14.5347 7.69698C14.5208 7.67737 14.5023 7.6614 14.481 7.65041C14.4596 7.63942 14.4359 7.63273 14.4118 7.63282Z" fill="url(#paint3_linear_15_180)"/>
<defs>
<linearGradient id="paint0_linear_15_180" x1="12.4492" y1="14.6626" x2="18.2113" y2="14.6626" gradientUnits="userSpaceOnUse">
<stop stop-color="white"/>
<stop offset="1" stop-color="#999999"/>
</linearGradient>
<linearGradient id="paint1_linear_15_180" x1="3.89844" y1="11.9995" x2="20.0984" y2="11.9995" gradientUnits="userSpaceOnUse">
<stop stop-color="white"/>
<stop offset="1" stop-color="#999999"/>
</linearGradient>
<linearGradient id="paint2_linear_15_180" x1="5.79688" y1="13.3568" x2="11.5845" y2="13.3568" gradientUnits="userSpaceOnUse">
<stop stop-color="white"/>
<stop offset="1" stop-color="#999999"/>
</linearGradient>
<linearGradient id="paint3_linear_15_180" x1="8.25781" y1="13.8563" x2="14.5624" y2="13.8563" gradientUnits="userSpaceOnUse">
<stop stop-color="white"/>
<stop offset="1" stop-color="#999999"/>
</linearGradient>
</defs>
</svg>
