<svg width="24" height="24" viewBox="0 0 24 24" fill="none" xmlns="http://www.w3.org/2000/svg">
<path d="M6.06009 15.58L11.6701 5.96995C11.8301 5.68995 12.2301 5.66995 12.4201 5.92995L13.9801 8.01995C14.4301 8.61995 14.4601 9.42995 14.0701 10.07L10.7301 15.42C10.4001 15.95 9.82009 16.27 9.19009 16.27H6.4501C6.1001 16.26 5.88009 15.88 6.06009 15.58Z" fill="url(#paint0_linear_15_222)"/>
<path d="M15.2401 12.37L13.3201 15.57C13.1401 15.87 13.3601 16.26 13.7101 16.26H17.5501C17.9001 16.26 18.1201 15.88 17.9401 15.57L16.0201 12.37C15.8501 12.08 15.4201 12.08 15.2401 12.37Z" fill="url(#paint1_linear_15_222)"/>
<path opacity="0.1" d="M12 24C18.6274 24 24 18.6274 24 12C24 5.37258 18.6274 0 12 0C5.37258 0 0 5.37258 0 12C0 18.6274 5.37258 24 12 24Z" fill="url(#paint2_linear_15_222)"/>
<defs>
<linearGradient id="paint0_linear_15_222" x1="5.99585" y1="11.0084" x2="14.3417" y2="11.0084" gradientUnits="userSpaceOnUse">
<stop stop-color="white"/>
<stop offset="1" stop-color="#999999"/>
</linearGradient>
<linearGradient id="paint1_linear_15_222" x1="13.2559" y1="14.2062" x2="18.0043" y2="14.2062" gradientUnits="userSpaceOnUse">
<stop stop-color="white"/>
<stop offset="1" stop-color="#999999"/>
</linearGradient>
<linearGradient id="paint2_linear_15_222" x1="0" y1="12" x2="24" y2="12" gradientUnits="userSpaceOnUse">
<stop stop-color="white"/>
<stop offset="1" stop-color="#999999"/>
</linearGradient>
</defs>
</svg>
