<svg width="24" height="24" viewBox="0 0 24 24" fill="none" xmlns="http://www.w3.org/2000/svg">
<g clip-path="url(#clip0_15_198)">
<path d="M0.3597 9.16796C0.8877 7.05596 1.8917 5.23597 3.3717 3.70797C4.8517 2.17997 6.6157 1.11997 8.6637 0.527965C10.7117 -0.0640348 12.7917 -0.0960348 14.9037 0.431965C17.0157 0.959965 18.8357 1.96397 20.3637 3.44397C21.8917 4.92397 22.9517 6.68796 23.5437 8.73596C24.1357 10.784 24.1677 12.864 23.6397 14.976C23.1117 17.088 22.1077 18.908 20.6277 20.436C19.1477 21.964 17.3837 23.024 15.3357 23.616C13.2877 24.208 11.2077 24.24 9.0957 23.712C6.9837 23.184 5.1637 22.18 3.6357 20.7C2.1077 19.22 1.0477 17.456 0.4557 15.408C-0.1363 13.36 -0.1683 11.28 0.3597 9.16796ZM5.8317 15.672L7.5597 16.104C7.6717 16.12 7.8317 16.16 8.0397 16.224C8.2477 16.288 8.3997 16.328 8.4957 16.344L7.9437 18.528L9.2637 18.864L9.7917 16.704C9.8877 16.736 10.0557 16.78 10.2957 16.836C10.5357 16.892 10.7197 16.936 10.8477 16.968L10.3197 19.128L11.6397 19.44L12.1677 17.256C12.9357 17.384 13.6197 17.444 14.2197 17.436C14.8197 17.428 15.3477 17.264 15.8037 16.944C16.2597 16.624 16.5997 16.136 16.8237 15.48C17.3357 14.04 16.9277 12.976 15.5997 12.288C16.5597 12.08 17.1197 11.44 17.2797 10.368C17.4877 8.99197 16.6077 7.98396 14.6397 7.34396L15.1917 5.15997L13.8717 4.84797L13.3437 6.95996C13.2157 6.92796 13.0317 6.88397 12.7917 6.82796C12.5517 6.77197 12.3837 6.72797 12.2877 6.69597L12.8157 4.58397L11.4957 4.24797L10.9677 6.40796C10.7277 6.37596 10.4477 6.31196 10.1277 6.21597L8.3037 5.75996L7.9677 7.17596L8.9037 7.39196C9.3517 7.50396 9.5597 7.75996 9.5277 8.15997L8.9037 10.632C8.9357 10.632 8.9837 10.648 9.0477 10.68C9.0317 10.664 9.0077 10.656 8.9757 10.656C8.9437 10.656 8.9197 10.648 8.9037 10.632L8.0397 14.088C7.9597 14.376 7.7597 14.48 7.4397 14.4L6.4797 14.16L5.8317 15.672ZM10.2237 15.12L10.9437 12.216C10.9597 12.216 11.1157 12.248 11.4117 12.312C11.7077 12.376 11.9317 12.432 12.0837 12.48C12.2357 12.528 12.4597 12.6 12.7557 12.696C13.0517 12.792 13.2797 12.896 13.4397 13.008C13.5997 13.12 13.7677 13.252 13.9437 13.404C14.1197 13.556 14.2357 13.732 14.2917 13.932C14.3477 14.132 14.3437 14.352 14.2797 14.592C14.2317 14.768 14.1597 14.92 14.0637 15.048C13.9677 15.176 13.8477 15.272 13.7037 15.336C13.5597 15.4 13.4117 15.456 13.2597 15.504C13.1077 15.552 12.9237 15.572 12.7077 15.564C12.4917 15.556 12.3037 15.544 12.1437 15.528C11.9837 15.512 11.7917 15.48 11.5677 15.432C11.3437 15.384 11.1717 15.348 11.0517 15.324C10.9317 15.3 10.7757 15.264 10.5837 15.216C10.3917 15.168 10.2717 15.136 10.2237 15.12ZM11.2797 10.896L11.9277 8.25597C11.9757 8.27197 12.0757 8.29597 12.2277 8.32796C12.3797 8.35997 12.5117 8.38796 12.6237 8.41196C12.7357 8.43596 12.8797 8.47597 13.0557 8.53197C13.2317 8.58797 13.3837 8.63997 13.5117 8.68796C13.6397 8.73596 13.7837 8.80396 13.9437 8.89196C14.1037 8.97997 14.2237 9.06797 14.3037 9.15596C14.3837 9.24397 14.4757 9.35196 14.5797 9.47997C14.6837 9.60797 14.7317 9.73997 14.7237 9.87597C14.7157 10.012 14.7037 10.168 14.6877 10.344C14.6397 10.552 14.5557 10.724 14.4357 10.86C14.3157 10.996 14.1637 11.088 13.9797 11.136C13.7957 11.184 13.6157 11.22 13.4397 11.244C13.2637 11.268 13.0517 11.26 12.8037 11.22C12.5557 11.18 12.3637 11.148 12.2277 11.124C12.0917 11.1 11.9077 11.056 11.6757 10.992C11.4437 10.928 11.3117 10.896 11.2797 10.896Z" fill="url(#paint0_linear_15_198)"/>
</g>
<defs>
<linearGradient id="paint0_linear_15_198" x1="-0.0136719" y1="12.072" x2="24.0131" y2="12.072" gradientUnits="userSpaceOnUse">
<stop stop-color="white"/>
<stop offset="1" stop-color="#999999"/>
</linearGradient>
<clipPath id="clip0_15_198">
<rect width="24" height="24" fill="white"/>
</clipPath>
</defs>
</svg>
