<svg width="22" height="24" viewBox="0 0 22 24" fill="none" xmlns="http://www.w3.org/2000/svg">
<path d="M4.50392 3.6761L10.8727 0L17.2415 3.6761L14.9 5.03415L10.8727 2.7161L6.84539 5.03415L4.50392 3.6761ZM17.2415 8.31219L14.9 6.95415L10.8727 9.2722L6.84539 6.95415L4.50392 8.31219V11.0283L8.53123 13.3463V17.9824L10.8727 19.3405L13.2142 17.9824V13.3463L17.2415 11.0283V8.31219ZM17.2415 15.6644V12.9483L14.9 14.3063V17.0224L17.2415 15.6644ZM18.9039 16.6244L14.8766 18.9424V21.6585L21.2454 17.9824V10.6302L18.9039 11.9883V16.6244ZM16.5625 5.99415L18.9039 7.35219V10.0683L21.2454 8.71024V5.99415L18.9039 4.6361L16.5625 5.99415ZM8.53123 19.9259V22.642L10.8727 24L13.2142 22.642V19.9259L10.8727 21.2839L8.53123 19.9259ZM4.50392 15.6644L6.84539 17.0224V14.3063L4.50392 12.9483V15.6644ZM8.53123 5.99415L10.8727 7.35219L13.2142 5.99415L10.8727 4.6361L8.53123 5.99415ZM2.84146 7.35219L5.18293 5.99415L2.84146 4.6361L0.5 5.99415V8.71024L2.84146 10.0683V7.35219ZM2.84146 11.9883L0.5 10.6302V17.9824L6.86877 21.6585V18.9424L2.84146 16.6244V11.9883Z" fill="url(#paint0_linear_15_153)"/>
<defs>
<linearGradient id="paint0_linear_15_153" x1="0.5" y1="12" x2="21.2454" y2="12" gradientUnits="userSpaceOnUse">
<stop stop-color="white"/>
<stop offset="1" stop-color="#999999"/>
</linearGradient>
</defs>
</svg>
