<svg width="24" height="24" viewBox="0 0 24 24" fill="none" xmlns="http://www.w3.org/2000/svg">
<path d="M12.928 6.082L13.389 3.107C12.9295 3.0355 12.4651 2.99973 12 3H11.995V9.075H12C12.259 9.075 12.506 9.109 12.754 9.171L13.541 6.211C13.3391 6.15736 13.1344 6.1143 12.928 6.082ZM10.538 9.469L9.018 6.864C8.84202 6.96789 8.67147 7.08071 8.507 7.202L6.7 4.727C7.07871 4.4465 7.48009 4.19797 7.9 3.984L9.278 6.667C9.56 6.527 9.841 6.403 10.139 6.307L9.204 3.44C9.6524 3.29523 10.1115 3.18589 10.577 3.113L11.061 6.14C10.8558 6.17068 10.6528 6.2141 10.453 6.27L11.241 9.177C10.9937 9.24087 10.7566 9.33952 10.537 9.47M3.972 7.922L6.706 9.312C6.566 9.592 6.441 9.874 6.346 10.172L3.432 9.227C3.578 8.77767 3.758 8.34267 3.972 7.922ZM17.135 9.019L14.53 10.537C14.66 10.757 14.755 10.987 14.823 11.235L17.731 10.448C17.7877 10.65 17.831 10.8523 17.861 11.055L20.886 10.577C20.8121 10.1097 20.7014 9.64892 20.555 9.199L17.685 10.138C17.5918 9.8398 17.4734 9.55009 17.331 9.272L20.009 7.894C19.795 7.47605 19.5485 7.0755 19.272 6.696L16.798 8.5C16.922 8.669 17.034 8.838 17.136 9.018M14.768 3.432C15.218 3.578 15.656 3.758 16.073 3.972L14.683 6.7C14.4075 6.56017 14.1217 6.44182 13.828 6.346L14.768 3.432ZM14.987 6.807L13.457 9.462C13.682 9.592 13.884 9.743 14.064 9.929L18.351 5.626C18.0188 5.29284 17.6611 4.98623 17.281 4.709L15.51 7.151C15.3428 7.02792 15.1682 6.91537 14.987 6.814V6.807ZM9.463 10.542L6.808 9.012C6.915 8.832 7.033 8.658 7.151 8.489L4.71 6.718C4.98727 6.33826 5.29388 5.98083 5.627 5.649L9.93 9.936C9.74867 10.116 9.593 10.3183 9.463 10.543M6.212 10.459L9.171 11.246C9.10716 11.4922 9.0749 11.7456 9.075 12H3C3 11.533 3.034 11.06 3.112 10.605L6.082 11.066C6.116 10.864 6.162 10.656 6.212 10.459ZM17.293 14.689L20.027 16.079C20.241 15.656 20.42 15.217 20.567 14.773L17.653 13.828C17.557 14.121 17.433 14.413 17.293 14.688M13.468 14.53L14.976 17.135C15.1567 17.0337 15.329 16.921 15.493 16.797L17.299 19.272C16.9209 19.5524 16.5202 19.8009 16.101 20.015L14.722 17.332C14.442 17.472 14.16 17.596 13.856 17.692L14.796 20.56C14.346 20.7 13.884 20.813 13.417 20.886L12.939 17.86C13.1417 17.8313 13.3443 17.788 13.547 17.73L12.759 14.823C13.0048 14.7556 13.2411 14.6571 13.462 14.53H13.468ZM6.864 14.98L9.469 13.462C9.33904 13.2442 9.2404 13.0093 9.176 12.764L6.268 13.551C6.21214 13.3516 6.16872 13.1488 6.138 12.944L3.112 13.422C3.18667 13.89 3.29733 14.3493 3.444 14.8L6.314 13.86C6.40933 14.158 6.527 14.447 6.667 14.727L3.99 16.106C4.204 16.522 4.451 16.927 4.727 17.304L7.202 15.5C7.07875 15.3345 6.96587 15.1615 6.864 14.982M9.232 20.568C8.78353 20.4225 8.34718 20.2419 7.927 20.028L9.311 17.3C9.59233 17.44 9.879 17.558 10.171 17.654L9.232 20.568ZM9.013 17.193L10.543 14.538C10.3218 14.4105 10.1179 14.2552 9.936 14.076L5.649 18.38C5.981 18.706 6.341 19.015 6.719 19.29L8.49 16.855C8.65867 16.9737 8.833 17.0863 9.013 17.193ZM14.537 13.458L17.187 14.988C17.0855 15.1712 16.9726 15.3479 16.849 15.517L19.284 17.283C19.0089 17.6642 18.7043 18.0233 18.373 18.357L14.07 14.065C14.2507 13.885 14.4063 13.6827 14.537 13.458ZM11.247 14.83L10.459 17.79C10.661 17.845 10.864 17.885 11.072 17.918L10.611 20.894C11.0705 20.9655 11.5349 21.0013 12 21.001H12.006V14.926H12C11.7456 14.9261 11.4932 14.8938 11.247 14.83ZM14.828 12.755C14.8918 12.5088 14.9241 12.2554 14.924 12.001H21C21 12.468 20.966 12.941 20.887 13.396L17.917 12.935C17.883 13.1391 17.84 13.3417 17.788 13.542L14.828 12.755Z" fill="url(#paint0_linear_15_169)"/>
<defs>
<linearGradient id="paint0_linear_15_169" x1="3" y1="12.0005" x2="21" y2="12.0005" gradientUnits="userSpaceOnUse">
<stop stop-color="white"/>
<stop offset="1" stop-color="#999999"/>
</linearGradient>
</defs>
</svg>
