<svg width="25" height="24" viewBox="0 0 25 24" fill="none" xmlns="http://www.w3.org/2000/svg">
<path fill-rule="evenodd" clip-rule="evenodd" d="M6.08204 20.6068C3.4615 18.6489 1.76489 15.5225 1.76489 12C1.76489 6.07149 6.57149 1.26489 12.5 1.26489C17.3946 1.26489 22.7374 4.19065 24.0298 8.66728C22.5862 3.6627 17.972 0 12.5 0C5.87305 0 0.5 5.37305 0.5 12C0.5 18.6269 5.87305 24 12.5 24C19.1269 24 24.5 18.6269 24.5 12V11.3676H23.8401C23.8208 11.3676 23.7906 11.3676 23.7521 11.3676C23.6751 11.3676 23.5623 11.3648 23.4193 11.3593C23.1361 11.3511 22.7429 11.3318 22.3029 11.2933C21.4038 11.2163 20.3753 11.0623 19.6769 10.7819C18.5522 10.3336 17.917 9.73694 17.1911 9.04125L17.1499 9C16.4239 8.30156 15.6072 7.51787 14.1911 6.84968C12.797 6.19248 11.2544 6.29973 10.1214 6.53071C9.54675 6.64895 9.05179 6.80568 8.70257 6.93217C8.52658 6.99542 8.38634 7.05316 8.28735 7.09441C7.71815 7.33364 7.16269 7.61961 6.60449 7.88084C6.60449 7.88084 7.70165 8.18332 8.2461 8.35105C8.26535 8.35655 8.2956 8.36755 8.33685 8.3813C8.41659 8.4088 8.53483 8.45005 8.67782 8.50779C8.9638 8.62328 9.34051 8.79927 9.71173 9.0385C10.2974 9.41522 10.7841 9.88818 10.9821 10.4711C9.73923 10.6334 8.57333 11.1806 7.6989 11.6948C7.17094 12.0055 6.73098 12.3162 6.42301 12.55C6.26902 12.6654 6.14528 12.7644 6.06279 12.8332C5.99129 12.8909 4.86939 13.8808 4.86939 13.8808C4.86939 13.8808 6.31852 14.0348 7.03346 14.1778C7.50917 14.2741 8.14986 14.428 8.81806 14.6618C9.489 14.8955 10.1682 15.2035 10.7319 15.5967C11.2956 15.9899 11.7108 16.4464 11.9143 16.9661C12.5083 18.484 11.9253 19.9633 10.7539 20.7938C9.59624 21.6187 7.83914 21.8139 6.08204 20.6068ZM10.1764 22.4849C10.6494 22.3309 11.0894 22.1082 11.4881 21.8277C13.0802 20.6948 13.9189 18.6214 13.0912 16.5096C12.7667 15.6792 12.1453 15.044 11.4551 14.5628C10.7649 14.0816 9.97021 13.7269 9.23327 13.4711C8.74931 13.3034 8.28185 13.1714 7.87489 13.0724C8.02062 12.9789 8.17736 12.8799 8.34235 12.7837C9.31577 12.2117 10.5394 11.6865 11.7136 11.6865C13.4844 11.6865 14.8016 12.2282 16.0582 12.8112C16.1737 12.8634 16.2864 12.9184 16.4019 12.9734C17.5266 13.5014 18.7062 14.0541 20.0784 14.0541C21.4093 14.0541 22.4459 13.6774 23.1609 13.2896C22.5257 18.6132 17.994 22.7379 12.5 22.7379C11.7026 22.7379 10.9244 22.6499 10.1764 22.4849ZM21.797 12.5115C21.324 12.6737 20.7521 12.7892 20.0811 12.7892C19.006 12.7892 18.0793 12.3575 16.9051 11.8103C16.8006 11.7608 16.6962 11.714 16.5889 11.6645C15.412 11.1201 14.0536 10.5426 12.2828 10.4381C12.0463 9.26673 11.1581 8.46379 10.3964 7.97708C10.3112 7.92209 10.2259 7.86984 10.1434 7.8231C10.2204 7.8066 10.2974 7.78735 10.3772 7.77085C11.4001 7.55912 12.621 7.50688 13.6549 7.99358C14.8813 8.57104 15.5742 9.23648 16.2947 9.92667L16.3194 9.95142C17.0619 10.6636 17.8456 11.4088 19.2122 11.956C19.9684 12.2585 20.9528 12.4207 21.797 12.5115Z" fill="url(#paint0_linear_15_234)"/>
<defs>
<linearGradient id="paint0_linear_15_234" x1="0.5" y1="12" x2="24.5" y2="12" gradientUnits="userSpaceOnUse">
<stop stop-color="white"/>
<stop offset="1" stop-color="#999999"/>
</linearGradient>
</defs>
</svg>
