<svg width="25" height="24" viewBox="0 0 25 24" fill="none" xmlns="http://www.w3.org/2000/svg">
<rect x="0.5" width="24" height="24" rx="12" fill="url(#paint0_linear_15_188)" fill-opacity="0.1"/>
<path fill-rule="evenodd" clip-rule="evenodd" d="M4.466 15.801C5.11867 16.2677 5.956 16.501 6.978 16.501C8.214 16.501 9.20133 16.2217 9.94 15.663C10.6787 15.0963 11.1983 14.2423 11.499 13.101C11.679 12.401 11.8337 11.68 11.963 10.938C12.005 10.6727 12.0263 10.4517 12.027 10.275C12.027 9.69233 11.8767 9.19267 11.576 8.776C11.2661 8.34454 10.8358 8.01408 10.339 7.826C9.815 7.60933 9.22267 7.501 8.562 7.501C6.13267 7.501 4.626 8.64667 4.042 10.938C3.86306 11.6545 3.704 12.3757 3.565 13.101C3.52633 13.3243 3.50467 13.549 3.5 13.775C3.5 14.651 3.822 15.3263 4.466 15.801ZM9.116 13.026C8.869 13.983 8.19 14.606 7.158 14.606C6.138 14.606 5.79 13.916 5.974 13.026C6.102 12.3369 6.25678 11.6531 6.438 10.976C6.703 9.942 7.328 9.396 8.394 9.396C9.411 9.396 9.742 10.076 9.567 10.976C9.44063 11.6644 9.2902 12.3481 9.116 13.026ZM13.018 16.411C13.0687 16.471 13.14 16.5007 13.232 16.5H14.936C15.0232 16.4985 15.1072 16.4671 15.174 16.411C15.2484 16.3545 15.2978 16.2713 15.312 16.179L15.85 13.659H17.583C18.677 13.659 19.533 13.129 20.159 12.657C20.7943 12.1857 21.2163 11.457 21.425 10.471C21.475 10.239 21.5 10.0157 21.5 9.801C21.5 9.05633 21.2163 8.48633 20.649 8.091C20.089 7.697 19.3457 7.5 18.419 7.5H15.086C14.9987 7.50176 14.9146 7.53354 14.848 7.59C14.7752 7.64784 14.7261 7.73038 14.71 7.822L12.98 16.178C12.9704 16.2172 12.9688 16.258 12.9753 16.2979C12.9819 16.3377 12.9964 16.3769 13.018 16.411ZM19.108 10.444C18.951 11.133 18.351 11.763 17.646 11.763H16.206L16.702 9.394H18.205C18.717 9.394 19.145 9.496 19.145 10.059C19.145 10.169 19.1327 10.2973 19.108 10.444Z" fill="url(#paint1_linear_15_188)"/>
<defs>
<linearGradient id="paint0_linear_15_188" x1="0.5" y1="12" x2="24.5" y2="12" gradientUnits="userSpaceOnUse">
<stop stop-color="white"/>
<stop offset="1" stop-color="#999999"/>
</linearGradient>
<linearGradient id="paint1_linear_15_188" x1="3.5" y1="12.0005" x2="21.5" y2="12.0005" gradientUnits="userSpaceOnUse">
<stop stop-color="white"/>
<stop offset="1" stop-color="#999999"/>
</linearGradient>
</defs>
</svg>
