<svg width="24" height="24" viewBox="0 0 24 24" fill="none" xmlns="http://www.w3.org/2000/svg">
<g clip-path="url(#clip0_15_147)">
<path opacity="0.1" d="M12 0C18.6278 0 24 5.37225 24 12C24 18.6278 18.6278 24 12 24C5.37225 24 0 18.6278 0 12C0 5.37225 5.37225 0 12 0Z" fill="url(#paint0_linear_15_147)"/>
<path d="M16.1072 9.23314C15.9508 9.14982 15.7764 9.10624 15.5992 9.10624C15.4221 9.10624 15.2476 9.14982 15.0913 9.23314L12.8012 10.5875L11.2014 11.4766L8.91128 12.8316C8.75494 12.915 8.5805 12.9585 8.40334 12.9585C8.22618 12.9585 8.05174 12.915 7.8954 12.8316L6.07534 11.7725C5.92554 11.6861 5.80024 11.5629 5.7113 11.4146C5.62235 11.2663 5.5727 11.0978 5.56703 10.925V8.8107C5.5638 8.63602 5.60972 8.46394 5.69956 8.31409C5.78941 8.16424 5.91955 8.04266 6.07515 7.9632L7.8954 6.94751C8.05163 6.86384 8.22612 6.82006 8.40334 6.82006C8.58057 6.82006 8.75505 6.86384 8.91128 6.94751L10.7313 7.96339C10.8811 8.0498 11.0064 8.17297 11.0953 8.32126C11.1842 8.46956 11.2338 8.63808 11.2395 8.81089V10.1643L12.8012 9.23333V7.92158C12.8054 7.74775 12.7608 7.57622 12.6725 7.42643C12.5843 7.27663 12.4558 7.15457 12.3017 7.07408L8.9529 5.12745C8.79667 5.04378 8.62219 5 8.44497 5C8.26774 5 8.09326 5.04378 7.93703 5.12745L4.55115 7.07408C4.38212 7.13974 4.23803 7.25692 4.13929 7.40903C4.04056 7.56114 3.99219 7.74045 4.00103 7.92158V11.8574C3.99855 12.0314 4.04486 12.2025 4.1347 12.3515C4.22454 12.5005 4.35433 12.6214 4.50934 12.7004L7.8954 14.6517C8.05174 14.735 8.22618 14.7786 8.40334 14.7786C8.5805 14.7786 8.75494 14.735 8.91128 14.6517L11.2014 13.3392L12.7674 12.4083L15.0497 11.1001C15.206 11.0168 15.3804 10.9732 15.5576 10.9732C15.7347 10.9732 15.9092 11.0168 16.0655 11.1001L17.8856 12.116C18.0353 12.2024 18.1605 12.3256 18.2493 12.4739C18.3381 12.6222 18.3876 12.7907 18.3932 12.9635V15.0376C18.3964 15.2121 18.3505 15.384 18.2608 15.5337C18.1711 15.6835 18.041 15.8049 17.8856 15.8843L16.0655 16.9418C15.9093 17.0255 15.7348 17.0693 15.5576 17.0693C15.3804 17.0693 15.2059 17.0255 15.0497 16.9418L13.2296 15.926C13.0798 15.8397 12.9546 15.7168 12.8656 15.5686C12.7767 15.4205 12.727 15.2521 12.7213 15.0794V13.72L11.2014 14.6084V15.962C11.1981 16.1366 11.2439 16.3087 11.3336 16.4585C11.4234 16.6084 11.5534 16.73 11.709 16.8095L15.095 18.7559C15.2514 18.8396 15.426 18.8833 15.6033 18.8833C15.7807 18.8833 15.9553 18.8396 16.1117 18.7559L19.4975 16.8091C19.6463 16.7224 19.7706 16.5992 19.8588 16.4513C19.947 16.3033 19.9961 16.1354 20.0015 15.9633V12.0258C20.0048 11.8512 19.9588 11.6791 19.8689 11.5294C19.7791 11.3797 19.6489 11.2582 19.4932 11.179L16.1072 9.23314Z" fill="url(#paint1_linear_15_147)"/>
</g>
<defs>
<linearGradient id="paint0_linear_15_147" x1="0" y1="12" x2="24" y2="12" gradientUnits="userSpaceOnUse">
<stop stop-color="white"/>
<stop offset="1" stop-color="#999999"/>
</linearGradient>
<linearGradient id="paint1_linear_15_147" x1="4" y1="11.9417" x2="20.0017" y2="11.9417" gradientUnits="userSpaceOnUse">
<stop stop-color="white"/>
<stop offset="1" stop-color="#999999"/>
</linearGradient>
<clipPath id="clip0_15_147">
<rect width="24" height="24" fill="white"/>
</clipPath>
</defs>
</svg>
