<svg width="24" height="19" viewBox="0 0 24 19" fill="none" xmlns="http://www.w3.org/2000/svg">
<g clip-path="url(#clip0_15_130)">
<path d="M4.03243 14.1201C4.17487 13.9776 4.37072 13.8945 4.57845 13.8945H23.4159C23.7602 13.8945 23.9323 14.31 23.6889 14.5533L19.9677 18.2745C19.8253 18.417 19.6294 18.5 19.4217 18.5H0.584233C0.240007 18.5 0.0678934 18.0846 0.311226 17.8413L4.03243 14.1201Z" fill="url(#paint0_linear_15_130)"/>
<path d="M4.03229 0.225589C4.18067 0.0831502 4.37652 6.10352e-05 4.57831 6.10352e-05H23.4158C23.76 6.10352e-05 23.9321 0.415507 23.6888 0.658839L19.9676 4.38005C19.8252 4.52248 19.6293 4.60557 19.4216 4.60557H0.584096C0.239869 4.60557 0.0677561 4.19013 0.311088 3.94679L4.03229 0.225589Z" fill="url(#paint1_linear_15_130)"/>
<path d="M19.9676 7.12793C19.8252 6.98549 19.6293 6.9024 19.4216 6.9024H0.584096C0.239869 6.9024 0.0677561 7.31785 0.311088 7.56118L4.03229 11.2824C4.17473 11.4248 4.37059 11.5079 4.57831 11.5079H23.4158C23.76 11.5079 23.9321 11.0925 23.6888 10.8491L19.9676 7.12793Z" fill="url(#paint2_linear_15_130)"/>
</g>
<defs>
<linearGradient id="paint0_linear_15_130" x1="0.197266" y1="16.1973" x2="23.8029" y2="16.1973" gradientUnits="userSpaceOnUse">
<stop stop-color="white"/>
<stop offset="1" stop-color="#999999"/>
</linearGradient>
<linearGradient id="paint1_linear_15_130" x1="0.197128" y1="2.30282" x2="23.8028" y2="2.30282" gradientUnits="userSpaceOnUse">
<stop stop-color="white"/>
<stop offset="1" stop-color="#999999"/>
</linearGradient>
<linearGradient id="paint2_linear_15_130" x1="0.197128" y1="9.20516" x2="23.8028" y2="9.20516" gradientUnits="userSpaceOnUse">
<stop stop-color="white"/>
<stop offset="1" stop-color="#999999"/>
</linearGradient>
<clipPath id="clip0_15_130">
<rect width="24" height="18.4992" fill="white"/>
</clipPath>
</defs>
</svg>
