<svg width="24" height="26" viewBox="0 0 24 26" fill="none" xmlns="http://www.w3.org/2000/svg">
<path fill-rule="evenodd" clip-rule="evenodd" d="M15.7332 9.09509C15.6457 8.94468 15.6582 8.75668 15.7582 8.60627L19.9369 2.40206C20.0494 2.22659 20.062 2.01351 19.9619 1.83804C19.8618 1.65003 19.6741 1.54977 19.474 1.54977H17.8476C17.6724 1.54977 17.4973 1.6375 17.3846 1.80044L12.5054 9.07003C12.3804 9.25803 12.1802 9.3583 11.955 9.3583H11.342C11.1168 9.3583 10.9166 9.24549 10.7915 9.07003L5.93732 1.78791C5.83724 1.62496 5.64958 1.53723 5.47443 1.53723H3.84803C3.64786 1.53723 3.44769 1.65003 3.36011 1.83804C3.26003 2.02605 3.28504 2.23913 3.38514 2.40206L7.56372 8.61881C7.66381 8.75668 7.67631 8.94468 7.58875 9.09509C7.50117 9.25803 7.35104 9.34577 7.17589 9.34577H0.782895C0.470126 9.34577 0.232422 9.59644 0.232422 9.89725V11.2509C0.232422 11.5642 0.482637 11.8024 0.782895 11.8024H22.5391C22.8518 11.8024 23.0895 11.5517 23.0895 11.2509V9.89725C23.0895 9.60897 22.8769 9.38337 22.6017 9.34577C22.5766 9.34577 22.5516 9.34577 22.5266 9.34577H16.1461C15.9709 9.34577 15.8083 9.25803 15.7332 9.09509ZM10.804 17.0791L5.92482 24.3487C5.82473 24.5116 5.63707 24.5994 5.46191 24.5994H3.83551C3.63534 24.5994 3.44768 24.4865 3.34759 24.3111C3.24751 24.1355 3.26003 23.91 3.37262 23.7471L7.5387 17.5429C7.63878 17.3925 7.6513 17.2169 7.56372 17.0541C7.47614 16.9036 7.32602 16.8034 7.15086 16.8034H0.782895C0.482637 16.8034 0.232422 16.5652 0.232422 16.2518V14.8982C0.232422 14.5975 0.470126 14.3468 0.782895 14.3468H22.4891C22.4891 14.3468 22.5266 14.3468 22.5391 14.3468C22.8394 14.3468 23.0895 14.5849 23.0895 14.8982V16.2518C23.0895 16.5527 22.8518 16.8034 22.5391 16.8034H16.1586C15.9709 16.8034 15.8209 16.8911 15.7458 17.0541C15.6582 17.2169 15.6707 17.3925 15.7708 17.5303L19.9494 23.7471C20.0494 23.91 20.0745 24.1231 19.9743 24.3111C19.8743 24.4991 19.6867 24.6119 19.4865 24.6119H17.8601C17.6724 24.6119 17.5098 24.5242 17.4097 24.3738L12.5305 17.1042C12.4054 16.9162 12.2052 16.8159 11.9801 16.8159H11.367C11.1418 16.8159 10.9416 16.9287 10.8165 17.1042L10.804 17.0791Z" fill="url(#paint0_linear_15_204)"/>
<defs>
<linearGradient id="paint0_linear_15_204" x1="0.232422" y1="13.0746" x2="23.0895" y2="13.0746" gradientUnits="userSpaceOnUse">
<stop stop-color="white"/>
<stop offset="1" stop-color="#999999"/>
</linearGradient>
</defs>
</svg>
