<svg width="390" height="294" viewBox="0 0 390 294" fill="none" xmlns="http://www.w3.org/2000/svg">
<rect x="44.5664" y="91.918" width="88.817" height="88.817" rx="6.03619" fill="white" fill-opacity="0.08"/>
<rect x="143.691" y="84.8242" width="102.811" height="102.811" rx="6.03619" transform="rotate(0.107323 143.691 84.8242)" fill="url(#paint0_linear_75_745)" fill-opacity="0.15" stroke="url(#paint1_linear_75_745)" stroke-width="1.50905"/>
<rect x="259.207" y="92.125" width="88.817" height="88.817" rx="6.03619" fill="white" fill-opacity="0.08"/>
<rect x="355.547" y="91.918" width="88.817" height="88.817" rx="6.03619" fill="white" fill-opacity="0.08"/>
<rect x="-54.3633" y="91.918" width="88.817" height="88.817" rx="6.03619" fill="white" fill-opacity="0.08"/>
<rect x="133.699" y="198.93" width="48.7552" height="48.7552" rx="6.03619" fill="url(#paint2_linear_75_745)" fill-opacity="0.08"/>
<rect x="234.828" y="240.875" width="48.7552" height="48.7552" rx="6.03619" fill="url(#paint3_linear_75_745)" fill-opacity="0.08"/>
<rect y="-5.85938" width="48.7552" height="48.7552" rx="6.03619" fill="url(#paint4_linear_75_745)" fill-opacity="0.08"/>
<rect x="-16.0469" y="187.828" width="48.7552" height="48.7552" rx="6.03619" fill="url(#paint5_linear_75_745)" fill-opacity="0.08"/>
<rect x="113.51" y="-5.85938" width="48.7552" height="48.7552" rx="6.03619" fill="url(#paint6_linear_75_745)" fill-opacity="0.08"/>
<rect x="348.023" y="234.266" width="48.7552" height="48.7552" rx="6.03619" fill="url(#paint7_linear_75_745)" fill-opacity="0.08"/>
<rect x="58.6992" y="244.746" width="48.7552" height="48.7552" rx="6.03619" fill="url(#paint8_linear_75_745)" fill-opacity="0.08"/>
<rect x="227.02" y="-5.85938" width="48.7552" height="48.7552" rx="6.03619" fill="url(#paint9_linear_75_745)" fill-opacity="0.08"/>
<path d="M195.495 110.496C188.132 110.496 183.361 115.712 177.716 117.613C175.422 118.388 174.273 118.773 173.81 119.318C173.345 119.861 173.209 120.659 172.937 122.25C170.026 139.29 176.389 155.043 191.561 161.176C193.191 161.835 194.007 162.163 195.503 162.163C196.998 162.163 197.817 161.832 199.447 161.173C214.619 155.043 220.974 139.29 218.063 122.25C217.789 120.659 217.655 119.861 217.19 119.316C216.725 118.771 215.578 118.386 213.284 117.613C207.637 115.712 202.857 110.496 195.495 110.496Z" stroke="url(#paint10_linear_75_745)" stroke-width="1.5" stroke-linecap="round" stroke-linejoin="round"/>
<path d="M195.499 146.664C195.861 146.664 196.197 146.499 196.866 146.173L202.255 143.53C204.639 142.36 205.833 141.776 205.833 140.852V129.227M195.499 146.664C195.138 146.664 194.802 146.499 194.133 146.173L188.744 143.53C186.36 142.36 185.166 141.776 185.166 140.852V129.227M195.499 146.664V135.039M205.833 129.227C205.833 128.302 204.639 127.718 202.255 126.548L196.869 123.907C196.194 123.579 195.858 123.414 195.499 123.414C195.138 123.414 194.802 123.579 194.133 123.905L188.744 126.55C186.36 127.718 185.166 128.302 185.166 129.227M205.833 129.227C205.833 130.151 204.639 130.735 202.255 131.905L196.866 134.546C196.194 134.874 195.858 135.039 195.499 135.039M185.166 129.227C185.166 130.151 186.36 130.735 188.744 131.905L194.133 134.546C194.804 134.874 195.14 135.039 195.499 135.039" stroke="#FC72FF" stroke-width="2" stroke-linecap="round" stroke-linejoin="round"/>
<path d="M311.902 121.445L301.402 115.539L290.902 121.445M311.902 121.445V133.257L301.402 139.164M311.902 121.445L301.402 127.351M301.402 139.164L290.902 133.257V121.445M301.402 139.164V127.351M290.902 121.445L301.402 127.351" stroke="#FC72FF" stroke-width="1.31247" stroke-linecap="round" stroke-linejoin="round"/>
<path d="M322.025 139.816L311.525 133.91L301.025 139.816M322.025 139.816V151.628L311.525 157.535M322.025 139.816L311.525 145.722M311.525 157.535L301.025 151.628V139.816M311.525 157.535V145.722M301.025 139.816L311.525 145.722" stroke="#FC72FF" stroke-width="1.31247" stroke-linecap="round" stroke-linejoin="round"/>
<path d="M301.025 139.254L290.525 133.348L280.025 139.254M301.025 139.254V151.066L290.525 156.972M301.025 139.254L290.525 145.16M290.525 156.972L280.025 151.066V139.254M290.525 156.972V145.16M280.025 139.254L290.525 145.16" stroke="#FC72FF" stroke-width="1.31247" stroke-linecap="round" stroke-linejoin="round"/>
<path d="M97.3296 121.445L86.8298 115.539L76.3301 121.445M97.3296 121.445V133.257L86.8298 139.164M97.3296 121.445L86.8298 127.351M86.8298 139.164L76.3301 133.257V121.445M86.8298 139.164V127.351M76.3301 121.445L86.8298 127.351" stroke="#FC72FF" stroke-width="1.31247" stroke-linecap="round" stroke-linejoin="round"/>
<path d="M107.453 139.816L96.9529 133.91L86.4531 139.816M107.453 139.816V151.628L96.9529 157.535M107.453 139.816L96.9529 145.722M96.9529 157.535L86.4531 151.628V139.816M96.9529 157.535V145.722M86.4531 139.816L96.9529 145.722" stroke="#FC72FF" stroke-width="1.31247" stroke-linecap="round" stroke-linejoin="round"/>
<path d="M86.4526 139.254L75.9529 133.348L65.4531 139.254M86.4526 139.254V151.066L75.9529 156.972M86.4526 139.254L75.9529 145.16M75.9529 156.972L65.4531 151.066V139.254M75.9529 156.972V145.16M65.4531 139.254L75.9529 145.16" stroke="#FC72FF" stroke-width="1.31247" stroke-linecap="round" stroke-linejoin="round"/>
<rect x="340.529" y="-5.85938" width="48.7552" height="48.7552" rx="6.03619" fill="url(#paint11_linear_75_745)" fill-opacity="0.08"/>
<defs>
<linearGradient id="paint0_linear_75_745" x1="87.0137" y1="28.375" x2="290.238" y2="231.599" gradientUnits="userSpaceOnUse">
<stop stop-color="#8F68FF" stop-opacity="0.5"/>
<stop offset="0.504" stop-color="#FC72FF"/>
<stop offset="1" stop-color="#8F68FF" stop-opacity="0.5"/>
</linearGradient>
<linearGradient id="paint1_linear_75_745" x1="87.0137" y1="28.375" x2="290.238" y2="231.599" gradientUnits="userSpaceOnUse">
<stop stop-color="#8F68FF" stop-opacity="0.5"/>
<stop offset="0.504" stop-color="#FC72FF"/>
<stop offset="1" stop-color="#8F68FF" stop-opacity="0.5"/>
</linearGradient>
<linearGradient id="paint2_linear_75_745" x1="106.822" y1="172.16" x2="203.194" y2="268.533" gradientUnits="userSpaceOnUse">
<stop offset="0.504" stop-color="#FC72FF"/>
</linearGradient>
<linearGradient id="paint3_linear_75_745" x1="207.95" y1="214.106" x2="304.323" y2="310.479" gradientUnits="userSpaceOnUse">
<stop offset="0.504" stop-color="#FC72FF"/>
</linearGradient>
<linearGradient id="paint4_linear_75_745" x1="-26.8777" y1="-32.6287" x2="69.4952" y2="63.7441" gradientUnits="userSpaceOnUse">
<stop offset="0.504" stop-color="#FC72FF"/>
</linearGradient>
<linearGradient id="paint5_linear_75_745" x1="-42.9246" y1="161.059" x2="53.4483" y2="257.432" gradientUnits="userSpaceOnUse">
<stop offset="0.504" stop-color="#FC72FF"/>
</linearGradient>
<linearGradient id="paint6_linear_75_745" x1="86.6321" y1="-32.6287" x2="183.005" y2="63.7441" gradientUnits="userSpaceOnUse">
<stop offset="0.504" stop-color="#FC72FF"/>
</linearGradient>
<linearGradient id="paint7_linear_75_745" x1="321.146" y1="207.496" x2="417.519" y2="303.869" gradientUnits="userSpaceOnUse">
<stop offset="0.504" stop-color="#FC72FF"/>
</linearGradient>
<linearGradient id="paint8_linear_75_745" x1="31.8215" y1="217.977" x2="128.194" y2="314.35" gradientUnits="userSpaceOnUse">
<stop offset="0.504" stop-color="#FC72FF"/>
</linearGradient>
<linearGradient id="paint9_linear_75_745" x1="200.142" y1="-32.6287" x2="296.515" y2="63.7441" gradientUnits="userSpaceOnUse">
<stop offset="0.504" stop-color="#FC72FF"/>
</linearGradient>
<linearGradient id="paint10_linear_75_745" x1="146.615" y1="82.1282" x2="248.179" y2="173.537" gradientUnits="userSpaceOnUse">
<stop stop-color="#8F68FF" stop-opacity="0.5"/>
<stop offset="0.504" stop-color="#FC72FF"/>
<stop offset="1" stop-color="#8F68FF" stop-opacity="0.5"/>
</linearGradient>
<linearGradient id="paint11_linear_75_745" x1="313.652" y1="-32.6287" x2="410.024" y2="63.7441" gradientUnits="userSpaceOnUse">
<stop offset="0.504" stop-color="#FC72FF"/>
</linearGradient>
</defs>
</svg>
