<svg width="358" height="316" viewBox="0 0 358 316" fill="none" xmlns="http://www.w3.org/2000/svg">
<path d="M1.43555 -14.0664V209.015" stroke="url(#paint0_linear_75_740)"/>
<rect x="33.4062" y="58.9845" width="231.893" height="77.4875" fill="#D9D9D9" fill-opacity="0.03" stroke="url(#paint1_linear_75_740)" stroke-width="2"/>
<rect x="221.41" y="270.336" width="115.51" height="39.2557" fill="#D9D9D9" fill-opacity="0.03"/>
<rect x="221.91" y="270.836" width="114.51" height="38.2557" stroke="url(#paint2_linear_75_740)" stroke-opacity="0.15"/>
<rect x="19.8633" y="45.0117" width="12.9746" height="12.9746" stroke="white" stroke-opacity="0.15"/>
<rect x="19.8633" y="45.0117" width="12.9746" height="12.9746" stroke="url(#paint3_linear_75_740)"/>
<rect x="215.217" y="263.93" width="6.40764" height="6.40764" stroke="white" stroke-opacity="0.15"/>
<rect x="19.8633" y="137.473" width="12.9746" height="12.9746" stroke="white" stroke-opacity="0.15"/>
<rect x="19.8633" y="137.473" width="12.9746" height="12.9746" stroke="url(#paint4_linear_75_740)"/>
<rect x="215.217" y="309.594" width="6.40764" height="6.40764" stroke="white" stroke-opacity="0.15"/>
<rect x="266.299" y="137.473" width="12.9746" height="12.9746" stroke="white" stroke-opacity="0.15"/>
<rect x="266.299" y="137.473" width="12.9746" height="12.9746" stroke="url(#paint5_linear_75_740)"/>
<rect x="336.922" y="309.594" width="6.40764" height="6.40764" stroke="white" stroke-opacity="0.15"/>
<rect x="266.299" y="45.0117" width="12.9746" height="12.9746" stroke="white" stroke-opacity="0.15"/>
<rect x="266.299" y="45.0117" width="12.9746" height="12.9746" stroke="url(#paint6_linear_75_740)"/>
<rect x="336.922" y="263.93" width="6.40764" height="6.40764" stroke="white" stroke-opacity="0.15"/>
<path d="M295.469 -14.5V211.507" stroke="url(#paint7_linear_75_740)"/>
<path d="M310.422 139.117H343.728H345.767V61.6289H310.422V139.117Z" fill="#D9D9D9" fill-opacity="0.04" stroke="url(#paint8_linear_75_740)"/>
<path d="M331.219 235.488H364.524H366.564V158H331.219V235.488Z" fill="#D9D9D9" fill-opacity="0.04" stroke="url(#paint9_linear_75_740)" stroke-opacity="0.08"/>
<rect x="115.6" y="75.1078" width="46.8" height="46.8" rx="23.4" stroke="white" stroke-opacity="0.25" stroke-width="1.2"/>
<rect x="115.6" y="75.1078" width="46.8" height="46.8" rx="23.4" stroke="url(#paint10_linear_75_740)" stroke-width="1.2"/>
<rect x="118.6" y="78.1078" width="40.8" height="40.8" rx="20.4" fill="white" fill-opacity="0.08"/>
<path d="M152.025 97.0616V94.1673H149.131V91.273C149.129 90.5061 148.823 89.7712 148.281 89.2289C147.739 88.6866 147.004 88.381 146.237 88.3787H143.342V85.4844H140.448V88.3787H137.554V85.4844H134.66V88.3787H131.765C130.998 88.381 130.263 88.6866 129.721 89.2289C129.179 89.7712 128.873 90.5061 128.871 91.273V94.1673H125.977V97.0616H128.871V99.9559H125.977V102.85H128.871V105.745C128.873 106.511 129.179 107.246 129.721 107.789C130.263 108.331 130.998 108.637 131.765 108.639H134.66V111.533H137.554V108.639H140.448V111.533H143.342V108.639H146.237C147.004 108.637 147.739 108.331 148.281 107.789C148.823 107.246 149.129 106.511 149.131 105.745V102.85H152.025V99.9559H149.131V97.0616H152.025ZM146.237 105.745H131.765V91.273H146.237V105.745Z" fill="url(#paint11_linear_75_740)"/>
<path d="M138.724 94.334H137.321L135.223 102.684H136.295L136.779 100.727H139.196L139.668 102.684H140.776L138.724 94.334ZM136.92 99.8909L137.982 95.3255H138.03L139.056 99.8909H136.92ZM141.734 94.334H142.777V102.684H141.734V94.334Z" fill="url(#paint12_linear_75_740)"/>
<path d="M148.881 94.1673V94.4173H149.131H151.775V96.8116H149.131H148.881V97.0616V99.9559V100.206H149.131H151.775V102.6H149.131H148.881V102.85L148.881 105.744C148.881 105.744 148.881 105.744 148.881 105.744C148.879 106.445 148.599 107.116 148.104 107.612C147.609 108.107 146.937 108.387 146.237 108.389C146.236 108.389 146.236 108.389 146.236 108.389L143.342 108.389H143.092V108.639V111.283H140.698V108.639V108.389H140.448H137.554H137.304V108.639V111.283H134.91V108.639V108.389H134.66L131.766 108.389C131.766 108.389 131.766 108.389 131.765 108.389C131.065 108.387 130.393 108.107 129.898 107.612C129.402 107.116 129.123 106.445 129.121 105.744V102.85V102.6H128.871H126.227V100.206H128.871H129.121V99.9559V97.0616V96.8116H128.871H126.227V94.4173H128.871H129.121V94.1673V91.2734C129.123 90.5726 129.402 89.9012 129.898 89.4057C130.393 88.9102 131.065 88.6309 131.766 88.6287H134.66H134.91V88.3787V85.7344H137.304V88.3787V88.6287H137.554H140.448H140.698V88.3787V85.7344H143.092V88.3787V88.6287H143.342H146.236C146.937 88.6309 147.609 88.9102 148.104 89.4057C148.599 89.9012 148.879 90.5725 148.881 91.2731C148.881 91.2733 148.881 91.2735 148.881 91.2737L148.881 94.1673ZM146.237 105.995H146.487V105.745V91.273V91.023H146.237H131.765H131.515V91.273V105.745V105.995H131.765H146.237Z" fill="url(#paint13_linear_75_740)" stroke="#232424" stroke-width="0.5"/>
<rect x="-0.591012" y="0.591012" width="46.0989" height="46.0989" rx="23.0495" transform="matrix(-1 0 0 1 91.0524 76.7344)" stroke="white" stroke-opacity="0.25" stroke-width="1.18202"/>
<rect x="-0.591012" y="0.591012" width="46.0989" height="46.0989" rx="23.0495" transform="matrix(-1 0 0 1 91.0524 76.7344)" stroke="url(#paint14_linear_75_740)" stroke-width="1.18202"/>
<rect width="40.1888" height="40.1888" rx="20.0944" transform="matrix(-1 0 0 1 88.6885 80.2804)" fill="white" fill-opacity="0.08"/>
<path d="M74.6988 90.8722C75.3308 90.872 75.9514 91.0399 76.4971 91.3586C77.0428 91.6773 77.494 92.1355 77.8043 92.686C78.1146 93.2365 78.273 93.8597 78.2631 94.4915C78.2532 95.1234 78.0755 95.7413 77.7481 96.2819C78.5612 96.439 79.2942 96.8743 79.8213 97.513C80.3484 98.1517 80.6367 98.9539 80.6367 99.782C80.6367 100.61 80.3484 101.412 79.8213 102.051C79.2942 102.69 78.5612 103.125 77.7481 103.282M74.6988 90.8722C74.6988 90.0846 74.3859 89.3292 73.829 88.7723C73.2721 88.2153 72.5167 87.9025 71.7291 87.9025C70.9414 87.9025 70.1861 88.2153 69.6291 88.7723C69.0722 89.3292 68.7593 90.0846 68.7593 90.8722V108.691C68.7593 109.478 69.0722 110.234 69.6291 110.791C70.1861 111.348 70.9414 111.66 71.7291 111.66C72.5167 111.66 73.2721 111.348 73.829 110.791C74.3859 110.234 74.6988 109.478 74.6988 108.691C75.3306 108.691 75.951 108.523 76.4966 108.204C77.0421 107.885 77.4931 107.428 77.8034 106.877C78.1137 106.327 78.2721 105.704 78.2624 105.072C78.2527 104.44 78.0752 103.823 77.7481 103.282M74.6988 90.8722C74.6988 91.8439 74.232 92.7063 73.5109 93.248M77.7481 103.282C77.3218 102.576 76.664 102.04 75.8867 101.765M60.1471 91.1692L62.8198 93.842H65.1956M60.1471 108.394L62.8198 105.721H65.1956M60.1471 99.7814H65.1956M61.038 91.1692C61.038 91.4055 60.9441 91.6321 60.777 91.7992C60.61 91.9662 60.3834 92.0601 60.1471 92.0601C59.9108 92.0601 59.6842 91.9662 59.5171 91.7992C59.35 91.6321 59.2561 91.4055 59.2561 91.1692C59.2561 90.9329 59.35 90.7063 59.5171 90.5392C59.6842 90.3721 59.9108 90.2783 60.1471 90.2783C60.3834 90.2783 60.61 90.3721 60.777 90.5392C60.9441 90.7063 61.038 90.9329 61.038 91.1692ZM61.038 108.394C61.038 108.157 60.9441 107.931 60.777 107.764C60.61 107.597 60.3834 107.503 60.1471 107.503C59.9108 107.503 59.6842 107.597 59.5171 107.764C59.35 107.931 59.2561 108.157 59.2561 108.394C59.2561 108.63 59.35 108.857 59.5171 109.024C59.6842 109.191 59.9108 109.285 60.1471 109.285C60.3834 109.285 60.61 109.191 60.777 109.024C60.9441 108.857 61.038 108.63 61.038 108.394ZM61.038 99.7814C61.038 100.018 60.9441 100.244 60.777 100.411C60.61 100.579 60.3834 100.672 60.1471 100.672C59.9108 100.672 59.6842 100.579 59.5171 100.411C59.35 100.244 59.2561 100.018 59.2561 99.7814C59.2561 99.5452 59.35 99.3185 59.5171 99.1515C59.6842 98.9844 59.9108 98.8905 60.1471 98.8905C60.3834 98.8905 60.61 98.9844 60.777 99.1515C60.9441 99.3185 61.038 99.5452 61.038 99.7814Z" stroke="url(#paint15_linear_75_740)" stroke-width="1.78185" stroke-linecap="round" stroke-linejoin="round"/>
<path d="M74.6988 90.8722C75.3308 90.872 75.9514 91.0399 76.4971 91.3586C77.0428 91.6773 77.494 92.1355 77.8043 92.686C78.1146 93.2365 78.273 93.8597 78.2631 94.4915C78.2532 95.1234 78.0755 95.7413 77.7481 96.2819C78.5612 96.439 79.2942 96.8743 79.8213 97.513C80.3484 98.1517 80.6367 98.9539 80.6367 99.782C80.6367 100.61 80.3484 101.412 79.8213 102.051C79.2942 102.69 78.5612 103.125 77.7481 103.282M74.6988 90.8722C74.6988 90.0846 74.3859 89.3292 73.829 88.7723C73.2721 88.2153 72.5167 87.9025 71.7291 87.9025C70.9414 87.9025 70.1861 88.2153 69.6291 88.7723C69.0722 89.3292 68.7593 90.0846 68.7593 90.8722V108.691C68.7593 109.478 69.0722 110.234 69.6291 110.791C70.1861 111.348 70.9414 111.66 71.7291 111.66C72.5167 111.66 73.2721 111.348 73.829 110.791C74.3859 110.234 74.6988 109.478 74.6988 108.691C75.3306 108.691 75.951 108.523 76.4966 108.204C77.0421 107.885 77.4931 107.428 77.8034 106.877C78.1137 106.327 78.2721 105.704 78.2624 105.072C78.2527 104.44 78.0752 103.823 77.7481 103.282M74.6988 90.8722C74.6988 91.8439 74.232 92.7063 73.5109 93.248M77.7481 103.282C77.3218 102.576 76.664 102.04 75.8867 101.765M60.1471 91.1692L62.8198 93.842H65.1956M60.1471 108.394L62.8198 105.721H65.1956M60.1471 99.7814H65.1956M61.038 91.1692C61.038 91.4055 60.9441 91.6321 60.777 91.7992C60.61 91.9662 60.3834 92.0601 60.1471 92.0601C59.9108 92.0601 59.6842 91.9662 59.5171 91.7992C59.35 91.6321 59.2561 91.4055 59.2561 91.1692C59.2561 90.9329 59.35 90.7063 59.5171 90.5392C59.6842 90.3721 59.9108 90.2783 60.1471 90.2783C60.3834 90.2783 60.61 90.3721 60.777 90.5392C60.9441 90.7063 61.038 90.9329 61.038 91.1692ZM61.038 108.394C61.038 108.157 60.9441 107.931 60.777 107.764C60.61 107.597 60.3834 107.503 60.1471 107.503C59.9108 107.503 59.6842 107.597 59.5171 107.764C59.35 107.931 59.2561 108.157 59.2561 108.394C59.2561 108.63 59.35 108.857 59.5171 109.024C59.6842 109.191 59.9108 109.285 60.1471 109.285C60.3834 109.285 60.61 109.191 60.777 109.024C60.9441 108.857 61.038 108.63 61.038 108.394ZM61.038 99.7814C61.038 100.018 60.9441 100.244 60.777 100.411C60.61 100.579 60.3834 100.672 60.1471 100.672C59.9108 100.672 59.6842 100.579 59.5171 100.411C59.35 100.244 59.2561 100.018 59.2561 99.7814C59.2561 99.5452 59.35 99.3185 59.5171 99.1515C59.6842 98.9844 59.9108 98.8905 60.1471 98.8905C60.3834 98.8905 60.61 98.9844 60.777 99.1515C60.9441 99.3185 61.038 99.5452 61.038 99.7814Z" stroke="url(#paint16_linear_75_740)" stroke-width="1.78185" stroke-linecap="round" stroke-linejoin="round"/>
<path d="M74.6988 90.8722C75.3308 90.872 75.9514 91.0399 76.4971 91.3586C77.0428 91.6773 77.494 92.1355 77.8043 92.686C78.1146 93.2365 78.273 93.8597 78.2631 94.4915C78.2532 95.1234 78.0755 95.7413 77.7481 96.2819C78.5612 96.439 79.2942 96.8743 79.8213 97.513C80.3484 98.1517 80.6367 98.9539 80.6367 99.782C80.6367 100.61 80.3484 101.412 79.8213 102.051C79.2942 102.69 78.5612 103.125 77.7481 103.282M74.6988 90.8722C74.6988 90.0846 74.3859 89.3292 73.829 88.7723C73.2721 88.2153 72.5167 87.9025 71.7291 87.9025C70.9414 87.9025 70.1861 88.2153 69.6291 88.7723C69.0722 89.3292 68.7593 90.0846 68.7593 90.8722V108.691C68.7593 109.478 69.0722 110.234 69.6291 110.791C70.1861 111.348 70.9414 111.66 71.7291 111.66C72.5167 111.66 73.2721 111.348 73.829 110.791C74.3859 110.234 74.6988 109.478 74.6988 108.691C75.3306 108.691 75.951 108.523 76.4966 108.204C77.0421 107.885 77.4931 107.428 77.8034 106.877C78.1137 106.327 78.2721 105.704 78.2624 105.072C78.2527 104.44 78.0752 103.823 77.7481 103.282M74.6988 90.8722C74.6988 91.8439 74.232 92.7063 73.5109 93.248M77.7481 103.282C77.3218 102.576 76.664 102.04 75.8867 101.765M60.1471 91.1692L62.8198 93.842H65.1956M60.1471 108.394L62.8198 105.721H65.1956M60.1471 99.7814H65.1956M61.038 91.1692C61.038 91.4055 60.9441 91.6321 60.777 91.7992C60.61 91.9662 60.3834 92.0601 60.1471 92.0601C59.9108 92.0601 59.6842 91.9662 59.5171 91.7992C59.35 91.6321 59.2561 91.4055 59.2561 91.1692C59.2561 90.9329 59.35 90.7063 59.5171 90.5392C59.6842 90.3721 59.9108 90.2783 60.1471 90.2783C60.3834 90.2783 60.61 90.3721 60.777 90.5392C60.9441 90.7063 61.038 90.9329 61.038 91.1692ZM61.038 108.394C61.038 108.157 60.9441 107.931 60.777 107.764C60.61 107.597 60.3834 107.503 60.1471 107.503C59.9108 107.503 59.6842 107.597 59.5171 107.764C59.35 107.931 59.2561 108.157 59.2561 108.394C59.2561 108.63 59.35 108.857 59.5171 109.024C59.6842 109.191 59.9108 109.285 60.1471 109.285C60.3834 109.285 60.61 109.191 60.777 109.024C60.9441 108.857 61.038 108.63 61.038 108.394ZM61.038 99.7814C61.038 100.018 60.9441 100.244 60.777 100.411C60.61 100.579 60.3834 100.672 60.1471 100.672C59.9108 100.672 59.6842 100.579 59.5171 100.411C59.35 100.244 59.2561 100.018 59.2561 99.7814C59.2561 99.5452 59.35 99.3185 59.5171 99.1515C59.6842 98.9844 59.9108 98.8905 60.1471 98.8905C60.3834 98.8905 60.61 98.9844 60.777 99.1515C60.9441 99.3185 61.038 99.5452 61.038 99.7814Z" stroke="url(#paint17_linear_75_740)" stroke-width="1.78185" stroke-linecap="round" stroke-linejoin="round"/>
<rect x="194.544" y="77.3254" width="46.0989" height="46.0989" rx="23.0495" stroke="white" stroke-opacity="0.25" stroke-width="1.18202"/>
<rect x="194.544" y="77.3254" width="46.0989" height="46.0989" rx="23.0495" stroke="url(#paint18_linear_75_740)" stroke-width="1.18202"/>
<rect x="197.499" y="80.2804" width="40.1888" height="40.1888" rx="20.0944" fill="white" fill-opacity="0.08"/>
<path d="M206.092 95.9793C207.609 91.16 212.123 87.6641 217.456 87.6641C223.63 87.6641 228.707 92.3527 229.305 98.3551L226.929 97.8717M228.76 103.107C227.995 105.52 226.481 107.627 224.438 109.123C222.394 110.618 219.928 111.423 217.396 111.422C211.221 111.422 206.144 106.733 205.547 100.731L207.923 101.214" stroke="url(#paint19_linear_75_740)" stroke-width="1.78185" stroke-linecap="round" stroke-linejoin="round"/>
<path d="M213.863 101.36V103.726C213.86 103.917 213.906 104.105 213.996 104.273C214.085 104.441 214.216 104.584 214.376 104.688C215.379 105.315 216.14 105.499 217.43 105.539C218.619 105.571 219.365 105.384 220.475 104.691C220.637 104.586 220.771 104.441 220.862 104.271C220.953 104.101 221 103.91 220.997 103.716V101.36M223.377 98.3745V101.956M211.544 98.1713C211.974 97.2638 214.639 95.6839 217.07 94.9034C217.305 94.829 217.557 94.8348 217.788 94.9201C219.938 95.7064 222.33 96.8979 223.199 97.8637C223.651 98.3685 223.208 99.0124 222.66 99.4103C221.547 100.219 220.32 100.848 217.84 101.802C217.577 101.902 217.287 101.904 217.023 101.807C214.481 100.863 212.102 99.6455 211.564 98.5728C211.531 98.5117 211.512 98.4439 211.508 98.3744C211.505 98.3049 211.517 98.2355 211.544 98.1713Z" stroke="url(#paint20_linear_75_740)" stroke-width="1.78185" stroke-linecap="round" stroke-linejoin="round"/>
<path d="M213.863 101.36V103.726C213.86 103.917 213.906 104.105 213.996 104.273C214.085 104.441 214.216 104.584 214.376 104.688C215.379 105.315 216.14 105.499 217.43 105.539C218.619 105.571 219.365 105.384 220.475 104.691C220.637 104.586 220.771 104.441 220.862 104.271C220.953 104.101 221 103.91 220.997 103.716V101.36M223.377 98.3745V101.956M211.544 98.1713C211.974 97.2638 214.639 95.6839 217.07 94.9034C217.305 94.829 217.557 94.8348 217.788 94.9201C219.938 95.7064 222.33 96.8979 223.199 97.8637C223.651 98.3685 223.208 99.0124 222.66 99.4103C221.547 100.219 220.32 100.848 217.84 101.802C217.577 101.902 217.287 101.904 217.023 101.807C214.481 100.863 212.102 99.6455 211.564 98.5728C211.531 98.5117 211.512 98.4439 211.508 98.3744C211.505 98.3049 211.517 98.2355 211.544 98.1713Z" stroke="#FC72FF" stroke-width="1.78185" stroke-linecap="round" stroke-linejoin="round"/>
<defs>
<linearGradient id="paint0_linear_75_740" x1="0.659092" y1="97.4744" x2="3.08629" y2="97.4744" gradientUnits="userSpaceOnUse">
<stop stop-color="#8F68FF" stop-opacity="0.5"/>
<stop offset="0.504" stop-color="#FC72FF"/>
<stop offset="1" stop-color="#8F68FF" stop-opacity="0.5"/>
</linearGradient>
<linearGradient id="paint1_linear_75_740" x1="7.68082" y1="64.3158" x2="272.795" y2="146.299" gradientUnits="userSpaceOnUse">
<stop stop-color="#8F68FF" stop-opacity="0.5"/>
<stop offset="0.504" stop-color="#FC72FF"/>
<stop offset="1" stop-color="#8F68FF" stop-opacity="0.5"/>
</linearGradient>
<linearGradient id="paint2_linear_75_740" x1="279.165" y1="270.336" x2="279.165" y2="309.592" gradientUnits="userSpaceOnUse">
<stop stop-color="#464998"/>
<stop offset="1" stop-color="#8888E4"/>
</linearGradient>
<linearGradient id="paint3_linear_75_740" x1="22.2761" y1="51.499" x2="30.6554" y2="51.499" gradientUnits="userSpaceOnUse">
<stop stop-color="#8F68FF" stop-opacity="0.5"/>
<stop offset="0.504" stop-color="#FC72FF"/>
<stop offset="1" stop-color="#8F68FF" stop-opacity="0.5"/>
</linearGradient>
<linearGradient id="paint4_linear_75_740" x1="22.2761" y1="143.96" x2="30.6554" y2="143.96" gradientUnits="userSpaceOnUse">
<stop stop-color="#8F68FF" stop-opacity="0.5"/>
<stop offset="0.504" stop-color="#FC72FF"/>
<stop offset="1" stop-color="#8F68FF" stop-opacity="0.5"/>
</linearGradient>
<linearGradient id="paint5_linear_75_740" x1="268.712" y1="143.96" x2="277.091" y2="143.96" gradientUnits="userSpaceOnUse">
<stop stop-color="#8F68FF" stop-opacity="0.5"/>
<stop offset="0.504" stop-color="#FC72FF"/>
<stop offset="1" stop-color="#8F68FF" stop-opacity="0.5"/>
</linearGradient>
<linearGradient id="paint6_linear_75_740" x1="268.712" y1="51.499" x2="277.091" y2="51.499" gradientUnits="userSpaceOnUse">
<stop stop-color="#8F68FF" stop-opacity="0.5"/>
<stop offset="0.504" stop-color="#FC72FF"/>
<stop offset="1" stop-color="#8F68FF" stop-opacity="0.5"/>
</linearGradient>
<linearGradient id="paint7_linear_75_740" x1="294.692" y1="98.5036" x2="297.119" y2="98.5036" gradientUnits="userSpaceOnUse">
<stop stop-color="#8F68FF" stop-opacity="0.5"/>
<stop offset="0.504" stop-color="#FC72FF"/>
<stop offset="1" stop-color="#8F68FF" stop-opacity="0.5"/>
</linearGradient>
<linearGradient id="paint8_linear_75_740" x1="282.978" y1="100.373" x2="368.768" y2="100.373" gradientUnits="userSpaceOnUse">
<stop stop-color="#8F68FF" stop-opacity="0.5"/>
<stop offset="0.504" stop-color="#FC72FF"/>
<stop offset="1" stop-color="#8F68FF" stop-opacity="0.5"/>
</linearGradient>
<linearGradient id="paint9_linear_75_740" x1="348.891" y1="158" x2="348.891" y2="235.489" gradientUnits="userSpaceOnUse">
<stop stop-color="#464998"/>
<stop offset="1" stop-color="#8888E4"/>
</linearGradient>
<linearGradient id="paint10_linear_75_740" x1="123.926" y1="98.5078" x2="154.926" y2="98.5078" gradientUnits="userSpaceOnUse">
<stop stop-color="#8F68FF" stop-opacity="0.5"/>
<stop offset="0.504" stop-color="#FC72FF"/>
<stop offset="1" stop-color="#8F68FF" stop-opacity="0.5"/>
</linearGradient>
<linearGradient id="paint11_linear_75_740" x1="139.001" y1="85.4843" x2="139.001" y2="111.533" gradientUnits="userSpaceOnUse">
<stop stop-color="#465D98"/>
<stop offset="1" stop-color="#88A2E4"/>
</linearGradient>
<linearGradient id="paint12_linear_75_740" x1="139" y1="94.334" x2="139" y2="102.684" gradientUnits="userSpaceOnUse">
<stop stop-color="#465D98"/>
<stop offset="1" stop-color="#88A2E4"/>
</linearGradient>
<linearGradient id="paint13_linear_75_740" x1="111.616" y1="71.1821" x2="163.106" y2="122.672" gradientUnits="userSpaceOnUse">
<stop stop-color="#8F68FF" stop-opacity="0.5"/>
<stop offset="0.504" stop-color="#FC72FF"/>
<stop offset="1" stop-color="#8F68FF" stop-opacity="0.5"/>
</linearGradient>
<linearGradient id="paint14_linear_75_740" x1="8.79258" y1="23.6405" x2="39.3276" y2="23.6405" gradientUnits="userSpaceOnUse">
<stop stop-color="#8F68FF" stop-opacity="0.5"/>
<stop offset="0.504" stop-color="#FC72FF"/>
<stop offset="1" stop-color="#8F68FF" stop-opacity="0.5"/>
</linearGradient>
<linearGradient id="paint15_linear_75_740" x1="69.9464" y1="87.9024" x2="69.9464" y2="111.661" gradientUnits="userSpaceOnUse">
<stop stop-color="#465D98"/>
<stop offset="1" stop-color="#88A2E4"/>
</linearGradient>
<linearGradient id="paint16_linear_75_740" x1="69.9464" y1="87.9024" x2="69.9464" y2="111.661" gradientUnits="userSpaceOnUse">
<stop stop-color="#465D98"/>
<stop offset="1" stop-color="#88A2E4"/>
</linearGradient>
<linearGradient id="paint17_linear_75_740" x1="76.6607" y1="99.7814" x2="62.8526" y2="99.7814" gradientUnits="userSpaceOnUse">
<stop stop-color="#8F68FF" stop-opacity="0.5"/>
<stop offset="0.504" stop-color="#FC72FF"/>
<stop offset="1" stop-color="#8F68FF" stop-opacity="0.5"/>
</linearGradient>
<linearGradient id="paint18_linear_75_740" x1="202.746" y1="100.375" x2="233.281" y2="100.375" gradientUnits="userSpaceOnUse">
<stop stop-color="#8F68FF" stop-opacity="0.5"/>
<stop offset="0.504" stop-color="#FC72FF"/>
<stop offset="1" stop-color="#8F68FF" stop-opacity="0.5"/>
</linearGradient>
<linearGradient id="paint19_linear_75_740" x1="217.426" y1="87.664" x2="217.426" y2="111.422" gradientUnits="userSpaceOnUse">
<stop stop-color="#465D98"/>
<stop offset="1" stop-color="#88A2E4"/>
</linearGradient>
<linearGradient id="paint20_linear_75_740" x1="217.447" y1="94.8515" x2="217.447" y2="105.542" gradientUnits="userSpaceOnUse">
<stop stop-color="#465D98"/>
<stop offset="1" stop-color="#88A2E4"/>
</linearGradient>
</defs>
</svg>
