<svg width="389" height="452" viewBox="0 0 389 452" fill="none" xmlns="http://www.w3.org/2000/svg">
<rect x="184.928" y="73.4887" width="350.588" height="350.588" rx="24.95" transform="rotate(45 184.928 73.4887)" fill="white" fill-opacity="0.01"/>
<rect x="184.928" y="73.4887" width="350.588" height="350.588" rx="24.95" transform="rotate(45 184.928 73.4887)" stroke="#FC72FF" stroke-width="0.1"/>
<g opacity="0.6">
<rect x="184.928" y="115.825" width="290.715" height="290.715" rx="39.9" transform="rotate(45 184.928 115.825)" fill="#D9D9D9" fill-opacity="0.03"/>
<rect x="184.928" y="115.825" width="290.715" height="290.715" rx="39.9" transform="rotate(45 184.928 115.825)" stroke="url(#paint0_linear_75_181)" stroke-width="0.2"/>
<rect x="184.928" y="115.825" width="290.715" height="290.715" rx="39.9" transform="rotate(45 184.928 115.825)" stroke="url(#paint1_linear_75_181)" stroke-width="0.2"/>
</g>
<rect x="184.928" y="159.74" width="228.608" height="228.608" rx="39.75" transform="rotate(45 184.928 159.74)" stroke="url(#paint2_linear_75_181)" stroke-width="0.5"/>
<rect x="184.928" y="159.74" width="228.608" height="228.608" rx="39.75" transform="rotate(45 184.928 159.74)" stroke="url(#paint3_linear_75_181)" stroke-width="0.5"/>
<rect opacity="0.1" x="184.928" y="74.1251" width="349.688" height="349.688" rx="39.5" transform="rotate(45 184.928 74.1251)" stroke="white" stroke-opacity="0.05"/>
<rect x="184.928" y="226.824" width="126.919" height="126.919" rx="7" transform="rotate(45 184.928 226.824)" fill="white" fill-opacity="0.01"/>
<rect x="184.928" y="226.824" width="126.919" height="126.919" rx="7" transform="rotate(45 184.928 226.824)" stroke="url(#paint4_linear_75_181)" stroke-width="2"/>
<path d="M184.935 290.895L163.935 300.228V314.228C163.935 327.178 172.895 339.288 184.935 342.228C196.975 339.288 205.935 327.178 205.935 314.228V300.228L184.935 290.895ZM184.935 316.538H201.268C200.031 326.151 193.615 334.715 184.935 337.398V316.561H168.601V303.261L184.935 296.005V316.538Z" fill="#FC72FF"/>
<rect x="169.28" y="198.229" width="31.294" height="31.294" rx="15.647" fill="url(#paint5_linear_75_181)" fill-opacity="0.08"/>
<rect x="169.28" y="198.229" width="31.294" height="31.294" rx="15.647" stroke="url(#paint6_linear_75_181)" stroke-width="0.802409"/>
<path d="M190.015 211.729L190.016 211.729C190.037 211.75 190.049 211.777 190.052 211.806V218.875C190.052 219.35 189.863 219.806 189.527 220.142C189.191 220.478 188.736 220.667 188.26 220.667H181.594C181.118 220.667 180.663 220.478 180.327 220.142C179.991 219.806 179.802 219.35 179.802 218.875V208.875C179.802 208.4 179.991 207.944 180.327 207.608C180.663 207.272 181.118 207.083 181.594 207.083H185.318C185.351 207.083 185.383 207.097 185.407 207.12L185.407 207.12L190.015 211.729ZM186.322 208.363L185.469 207.51V208.717V211.167V211.667H185.969H188.419H189.626L188.772 210.813L186.322 208.363ZM185.219 207.833V207.333H184.719H181.594C181.185 207.333 180.793 207.496 180.504 207.785C180.214 208.074 180.052 208.466 180.052 208.875V218.875C180.052 219.284 180.214 219.676 180.504 219.965C180.793 220.254 181.185 220.417 181.594 220.417H188.26C188.669 220.417 189.061 220.254 189.35 219.965C189.64 219.676 189.802 219.284 189.802 218.875V212.417V211.917H189.302H185.348C185.314 211.916 185.282 211.902 185.258 211.878C185.234 211.854 185.22 211.821 185.219 211.787V207.833Z" fill="url(#paint7_linear_75_181)" stroke="url(#paint8_linear_75_181)"/>
<rect x="273.354" y="300.917" width="31.294" height="31.294" rx="15.647" fill="url(#paint9_linear_75_181)" fill-opacity="0.08"/>
<rect x="273.354" y="300.917" width="31.294" height="31.294" rx="15.647" stroke="url(#paint10_linear_75_181)" stroke-width="0.802409"/>
<mask id="path-10-inside-1_75_181" fill="white">
<path d="M295.326 316.147L291.501 312.322V314.372L290.785 314.481C287.193 314.989 284.76 316.872 283.368 319.756C285.301 318.389 287.701 317.731 290.668 317.731H291.501V319.972M289.835 318.581C286.11 318.756 283.443 320.097 281.501 322.814C282.335 318.647 284.835 314.481 290.668 313.647V310.314L296.501 316.147L290.668 321.981V318.564C290.393 318.564 290.118 318.572 289.835 318.581Z"/>
</mask>
<path d="M295.326 316.147L291.501 312.322V314.372L290.785 314.481C287.193 314.989 284.76 316.872 283.368 319.756C285.301 318.389 287.701 317.731 290.668 317.731H291.501V319.972M289.835 318.581C286.11 318.756 283.443 320.097 281.501 322.814C282.335 318.647 284.835 314.481 290.668 313.647V310.314L296.501 316.147L290.668 321.981V318.564C290.393 318.564 290.118 318.572 289.835 318.581Z" fill="url(#paint11_linear_75_181)"/>
<path d="M289.335 318.564V318.581H290.335V318.564H289.335ZM291.501 312.322L292.208 311.615L290.501 309.908V312.322H291.501ZM291.501 314.372L291.651 315.361L292.501 315.232V314.372H291.501ZM290.785 314.481L290.925 315.471L290.934 315.469L290.785 314.481ZM283.368 319.756L282.467 319.321L280.785 322.806L283.945 320.572L283.368 319.756ZM291.501 317.731H292.501V316.731H291.501V317.731ZM289.835 318.581L289.805 317.581L289.796 317.581L289.788 317.582L289.835 318.581ZM281.501 322.814L280.521 322.618L282.315 323.395L281.501 322.814ZM290.668 313.647L290.809 314.637L291.668 314.514V313.647H290.668ZM290.668 310.314L291.375 309.607L289.668 307.9V310.314H290.668ZM296.501 316.147L297.208 316.854L297.915 316.147L297.208 315.44L296.501 316.147ZM290.668 321.981H289.668V324.395L291.375 322.688L290.668 321.981ZM290.668 318.564H291.668V317.564H290.668V318.564ZM296.033 315.44L292.208 311.615L290.794 313.029L294.619 316.854L296.033 315.44ZM290.501 312.322V314.372H292.501V312.322H290.501ZM291.352 313.383L290.635 313.492L290.934 315.469L291.651 315.361L291.352 313.383ZM290.644 313.49C286.726 314.045 284.006 316.134 282.467 319.321L284.268 320.19C285.514 317.611 287.66 315.933 290.925 315.471L290.644 313.49ZM283.945 320.572C285.669 319.353 287.852 318.731 290.668 318.731V316.731C287.55 316.731 284.933 317.424 282.791 318.939L283.945 320.572ZM290.668 318.731H291.501V316.731H290.668V318.731ZM290.501 317.731V319.972H292.501V317.731H290.501ZM289.788 317.582C285.802 317.769 282.832 319.232 280.688 322.232L282.315 323.395C284.054 320.962 286.417 319.742 289.881 319.579L289.788 317.582ZM282.482 323.01C282.875 321.044 283.651 319.138 284.962 317.639C286.259 316.157 288.123 315.021 290.809 314.637L290.526 312.657C287.379 313.107 285.077 314.471 283.457 316.322C281.852 318.156 280.961 320.417 280.521 322.618L282.482 323.01ZM291.668 313.647V310.314H289.668V313.647H291.668ZM289.961 311.021L295.794 316.854L297.208 315.44L291.375 309.607L289.961 311.021ZM295.794 315.44L289.961 321.273L291.375 322.688L297.208 316.854L295.794 315.44ZM291.668 321.981V318.564H289.668V321.981H291.668ZM290.668 317.564C290.375 317.564 290.085 317.573 289.805 317.581L289.864 319.58C290.151 319.572 290.41 319.564 290.668 319.564V317.564Z" fill="url(#paint12_linear_75_181)" mask="url(#path-10-inside-1_75_181)"/>
<rect x="169.288" y="405.225" width="31.294" height="31.294" rx="15.647" fill="url(#paint13_linear_75_181)" fill-opacity="0.08"/>
<rect x="169.288" y="405.225" width="31.294" height="31.294" rx="15.647" stroke="url(#paint14_linear_75_181)" stroke-width="0.802409"/>
<path d="M184.935 418.372C184.272 418.372 183.637 418.109 183.168 417.64C182.699 417.171 182.435 416.535 182.435 415.872C182.435 415.209 182.699 414.573 183.168 414.105C183.637 413.636 184.272 413.372 184.935 413.372C185.599 413.372 186.234 413.636 186.703 414.105C187.172 414.573 187.435 415.209 187.435 415.872C187.435 416.535 187.172 417.171 186.703 417.64C186.234 418.109 185.599 418.372 184.935 418.372ZM179.519 428.372C178.856 428.372 178.22 428.109 177.751 427.64C177.282 427.171 177.019 426.535 177.019 425.872C177.019 425.209 177.282 424.573 177.751 424.105C178.22 423.636 178.856 423.372 179.519 423.372C180.182 423.372 180.818 423.636 181.287 424.105C181.755 424.573 182.019 425.209 182.019 425.872C182.019 426.535 181.755 427.171 181.287 427.64C180.818 428.109 180.182 428.372 179.519 428.372ZM190.352 428.372C189.689 428.372 189.053 428.109 188.584 427.64C188.116 427.171 187.852 426.535 187.852 425.872C187.852 425.209 188.116 424.573 188.584 424.105C189.053 423.636 189.689 423.372 190.352 423.372C191.015 423.372 191.651 423.636 192.12 424.105C192.589 424.573 192.852 425.209 192.852 425.872C192.852 426.535 192.589 427.171 192.12 427.64C191.651 428.109 191.015 428.372 190.352 428.372Z" fill="url(#paint15_linear_75_181)" stroke="url(#paint16_linear_75_181)" stroke-width="1.25"/>
<g opacity="0.5">
<path d="M191.602 421.704C191.603 420.758 191.403 419.823 191.013 418.961C190.624 418.099 190.056 417.329 189.345 416.704M178.269 421.704C178.268 420.758 178.468 419.823 178.858 418.961C179.247 418.099 179.815 417.329 180.525 416.704M183.269 428.161C183.813 428.301 184.373 428.372 184.935 428.371C185.498 428.372 186.058 428.301 186.602 428.161" fill="url(#paint17_linear_75_181)"/>
<path d="M191.602 421.704C191.603 420.758 191.403 419.823 191.013 418.961C190.624 418.099 190.056 417.329 189.345 416.704M178.269 421.704C178.268 420.758 178.468 419.823 178.858 418.961C179.247 418.099 179.815 417.329 180.525 416.704M183.269 428.161C183.813 428.301 184.373 428.372 184.935 428.371C185.498 428.372 186.058 428.301 186.602 428.161" stroke="url(#paint18_linear_75_181)" stroke-width="1.25" stroke-linecap="round"/>
</g>
<rect x="66.3543" y="300.925" width="31.294" height="31.294" rx="15.647" fill="url(#paint19_linear_75_181)" fill-opacity="0.08"/>
<rect x="66.3543" y="300.925" width="31.294" height="31.294" rx="15.647" stroke="url(#paint20_linear_75_181)" stroke-width="0.802409"/>
<path d="M87.8352 323.862C88.0562 323.862 88.2682 323.774 88.4245 323.618C88.5807 323.462 88.6685 323.25 88.6685 323.029V321.99C88.6719 319.652 85.3569 317.82 82.0019 317.82C78.6469 317.82 75.3352 319.652 75.3352 321.99V323.029C75.3352 323.25 75.423 323.462 75.5793 323.618C75.7356 323.774 75.9475 323.862 76.1685 323.862H87.8352ZM85.0052 312.282C85.0052 312.676 84.9275 313.067 84.7766 313.431C84.6257 313.796 84.4044 314.127 84.1255 314.406C83.8467 314.685 83.5156 314.906 83.1512 315.057C82.7868 315.208 82.3963 315.285 82.0019 315.285C81.6075 315.285 81.2169 315.208 80.8525 315.057C80.4882 314.906 80.1571 314.685 79.8782 314.406C79.5993 314.127 79.3781 313.796 79.2272 313.431C79.0762 313.067 78.9985 312.676 78.9985 312.282C78.9985 311.485 79.315 310.722 79.8782 310.158C80.4414 309.595 81.2053 309.279 82.0019 309.279C82.7984 309.279 83.5623 309.595 84.1255 310.158C84.6888 310.722 85.0052 311.485 85.0052 312.282Z" fill="url(#paint21_linear_75_181)" stroke="url(#paint22_linear_75_181)" stroke-width="1.25" stroke-linecap="round" stroke-linejoin="round"/>
<rect opacity="0.6" x="261.193" y="133.154" width="67.7485" height="67.7485" rx="33.8742" transform="rotate(-135 261.193 133.154)" fill="#D9D9D9" fill-opacity="0.03" stroke="#FC72FF" stroke-width="0.5"/>
<rect opacity="0.6" x="357.711" y="103.967" width="67.7485" height="67.7485" rx="33.8742" transform="rotate(-135 357.711 103.967)" fill="#D9D9D9" fill-opacity="0.03" stroke="#FC72FF" stroke-width="0.5"/>
<rect opacity="0.6" x="283.973" y="33.3144" width="27.3881" height="27.3881" rx="13.6941" transform="rotate(-135 283.973 33.3144)" fill="#D9D9D9" fill-opacity="0.03" stroke="#FC72FF" stroke-width="0.5"/>
<defs>
<linearGradient id="paint0_linear_75_181" x1="330.385" y1="115.682" x2="330.385" y2="406.6" gradientUnits="userSpaceOnUse">
<stop stop-color="#465D98"/>
<stop offset="1" stop-color="#88A2E4"/>
</linearGradient>
<linearGradient id="paint1_linear_75_181" x1="239.028" y1="261.141" x2="426.907" y2="261.141" gradientUnits="userSpaceOnUse">
<stop stop-color="#8F68FF" stop-opacity="0.5"/>
<stop offset="0.504" stop-color="#FC72FF"/>
<stop offset="1" stop-color="#8F68FF" stop-opacity="0.5"/>
</linearGradient>
<linearGradient id="paint2_linear_75_181" x1="299.482" y1="159.386" x2="299.482" y2="388.496" gradientUnits="userSpaceOnUse">
<stop stop-color="#465D98"/>
<stop offset="1" stop-color="#88A2E4"/>
</linearGradient>
<linearGradient id="paint3_linear_75_181" x1="227.534" y1="273.941" x2="375.497" y2="273.941" gradientUnits="userSpaceOnUse">
<stop stop-color="#8F68FF" stop-opacity="0.5"/>
<stop offset="0.504" stop-color="#FC72FF"/>
<stop offset="1" stop-color="#8F68FF" stop-opacity="0.5"/>
</linearGradient>
<linearGradient id="paint4_linear_75_181" x1="86.3807" y1="290.284" x2="394.439" y2="290.284" gradientUnits="userSpaceOnUse">
<stop stop-color="#8F68FF" stop-opacity="0.5"/>
<stop offset="0.504" stop-color="#FC72FF"/>
<stop offset="1" stop-color="#8F68FF" stop-opacity="0.5"/>
</linearGradient>
<linearGradient id="paint5_linear_75_181" x1="143.958" y1="213.876" x2="221.862" y2="213.876" gradientUnits="userSpaceOnUse">
<stop stop-color="#8F68FF" stop-opacity="0.5"/>
<stop offset="0.504" stop-color="#FC72FF"/>
<stop offset="1" stop-color="#8F68FF" stop-opacity="0.5"/>
</linearGradient>
<linearGradient id="paint6_linear_75_181" x1="143.958" y1="213.876" x2="221.862" y2="213.876" gradientUnits="userSpaceOnUse">
<stop stop-color="#8F68FF" stop-opacity="0.5"/>
<stop offset="0.504" stop-color="#FC72FF"/>
<stop offset="1" stop-color="#8F68FF" stop-opacity="0.5"/>
</linearGradient>
<linearGradient id="paint7_linear_75_181" x1="170.567" y1="213.875" x2="197.873" y2="213.875" gradientUnits="userSpaceOnUse">
<stop stop-color="#8F68FF" stop-opacity="0.5"/>
<stop offset="0.504" stop-color="#FC72FF"/>
<stop offset="1" stop-color="#8F68FF" stop-opacity="0.5"/>
</linearGradient>
<linearGradient id="paint8_linear_75_181" x1="170.567" y1="213.875" x2="197.873" y2="213.875" gradientUnits="userSpaceOnUse">
<stop stop-color="#8F68FF" stop-opacity="0.5"/>
<stop offset="0.504" stop-color="#FC72FF"/>
<stop offset="1" stop-color="#8F68FF" stop-opacity="0.5"/>
</linearGradient>
<linearGradient id="paint9_linear_75_181" x1="248.032" y1="316.564" x2="325.936" y2="316.564" gradientUnits="userSpaceOnUse">
<stop stop-color="#8F68FF" stop-opacity="0.5"/>
<stop offset="0.504" stop-color="#FC72FF"/>
<stop offset="1" stop-color="#8F68FF" stop-opacity="0.5"/>
</linearGradient>
<linearGradient id="paint10_linear_75_181" x1="248.032" y1="316.564" x2="325.936" y2="316.564" gradientUnits="userSpaceOnUse">
<stop stop-color="#8F68FF" stop-opacity="0.5"/>
<stop offset="0.504" stop-color="#FC72FF"/>
<stop offset="1" stop-color="#8F68FF" stop-opacity="0.5"/>
</linearGradient>
<linearGradient id="paint11_linear_75_181" x1="269.854" y1="316.564" x2="306.262" y2="316.564" gradientUnits="userSpaceOnUse">
<stop stop-color="#8F68FF" stop-opacity="0.5"/>
<stop offset="0.504" stop-color="#FC72FF"/>
<stop offset="1" stop-color="#8F68FF" stop-opacity="0.5"/>
</linearGradient>
<linearGradient id="paint12_linear_75_181" x1="269.854" y1="316.564" x2="306.262" y2="316.564" gradientUnits="userSpaceOnUse">
<stop stop-color="#8F68FF" stop-opacity="0.5"/>
<stop offset="0.504" stop-color="#FC72FF"/>
<stop offset="1" stop-color="#8F68FF" stop-opacity="0.5"/>
</linearGradient>
<linearGradient id="paint13_linear_75_181" x1="143.965" y1="420.872" x2="221.87" y2="420.872" gradientUnits="userSpaceOnUse">
<stop stop-color="#8F68FF" stop-opacity="0.5"/>
<stop offset="0.504" stop-color="#FC72FF"/>
<stop offset="1" stop-color="#8F68FF" stop-opacity="0.5"/>
</linearGradient>
<linearGradient id="paint14_linear_75_181" x1="143.965" y1="420.872" x2="221.87" y2="420.872" gradientUnits="userSpaceOnUse">
<stop stop-color="#8F68FF" stop-opacity="0.5"/>
<stop offset="0.504" stop-color="#FC72FF"/>
<stop offset="1" stop-color="#8F68FF" stop-opacity="0.5"/>
</linearGradient>
<linearGradient id="paint15_linear_75_181" x1="164.725" y1="420.872" x2="203.156" y2="420.872" gradientUnits="userSpaceOnUse">
<stop stop-color="#8F68FF" stop-opacity="0.5"/>
<stop offset="0.504" stop-color="#FC72FF"/>
<stop offset="1" stop-color="#8F68FF" stop-opacity="0.5"/>
</linearGradient>
<linearGradient id="paint16_linear_75_181" x1="164.725" y1="420.872" x2="203.156" y2="420.872" gradientUnits="userSpaceOnUse">
<stop stop-color="#8F68FF" stop-opacity="0.5"/>
<stop offset="0.504" stop-color="#FC72FF"/>
<stop offset="1" stop-color="#8F68FF" stop-opacity="0.5"/>
</linearGradient>
<linearGradient id="paint17_linear_75_181" x1="167.916" y1="422.538" x2="200.279" y2="422.538" gradientUnits="userSpaceOnUse">
<stop stop-color="#8F68FF" stop-opacity="0.5"/>
<stop offset="0.504" stop-color="#FC72FF"/>
<stop offset="1" stop-color="#8F68FF" stop-opacity="0.5"/>
</linearGradient>
<linearGradient id="paint18_linear_75_181" x1="167.916" y1="422.538" x2="200.279" y2="422.538" gradientUnits="userSpaceOnUse">
<stop stop-color="#8F68FF" stop-opacity="0.5"/>
<stop offset="0.504" stop-color="#FC72FF"/>
<stop offset="1" stop-color="#8F68FF" stop-opacity="0.5"/>
</linearGradient>
<linearGradient id="paint19_linear_75_181" x1="41.0317" y1="316.572" x2="118.936" y2="316.572" gradientUnits="userSpaceOnUse">
<stop stop-color="#8F68FF" stop-opacity="0.5"/>
<stop offset="0.504" stop-color="#FC72FF"/>
<stop offset="1" stop-color="#8F68FF" stop-opacity="0.5"/>
</linearGradient>
<linearGradient id="paint20_linear_75_181" x1="41.0317" y1="316.572" x2="118.936" y2="316.572" gradientUnits="userSpaceOnUse">
<stop stop-color="#8F68FF" stop-opacity="0.5"/>
<stop offset="0.504" stop-color="#FC72FF"/>
<stop offset="1" stop-color="#8F68FF" stop-opacity="0.5"/>
</linearGradient>
<linearGradient id="paint21_linear_75_181" x1="64.9825" y1="316.57" x2="97.3451" y2="316.57" gradientUnits="userSpaceOnUse">
<stop stop-color="#8F68FF" stop-opacity="0.5"/>
<stop offset="0.504" stop-color="#FC72FF"/>
<stop offset="1" stop-color="#8F68FF" stop-opacity="0.5"/>
</linearGradient>
<linearGradient id="paint22_linear_75_181" x1="64.9825" y1="316.57" x2="97.3451" y2="316.57" gradientUnits="userSpaceOnUse">
<stop stop-color="#8F68FF" stop-opacity="0.5"/>
<stop offset="0.504" stop-color="#FC72FF"/>
<stop offset="1" stop-color="#8F68FF" stop-opacity="0.5"/>
</linearGradient>
</defs>
</svg>
