<svg width="390" height="403" viewBox="0 0 390 403" fill="none" xmlns="http://www.w3.org/2000/svg">
<rect x="63.5" y="160.75" width="57.6152" height="56.6484" rx="4" fill="#D9D9D9" fill-opacity="0.02"/>
<rect x="-4.11523" y="160.75" width="57.6152" height="56.6484" rx="4" fill="#D9D9D9" fill-opacity="0.02"/>
<rect x="131.115" y="160.75" width="57.6152" height="56.6484" rx="4" fill="#D9D9D9" fill-opacity="0.02"/>
<rect x="198.73" y="160.75" width="57.6152" height="56.6484" rx="4" fill="#D9D9D9" fill-opacity="0.02"/>
<rect x="266.346" y="160.75" width="57.6152" height="56.6484" rx="4" fill="#D9D9D9" fill-opacity="0.02"/>
<rect x="333.961" y="160.75" width="57.6152" height="56.6484" rx="4" fill="#D9D9D9" fill-opacity="0.02"/>
<rect x="63.5" y="227.398" width="57.6152" height="60.5677" rx="4" fill="#D9D9D9" fill-opacity="0.02"/>
<rect x="-4.11523" y="227.398" width="57.6152" height="60.5677" rx="4" fill="#D9D9D9" fill-opacity="0.02"/>
<rect x="131.115" y="227.398" width="57.6152" height="60.5677" rx="4" fill="#D9D9D9" fill-opacity="0.02"/>
<rect x="198.73" y="227.398" width="57.6152" height="60.5677" rx="4" fill="#D9D9D9" fill-opacity="0.02"/>
<rect x="266.346" y="227.398" width="57.6152" height="60.5677" rx="4" fill="#D9D9D9" fill-opacity="0.02"/>
<rect x="333.961" y="227.398" width="57.6152" height="60.5677" rx="4" fill="#D9D9D9" fill-opacity="0.02"/>
<rect x="63.5" y="297.965" width="57.6152" height="60.5677" rx="4" fill="#D9D9D9" fill-opacity="0.02"/>
<rect x="-4.11523" y="297.965" width="57.6152" height="60.5677" rx="4" fill="#D9D9D9" fill-opacity="0.02"/>
<rect x="131.115" y="297.965" width="57.6152" height="60.5677" rx="4" fill="#D9D9D9" fill-opacity="0.02"/>
<rect x="198.73" y="297.965" width="57.6152" height="60.5677" rx="4" fill="#D9D9D9" fill-opacity="0.02"/>
<rect x="266.346" y="297.965" width="57.6152" height="60.5677" rx="4" fill="#D9D9D9" fill-opacity="0.02"/>
<rect x="333.961" y="297.965" width="57.6152" height="60.5677" rx="4" fill="#D9D9D9" fill-opacity="0.02"/>
<path d="M48.7089 69.4094L-18.0096 75.8806H-20V246.164C-17.6773 257.653 -4.31116 264 1.37042 264H371.792C386.777 262.091 392.615 247.407 391.949 245.836V-28L354.169 -11.311L281.421 -4.49912L189.381 36.0314L125.074 32.2848L48.7089 69.4094Z" fill="url(#paint0_linear_75_741)" fill-opacity="0.08"/>
<path d="M254 220.584C228.915 220.584 208.581 240.918 208.581 266.002C208.581 291.087 228.915 311.421 254 311.421C279.084 311.421 299.419 291.087 299.419 266.002C299.419 240.918 279.084 220.584 254 220.584ZM257.922 290.627V297.024H251.803V290.699C241.762 289.324 237.365 281.074 237.365 281.074L243.615 275.846C243.615 275.846 247.606 282.793 254.825 282.793C258.812 282.793 261.837 280.659 261.837 277.012C261.837 268.487 238.869 269.521 238.869 253.705C238.869 246.83 244.306 241.877 251.8 240.705V234.315H257.919V240.705C263.144 241.393 269.331 244.143 269.331 250.059V254.596H261.219V252.396C261.219 250.127 258.328 248.615 255.094 248.615C250.969 248.615 247.947 250.677 247.947 253.565C247.947 262.296 270.915 260.165 270.915 276.737C270.915 283.549 265.828 289.455 257.922 290.627Z" fill="#FC72FF"/>
<g clip-path="url(#clip0_75_741)">
<path d="M46.9861 270.089L68.9911 275.985L63.0948 297.99" stroke="url(#paint1_linear_75_741)" stroke-width="4" stroke-linecap="round" stroke-linejoin="round"/>
<path d="M68.9909 275.986L29.5804 298.74C28.9312 299.106 28.1643 299.203 27.4443 299.01C26.7243 298.817 26.1087 298.35 25.7295 297.708L16.467 281.665C16.0879 281.023 15.4722 280.555 14.7522 280.362C14.0323 280.169 13.2653 280.267 12.6161 280.633L-12.8438 295.332" stroke="url(#paint2_linear_75_741)" stroke-opacity="0.5" stroke-width="4" stroke-linecap="round" stroke-linejoin="round"/>
</g>
<g clip-path="url(#clip1_75_741)">
<path d="M343.986 153.089L365.991 158.985L360.095 180.99" stroke="url(#paint3_linear_75_741)" stroke-width="4" stroke-linecap="round" stroke-linejoin="round"/>
<path d="M365.991 158.986L326.58 181.74C325.931 182.106 325.164 182.203 324.444 182.01C323.724 181.817 323.109 181.35 322.73 180.708L313.467 164.665C313.088 164.023 312.472 163.555 311.752 163.362C311.032 163.169 310.265 163.267 309.616 163.633L284.156 178.332" stroke="url(#paint4_linear_75_741)" stroke-opacity="0.5" stroke-width="4" stroke-linecap="round" stroke-linejoin="round"/>
</g>
<g clip-path="url(#clip2_75_741)">
<path d="M176.986 188.089L198.991 193.985L193.095 215.99" stroke="url(#paint5_linear_75_741)" stroke-width="4" stroke-linecap="round" stroke-linejoin="round"/>
<path d="M198.991 193.986L159.58 216.74C158.931 217.106 158.164 217.203 157.444 217.01C156.724 216.817 156.109 216.35 155.73 215.708L146.467 199.665C146.088 199.023 145.472 198.555 144.752 198.362C144.032 198.169 143.265 198.267 142.616 198.633L117.156 213.332" stroke="url(#paint6_linear_75_741)" stroke-opacity="0.5" stroke-width="4" stroke-linecap="round" stroke-linejoin="round"/>
</g>
<g clip-path="url(#clip3_75_741)">
<path d="M175.986 316.089L197.991 321.985L192.095 343.99" stroke="url(#paint7_linear_75_741)" stroke-width="4" stroke-linecap="round" stroke-linejoin="round"/>
<path d="M197.991 321.986L158.58 344.74C157.931 345.106 157.164 345.203 156.444 345.01C155.724 344.817 155.109 344.35 154.73 343.708L145.467 327.665C145.088 327.023 144.472 326.555 143.752 326.362C143.032 326.169 142.265 326.267 141.616 326.633L116.156 341.332" stroke="url(#paint8_linear_75_741)" stroke-opacity="0.5" stroke-width="4" stroke-linecap="round" stroke-linejoin="round"/>
</g>
<g clip-path="url(#clip4_75_741)">
<path d="M321.986 353.089L343.991 358.985L338.095 380.99" stroke="url(#paint9_linear_75_741)" stroke-width="4" stroke-linecap="round" stroke-linejoin="round"/>
<path d="M343.991 358.986L304.58 381.74C303.931 382.106 303.164 382.203 302.444 382.01C301.724 381.817 301.109 381.35 300.73 380.708L291.467 364.665C291.088 364.023 290.472 363.555 289.752 363.362C289.032 363.169 288.265 363.267 287.616 363.633L262.156 378.332" stroke="url(#paint10_linear_75_741)" stroke-opacity="0.5" stroke-width="4" stroke-linecap="round" stroke-linejoin="round"/>
</g>
<g clip-path="url(#clip5_75_741)">
<path d="M390.986 255.089L412.991 260.985L407.095 282.99" stroke="url(#paint11_linear_75_741)" stroke-width="4" stroke-linecap="round" stroke-linejoin="round"/>
<path d="M412.991 260.986L373.58 283.74C372.931 284.106 372.164 284.203 371.444 284.01C370.724 283.817 370.109 283.35 369.73 282.708L360.467 266.665C360.088 266.023 359.472 265.555 358.752 265.362C358.032 265.169 357.265 265.267 356.616 265.633L331.156 280.332" stroke="url(#paint12_linear_75_741)" stroke-opacity="0.5" stroke-width="4" stroke-linecap="round" stroke-linejoin="round"/>
</g>
<defs>
<linearGradient id="paint0_linear_75_741" x1="186" y1="32.4293" x2="205.271" y2="99.2473" gradientUnits="userSpaceOnUse">
<stop stop-color="#255DC9"/>
<stop offset="1" stop-color="#4B5F7E" stop-opacity="0"/>
</linearGradient>
<linearGradient id="paint1_linear_75_741" x1="25.7216" y1="300.925" x2="80.873" y2="269.084" gradientUnits="userSpaceOnUse">
<stop offset="0.504" stop-color="#FC72FF"/>
</linearGradient>
<linearGradient id="paint2_linear_75_741" x1="-57.9345" y1="305.912" x2="37.2376" y2="204.92" gradientUnits="userSpaceOnUse">
<stop stop-color="#8F68FF" stop-opacity="0.5"/>
<stop offset="0.504" stop-color="#FC72FF"/>
<stop offset="1" stop-color="#8F68FF" stop-opacity="0.5"/>
</linearGradient>
<linearGradient id="paint3_linear_75_741" x1="322.722" y1="183.925" x2="377.873" y2="152.084" gradientUnits="userSpaceOnUse">
<stop offset="0.504" stop-color="#FC72FF"/>
</linearGradient>
<linearGradient id="paint4_linear_75_741" x1="239.066" y1="188.912" x2="334.238" y2="87.92" gradientUnits="userSpaceOnUse">
<stop stop-color="#8F68FF" stop-opacity="0.5"/>
<stop offset="0.504" stop-color="#FC72FF"/>
<stop offset="1" stop-color="#8F68FF" stop-opacity="0.5"/>
</linearGradient>
<linearGradient id="paint5_linear_75_741" x1="155.722" y1="218.925" x2="210.873" y2="187.084" gradientUnits="userSpaceOnUse">
<stop offset="0.504" stop-color="#FC72FF"/>
</linearGradient>
<linearGradient id="paint6_linear_75_741" x1="72.0655" y1="223.912" x2="167.238" y2="122.92" gradientUnits="userSpaceOnUse">
<stop stop-color="#8F68FF" stop-opacity="0.5"/>
<stop offset="0.504" stop-color="#FC72FF"/>
<stop offset="1" stop-color="#8F68FF" stop-opacity="0.5"/>
</linearGradient>
<linearGradient id="paint7_linear_75_741" x1="154.722" y1="346.925" x2="209.873" y2="315.084" gradientUnits="userSpaceOnUse">
<stop offset="0.504" stop-color="#FC72FF"/>
</linearGradient>
<linearGradient id="paint8_linear_75_741" x1="71.0655" y1="351.912" x2="166.238" y2="250.92" gradientUnits="userSpaceOnUse">
<stop stop-color="#8F68FF" stop-opacity="0.5"/>
<stop offset="0.504" stop-color="#FC72FF"/>
<stop offset="1" stop-color="#8F68FF" stop-opacity="0.5"/>
</linearGradient>
<linearGradient id="paint9_linear_75_741" x1="300.722" y1="383.925" x2="355.873" y2="352.084" gradientUnits="userSpaceOnUse">
<stop offset="0.504" stop-color="#FC72FF"/>
</linearGradient>
<linearGradient id="paint10_linear_75_741" x1="217.066" y1="388.912" x2="312.238" y2="287.92" gradientUnits="userSpaceOnUse">
<stop stop-color="#8F68FF" stop-opacity="0.5"/>
<stop offset="0.504" stop-color="#FC72FF"/>
<stop offset="1" stop-color="#8F68FF" stop-opacity="0.5"/>
</linearGradient>
<linearGradient id="paint11_linear_75_741" x1="369.722" y1="285.925" x2="424.873" y2="254.084" gradientUnits="userSpaceOnUse">
<stop offset="0.504" stop-color="#FC72FF"/>
</linearGradient>
<linearGradient id="paint12_linear_75_741" x1="286.066" y1="290.912" x2="381.238" y2="189.92" gradientUnits="userSpaceOnUse">
<stop stop-color="#8F68FF" stop-opacity="0.5"/>
<stop offset="0.504" stop-color="#FC72FF"/>
<stop offset="1" stop-color="#8F68FF" stop-opacity="0.5"/>
</linearGradient>
<clipPath id="clip0_75_741">
<rect width="79.7344" height="79.7344" fill="white" transform="matrix(0.965926 0.258819 0.258819 -0.965926 -20.7539 313.852)"/>
</clipPath>
<clipPath id="clip1_75_741">
<rect width="79.7344" height="79.7344" fill="white" transform="matrix(0.965926 0.258819 0.258819 -0.965926 276.246 196.852)"/>
</clipPath>
<clipPath id="clip2_75_741">
<rect width="79.7344" height="79.7344" fill="white" transform="matrix(0.965926 0.258819 0.258819 -0.965926 109.246 231.852)"/>
</clipPath>
<clipPath id="clip3_75_741">
<rect width="79.7344" height="79.7344" fill="white" transform="matrix(0.965926 0.258819 0.258819 -0.965926 108.246 359.852)"/>
</clipPath>
<clipPath id="clip4_75_741">
<rect width="79.7344" height="79.7344" fill="white" transform="matrix(0.965926 0.258819 0.258819 -0.965926 254.246 396.852)"/>
</clipPath>
<clipPath id="clip5_75_741">
<rect width="79.7344" height="79.7344" fill="white" transform="matrix(0.965926 0.258819 0.258819 -0.965926 323.246 298.852)"/>
</clipPath>
</defs>
</svg>
