<svg width="369" height="308" viewBox="0 0 369 308" fill="none" xmlns="http://www.w3.org/2000/svg">
<rect x="0.115234" y="0.839844" width="46.4541" height="306.813" rx="11.609" fill="#7D7D7D" fill-opacity="0.03"/>
<rect x="0.615234" y="1.33984" width="45.4541" height="305.813" rx="11.109" stroke="url(#paint0_linear_75_744)" stroke-opacity="0.1"/>
<rect x="80.5693" y="0.839844" width="46.4541" height="306.813" rx="11.609" fill="#7D7D7D" fill-opacity="0.03"/>
<rect x="81.0693" y="1.33984" width="45.4541" height="305.813" rx="11.109" stroke="url(#paint1_linear_75_744)" stroke-opacity="0.1"/>
<rect x="161.023" y="0.839844" width="46.4541" height="306.813" rx="11.609" fill="#7D7D7D" fill-opacity="0.03"/>
<rect x="161.523" y="1.33984" width="45.4541" height="305.813" rx="11.109" stroke="url(#paint2_linear_75_744)" stroke-opacity="0.1"/>
<rect x="241.478" y="0.839844" width="46.4541" height="306.813" rx="11.609" fill="#7D7D7D" fill-opacity="0.03"/>
<rect x="241.978" y="1.33984" width="45.4541" height="305.813" rx="11.109" stroke="url(#paint3_linear_75_744)" stroke-opacity="0.1"/>
<rect x="321.932" y="0.839844" width="46.4541" height="306.813" rx="11.609" fill="#7D7D7D" fill-opacity="0.03"/>
<rect x="322.432" y="1.33984" width="45.4541" height="305.813" rx="11.109" stroke="url(#paint4_linear_75_744)" stroke-opacity="0.1"/>
<rect x="172.621" y="162.336" width="78.487" height="78.487" rx="11.109" fill="#D9D9D9" fill-opacity="0.05"/>
<rect x="172.621" y="162.336" width="78.487" height="78.487" rx="11.109" stroke="black"/>
<rect x="172.621" y="162.336" width="78.487" height="78.487" rx="11.109" stroke="url(#paint5_linear_75_744)"/>
<rect x="179.824" y="169.539" width="64.0771" height="64.0771" rx="11.109" fill="#D9D9D9" fill-opacity="0.02" stroke="url(#paint6_linear_75_744)"/>
<path d="M245.635 163.984V163.984C245.635 154.831 253.055 147.41 262.209 147.41H282.587M253.786 201.48H319.713M245.635 240.063V240.063C245.635 248.166 252.204 254.735 260.307 254.735H282.587" stroke="url(#paint7_linear_75_744)" stroke-width="0.829212"/>
<path d="M179.324 163.984V163.984C179.324 154.831 171.904 147.41 162.75 147.41H142.372M171.173 201.48H111.616M179.324 240.063V240.063C179.324 248.166 172.755 254.735 164.652 254.735H142.372" stroke="url(#paint8_linear_75_744)"/>
<rect x="283.002" y="131.239" width="32.3393" height="32.3393" rx="16.1696" stroke="url(#paint9_linear_75_744)" stroke-width="0.829212"/>
<rect x="285.075" y="133.312" width="28.1932" height="28.1932" rx="14.0966" fill="url(#paint10_linear_75_744)" fill-opacity="0.12"/>
<path d="M291.408 146.577L298.594 137.664L306.055 146.577L298.594 156.664L291.408 146.577Z" fill="white" fill-opacity="0.04"/>
<path d="M291.408 146.577L298.594 137.664L306.055 146.577L298.594 156.664L291.408 146.577Z" stroke="white" stroke-opacity="0.8"/>
<path d="M291.408 146.577L298.594 137.664L306.055 146.577L298.594 156.664L291.408 146.577Z" stroke="url(#paint11_linear_75_744)"/>
<rect x="320.46" y="184.903" width="32.3393" height="32.3393" rx="16.1696" stroke="url(#paint12_linear_75_744)" stroke-width="0.829212"/>
<rect x="322.532" y="186.976" width="28.1932" height="28.1932" rx="14.0966" fill="url(#paint13_linear_75_744)" fill-opacity="0.12"/>
<path d="M336.63 201.604C338.666 201.604 340.317 199.953 340.317 197.917C340.317 195.881 338.666 194.23 336.63 194.23C334.594 194.23 332.943 195.881 332.943 197.917C332.943 199.953 334.594 201.604 336.63 201.604Z" stroke="white" stroke-opacity="0.8" stroke-linecap="round" stroke-linejoin="round"/>
<path d="M336.63 201.604C338.666 201.604 340.317 199.953 340.317 197.917C340.317 195.881 338.666 194.23 336.63 194.23C334.594 194.23 332.943 195.881 332.943 197.917C332.943 199.953 334.594 201.604 336.63 201.604Z" stroke="url(#paint14_linear_75_744)" stroke-linecap="round" stroke-linejoin="round"/>
<path d="M342.94 207.91C342.94 206.237 342.275 204.632 341.092 203.449C339.909 202.266 338.304 201.602 336.631 201.602C334.958 201.602 333.353 202.266 332.17 203.449C330.987 204.632 330.322 206.237 330.322 207.91" stroke="white" stroke-opacity="0.8" stroke-linecap="round" stroke-linejoin="round"/>
<path d="M342.94 207.91C342.94 206.237 342.275 204.632 341.092 203.449C339.909 202.266 338.304 201.602 336.631 201.602C334.958 201.602 333.353 202.266 332.17 203.449C330.987 204.632 330.322 206.237 330.322 207.91" stroke="url(#paint15_linear_75_744)" stroke-linecap="round" stroke-linejoin="round"/>
<rect x="283.002" y="238.563" width="32.3393" height="32.3393" rx="16.1696" stroke="url(#paint16_linear_75_744)" stroke-width="0.829212"/>
<rect x="285.075" y="240.636" width="28.1932" height="28.1932" rx="14.0966" fill="url(#paint17_linear_75_744)" fill-opacity="0.12"/>
<path d="M291.408 254.577L298.594 245.664L306.055 254.577L298.594 264.664L291.408 254.577Z" fill="white" fill-opacity="0.04"/>
<path d="M291.408 254.577L298.594 245.664L306.055 254.577L298.594 264.664L291.408 254.577Z" stroke="white" stroke-opacity="0.8"/>
<path d="M291.408 254.577L298.594 245.664L306.055 254.577L298.594 264.664L291.408 254.577Z" stroke="url(#paint18_linear_75_744)"/>
<rect x="109.538" y="238.563" width="32.3393" height="32.3393" rx="16.1696" stroke="url(#paint19_linear_75_744)" stroke-width="0.829212"/>
<rect x="111.611" y="240.636" width="28.1932" height="28.1932" rx="14.0966" fill="url(#paint20_linear_75_744)" fill-opacity="0.12"/>
<path d="M125.706 255.264C127.742 255.264 129.393 253.614 129.393 251.578C129.393 249.541 127.742 247.891 125.706 247.891C123.67 247.891 122.019 249.541 122.019 251.578C122.019 253.614 123.67 255.264 125.706 255.264Z" stroke="white" stroke-opacity="0.8" stroke-linecap="round" stroke-linejoin="round"/>
<path d="M125.706 255.264C127.742 255.264 129.393 253.614 129.393 251.578C129.393 249.541 127.742 247.891 125.706 247.891C123.67 247.891 122.019 249.541 122.019 251.578C122.019 253.614 123.67 255.264 125.706 255.264Z" stroke="url(#paint21_linear_75_744)" stroke-linecap="round" stroke-linejoin="round"/>
<path d="M132.015 261.575C132.015 259.901 131.351 258.297 130.168 257.114C128.985 255.931 127.38 255.266 125.707 255.266C124.034 255.266 122.429 255.931 121.246 257.114C120.063 258.297 119.398 259.901 119.398 261.575" stroke="white" stroke-opacity="0.8" stroke-linecap="round" stroke-linejoin="round"/>
<path d="M132.015 261.575C132.015 259.901 131.351 258.297 130.168 257.114C128.985 255.931 127.38 255.266 125.707 255.266C124.034 255.266 122.429 255.931 121.246 257.114C120.063 258.297 119.398 259.901 119.398 261.575" stroke="url(#paint22_linear_75_744)" stroke-linecap="round" stroke-linejoin="round"/>
<rect x="76.3677" y="184.899" width="32.3393" height="32.3393" rx="16.1696" stroke="url(#paint23_linear_75_744)" stroke-width="0.829212"/>
<rect x="78.4407" y="186.972" width="28.1932" height="28.1932" rx="14.0966" fill="url(#paint24_linear_75_744)" fill-opacity="0.12"/>
<path d="M85.4062 200.573L92.5918 191.66L100.053 200.573L92.5918 210.66L85.4062 200.573Z" fill="white" fill-opacity="0.04"/>
<path d="M85.4062 200.573L92.5918 191.66L100.053 200.573L92.5918 210.66L85.4062 200.573Z" stroke="white" stroke-opacity="0.8"/>
<path d="M85.4062 200.573L92.5918 191.66L100.053 200.573L92.5918 210.66L85.4062 200.573Z" stroke="url(#paint25_linear_75_744)"/>
<rect x="109.538" y="131.239" width="32.3393" height="32.3393" rx="16.1696" stroke="url(#paint26_linear_75_744)" stroke-width="0.829212"/>
<rect x="111.611" y="133.312" width="28.1932" height="28.1932" rx="14.0966" fill="url(#paint27_linear_75_744)" fill-opacity="0.12"/>
<path d="M125.706 147.94C127.742 147.94 129.393 146.289 129.393 144.253C129.393 142.217 127.742 140.567 125.706 140.567C123.67 140.567 122.019 142.217 122.019 144.253C122.019 146.289 123.67 147.94 125.706 147.94Z" stroke="white" stroke-opacity="0.8" stroke-linecap="round" stroke-linejoin="round"/>
<path d="M125.706 147.94C127.742 147.94 129.393 146.289 129.393 144.253C129.393 142.217 127.742 140.567 125.706 140.567C123.67 140.567 122.019 142.217 122.019 144.253C122.019 146.289 123.67 147.94 125.706 147.94Z" stroke="url(#paint28_linear_75_744)" stroke-linecap="round" stroke-linejoin="round"/>
<path d="M132.015 154.246C132.015 152.573 131.351 150.969 130.168 149.786C128.985 148.602 127.38 147.938 125.707 147.938C124.034 147.938 122.429 148.602 121.246 149.786C120.063 150.969 119.398 152.573 119.398 154.246" stroke="white" stroke-opacity="0.8" stroke-linecap="round" stroke-linejoin="round"/>
<path d="M132.015 154.246C132.015 152.573 131.351 150.969 130.168 149.786C128.985 148.602 127.38 147.938 125.707 147.938C124.034 147.938 122.429 148.602 121.246 149.786C120.063 150.969 119.398 152.573 119.398 154.246" stroke="url(#paint29_linear_75_744)" stroke-linecap="round" stroke-linejoin="round"/>
<path d="M194.973 199.716L211.545 179.16L228.755 199.716L211.545 222.982L194.973 199.716Z" fill="white" fill-opacity="0.04"/>
<path d="M194.973 199.716L211.545 179.16L228.755 199.716L211.545 222.982L194.973 199.716Z" fill="url(#paint30_linear_75_744)" fill-opacity="0.05"/>
<path d="M194.973 199.716L211.545 179.16L228.755 199.716L211.545 222.982L194.973 199.716Z" stroke="url(#paint31_linear_75_744)" stroke-opacity="0.15"/>
<path d="M198.039 205.738H193.801V192.647H198.174C199.456 192.647 200.558 192.909 201.478 193.434C202.399 193.953 203.104 194.701 203.594 195.677C204.088 196.649 204.336 197.814 204.336 199.174C204.336 200.537 204.086 201.709 203.588 202.689C203.093 203.669 202.377 204.424 201.44 204.952C200.502 205.476 199.369 205.738 198.039 205.738ZM195.777 204.012H197.931C198.928 204.012 199.757 203.825 200.417 203.45C201.078 203.071 201.572 202.523 201.9 201.807C202.228 201.087 202.392 200.209 202.392 199.174C202.392 198.147 202.228 197.275 201.9 196.559C201.576 195.843 201.093 195.3 200.449 194.929C199.806 194.559 199.007 194.373 198.052 194.373H195.777V204.012ZM207.247 205.738H205.151L209.862 192.647H212.143L216.854 205.738H214.758L211.057 195.025H210.955L207.247 205.738ZM207.599 200.612H214.4V202.274H207.599V200.612ZM229.501 199.193C229.501 200.591 229.245 201.792 228.734 202.798C228.223 203.799 227.522 204.571 226.631 205.112C225.745 205.649 224.737 205.917 223.608 205.917C222.474 205.917 221.462 205.649 220.571 205.112C219.685 204.571 218.986 203.797 218.475 202.792C217.963 201.786 217.708 200.586 217.708 199.193C217.708 197.795 217.963 196.596 218.475 195.594C218.986 194.588 219.685 193.817 220.571 193.28C221.462 192.739 222.474 192.468 223.608 192.468C224.737 192.468 225.745 192.739 226.631 193.28C227.522 193.817 228.223 194.588 228.734 195.594C229.245 196.596 229.501 197.795 229.501 199.193ZM227.545 199.193C227.545 198.127 227.373 197.23 227.027 196.502C226.686 195.769 226.218 195.215 225.621 194.84C225.029 194.461 224.358 194.271 223.608 194.271C222.853 194.271 222.18 194.461 221.588 194.84C220.995 195.215 220.527 195.769 220.181 196.502C219.841 197.23 219.67 198.127 219.67 199.193C219.67 200.258 219.841 201.157 220.181 201.89C220.527 202.619 220.995 203.173 221.588 203.552C222.18 203.927 222.853 204.115 223.608 204.115C224.358 204.115 225.029 203.927 225.621 203.552C226.218 203.173 226.686 202.619 227.027 201.89C227.373 201.157 227.545 200.258 227.545 199.193Z" fill="#FC72FF"/>
<defs>
<linearGradient id="paint0_linear_75_744" x1="-25.4939" y1="-167.618" x2="154.039" y2="-140.435" gradientUnits="userSpaceOnUse">
<stop stop-color="#8F68FF" stop-opacity="0.5"/>
<stop offset="0.504" stop-color="#FC72FF"/>
<stop offset="1" stop-color="#8F68FF" stop-opacity="0.5"/>
</linearGradient>
<linearGradient id="paint1_linear_75_744" x1="54.9602" y1="-167.618" x2="234.493" y2="-140.435" gradientUnits="userSpaceOnUse">
<stop stop-color="#8F68FF" stop-opacity="0.5"/>
<stop offset="0.504" stop-color="#FC72FF"/>
<stop offset="1" stop-color="#8F68FF" stop-opacity="0.5"/>
</linearGradient>
<linearGradient id="paint2_linear_75_744" x1="135.414" y1="-167.618" x2="314.947" y2="-140.435" gradientUnits="userSpaceOnUse">
<stop stop-color="#8F68FF" stop-opacity="0.5"/>
<stop offset="0.504" stop-color="#FC72FF"/>
<stop offset="1" stop-color="#8F68FF" stop-opacity="0.5"/>
</linearGradient>
<linearGradient id="paint3_linear_75_744" x1="215.868" y1="-167.618" x2="395.401" y2="-140.435" gradientUnits="userSpaceOnUse">
<stop stop-color="#8F68FF" stop-opacity="0.5"/>
<stop offset="0.504" stop-color="#FC72FF"/>
<stop offset="1" stop-color="#8F68FF" stop-opacity="0.5"/>
</linearGradient>
<linearGradient id="paint4_linear_75_744" x1="296.323" y1="-167.618" x2="475.855" y2="-140.435" gradientUnits="userSpaceOnUse">
<stop stop-color="#8F68FF" stop-opacity="0.5"/>
<stop offset="0.504" stop-color="#FC72FF"/>
<stop offset="1" stop-color="#8F68FF" stop-opacity="0.5"/>
</linearGradient>
<linearGradient id="paint5_linear_75_744" x1="128.302" y1="118.193" x2="285.421" y2="275.312" gradientUnits="userSpaceOnUse">
<stop stop-color="#8F68FF" stop-opacity="0.5"/>
<stop offset="0.504" stop-color="#FC72FF"/>
<stop offset="1" stop-color="#8F68FF" stop-opacity="0.5"/>
</linearGradient>
<linearGradient id="paint6_linear_75_744" x1="143.449" y1="133.308" x2="272.084" y2="261.944" gradientUnits="userSpaceOnUse">
<stop stop-color="#8F68FF" stop-opacity="0.5"/>
<stop offset="0.504" stop-color="#FC72FF"/>
<stop offset="1" stop-color="#8F68FF" stop-opacity="0.5"/>
</linearGradient>
<linearGradient id="paint7_linear_75_744" x1="204.797" y1="88.4828" x2="403.154" y2="225.392" gradientUnits="userSpaceOnUse">
<stop stop-color="#8F68FF" stop-opacity="0.5"/>
<stop offset="0.504" stop-color="#FC72FF"/>
<stop offset="1" stop-color="#8F68FF" stop-opacity="0.5"/>
</linearGradient>
<linearGradient id="paint8_linear_75_744" x1="216.65" y1="88.4828" x2="25.1818" y2="209.274" gradientUnits="userSpaceOnUse">
<stop stop-color="#8F68FF" stop-opacity="0.5"/>
<stop offset="0.504" stop-color="#FC72FF"/>
<stop offset="1" stop-color="#8F68FF" stop-opacity="0.5"/>
</linearGradient>
<linearGradient id="paint9_linear_75_744" x1="299.172" y1="130.824" x2="299.172" y2="163.993" gradientUnits="userSpaceOnUse">
<stop stop-color="#465D98"/>
<stop offset="1" stop-color="#88A2E4"/>
</linearGradient>
<linearGradient id="paint10_linear_75_744" x1="263.185" y1="147.408" x2="331.615" y2="147.408" gradientUnits="userSpaceOnUse">
<stop stop-color="#8F68FF" stop-opacity="0.5"/>
<stop offset="0.504" stop-color="#FC72FF"/>
<stop offset="1" stop-color="#8F68FF" stop-opacity="0.5"/>
</linearGradient>
<linearGradient id="paint11_linear_75_744" x1="283.334" y1="127.232" x2="319.654" y2="155.232" gradientUnits="userSpaceOnUse">
<stop stop-color="#8F68FF" stop-opacity="0.5"/>
<stop offset="0.504" stop-color="#FC72FF"/>
<stop offset="1" stop-color="#8F68FF" stop-opacity="0.5"/>
</linearGradient>
<linearGradient id="paint12_linear_75_744" x1="336.629" y1="184.488" x2="336.629" y2="217.657" gradientUnits="userSpaceOnUse">
<stop stop-color="#465D98"/>
<stop offset="1" stop-color="#88A2E4"/>
</linearGradient>
<linearGradient id="paint13_linear_75_744" x1="300.642" y1="201.072" x2="369.072" y2="201.072" gradientUnits="userSpaceOnUse">
<stop stop-color="#8F68FF" stop-opacity="0.5"/>
<stop offset="0.504" stop-color="#FC72FF"/>
<stop offset="1" stop-color="#8F68FF" stop-opacity="0.5"/>
</linearGradient>
<linearGradient id="paint14_linear_75_744" x1="328.879" y1="190.182" x2="343.453" y2="204.757" gradientUnits="userSpaceOnUse">
<stop stop-color="#8F68FF" stop-opacity="0.5"/>
<stop offset="0.504" stop-color="#FC72FF"/>
<stop offset="1" stop-color="#8F68FF" stop-opacity="0.5"/>
</linearGradient>
<linearGradient id="paint15_linear_75_744" x1="323.367" y1="198.138" x2="333.343" y2="218.09" gradientUnits="userSpaceOnUse">
<stop stop-color="#8F68FF" stop-opacity="0.5"/>
<stop offset="0.504" stop-color="#FC72FF"/>
<stop offset="1" stop-color="#8F68FF" stop-opacity="0.5"/>
</linearGradient>
<linearGradient id="paint16_linear_75_744" x1="299.172" y1="238.148" x2="299.172" y2="271.317" gradientUnits="userSpaceOnUse">
<stop stop-color="#465D98"/>
<stop offset="1" stop-color="#88A2E4"/>
</linearGradient>
<linearGradient id="paint17_linear_75_744" x1="263.185" y1="254.733" x2="331.615" y2="254.733" gradientUnits="userSpaceOnUse">
<stop stop-color="#8F68FF" stop-opacity="0.5"/>
<stop offset="0.504" stop-color="#FC72FF"/>
<stop offset="1" stop-color="#8F68FF" stop-opacity="0.5"/>
</linearGradient>
<linearGradient id="paint18_linear_75_744" x1="283.334" y1="235.232" x2="319.654" y2="263.232" gradientUnits="userSpaceOnUse">
<stop stop-color="#8F68FF" stop-opacity="0.5"/>
<stop offset="0.504" stop-color="#FC72FF"/>
<stop offset="1" stop-color="#8F68FF" stop-opacity="0.5"/>
</linearGradient>
<linearGradient id="paint19_linear_75_744" x1="125.707" y1="238.148" x2="125.707" y2="271.317" gradientUnits="userSpaceOnUse">
<stop stop-color="#465D98"/>
<stop offset="1" stop-color="#88A2E4"/>
</linearGradient>
<linearGradient id="paint20_linear_75_744" x1="89.7198" y1="254.733" x2="158.15" y2="254.733" gradientUnits="userSpaceOnUse">
<stop stop-color="#8F68FF" stop-opacity="0.5"/>
<stop offset="0.504" stop-color="#FC72FF"/>
<stop offset="1" stop-color="#8F68FF" stop-opacity="0.5"/>
</linearGradient>
<linearGradient id="paint21_linear_75_744" x1="117.955" y1="243.842" x2="132.529" y2="258.417" gradientUnits="userSpaceOnUse">
<stop stop-color="#8F68FF" stop-opacity="0.5"/>
<stop offset="0.504" stop-color="#FC72FF"/>
<stop offset="1" stop-color="#8F68FF" stop-opacity="0.5"/>
</linearGradient>
<linearGradient id="paint22_linear_75_744" x1="112.443" y1="251.802" x2="122.419" y2="271.754" gradientUnits="userSpaceOnUse">
<stop stop-color="#8F68FF" stop-opacity="0.5"/>
<stop offset="0.504" stop-color="#FC72FF"/>
<stop offset="1" stop-color="#8F68FF" stop-opacity="0.5"/>
</linearGradient>
<linearGradient id="paint23_linear_75_744" x1="92.5374" y1="184.484" x2="92.5374" y2="217.653" gradientUnits="userSpaceOnUse">
<stop stop-color="#465D98"/>
<stop offset="1" stop-color="#88A2E4"/>
</linearGradient>
<linearGradient id="paint24_linear_75_744" x1="56.5499" y1="201.069" x2="124.98" y2="201.069" gradientUnits="userSpaceOnUse">
<stop stop-color="#8F68FF" stop-opacity="0.5"/>
<stop offset="0.504" stop-color="#FC72FF"/>
<stop offset="1" stop-color="#8F68FF" stop-opacity="0.5"/>
</linearGradient>
<linearGradient id="paint25_linear_75_744" x1="77.3316" y1="181.228" x2="113.652" y2="209.228" gradientUnits="userSpaceOnUse">
<stop stop-color="#8F68FF" stop-opacity="0.5"/>
<stop offset="0.504" stop-color="#FC72FF"/>
<stop offset="1" stop-color="#8F68FF" stop-opacity="0.5"/>
</linearGradient>
<linearGradient id="paint26_linear_75_744" x1="125.707" y1="130.824" x2="125.707" y2="163.993" gradientUnits="userSpaceOnUse">
<stop stop-color="#465D98"/>
<stop offset="1" stop-color="#88A2E4"/>
</linearGradient>
<linearGradient id="paint27_linear_75_744" x1="89.7198" y1="147.408" x2="158.15" y2="147.408" gradientUnits="userSpaceOnUse">
<stop stop-color="#8F68FF" stop-opacity="0.5"/>
<stop offset="0.504" stop-color="#FC72FF"/>
<stop offset="1" stop-color="#8F68FF" stop-opacity="0.5"/>
</linearGradient>
<linearGradient id="paint28_linear_75_744" x1="117.955" y1="136.518" x2="132.529" y2="151.093" gradientUnits="userSpaceOnUse">
<stop stop-color="#8F68FF" stop-opacity="0.5"/>
<stop offset="0.504" stop-color="#FC72FF"/>
<stop offset="1" stop-color="#8F68FF" stop-opacity="0.5"/>
</linearGradient>
<linearGradient id="paint29_linear_75_744" x1="112.443" y1="144.474" x2="122.419" y2="164.426" gradientUnits="userSpaceOnUse">
<stop stop-color="#8F68FF" stop-opacity="0.5"/>
<stop offset="0.504" stop-color="#FC72FF"/>
<stop offset="1" stop-color="#8F68FF" stop-opacity="0.5"/>
</linearGradient>
<linearGradient id="paint30_linear_75_744" x1="176.349" y1="155.1" x2="260.118" y2="219.678" gradientUnits="userSpaceOnUse">
<stop stop-color="#8F68FF" stop-opacity="0.5"/>
<stop offset="0.504" stop-color="#FC72FF"/>
<stop offset="1" stop-color="#8F68FF" stop-opacity="0.5"/>
</linearGradient>
<linearGradient id="paint31_linear_75_744" x1="176.349" y1="155.1" x2="260.118" y2="219.678" gradientUnits="userSpaceOnUse">
<stop stop-color="#8F68FF" stop-opacity="0.5"/>
<stop offset="0.504" stop-color="#FC72FF"/>
<stop offset="1" stop-color="#8F68FF" stop-opacity="0.5"/>
</linearGradient>
</defs>
</svg>
