<svg width="372" height="248" viewBox="0 0 372 248" fill="none" xmlns="http://www.w3.org/2000/svg">
<path fill-rule="evenodd" clip-rule="evenodd" d="M287.964 181.819C296.899 181.819 312.184 170.164 312.184 123.544C312.184 76.9245 296.899 65.2695 287.964 65.2695C279.028 65.2695 263.746 77.7098 263.746 123.544C263.746 169.379 279.028 181.819 287.964 181.819Z" fill="#FC72FF" fill-opacity="0.05" stroke="url(#paint0_linear_75_743)" stroke-width="0.802409" stroke-linecap="round" stroke-linejoin="round"/>
<path fill-rule="evenodd" clip-rule="evenodd" d="M235.532 154.068C240 161.871 258.129 169.111 300.076 144.691C342.023 120.271 344.87 100.821 340.399 93.0209C335.931 85.2149 317.098 78.3856 275.858 102.395C234.616 126.404 231.064 146.265 235.532 154.068Z" fill="#FC72FF" fill-opacity="0.05" stroke="url(#paint1_linear_75_743)" stroke-width="0.802409" stroke-linecap="round" stroke-linejoin="round"/>
<path fill-rule="evenodd" clip-rule="evenodd" d="M235.533 93.0185C231.066 100.822 233.91 120.272 275.86 144.692C317.806 169.112 335.933 161.872 340.401 154.071C344.868 146.265 341.316 126.405 300.077 102.395C258.838 78.386 240.001 85.2152 235.533 93.0185Z" fill="#FC72FF" fill-opacity="0.05" stroke="url(#paint2_linear_75_743)" stroke-width="0.802409" stroke-linecap="round" stroke-linejoin="round"/>
<rect x="272.354" y="31.1278" width="31.294" height="31.294" rx="15.647" fill="white" fill-opacity="0.08"/>
<rect x="272.354" y="31.1278" width="31.294" height="31.294" rx="15.647" stroke="url(#paint3_linear_75_743)" stroke-width="0.802409"/>
<path d="M294.185 48.1655L287.884 57.2801V52.1435L294.185 48.1655ZM290.845 51.3693L288.823 52.6422V54.29L290.845 51.3693Z" fill="url(#paint4_linear_75_743)"/>
<path d="M294.185 48.1655L287.884 57.2801V52.1435L294.185 48.1655ZM290.845 51.3693L288.823 52.6422V54.29L290.845 51.3693Z" fill="url(#paint5_linear_75_743)"/>
<path d="M281.582 48.1655L287.883 57.2801V52.1435L281.582 48.1655ZM284.922 51.3693L286.944 52.6422V54.29L284.922 51.3693Z" fill="url(#paint6_linear_75_743)"/>
<path d="M281.582 48.1655L287.883 57.2801V52.1435L281.582 48.1655ZM284.922 51.3693L286.944 52.6422V54.29L284.922 51.3693Z" fill="url(#paint7_linear_75_743)"/>
<path d="M288.683 43.9983L292.857 46.3226L293.005 46.7748L292.508 47.2086L288.683 45.0742V43.9983Z" fill="url(#paint8_linear_75_743)"/>
<path d="M287.087 43.9983L282.914 46.3226L282.766 46.7748L283.263 47.2086L287.087 45.0742V43.9983Z" fill="url(#paint9_linear_75_743)"/>
<path d="M287.883 36.2695L294.184 47.0605L287.883 51.0286V36.2695ZM288.814 39.7311V49.3657L292.93 46.7748L288.814 39.7311Z" fill="url(#paint10_linear_75_743)"/>
<path d="M287.883 36.2695L294.184 47.0605L287.883 51.0286V36.2695ZM288.814 39.7311V49.3657L292.93 46.7748L288.814 39.7311Z" fill="url(#paint11_linear_75_743)"/>
<path d="M287.883 36.2695L281.582 47.0605L287.883 51.0286V36.2695ZM286.953 39.7311V49.3657L282.836 46.7748L286.953 39.7311Z" fill="url(#paint12_linear_75_743)"/>
<path d="M287.883 36.2695L281.582 47.0605L287.883 51.0286V36.2695ZM286.953 39.7311V49.3657L282.836 46.7748L286.953 39.7311Z" fill="url(#paint13_linear_75_743)"/>
<rect x="339.354" y="154.225" width="31.294" height="31.294" rx="15.647" fill="white" fill-opacity="0.08"/>
<rect x="339.354" y="154.225" width="31.294" height="31.294" rx="15.647" stroke="url(#paint14_linear_75_743)" stroke-width="0.802409"/>
<path d="M359.519 177.093H348.161V164.993H350.76V174.748H359.519V177.093ZM359.52 167.337C360.8 167.337 361.838 166.288 361.838 164.993C361.838 163.699 360.8 162.65 359.519 162.65C358.24 162.65 357.202 163.699 357.202 164.993C357.202 166.288 358.24 167.337 359.52 167.337Z" fill="url(#paint15_linear_75_743)"/>
<path d="M359.519 177.093H348.161V164.993H350.76V174.748H359.519V177.093ZM359.52 167.337C360.8 167.337 361.838 166.288 361.838 164.993C361.838 163.699 360.8 162.65 359.519 162.65C358.24 162.65 357.202 163.699 357.202 164.993C357.202 166.288 358.24 167.337 359.52 167.337Z" fill="url(#paint16_linear_75_743)"/>
<rect x="204.354" y="152.53" width="31.294" height="31.294" rx="15.647" fill="white" fill-opacity="0.08"/>
<rect x="204.354" y="152.53" width="31.294" height="31.294" rx="15.647" stroke="url(#paint17_linear_75_743)" stroke-width="0.802409"/>
<g clip-path="url(#clip0_75_743)">
<path d="M223.289 161.722L221.267 165.201C220.693 166.19 219.256 166.19 218.682 165.201L216.66 161.722L215.415 159.498H224.552L223.289 161.722Z" fill="url(#paint18_linear_75_743)"/>
<path d="M216.232 161.938L218.248 165.421C218.818 166.412 218.102 167.642 216.957 167.644H210.374L214.952 159.725L216.232 161.938Z" fill="url(#paint19_linear_75_743)"/>
<path d="M223.701 161.938L221.686 165.421C221.115 166.412 221.832 167.642 222.977 167.644H229.559L224.982 159.725L223.702 161.938H223.701ZM216.645 174.059L218.668 170.58C219.242 169.591 220.678 169.591 221.253 170.58L223.275 174.059L224.519 176.283H215.383L216.645 174.059ZM223.701 173.844L221.686 170.36C221.115 169.37 221.832 168.139 222.977 168.138H229.559L224.982 176.057L223.702 173.844H223.701ZM216.232 173.844L218.248 170.36C218.818 169.37 218.102 168.139 216.957 168.138H210.374L214.952 176.057L216.232 173.844Z" fill="url(#paint20_linear_75_743)"/>
</g>
<rect x="204.354" y="65.6707" width="31.294" height="31.294" rx="15.647" fill="white" fill-opacity="0.08"/>
<rect x="204.354" y="65.6707" width="31.294" height="31.294" rx="15.647" stroke="url(#paint21_linear_75_743)" stroke-width="0.802409"/>
<g clip-path="url(#clip1_75_743)">
<path d="M210.662 79.045C211.086 77.3504 211.891 75.89 213.079 74.6639C214.267 73.4378 215.682 72.5872 217.325 72.1122C218.969 71.6372 220.638 71.6115 222.332 72.0352C224.027 72.4589 225.487 73.2645 226.714 74.452C227.94 75.6396 228.79 77.0551 229.265 78.6984C229.74 80.3417 229.766 82.0107 229.342 83.7054C228.919 85.4001 228.113 86.8605 226.925 88.0866C225.738 89.3127 224.322 90.1632 222.679 90.6382C221.036 91.1133 219.367 91.139 217.672 90.7153C215.977 90.2916 214.517 89.486 213.291 88.2984C212.065 87.1109 211.214 85.6954 210.739 84.0521C210.264 82.4087 210.238 80.7397 210.662 79.045ZM215.053 84.2639L216.439 84.6106C216.529 84.6234 216.658 84.6555 216.825 84.7068C216.992 84.7582 217.114 84.7903 217.191 84.8031L216.748 86.5556L217.807 86.8252L218.23 85.092C218.308 85.1177 218.442 85.153 218.635 85.1979C218.827 85.2428 218.975 85.2782 219.078 85.3038L218.654 87.037L219.713 87.2874L220.137 85.5349C220.753 85.6376 221.302 85.6858 221.784 85.6794C222.265 85.6729 222.689 85.5413 223.055 85.2846C223.42 85.0278 223.693 84.6362 223.873 84.1098C224.284 82.9544 223.956 82.1006 222.891 81.5486C223.661 81.3817 224.111 80.8681 224.239 80.0079C224.406 78.9038 223.7 78.095 222.121 77.5814L222.563 75.829L221.504 75.5786L221.081 77.2733C220.978 77.2476 220.83 77.2123 220.638 77.1674C220.445 77.1225 220.31 77.0872 220.233 77.0615L220.657 75.3668L219.598 75.0972L219.174 76.8304C218.982 76.8047 218.757 76.7534 218.5 76.6763L217.036 76.3104L216.767 77.4466L217.518 77.62C217.877 77.7098 218.044 77.9152 218.019 78.2362L217.518 80.2198C217.544 80.2198 217.582 80.2326 217.633 80.2583C217.621 80.2454 217.601 80.239 217.576 80.239C217.55 80.239 217.531 80.2326 217.518 80.2198L216.825 82.9929C216.76 83.224 216.6 83.3074 216.343 83.2432L215.573 83.0507L215.053 84.2639ZM218.577 83.821L219.155 81.4908C219.168 81.4908 219.293 81.5165 219.53 81.5678C219.768 81.6192 219.948 81.6641 220.07 81.7026C220.192 81.7411 220.371 81.7989 220.609 81.8759C220.846 81.953 221.029 82.0364 221.158 82.1263C221.286 82.2162 221.421 82.3221 221.562 82.444C221.703 82.566 221.796 82.7072 221.841 82.8677C221.886 83.0282 221.883 83.2047 221.832 83.3973C221.793 83.5385 221.735 83.6605 221.658 83.7632C221.581 83.8659 221.485 83.9429 221.369 83.9943C221.254 84.0457 221.135 84.0906 221.013 84.1291C220.891 84.1676 220.744 84.1837 220.57 84.1773C220.397 84.1708 220.246 84.1612 220.118 84.1484C219.989 84.1355 219.835 84.1098 219.656 84.0713C219.476 84.0328 219.338 84.0039 219.242 83.9847C219.145 83.9654 219.02 83.9365 218.866 83.898C218.712 83.8595 218.616 83.8338 218.577 83.821ZM219.424 80.4316L219.944 78.3132C219.983 78.3261 220.063 78.3453 220.185 78.371C220.307 78.3967 220.413 78.4192 220.503 78.4384C220.593 78.4577 220.708 78.4898 220.85 78.5347C220.991 78.5796 221.113 78.6214 221.215 78.6599C221.318 78.6984 221.434 78.753 221.562 78.8236C221.69 78.8942 221.787 78.9648 221.851 79.0354C221.915 79.106 221.989 79.1927 222.072 79.2954C222.156 79.3981 222.194 79.504 222.188 79.6131C222.182 79.7223 222.172 79.8474 222.159 79.9887C222.121 80.1556 222.053 80.2936 221.957 80.4027C221.861 80.5118 221.739 80.5857 221.591 80.6242C221.443 80.6627 221.299 80.6916 221.158 80.7108C221.016 80.7301 220.846 80.7237 220.647 80.6916C220.448 80.6595 220.294 80.6338 220.185 80.6146C220.076 80.5953 219.928 80.56 219.742 80.5086C219.556 80.4573 219.45 80.4316 219.424 80.4316Z" fill="url(#paint22_linear_75_743)"/>
<path d="M210.662 79.045C211.086 77.3504 211.891 75.89 213.079 74.6639C214.267 73.4378 215.682 72.5872 217.325 72.1122C218.969 71.6372 220.638 71.6115 222.332 72.0352C224.027 72.4589 225.487 73.2645 226.714 74.452C227.94 75.6396 228.79 77.0551 229.265 78.6984C229.74 80.3417 229.766 82.0107 229.342 83.7054C228.919 85.4001 228.113 86.8605 226.925 88.0866C225.738 89.3127 224.322 90.1632 222.679 90.6382C221.036 91.1133 219.367 91.139 217.672 90.7153C215.977 90.2916 214.517 89.486 213.291 88.2984C212.065 87.1109 211.214 85.6954 210.739 84.0521C210.264 82.4087 210.238 80.7397 210.662 79.045ZM215.053 84.2639L216.439 84.6106C216.529 84.6234 216.658 84.6555 216.825 84.7068C216.992 84.7582 217.114 84.7903 217.191 84.8031L216.748 86.5556L217.807 86.8252L218.23 85.092C218.308 85.1177 218.442 85.153 218.635 85.1979C218.827 85.2428 218.975 85.2782 219.078 85.3038L218.654 87.037L219.713 87.2874L220.137 85.5349C220.753 85.6376 221.302 85.6858 221.784 85.6794C222.265 85.6729 222.689 85.5413 223.055 85.2846C223.42 85.0278 223.693 84.6362 223.873 84.1098C224.284 82.9544 223.956 82.1006 222.891 81.5486C223.661 81.3817 224.111 80.8681 224.239 80.0079C224.406 78.9038 223.7 78.095 222.121 77.5814L222.563 75.829L221.504 75.5786L221.081 77.2733C220.978 77.2476 220.83 77.2123 220.638 77.1674C220.445 77.1225 220.31 77.0872 220.233 77.0615L220.657 75.3668L219.598 75.0972L219.174 76.8304C218.982 76.8047 218.757 76.7534 218.5 76.6763L217.036 76.3104L216.767 77.4466L217.518 77.62C217.877 77.7098 218.044 77.9152 218.019 78.2362L217.518 80.2198C217.544 80.2198 217.582 80.2326 217.633 80.2583C217.621 80.2454 217.601 80.239 217.576 80.239C217.55 80.239 217.531 80.2326 217.518 80.2198L216.825 82.9929C216.76 83.224 216.6 83.3074 216.343 83.2432L215.573 83.0507L215.053 84.2639ZM218.577 83.821L219.155 81.4908C219.168 81.4908 219.293 81.5165 219.53 81.5678C219.768 81.6192 219.948 81.6641 220.07 81.7026C220.192 81.7411 220.371 81.7989 220.609 81.8759C220.846 81.953 221.029 82.0364 221.158 82.1263C221.286 82.2162 221.421 82.3221 221.562 82.444C221.703 82.566 221.796 82.7072 221.841 82.8677C221.886 83.0282 221.883 83.2047 221.832 83.3973C221.793 83.5385 221.735 83.6605 221.658 83.7632C221.581 83.8659 221.485 83.9429 221.369 83.9943C221.254 84.0457 221.135 84.0906 221.013 84.1291C220.891 84.1676 220.744 84.1837 220.57 84.1773C220.397 84.1708 220.246 84.1612 220.118 84.1484C219.989 84.1355 219.835 84.1098 219.656 84.0713C219.476 84.0328 219.338 84.0039 219.242 83.9847C219.145 83.9654 219.02 83.9365 218.866 83.898C218.712 83.8595 218.616 83.8338 218.577 83.821ZM219.424 80.4316L219.944 78.3132C219.983 78.3261 220.063 78.3453 220.185 78.371C220.307 78.3967 220.413 78.4192 220.503 78.4384C220.593 78.4577 220.708 78.4898 220.85 78.5347C220.991 78.5796 221.113 78.6214 221.215 78.6599C221.318 78.6984 221.434 78.753 221.562 78.8236C221.69 78.8942 221.787 78.9648 221.851 79.0354C221.915 79.106 221.989 79.1927 222.072 79.2954C222.156 79.3981 222.194 79.504 222.188 79.6131C222.182 79.7223 222.172 79.8474 222.159 79.9887C222.121 80.1556 222.053 80.2936 221.957 80.4027C221.861 80.5118 221.739 80.5857 221.591 80.6242C221.443 80.6627 221.299 80.6916 221.158 80.7108C221.016 80.7301 220.846 80.7237 220.647 80.6916C220.448 80.6595 220.294 80.6338 220.185 80.6146C220.076 80.5953 219.928 80.56 219.742 80.5086C219.556 80.4573 219.45 80.4316 219.424 80.4316Z" fill="url(#paint23_linear_75_743)"/>
</g>
<rect x="339.354" y="63.2254" width="31.294" height="31.294" rx="15.647" fill="white" fill-opacity="0.08"/>
<rect x="339.354" y="63.2254" width="31.294" height="31.294" rx="15.647" stroke="url(#paint24_linear_75_743)" stroke-width="0.802409"/>
<g clip-path="url(#clip2_75_743)">
<path d="M348.005 86.8966L359.208 82.1788L355.661 78.5825L348.005 86.8966ZM352.12 74.9916L355.667 78.5825L361.998 70.8484L352.12 74.9916Z" fill="url(#paint25_linear_75_743)"/>
<path d="M348.005 86.8966L359.208 82.1788L355.661 78.5825L348.005 86.8966ZM352.12 74.9916L355.667 78.5825L361.998 70.8484L352.12 74.9916Z" fill="url(#paint26_linear_75_743)"/>
</g>
<g opacity="0.6">
<rect x="27.7344" y="135.027" width="112.04" height="112.04" rx="5" transform="rotate(45 27.7344 135.027)" fill="#D9D9D9" fill-opacity="0.03"/>
<rect x="27.7344" y="135.027" width="112.04" height="112.04" rx="5" transform="rotate(45 27.7344 135.027)" fill="url(#paint27_linear_75_743)" fill-opacity="0.15"/>
<rect x="27.7344" y="135.734" width="111.04" height="111.04" rx="4.5" transform="rotate(45 27.7344 135.734)" stroke="url(#paint28_linear_75_743)" stroke-opacity="0.25"/>
<rect x="27.7344" y="135.734" width="111.04" height="111.04" rx="4.5" transform="rotate(45 27.7344 135.734)" stroke="url(#paint29_linear_75_743)" stroke-opacity="0.25"/>
</g>
<path opacity="0.6" d="M121.195 39.8051C123.148 37.8524 126.313 37.8524 128.266 39.8051L200.419 111.958C202.372 113.911 202.372 117.076 200.419 119.029L128.266 191.182C126.313 193.135 123.148 193.135 121.195 191.182L49.042 119.029C47.0894 117.076 47.0894 113.911 49.042 111.958L121.195 39.8051Z" fill="url(#paint30_linear_75_743)" fill-opacity="0.15" stroke="url(#paint31_linear_75_743)" stroke-opacity="0.25"/>
<g opacity="0.6">
<rect x="40.1289" y="0.398438" width="61.1699" height="61.1699" rx="5" transform="rotate(45 40.1289 0.398438)" fill="#D9D9D9" fill-opacity="0.03"/>
<rect x="40.1289" y="0.398438" width="61.1699" height="61.1699" rx="5" transform="rotate(45 40.1289 0.398438)" fill="url(#paint32_linear_75_743)" fill-opacity="0.15"/>
<rect x="40.1289" y="1.10554" width="60.1699" height="60.1699" rx="4.5" transform="rotate(45 40.1289 1.10554)" stroke="url(#paint33_linear_75_743)" stroke-opacity="0.25"/>
<rect x="40.1289" y="1.10554" width="60.1699" height="60.1699" rx="4.5" transform="rotate(45 40.1289 1.10554)" stroke="url(#paint34_linear_75_743)" stroke-opacity="0.25"/>
</g>
<defs>
<linearGradient id="paint0_linear_75_743" x1="237.043" y1="1.27707" x2="400.331" y2="69.1384" gradientUnits="userSpaceOnUse">
<stop stop-color="#8F68FF" stop-opacity="0.5"/>
<stop offset="0.504" stop-color="#FC72FF"/>
<stop offset="1" stop-color="#8F68FF" stop-opacity="0.5"/>
</linearGradient>
<linearGradient id="paint1_linear_75_743" x1="174.567" y1="44.1838" x2="315.316" y2="244.757" gradientUnits="userSpaceOnUse">
<stop stop-color="#8F68FF" stop-opacity="0.5"/>
<stop offset="0.504" stop-color="#FC72FF"/>
<stop offset="1" stop-color="#8F68FF" stop-opacity="0.5"/>
</linearGradient>
<linearGradient id="paint2_linear_75_743" x1="174.497" y1="44.1833" x2="315.249" y2="244.756" gradientUnits="userSpaceOnUse">
<stop stop-color="#8F68FF" stop-opacity="0.5"/>
<stop offset="0.504" stop-color="#FC72FF"/>
<stop offset="1" stop-color="#8F68FF" stop-opacity="0.5"/>
</linearGradient>
<linearGradient id="paint3_linear_75_743" x1="288.001" y1="30.7264" x2="288.001" y2="62.8231" gradientUnits="userSpaceOnUse">
<stop stop-color="#465D98"/>
<stop offset="1" stop-color="#88A2E4"/>
</linearGradient>
<linearGradient id="paint4_linear_75_743" x1="287.884" y1="52.7228" x2="294.185" y2="52.7228" gradientUnits="userSpaceOnUse">
<stop stop-color="white"/>
<stop offset="1" stop-color="#999999"/>
</linearGradient>
<linearGradient id="paint5_linear_75_743" x1="284.41" y1="43.1611" x2="301.265" y2="54.8135" gradientUnits="userSpaceOnUse">
<stop stop-color="#8F68FF" stop-opacity="0.5"/>
<stop offset="0.504" stop-color="#FC72FF"/>
<stop offset="1" stop-color="#8F68FF" stop-opacity="0.5"/>
</linearGradient>
<linearGradient id="paint6_linear_75_743" x1="281.582" y1="52.7228" x2="287.883" y2="52.7228" gradientUnits="userSpaceOnUse">
<stop stop-color="white"/>
<stop offset="1" stop-color="#999999"/>
</linearGradient>
<linearGradient id="paint7_linear_75_743" x1="278.108" y1="43.1611" x2="294.963" y2="54.8135" gradientUnits="userSpaceOnUse">
<stop stop-color="#8F68FF" stop-opacity="0.5"/>
<stop offset="0.504" stop-color="#FC72FF"/>
<stop offset="1" stop-color="#8F68FF" stop-opacity="0.5"/>
</linearGradient>
<linearGradient id="paint8_linear_75_743" x1="288.683" y1="45.6035" x2="293.005" y2="45.6035" gradientUnits="userSpaceOnUse">
<stop stop-color="white"/>
<stop offset="1" stop-color="#999999"/>
</linearGradient>
<linearGradient id="paint9_linear_75_743" x1="287.087" y1="45.6035" x2="282.766" y2="45.6035" gradientUnits="userSpaceOnUse">
<stop stop-color="white"/>
<stop offset="1" stop-color="#999999"/>
</linearGradient>
<linearGradient id="paint10_linear_75_743" x1="287.883" y1="43.6491" x2="294.184" y2="43.6491" gradientUnits="userSpaceOnUse">
<stop stop-color="white"/>
<stop offset="1" stop-color="#999999"/>
</linearGradient>
<linearGradient id="paint11_linear_75_743" x1="284.41" y1="28.166" x2="305.48" y2="37.1616" gradientUnits="userSpaceOnUse">
<stop stop-color="#8F68FF" stop-opacity="0.5"/>
<stop offset="0.504" stop-color="#FC72FF"/>
<stop offset="1" stop-color="#8F68FF" stop-opacity="0.5"/>
</linearGradient>
<linearGradient id="paint12_linear_75_743" x1="281.582" y1="43.6491" x2="287.883" y2="43.6491" gradientUnits="userSpaceOnUse">
<stop stop-color="white"/>
<stop offset="1" stop-color="#999999"/>
</linearGradient>
<linearGradient id="paint13_linear_75_743" x1="278.108" y1="28.166" x2="299.178" y2="37.1616" gradientUnits="userSpaceOnUse">
<stop stop-color="#8F68FF" stop-opacity="0.5"/>
<stop offset="0.504" stop-color="#FC72FF"/>
<stop offset="1" stop-color="#8F68FF" stop-opacity="0.5"/>
</linearGradient>
<linearGradient id="paint14_linear_75_743" x1="355.001" y1="153.824" x2="355.001" y2="185.921" gradientUnits="userSpaceOnUse">
<stop stop-color="#465D98"/>
<stop offset="1" stop-color="#88A2E4"/>
</linearGradient>
<linearGradient id="paint15_linear_75_743" x1="348.161" y1="169.871" x2="361.838" y2="169.871" gradientUnits="userSpaceOnUse">
<stop stop-color="white"/>
<stop offset="1" stop-color="#999999"/>
</linearGradient>
<linearGradient id="paint16_linear_75_743" x1="340.622" y1="154.719" x2="369.129" y2="181.714" gradientUnits="userSpaceOnUse">
<stop stop-color="#8F68FF" stop-opacity="0.5"/>
<stop offset="0.504" stop-color="#FC72FF"/>
<stop offset="1" stop-color="#8F68FF" stop-opacity="0.5"/>
</linearGradient>
<linearGradient id="paint17_linear_75_743" x1="220.001" y1="152.129" x2="220.001" y2="184.225" gradientUnits="userSpaceOnUse">
<stop stop-color="#465D98"/>
<stop offset="1" stop-color="#88A2E4"/>
</linearGradient>
<linearGradient id="paint18_linear_75_743" x1="210.378" y1="155.96" x2="222.378" y2="172.973" gradientUnits="userSpaceOnUse">
<stop stop-color="#8F68FF" stop-opacity="0.5"/>
<stop offset="0.504" stop-color="#FC72FF"/>
<stop offset="1" stop-color="#8F68FF" stop-opacity="0.5"/>
</linearGradient>
<linearGradient id="paint19_linear_75_743" x1="205.924" y1="155.376" x2="221.575" y2="171.332" gradientUnits="userSpaceOnUse">
<stop stop-color="#8F68FF" stop-opacity="0.5"/>
<stop offset="0.504" stop-color="#FC72FF"/>
<stop offset="1" stop-color="#8F68FF" stop-opacity="0.5"/>
</linearGradient>
<linearGradient id="paint20_linear_75_743" x1="199.798" y1="150.633" x2="232.177" y2="188.147" gradientUnits="userSpaceOnUse">
<stop stop-color="#8F68FF" stop-opacity="0.5"/>
<stop offset="0.504" stop-color="#FC72FF"/>
<stop offset="1" stop-color="#8F68FF" stop-opacity="0.5"/>
</linearGradient>
<linearGradient id="paint21_linear_75_743" x1="220.001" y1="65.2694" x2="220.001" y2="97.3661" gradientUnits="userSpaceOnUse">
<stop stop-color="#465D98"/>
<stop offset="1" stop-color="#88A2E4"/>
</linearGradient>
<linearGradient id="paint22_linear_75_743" x1="210.363" y1="81.3752" x2="229.642" y2="81.3752" gradientUnits="userSpaceOnUse">
<stop stop-color="white"/>
<stop offset="1" stop-color="#999999"/>
</linearGradient>
<linearGradient id="paint23_linear_75_743" x1="199.734" y1="61.1502" x2="237.843" y2="99.2589" gradientUnits="userSpaceOnUse">
<stop stop-color="#8F68FF" stop-opacity="0.5"/>
<stop offset="0.504" stop-color="#FC72FF"/>
<stop offset="1" stop-color="#8F68FF" stop-opacity="0.5"/>
</linearGradient>
<linearGradient id="paint24_linear_75_743" x1="355.001" y1="62.8241" x2="355.001" y2="94.9207" gradientUnits="userSpaceOnUse">
<stop stop-color="#465D98"/>
<stop offset="1" stop-color="#88A2E4"/>
</linearGradient>
<linearGradient id="paint25_linear_75_743" x1="348.005" y1="78.8725" x2="361.998" y2="78.8725" gradientUnits="userSpaceOnUse">
<stop stop-color="white"/>
<stop offset="1" stop-color="#999999"/>
</linearGradient>
<linearGradient id="paint26_linear_75_743" x1="340.291" y1="62.037" x2="371.717" y2="89.4391" gradientUnits="userSpaceOnUse">
<stop stop-color="#8F68FF" stop-opacity="0.5"/>
<stop offset="0.504" stop-color="#FC72FF"/>
<stop offset="1" stop-color="#8F68FF" stop-opacity="0.5"/>
</linearGradient>
<linearGradient id="paint27_linear_75_743" x1="35.469" y1="142.762" x2="139.774" y2="247.067" gradientUnits="userSpaceOnUse">
<stop stop-color="#8F68FF" stop-opacity="0.5"/>
<stop offset="0.504" stop-color="#FC72FF"/>
<stop offset="1" stop-color="#8F68FF" stop-opacity="0.5"/>
</linearGradient>
<linearGradient id="paint28_linear_75_743" x1="83.7542" y1="135.027" x2="83.7542" y2="247.068" gradientUnits="userSpaceOnUse">
<stop stop-color="#464998"/>
<stop offset="1" stop-color="#8888E4"/>
</linearGradient>
<linearGradient id="paint29_linear_75_743" x1="-34.0306" y1="73.5113" x2="187.434" y2="294.976" gradientUnits="userSpaceOnUse">
<stop stop-color="#8F68FF" stop-opacity="0.5"/>
<stop offset="0.504" stop-color="#FC72FF"/>
<stop offset="1" stop-color="#8F68FF" stop-opacity="0.5"/>
</linearGradient>
<linearGradient id="paint30_linear_75_743" x1="124.73" y1="47.2079" x2="124.73" y2="194.717" gradientUnits="userSpaceOnUse">
<stop stop-color="#8F68FF" stop-opacity="0.5"/>
<stop offset="0.504" stop-color="#FC72FF"/>
<stop offset="1" stop-color="#8F68FF" stop-opacity="0.5"/>
</linearGradient>
<linearGradient id="paint31_linear_75_743" x1="124.554" y1="-50.9033" x2="124.554" y2="262.296" gradientUnits="userSpaceOnUse">
<stop stop-color="#8F68FF" stop-opacity="0.5"/>
<stop offset="0.504" stop-color="#FC72FF"/>
<stop offset="1" stop-color="#8F68FF" stop-opacity="0.5"/>
</linearGradient>
<linearGradient id="paint32_linear_75_743" x1="44.3517" y1="4.62128" x2="101.299" y2="61.5683" gradientUnits="userSpaceOnUse">
<stop stop-color="#8F68FF" stop-opacity="0.5"/>
<stop offset="0.504" stop-color="#FC72FF"/>
<stop offset="1" stop-color="#8F68FF" stop-opacity="0.5"/>
</linearGradient>
<linearGradient id="paint33_linear_75_743" x1="70.7139" y1="0.398192" x2="70.7139" y2="61.5686" gradientUnits="userSpaceOnUse">
<stop stop-color="#464998"/>
<stop offset="1" stop-color="#8888E4"/>
</linearGradient>
<linearGradient id="paint34_linear_75_743" x1="6.40728" y1="-33.1873" x2="127.32" y2="87.7252" gradientUnits="userSpaceOnUse">
<stop stop-color="#8F68FF" stop-opacity="0.5"/>
<stop offset="0.504" stop-color="#FC72FF"/>
<stop offset="1" stop-color="#8F68FF" stop-opacity="0.5"/>
</linearGradient>
<clipPath id="clip0_75_743">
<rect width="19.2578" height="17.3579" fill="white" transform="translate(210.372 159.498)"/>
</clipPath>
<clipPath id="clip1_75_743">
<rect width="19.2578" height="19.2578" fill="white" transform="translate(210.372 71.6887)"/>
</clipPath>
<clipPath id="clip2_75_743">
<rect width="13.9931" height="16.0482" fill="white" transform="translate(348.005 70.8484)"/>
</clipPath>
</defs>
</svg>
