<svg width="506" height="104" viewBox="0 0 506 104" fill="none" xmlns="http://www.w3.org/2000/svg">
<path d="M120.122 57.4535C120.122 73.2542 113.097 82.8702 104.665 90.5212C96.2324 98.1722 85.4082 102.663 74.0363 103.228C62.6644 103.793 51.4485 100.397 42.2995 93.6195C33.1505 86.842 26.6346 77.1019 23.8619 66.0587C21.0893 55.0156 22.2314 43.3527 27.0939 33.0572C31.9563 22.7618 40.2381 14.4709 50.5281 9.59709C60.8182 4.7233 72.4798 3.56823 83.526 6.32868C94.5722 9.08913 104.32 15.5943 111.107 24.7358L102.53 31.1042C97.216 23.947 89.5845 18.8539 80.936 16.6926C72.2876 14.5314 63.1573 15.4357 55.1009 19.2516C47.0444 23.0674 40.5604 29.5587 36.7534 37.6193C32.9465 45.68 32.0522 54.8113 34.223 63.4573C36.3938 72.1034 41.4953 79.7293 48.6584 85.0356C55.8215 90.342 64.6028 93.0005 73.5062 92.5581C82.4097 92.1158 90.8843 88.6 97.4861 82.6098C104.088 76.6196 109.52 70.7609 111.107 63.2411L120.122 57.4535Z" fill="#F16001"/>
<path d="M19.2131 69.8432L17.6172 58.0636C7.11175 63.3259 -16.7124 101.954 26.9586 93.1315C70.6295 84.3088 113.074 50.3384 128.42 35.3477C162.977 1.59148 128.392 -4.34725 104.772 6.92021L113.156 14.2559C135.585 6.41643 132.659 16.7999 128.392 22.9716C115.713 43.5755 54.6592 74.7607 24.4046 84.0177C3.00255 90.5661 12.0261 77.2965 19.2131 69.8432Z" fill="white"/>
<path d="M128.42 22.9262C128.411 22.9413 128.401 22.9565 128.392 22.9716M128.392 22.9716C115.713 43.5755 54.6592 74.7607 24.4046 84.0177C3.00255 90.5661 12.0261 77.2965 19.2131 69.8432L17.6172 58.0636C7.11175 63.3258 -16.7124 101.954 26.9586 93.1315C70.6295 84.3088 113.074 50.3384 128.42 35.3477C162.977 1.59148 128.392 -4.34725 104.772 6.92021L113.156 14.2559C135.585 6.41643 132.659 16.7999 128.392 22.9716Z" stroke="white" stroke-width="1.70228"/>
<mask id="path-4-inside-1_130_41" fill="white">
<path d="M205.448 78.5498H155.792V73.3271L197.272 44.5889H155.792V39.3389H205.448V44.5889L163.995 73.3271H205.448V78.5498ZM249.964 78.5498H221.772C216.03 78.5498 211.327 73.8467 211.327 68.1045V56.3467C211.327 51.0146 216.304 47.1865 221.854 47.1865H241.323C246.847 47.1865 251.823 51.0146 251.823 56.3467V65.4795H216.55V68.1045C216.55 71.0303 218.847 73.3271 221.772 73.3271H249.964V78.5498ZM246.601 60.2568V56.3467C246.601 54.4053 244.55 52.4092 241.323 52.4092H221.854C218.628 52.4092 216.55 54.4053 216.55 56.3467V60.2568H246.601ZM296.722 78.5498H268.53C262.788 78.5498 258.085 73.8467 258.085 68.1045V56.3467C258.085 51.0146 263.062 47.1865 268.612 47.1865H288.081C293.604 47.1865 298.581 51.0146 298.581 56.3467V65.4795H263.308V68.1045C263.308 71.0303 265.604 73.3271 268.53 73.3271H296.722V78.5498ZM293.358 60.2568V56.3467C293.358 54.4053 291.308 52.4092 288.081 52.4092H268.612C265.386 52.4092 263.308 54.4053 263.308 56.3467V60.2568H293.358ZM344.054 78.5498H315.288C309.546 78.5498 304.843 73.8467 304.843 68.1045V57.6318C304.843 51.8896 309.546 47.1865 315.288 47.1865H344.054V52.4092H315.288C312.362 52.4092 310.065 54.7061 310.065 57.6318V68.1045C310.065 71.0303 312.362 73.3271 315.288 73.3271H344.054V78.5498ZM391.522 78.5498H386.3V57.6318C386.3 54.7061 384.03 52.4092 381.077 52.4092H361.472C358.546 52.4092 356.249 54.7061 356.249 57.6318V78.5498H351.026V39.3389H356.249V48.6084C357.808 47.7061 359.585 47.1865 361.472 47.1865H381.077C386.819 47.1865 391.522 51.8896 391.522 57.6318V78.5498ZM439.702 78.5498H407.054C402.022 78.5498 397.894 74.4209 397.894 69.3896C397.894 64.3857 402.022 60.2568 407.054 60.2568H434.479V57.6318C434.479 54.7061 432.21 52.4092 429.257 52.4092H400.519V47.1865H429.257C434.999 47.1865 439.702 51.8896 439.702 57.6318V78.5498ZM434.479 73.3271V65.4795H407.054C404.812 65.4795 403.116 67.1748 403.116 69.3896C403.116 71.6318 404.812 73.3271 407.054 73.3271H434.479ZM452.882 44.5889H447.659V39.3389H452.882V44.5889ZM452.882 78.5498H447.659V47.1865H452.882V78.5498ZM501.718 78.5498H496.495V57.6318C496.495 54.7061 494.226 52.4092 491.272 52.4092H471.667C468.741 52.4092 466.472 54.7061 466.444 57.6318V78.5498H461.222V47.1865H466.444V49.3467C468.003 47.7061 469.78 47.1865 471.667 47.1865H491.272C497.015 47.1865 501.718 51.8896 501.718 57.6318V78.5498Z"/>
</mask>
<path d="M205.448 78.5498H155.792V73.3271L197.272 44.5889H155.792V39.3389H205.448V44.5889L163.995 73.3271H205.448V78.5498ZM249.964 78.5498H221.772C216.03 78.5498 211.327 73.8467 211.327 68.1045V56.3467C211.327 51.0146 216.304 47.1865 221.854 47.1865H241.323C246.847 47.1865 251.823 51.0146 251.823 56.3467V65.4795H216.55V68.1045C216.55 71.0303 218.847 73.3271 221.772 73.3271H249.964V78.5498ZM246.601 60.2568V56.3467C246.601 54.4053 244.55 52.4092 241.323 52.4092H221.854C218.628 52.4092 216.55 54.4053 216.55 56.3467V60.2568H246.601ZM296.722 78.5498H268.53C262.788 78.5498 258.085 73.8467 258.085 68.1045V56.3467C258.085 51.0146 263.062 47.1865 268.612 47.1865H288.081C293.604 47.1865 298.581 51.0146 298.581 56.3467V65.4795H263.308V68.1045C263.308 71.0303 265.604 73.3271 268.53 73.3271H296.722V78.5498ZM293.358 60.2568V56.3467C293.358 54.4053 291.308 52.4092 288.081 52.4092H268.612C265.386 52.4092 263.308 54.4053 263.308 56.3467V60.2568H293.358ZM344.054 78.5498H315.288C309.546 78.5498 304.843 73.8467 304.843 68.1045V57.6318C304.843 51.8896 309.546 47.1865 315.288 47.1865H344.054V52.4092H315.288C312.362 52.4092 310.065 54.7061 310.065 57.6318V68.1045C310.065 71.0303 312.362 73.3271 315.288 73.3271H344.054V78.5498ZM391.522 78.5498H386.3V57.6318C386.3 54.7061 384.03 52.4092 381.077 52.4092H361.472C358.546 52.4092 356.249 54.7061 356.249 57.6318V78.5498H351.026V39.3389H356.249V48.6084C357.808 47.7061 359.585 47.1865 361.472 47.1865H381.077C386.819 47.1865 391.522 51.8896 391.522 57.6318V78.5498ZM439.702 78.5498H407.054C402.022 78.5498 397.894 74.4209 397.894 69.3896C397.894 64.3857 402.022 60.2568 407.054 60.2568H434.479V57.6318C434.479 54.7061 432.21 52.4092 429.257 52.4092H400.519V47.1865H429.257C434.999 47.1865 439.702 51.8896 439.702 57.6318V78.5498ZM434.479 73.3271V65.4795H407.054C404.812 65.4795 403.116 67.1748 403.116 69.3896C403.116 71.6318 404.812 73.3271 407.054 73.3271H434.479ZM452.882 44.5889H447.659V39.3389H452.882V44.5889ZM452.882 78.5498H447.659V47.1865H452.882V78.5498ZM501.718 78.5498H496.495V57.6318C496.495 54.7061 494.226 52.4092 491.272 52.4092H471.667C468.741 52.4092 466.472 54.7061 466.444 57.6318V78.5498H461.222V47.1865H466.444V49.3467C468.003 47.7061 469.78 47.1865 471.667 47.1865H491.272C497.015 47.1865 501.718 51.8896 501.718 57.6318V78.5498Z" fill="white"/>
<path d="M205.448 78.5498V79.5498H206.448V78.5498H205.448ZM155.792 78.5498H154.792V79.5498H155.792V78.5498ZM155.792 73.3271L155.223 72.5052L154.792 72.8034V73.3271H155.792ZM197.272 44.5889L197.842 45.4109L200.472 43.5889H197.272V44.5889ZM155.792 44.5889H154.792V45.5889H155.792V44.5889ZM155.792 39.3389V38.3389H154.792V39.3389H155.792ZM205.448 39.3389H206.448V38.3389H205.448V39.3389ZM205.448 44.5889L206.018 45.4107L206.448 45.1124V44.5889H205.448ZM163.995 73.3271L163.425 72.5053L160.798 74.3271H163.995V73.3271ZM205.448 73.3271H206.448V72.3271H205.448V73.3271ZM205.448 77.5498H155.792V79.5498H205.448V77.5498ZM156.792 78.5498V73.3271H154.792V78.5498H156.792ZM156.361 74.1491L197.842 45.4109L196.703 43.7669L155.223 72.5052L156.361 74.1491ZM197.272 43.5889H155.792V45.5889H197.272V43.5889ZM156.792 44.5889V39.3389H154.792V44.5889H156.792ZM155.792 40.3389H205.448V38.3389H155.792V40.3389ZM204.448 39.3389V44.5889H206.448V39.3389H204.448ZM204.878 43.767L163.425 72.5053L164.565 74.149L206.018 45.4107L204.878 43.767ZM163.995 74.3271H205.448V72.3271H163.995V74.3271ZM204.448 73.3271V78.5498H206.448V73.3271H204.448ZM249.964 78.5498V79.5498H250.964V78.5498H249.964ZM251.823 65.4795V66.4795H252.823V65.4795H251.823ZM216.55 65.4795V64.4795H215.55V65.4795H216.55ZM249.964 73.3271H250.964V72.3271H249.964V73.3271ZM246.601 60.2568V61.2568H247.601V60.2568H246.601ZM216.55 60.2568H215.55V61.2568H216.55V60.2568ZM249.964 77.5498H221.772V79.5498H249.964V77.5498ZM221.772 77.5498C216.583 77.5498 212.327 73.2944 212.327 68.1045H210.327C210.327 74.399 215.478 79.5498 221.772 79.5498V77.5498ZM212.327 68.1045V56.3467H210.327V68.1045H212.327ZM212.327 56.3467C212.327 51.7255 216.683 48.1865 221.854 48.1865V46.1865C215.925 46.1865 210.327 50.3038 210.327 56.3467H212.327ZM221.854 48.1865H241.323V46.1865H221.854V48.1865ZM241.323 48.1865C246.466 48.1865 250.823 51.724 250.823 56.3467H252.823C252.823 50.3053 247.228 46.1865 241.323 46.1865V48.1865ZM250.823 56.3467V65.4795H252.823V56.3467H250.823ZM251.823 64.4795H216.55V66.4795H251.823V64.4795ZM215.55 65.4795V68.1045H217.55V65.4795H215.55ZM215.55 68.1045C215.55 71.5826 218.294 74.3271 221.772 74.3271V72.3271C219.399 72.3271 217.55 70.478 217.55 68.1045H215.55ZM221.772 74.3271H249.964V72.3271H221.772V74.3271ZM248.964 73.3271V78.5498H250.964V73.3271H248.964ZM247.601 60.2568V56.3467H245.601V60.2568H247.601ZM247.601 56.3467C247.601 53.6661 244.895 51.4092 241.323 51.4092V53.4092C244.205 53.4092 245.601 55.1444 245.601 56.3467H247.601ZM241.323 51.4092H221.854V53.4092H241.323V51.4092ZM221.854 51.4092C218.291 51.4092 215.55 53.6601 215.55 56.3467H217.55C217.55 55.1505 218.965 53.4092 221.854 53.4092V51.4092ZM215.55 56.3467V60.2568H217.55V56.3467H215.55ZM216.55 61.2568H246.601V59.2568H216.55V61.2568ZM296.722 78.5498V79.5498H297.722V78.5498H296.722ZM298.581 65.4795V66.4795H299.581V65.4795H298.581ZM263.308 65.4795V64.4795H262.308V65.4795H263.308ZM296.722 73.3271H297.722V72.3271H296.722V73.3271ZM293.358 60.2568V61.2568H294.358V60.2568H293.358ZM263.308 60.2568H262.308V61.2568H263.308V60.2568ZM296.722 77.5498H268.53V79.5498H296.722V77.5498ZM268.53 77.5498C263.34 77.5498 259.085 73.2944 259.085 68.1045H257.085C257.085 74.399 262.236 79.5498 268.53 79.5498V77.5498ZM259.085 68.1045V56.3467H257.085V68.1045H259.085ZM259.085 56.3467C259.085 51.7255 263.441 48.1865 268.612 48.1865V46.1865C262.682 46.1865 257.085 50.3038 257.085 56.3467H259.085ZM268.612 48.1865H288.081V46.1865H268.612V48.1865ZM288.081 48.1865C293.224 48.1865 297.581 51.724 297.581 56.3467H299.581C299.581 50.3053 293.985 46.1865 288.081 46.1865V48.1865ZM297.581 56.3467V65.4795H299.581V56.3467H297.581ZM298.581 64.4795H263.308V66.4795H298.581V64.4795ZM262.308 65.4795V68.1045H264.308V65.4795H262.308ZM262.308 68.1045C262.308 71.5826 265.052 74.3271 268.53 74.3271V72.3271C266.157 72.3271 264.308 70.478 264.308 68.1045H262.308ZM268.53 74.3271H296.722V72.3271H268.53V74.3271ZM295.722 73.3271V78.5498H297.722V73.3271H295.722ZM294.358 60.2568V56.3467H292.358V60.2568H294.358ZM294.358 56.3467C294.358 53.6661 291.652 51.4092 288.081 51.4092V53.4092C290.963 53.4092 292.358 55.1444 292.358 56.3467H294.358ZM288.081 51.4092H268.612V53.4092H288.081V51.4092ZM268.612 51.4092C265.049 51.4092 262.308 53.6601 262.308 56.3467H264.308C264.308 55.1505 265.723 53.4092 268.612 53.4092V51.4092ZM262.308 56.3467V60.2568H264.308V56.3467H262.308ZM263.308 61.2568H293.358V59.2568H263.308V61.2568ZM344.054 78.5498V79.5498H345.054V78.5498H344.054ZM344.054 47.1865H345.054V46.1865H344.054V47.1865ZM344.054 52.4092V53.4092H345.054V52.4092H344.054ZM344.054 73.3271H345.054V72.3271H344.054V73.3271ZM344.054 77.5498H315.288V79.5498H344.054V77.5498ZM315.288 77.5498C310.098 77.5498 305.843 73.2944 305.843 68.1045H303.843C303.843 74.399 308.994 79.5498 315.288 79.5498V77.5498ZM305.843 68.1045V57.6318H303.843V68.1045H305.843ZM305.843 57.6318C305.843 52.4419 310.098 48.1865 315.288 48.1865V46.1865C308.994 46.1865 303.843 51.3374 303.843 57.6318H305.843ZM315.288 48.1865H344.054V46.1865H315.288V48.1865ZM343.054 47.1865V52.4092H345.054V47.1865H343.054ZM344.054 51.4092H315.288V53.4092H344.054V51.4092ZM315.288 51.4092C311.81 51.4092 309.065 54.1538 309.065 57.6318H311.065C311.065 55.2583 312.915 53.4092 315.288 53.4092V51.4092ZM309.065 57.6318V68.1045H311.065V57.6318H309.065ZM309.065 68.1045C309.065 71.5826 311.81 74.3271 315.288 74.3271V72.3271C312.915 72.3271 311.065 70.478 311.065 68.1045H309.065ZM315.288 74.3271H344.054V72.3271H315.288V74.3271ZM343.054 73.3271V78.5498H345.054V73.3271H343.054ZM391.522 78.5498V79.5498H392.522V78.5498H391.522ZM386.3 78.5498H385.3V79.5498H386.3V78.5498ZM356.249 78.5498V79.5498H357.249V78.5498H356.249ZM351.026 78.5498H350.026V79.5498H351.026V78.5498ZM351.026 39.3389V38.3389H350.026V39.3389H351.026ZM356.249 39.3389H357.249V38.3389H356.249V39.3389ZM356.249 48.6084H355.249V50.3428L356.75 49.4738L356.249 48.6084ZM391.522 77.5498H386.3V79.5498H391.522V77.5498ZM387.3 78.5498V57.6318H385.3V78.5498H387.3ZM387.3 57.6318C387.3 54.1572 384.586 51.4092 381.077 51.4092V53.4092C383.475 53.4092 385.3 55.2549 385.3 57.6318H387.3ZM381.077 51.4092H361.472V53.4092H381.077V51.4092ZM361.472 51.4092C357.994 51.4092 355.249 54.1538 355.249 57.6318H357.249C357.249 55.2583 359.098 53.4092 361.472 53.4092V51.4092ZM355.249 57.6318V78.5498H357.249V57.6318H355.249ZM356.249 77.5498H351.026V79.5498H356.249V77.5498ZM352.026 78.5498V39.3389H350.026V78.5498H352.026ZM351.026 40.3389H356.249V38.3389H351.026V40.3389ZM355.249 39.3389V48.6084H357.249V39.3389H355.249ZM356.75 49.4738C358.166 48.6539 359.772 48.1865 361.472 48.1865V46.1865C359.398 46.1865 357.449 46.7582 355.748 47.743L356.75 49.4738ZM361.472 48.1865H381.077V46.1865H361.472V48.1865ZM381.077 48.1865C386.267 48.1865 390.522 52.4419 390.522 57.6318H392.522C392.522 51.3374 387.372 46.1865 381.077 46.1865V48.1865ZM390.522 57.6318V78.5498H392.522V57.6318H390.522ZM439.702 78.5498V79.5498H440.702V78.5498H439.702ZM434.479 60.2568V61.2568H435.479V60.2568H434.479ZM400.519 52.4092H399.519V53.4092H400.519V52.4092ZM400.519 47.1865V46.1865H399.519V47.1865H400.519ZM434.479 73.3271V74.3271H435.479V73.3271H434.479ZM434.479 65.4795H435.479V64.4795H434.479V65.4795ZM439.702 77.5498H407.054V79.5498H439.702V77.5498ZM407.054 77.5498C402.575 77.5498 398.894 73.8686 398.894 69.3896H396.894C396.894 74.9732 401.47 79.5498 407.054 79.5498V77.5498ZM398.894 69.3896C398.894 64.94 402.573 61.2568 407.054 61.2568V59.2568C401.472 59.2568 396.894 63.8315 396.894 69.3896H398.894ZM407.054 61.2568H434.479V59.2568H407.054V61.2568ZM435.479 60.2568V57.6318H433.479V60.2568H435.479ZM435.479 57.6318C435.479 54.1572 432.766 51.4092 429.257 51.4092V53.4092C431.654 53.4092 433.479 55.2549 433.479 57.6318H435.479ZM429.257 51.4092H400.519V53.4092H429.257V51.4092ZM401.519 52.4092V47.1865H399.519V52.4092H401.519ZM400.519 48.1865H429.257V46.1865H400.519V48.1865ZM429.257 48.1865C434.447 48.1865 438.702 52.4419 438.702 57.6318H440.702C440.702 51.3374 435.551 46.1865 429.257 46.1865V48.1865ZM438.702 57.6318V78.5498H440.702V57.6318H438.702ZM435.479 73.3271V65.4795H433.479V73.3271H435.479ZM434.479 64.4795H407.054V66.4795H434.479V64.4795ZM407.054 64.4795C404.264 64.4795 402.116 66.6179 402.116 69.3896H404.116C404.116 67.7317 405.359 66.4795 407.054 66.4795V64.4795ZM402.116 69.3896C402.116 72.1841 404.259 74.3271 407.054 74.3271V72.3271C405.364 72.3271 404.116 71.0796 404.116 69.3896H402.116ZM407.054 74.3271H434.479V72.3271H407.054V74.3271ZM452.882 44.5889V45.5889H453.882V44.5889H452.882ZM447.659 44.5889H446.659V45.5889H447.659V44.5889ZM447.659 39.3389V38.3389H446.659V39.3389H447.659ZM452.882 39.3389H453.882V38.3389H452.882V39.3389ZM452.882 78.5498V79.5498H453.882V78.5498H452.882ZM447.659 78.5498H446.659V79.5498H447.659V78.5498ZM447.659 47.1865V46.1865H446.659V47.1865H447.659ZM452.882 47.1865H453.882V46.1865H452.882V47.1865ZM452.882 43.5889H447.659V45.5889H452.882V43.5889ZM448.659 44.5889V39.3389H446.659V44.5889H448.659ZM447.659 40.3389H452.882V38.3389H447.659V40.3389ZM451.882 39.3389V44.5889H453.882V39.3389H451.882ZM452.882 77.5498H447.659V79.5498H452.882V77.5498ZM448.659 78.5498V47.1865H446.659V78.5498H448.659ZM447.659 48.1865H452.882V46.1865H447.659V48.1865ZM451.882 47.1865V78.5498H453.882V47.1865H451.882ZM501.718 78.5498V79.5498H502.718V78.5498H501.718ZM496.495 78.5498H495.495V79.5498H496.495V78.5498ZM466.444 57.6318L465.444 57.6225V57.6318H466.444ZM466.444 78.5498V79.5498H467.444V78.5498H466.444ZM461.222 78.5498H460.222V79.5498H461.222V78.5498ZM461.222 47.1865V46.1865H460.222V47.1865H461.222ZM466.444 47.1865H467.444V46.1865H466.444V47.1865ZM466.444 49.3467H465.444V51.8512L467.169 50.0354L466.444 49.3467ZM501.718 77.5498H496.495V79.5498H501.718V77.5498ZM497.495 78.5498V57.6318H495.495V78.5498H497.495ZM497.495 57.6318C497.495 54.1572 494.781 51.4092 491.272 51.4092V53.4092C493.67 53.4092 495.495 55.2549 495.495 57.6318H497.495ZM491.272 51.4092H471.667V53.4092H491.272V51.4092ZM471.667 51.4092C468.18 51.4092 465.477 54.1603 465.444 57.6225L467.444 57.6412C467.467 55.2518 469.302 53.4092 471.667 53.4092V51.4092ZM465.444 57.6318V78.5498H467.444V57.6318H465.444ZM466.444 77.5498H461.222V79.5498H466.444V77.5498ZM462.222 78.5498V47.1865H460.222V78.5498H462.222ZM461.222 48.1865H466.444V46.1865H461.222V48.1865ZM465.444 47.1865V49.3467H467.444V47.1865H465.444ZM467.169 50.0354C468.501 48.6336 469.994 48.1865 471.667 48.1865V46.1865C469.567 46.1865 467.505 46.7785 465.719 48.6579L467.169 50.0354ZM471.667 48.1865H491.272V46.1865H471.667V48.1865ZM491.272 48.1865C496.462 48.1865 500.718 52.4419 500.718 57.6318H502.718C502.718 51.3374 497.567 46.1865 491.272 46.1865V48.1865ZM500.718 57.6318V78.5498H502.718V57.6318H500.718Z" fill="black" mask="url(#path-4-inside-1_130_41)"/>
</svg>
