<svg width="116" height="24" viewBox="0 0 116 24" fill="none" xmlns="http://www.w3.org/2000/svg">
<path d="M13.3523 13.3681L12.4673 15.7581C12.4432 15.8243 12.4432 15.8969 12.4673 15.9631L13.9903 20.0751L15.7503 19.0741L13.6373 13.3681C13.6265 13.339 13.607 13.3139 13.5816 13.2962C13.5561 13.2785 13.5258 13.269 13.4948 13.269C13.4637 13.269 13.4335 13.2785 13.408 13.2962C13.3825 13.3139 13.3631 13.339 13.3523 13.3681ZM15.1263 9.34911C15.1155 9.32002 15.096 9.29493 15.0706 9.27721C15.0451 9.2595 15.0148 9.25 14.9838 9.25C14.9527 9.25 14.9225 9.2595 14.897 9.27721C14.8715 9.29493 14.8521 9.32002 14.8413 9.34911L13.9563 11.7391C13.9322 11.8053 13.9322 11.8779 13.9563 11.9441L16.4503 18.6761L18.2113 17.6751L15.1263 9.34911Z" fill="url(#paint0_linear_869_793)"/>
<path d="M11.9964 4.115C12.0403 4.11664 12.0834 4.12791 12.1224 4.148L18.8374 7.966C18.8753 7.9876 18.9068 8.01871 18.9289 8.05625C18.951 8.09379 18.9629 8.13645 18.9634 8.18V15.815C18.9634 15.904 18.9154 15.985 18.8374 16.029L12.1224 19.848C12.084 19.8696 12.0405 19.8806 11.9964 19.88C11.9529 19.8785 11.9103 19.8676 11.8714 19.848L5.15644 16.033C5.11847 16.0113 5.08685 15.98 5.06474 15.9423C5.04263 15.9046 5.0308 15.8617 5.03044 15.818V8.182C5.03044 8.093 5.07844 8.012 5.15644 7.967L11.8714 4.149C11.9096 4.1273 11.9526 4.11561 11.9964 4.115ZM11.9964 3C11.7584 3 11.5184 3.06 11.3044 3.183L4.59144 7C4.38165 7.11806 4.20696 7.28969 4.08521 7.49735C3.96346 7.70502 3.89901 7.94128 3.89844 8.182V15.817C3.89844 16.304 4.16244 16.755 4.59144 16.998L11.3054 20.817C11.5169 20.9363 11.7556 20.9991 11.9984 20.9991C12.2413 20.9991 12.48 20.9363 12.6914 20.817L19.4054 16.999C19.6152 16.8809 19.7899 16.7093 19.9117 16.5016C20.0334 16.294 20.0979 16.0577 20.0984 15.817V8.182C20.0979 7.94128 20.0334 7.70502 19.9117 7.49735C19.7899 7.28969 19.6152 7.11806 19.4054 7L12.6894 3.183C12.4782 3.0629 12.2394 2.99983 11.9964 3Z" fill="url(#paint1_linear_869_793)"/>
<path d="M7.55888 18.6828L8.17587 17.0168L9.41988 18.0348L8.25688 19.0808L7.55888 18.6828ZM11.4329 7.63283H9.73088C9.66883 7.63216 9.6081 7.65075 9.55706 7.68603C9.50602 7.72131 9.46718 7.77155 9.44588 7.82983L5.79688 17.6818L7.55888 18.6828L11.5759 7.83383C11.5839 7.81108 11.5864 7.78672 11.583 7.76283C11.5796 7.73893 11.5705 7.71621 11.5565 7.69658C11.5424 7.67695 11.5239 7.66099 11.5024 7.65007C11.4808 7.63915 11.457 7.63258 11.4329 7.63283Z" fill="url(#paint2_linear_869_793)"/>
<path d="M14.4118 7.63282H12.7088C12.6469 7.63236 12.5864 7.65104 12.5356 7.68631C12.4847 7.72158 12.4461 7.7717 12.4248 7.82982L8.25781 19.0798L10.0188 20.0798L14.5538 7.83382C14.5618 7.81115 14.5643 7.78688 14.5609 7.76307C14.5576 7.73925 14.5486 7.71659 14.5347 7.69698C14.5208 7.67737 14.5023 7.6614 14.481 7.65041C14.4596 7.63942 14.4359 7.63273 14.4118 7.63282Z" fill="url(#paint3_linear_869_793)"/>
<path d="M38.9723 18.5H36.4411L41.0497 5.40909H43.9773L48.5923 18.5H46.0611L42.5646 8.09375H42.4624L38.9723 18.5ZM39.0554 13.3672H45.9588V15.272H39.0554V13.3672ZM50.5743 18.5V8.68182H52.8179V10.3182H52.9202C53.0992 9.75142 53.406 9.31463 53.8406 9.00781C54.2796 8.69673 54.7803 8.54119 55.3428 8.54119C55.4706 8.54119 55.6134 8.54758 55.771 8.56037C55.933 8.56889 56.0672 8.58381 56.1737 8.60511V10.7337C56.0757 10.6996 55.9202 10.6697 55.7071 10.6442C55.4983 10.6143 55.2959 10.5994 55.0999 10.5994C54.678 10.5994 54.2987 10.6911 53.9621 10.8743C53.6297 11.0533 53.3676 11.3026 53.1759 11.6222C52.9841 11.9418 52.8882 12.3104 52.8882 12.728V18.5H50.5743ZM58.1733 18.5V5.40909H60.4872V10.3054H60.5831C60.7024 10.0668 60.8707 9.81321 61.0881 9.54474C61.3054 9.27202 61.5994 9.03977 61.9702 8.84801C62.3409 8.65199 62.8139 8.55398 63.3892 8.55398C64.1477 8.55398 64.8317 8.74787 65.4411 9.13565C66.0547 9.51918 66.5405 10.0881 66.8984 10.8423C67.2607 11.5923 67.4418 12.5128 67.4418 13.6037C67.4418 14.6818 67.2649 15.598 66.9112 16.3523C66.5575 17.1065 66.076 17.6818 65.4666 18.0781C64.8573 18.4744 64.1669 18.6726 63.3956 18.6726C62.8331 18.6726 62.3665 18.5788 61.9957 18.3913C61.625 18.2038 61.3267 17.978 61.1009 17.7138C60.8793 17.4453 60.7067 17.1918 60.5831 16.9531H60.4489V18.5H58.1733ZM60.4425 13.5909C60.4425 14.2259 60.532 14.782 60.7109 15.2592C60.8942 15.7365 61.1563 16.1094 61.4972 16.3778C61.8423 16.642 62.2599 16.7741 62.75 16.7741C63.2614 16.7741 63.6896 16.6378 64.0348 16.3651C64.38 16.0881 64.6399 15.7109 64.8146 15.2337C64.9936 14.7521 65.0831 14.2045 65.0831 13.5909C65.0831 12.9815 64.9957 12.4403 64.821 11.9673C64.6463 11.4943 64.3864 11.1236 64.0412 10.8551C63.696 10.5866 63.2656 10.4524 62.75 10.4524C62.2557 10.4524 61.8359 10.5824 61.4908 10.8423C61.1456 11.1023 60.8835 11.4666 60.7046 11.9354C60.5298 12.4041 60.4425 12.956 60.4425 13.5909ZM69.7689 18.5V8.68182H72.0828V18.5H69.7689ZM70.9323 7.28835C70.5658 7.28835 70.2505 7.1669 69.9863 6.92401C69.722 6.67685 69.5899 6.38068 69.5899 6.03551C69.5899 5.68608 69.722 5.38991 69.9863 5.14702C70.2505 4.89986 70.5658 4.77628 70.9323 4.77628C71.303 4.77628 71.6184 4.89986 71.8783 5.14702C72.1425 5.38991 72.2746 5.68608 72.2746 6.03551C72.2746 6.38068 72.1425 6.67685 71.8783 6.92401C71.6184 7.1669 71.303 7.28835 70.9323 7.28835ZM79.725 8.68182V10.4716H74.0808V8.68182H79.725ZM75.4743 6.32955H77.7882V15.5469C77.7882 15.858 77.8351 16.0966 77.9288 16.2628C78.0268 16.4247 78.1547 16.5355 78.3123 16.5952C78.47 16.6548 78.6447 16.6847 78.8365 16.6847C78.9814 16.6847 79.1135 16.674 79.2328 16.6527C79.3564 16.6314 79.4501 16.6122 79.514 16.5952L79.904 18.4041C79.7804 18.4467 79.6035 18.4936 79.3734 18.5447C79.1476 18.5959 78.8706 18.6257 78.5424 18.6342C77.9629 18.6513 77.4409 18.5639 76.9764 18.3722C76.5119 18.1761 76.1433 17.8736 75.8706 17.4645C75.6021 17.0554 75.47 16.544 75.4743 15.9304V6.32955ZM82.0202 18.5V8.68182H84.2638V10.3182H84.3661C84.545 9.75142 84.8518 9.31463 85.2865 9.00781C85.7254 8.69673 86.2261 8.54119 86.7886 8.54119C86.9165 8.54119 87.0592 8.54758 87.2169 8.56037C87.3788 8.56889 87.5131 8.58381 87.6196 8.60511V10.7337C87.5216 10.6996 87.3661 10.6697 87.153 10.6442C86.9442 10.6143 86.7418 10.5994 86.5457 10.5994C86.1239 10.5994 85.7446 10.6911 85.408 10.8743C85.0756 11.0533 84.8135 11.3026 84.6217 11.6222C84.43 11.9418 84.3341 12.3104 84.3341 12.728V18.5H82.0202ZM95.7747 14.3707V8.68182H98.0886V18.5H95.845V16.755H95.7427C95.5212 17.3047 95.1568 17.7543 94.6497 18.1037C94.1469 18.4531 93.5268 18.6278 92.7896 18.6278C92.1462 18.6278 91.5773 18.4851 91.0829 18.1996C90.5929 17.9098 90.2094 17.4901 89.9324 16.9403C89.6554 16.3864 89.5169 15.7173 89.5169 14.9332V8.68182H91.8308V14.5753C91.8308 15.1974 92.0013 15.6918 92.3422 16.0582C92.6831 16.4247 93.1305 16.608 93.6845 16.608C94.0254 16.608 94.3557 16.5249 94.6753 16.3587C94.9949 16.1925 95.2569 15.9453 95.4615 15.6172C95.6703 15.2848 95.7747 14.8693 95.7747 14.3707ZM100.828 18.5V8.68182H103.04V10.3501H103.155C103.359 9.78764 103.698 9.34872 104.171 9.03338C104.644 8.71378 105.209 8.55398 105.865 8.55398C106.53 8.55398 107.09 8.71591 107.546 9.03977C108.006 9.35937 108.33 9.79616 108.518 10.3501H108.62C108.837 9.80469 109.204 9.37003 109.719 9.04616C110.239 8.71804 110.855 8.55398 111.567 8.55398C112.47 8.55398 113.207 8.83949 113.778 9.41051C114.349 9.98153 114.635 10.8146 114.635 11.9098V18.5H112.315V12.2678C112.315 11.6584 112.153 11.2131 111.829 10.9318C111.505 10.6463 111.109 10.5036 110.64 10.5036C110.082 10.5036 109.645 10.6783 109.329 11.0277C109.018 11.3729 108.863 11.8224 108.863 12.3764V18.5H106.594V12.1719C106.594 11.6648 106.44 11.2599 106.133 10.9574C105.831 10.6548 105.435 10.5036 104.945 10.5036C104.612 10.5036 104.31 10.5888 104.037 10.7592C103.764 10.9254 103.547 11.1619 103.385 11.4688C103.223 11.7713 103.142 12.125 103.142 12.5298V18.5H100.828Z" fill="url(#paint4_linear_869_793)"/>
<defs>
<linearGradient id="paint0_linear_869_793" x1="12.4492" y1="14.6626" x2="18.2113" y2="14.6626" gradientUnits="userSpaceOnUse">
<stop stop-color="white"/>
<stop offset="1" stop-color="#999999"/>
</linearGradient>
<linearGradient id="paint1_linear_869_793" x1="3.89844" y1="11.9995" x2="20.0984" y2="11.9995" gradientUnits="userSpaceOnUse">
<stop stop-color="white"/>
<stop offset="1" stop-color="#999999"/>
</linearGradient>
<linearGradient id="paint2_linear_869_793" x1="5.79688" y1="13.3568" x2="11.5845" y2="13.3568" gradientUnits="userSpaceOnUse">
<stop stop-color="white"/>
<stop offset="1" stop-color="#999999"/>
</linearGradient>
<linearGradient id="paint3_linear_869_793" x1="8.25781" y1="13.8563" x2="14.5624" y2="13.8563" gradientUnits="userSpaceOnUse">
<stop stop-color="white"/>
<stop offset="1" stop-color="#999999"/>
</linearGradient>
<linearGradient id="paint4_linear_869_793" x1="36" y1="12" x2="116" y2="12" gradientUnits="userSpaceOnUse">
<stop stop-color="white"/>
<stop offset="1" stop-color="#999999"/>
</linearGradient>
</defs>
</svg>
