<svg width="130" height="24" viewBox="0 0 130 24" fill="none" xmlns="http://www.w3.org/2000/svg">
<path d="M6.06033 15.58L11.6703 5.96995C11.8303 5.68995 12.2303 5.66995 12.4203 5.92995L13.9803 8.01995C14.4303 8.61995 14.4603 9.42995 14.0703 10.07L10.7303 15.42C10.4003 15.95 9.82034 16.27 9.19034 16.27H6.45035C6.10035 16.26 5.88033 15.88 6.06033 15.58Z" fill="url(#paint0_linear_869_835)"/>
<path d="M15.2401 12.3698L13.3201 15.5698C13.1401 15.8698 13.3601 16.2598 13.7101 16.2598H17.5501C17.9001 16.2598 18.1201 15.8798 17.9401 15.5698L16.0201 12.3698C15.8501 12.0798 15.4201 12.0798 15.2401 12.3698Z" fill="url(#paint1_linear_869_835)"/>
<path opacity="0.1" d="M12 24C18.6274 24 24 18.6274 24 12C24 5.37258 18.6274 0 12 0C5.37258 0 0 5.37258 0 12C0 18.6274 5.37258 24 12 24Z" fill="url(#paint2_linear_869_835)"/>
<path d="M38.9723 18.5H36.4411L41.0497 5.40909H43.9773L48.5923 18.5H46.0611L42.5646 8.09375H42.4624L38.9723 18.5ZM39.0554 13.3672H45.9588V15.272H39.0554V13.3672ZM58.1137 8.68182L54.6173 18.5H52.0605L48.564 8.68182H51.0313L53.2877 15.9751H53.39L55.6528 8.68182H58.1137ZM62.619 18.6982C61.9968 18.6982 61.4364 18.5874 60.9379 18.3658C60.4435 18.1399 60.0515 17.8075 59.7617 17.3686C59.4762 16.9297 59.3335 16.3885 59.3335 15.745C59.3335 15.1911 59.4357 14.733 59.6403 14.3707C59.8448 14.0085 60.1239 13.7188 60.4776 13.5014C60.8313 13.2841 61.2298 13.12 61.6729 13.0092C62.1204 12.8942 62.5827 12.8111 63.06 12.7599C63.6353 12.7003 64.1019 12.647 64.4599 12.6001C64.8178 12.549 65.0778 12.4723 65.2397 12.37C65.4059 12.2635 65.489 12.0994 65.489 11.8778V11.8395C65.489 11.358 65.3462 10.9851 65.0607 10.7209C64.7752 10.4567 64.364 10.3246 63.8271 10.3246C63.2603 10.3246 62.8107 10.4482 62.4783 10.6953C62.1502 10.9425 61.9286 11.2344 61.8136 11.571L59.6531 11.2642C59.8235 10.6676 60.1048 10.169 60.4968 9.76847C60.8889 9.36364 61.3683 9.06108 61.935 8.8608C62.5018 8.65625 63.1282 8.55398 63.8143 8.55398C64.2873 8.55398 64.7582 8.60938 65.2269 8.72017C65.6957 8.83097 66.1239 9.0142 66.5117 9.26989C66.8995 9.52131 67.2106 9.86435 67.445 10.299C67.6836 10.7337 67.8029 11.277 67.8029 11.929V18.5H65.5785V17.1513H65.5018C65.3612 17.424 65.163 17.6797 64.9073 17.9183C64.6559 18.1527 64.3384 18.3423 63.9549 18.4872C63.5756 18.6278 63.1303 18.6982 62.619 18.6982ZM63.2198 16.9979C63.6843 16.9979 64.087 16.9062 64.4279 16.723C64.7688 16.5355 65.0309 16.2884 65.2141 15.9815C65.4016 15.6747 65.4954 15.3402 65.4954 14.978V13.821C65.4229 13.8807 65.2994 13.9361 65.1247 13.9872C64.9542 14.0384 64.7624 14.0831 64.5494 14.1214C64.3363 14.1598 64.1254 14.1939 63.9166 14.2237C63.7077 14.2536 63.5266 14.2791 63.3732 14.3004C63.0281 14.3473 62.7191 14.424 62.4464 14.5305C62.1737 14.6371 61.9585 14.7862 61.8008 14.978C61.6431 15.1655 61.5643 15.4084 61.5643 15.7067C61.5643 16.1328 61.7198 16.4545 62.0309 16.6719C62.342 16.8892 62.7383 16.9979 63.2198 16.9979ZM72.8035 5.40909V18.5H70.4896V5.40909H72.8035ZM78.3683 18.6982C77.7461 18.6982 77.1857 18.5874 76.6872 18.3658C76.1928 18.1399 75.8008 17.8075 75.511 17.3686C75.2255 16.9297 75.0828 16.3885 75.0828 15.745C75.0828 15.1911 75.185 14.733 75.3896 14.3707C75.5941 14.0085 75.8732 13.7188 76.2269 13.5014C76.5806 13.2841 76.9791 13.12 77.4222 13.0092C77.8697 12.8942 78.332 12.8111 78.8093 12.7599C79.3846 12.7003 79.8512 12.647 80.2092 12.6001C80.5671 12.549 80.8271 12.4723 80.989 12.37C81.1552 12.2635 81.2383 12.0994 81.2383 11.8778V11.8395C81.2383 11.358 81.0955 10.9851 80.81 10.7209C80.5245 10.4567 80.1133 10.3246 79.5764 10.3246C79.0096 10.3246 78.56 10.4482 78.2276 10.6953C77.8995 10.9425 77.6779 11.2344 77.5629 11.571L75.4024 11.2642C75.5728 10.6676 75.8541 10.169 76.2461 9.76847C76.6382 9.36364 77.1176 9.06108 77.6843 8.8608C78.2511 8.65625 78.8775 8.55398 79.5636 8.55398C80.0366 8.55398 80.5075 8.60938 80.9762 8.72017C81.445 8.83097 81.8732 9.0142 82.261 9.26989C82.6488 9.52131 82.9599 9.86435 83.1943 10.299C83.4329 10.7337 83.5522 11.277 83.5522 11.929V18.5H81.3278V17.1513H81.2511C81.1105 17.424 80.9123 17.6797 80.6566 17.9183C80.4052 18.1527 80.0877 18.3423 79.7042 18.4872C79.3249 18.6278 78.8796 18.6982 78.3683 18.6982ZM78.9691 16.9979C79.4336 16.9979 79.8363 16.9062 80.1772 16.723C80.5181 16.5355 80.7802 16.2884 80.9634 15.9815C81.1509 15.6747 81.2447 15.3402 81.2447 14.978V13.821C81.1722 13.8807 81.0487 13.9361 80.8739 13.9872C80.7035 14.0384 80.5117 14.0831 80.2987 14.1214C80.0856 14.1598 79.8747 14.1939 79.6659 14.2237C79.457 14.2536 79.2759 14.2791 79.1225 14.3004C78.7774 14.3473 78.4684 14.424 78.1957 14.5305C77.923 14.6371 77.7078 14.7862 77.5501 14.978C77.3924 15.1655 77.3136 15.4084 77.3136 15.7067C77.3136 16.1328 77.4691 16.4545 77.7802 16.6719C78.0913 16.8892 78.4876 16.9979 78.9691 16.9979ZM88.5528 12.7472V18.5H86.2389V8.68182H88.4506V10.3501H88.5656C88.7915 9.80043 89.1516 9.36364 89.6459 9.03977C90.1445 8.71591 90.7602 8.55398 91.4932 8.55398C92.1707 8.55398 92.7609 8.69886 93.2638 8.98864C93.7709 9.27841 94.1629 9.69815 94.4399 10.2479C94.7212 10.7976 94.8597 11.4645 94.8554 12.2486V18.5H92.5415V12.6065C92.5415 11.9503 92.371 11.4368 92.0301 11.0661C91.6935 10.6953 91.2268 10.5099 90.6303 10.5099C90.2254 10.5099 89.8653 10.5994 89.55 10.7784C89.2389 10.9531 88.9939 11.2067 88.8149 11.5391C88.6402 11.8714 88.5528 12.2741 88.5528 12.7472ZM101.85 18.6918C100.87 18.6918 100.029 18.4766 99.3255 18.0462C98.6266 17.6158 98.0876 17.0213 97.7083 16.2628C97.3333 15.5 97.1458 14.6222 97.1458 13.6293C97.1458 12.6321 97.3376 11.7521 97.7211 10.9893C98.1046 10.2223 98.6458 9.62571 99.3447 9.19957C100.048 8.76918 100.879 8.55398 101.838 8.55398C102.634 8.55398 103.34 8.70099 103.953 8.99503C104.571 9.2848 105.063 9.69602 105.43 10.2287C105.796 10.7571 106.005 11.375 106.056 12.0824H103.845C103.755 11.6094 103.542 11.2152 103.205 10.8999C102.873 10.5803 102.428 10.4205 101.87 10.4205C101.397 10.4205 100.981 10.5483 100.623 10.804C100.265 11.0554 99.986 11.4176 99.7857 11.8906C99.5897 12.3636 99.4917 12.9304 99.4917 13.5909C99.4917 14.2599 99.5897 14.8352 99.7857 15.3168C99.9817 15.794 100.257 16.1626 100.61 16.4226C100.968 16.6783 101.388 16.8061 101.87 16.8061C102.21 16.8061 102.515 16.7422 102.784 16.6143C103.056 16.4822 103.284 16.2926 103.468 16.0455C103.651 15.7983 103.776 15.4979 103.845 15.1442H106.056C106.001 15.8388 105.796 16.4545 105.443 16.9915C105.089 17.5241 104.607 17.9418 103.998 18.2443C103.389 18.5426 102.673 18.6918 101.85 18.6918ZM110.63 12.7472V18.5H108.316V5.40909H110.579V10.3501H110.694C110.924 9.79616 111.28 9.35937 111.762 9.03977C112.247 8.71591 112.865 8.55398 113.615 8.55398C114.297 8.55398 114.892 8.69673 115.399 8.98224C115.906 9.26776 116.298 9.68537 116.575 10.2351C116.856 10.7848 116.997 11.456 116.997 12.2486V18.5H114.683V12.6065C114.683 11.946 114.512 11.4325 114.171 11.0661C113.835 10.6953 113.362 10.5099 112.752 10.5099C112.343 10.5099 111.977 10.5994 111.653 10.7784C111.333 10.9531 111.082 11.2067 110.899 11.5391C110.72 11.8714 110.63 12.2741 110.63 12.7472ZM124.062 18.6918C123.078 18.6918 122.227 18.4872 121.512 18.0781C120.8 17.6648 120.252 17.081 119.869 16.3267C119.485 15.5682 119.294 14.6754 119.294 13.6484C119.294 12.6385 119.485 11.7521 119.869 10.9893C120.257 10.2223 120.798 9.62571 121.492 9.19957C122.187 8.76918 123.003 8.55398 123.941 8.55398C124.546 8.55398 125.117 8.65199 125.654 8.84801C126.195 9.03977 126.672 9.33807 127.085 9.7429C127.503 10.1477 127.831 10.6634 128.07 11.2898C128.308 11.9119 128.428 12.6534 128.428 13.5142V14.2237H120.38V12.6641H126.21C126.205 12.2209 126.11 11.8267 125.922 11.4815C125.735 11.1321 125.473 10.8572 125.136 10.657C124.803 10.4567 124.416 10.3565 123.973 10.3565C123.499 10.3565 123.084 10.4716 122.726 10.7017C122.368 10.9276 122.089 11.2259 121.889 11.5966C121.693 11.9631 121.593 12.3658 121.588 12.8047V14.1662C121.588 14.7372 121.693 15.2273 121.901 15.6364C122.11 16.0412 122.402 16.3523 122.777 16.5696C123.152 16.7827 123.591 16.8892 124.094 16.8892C124.431 16.8892 124.735 16.8423 125.008 16.7486C125.281 16.6506 125.517 16.5078 125.718 16.3203C125.918 16.1328 126.069 15.9006 126.171 15.6236L128.332 15.8665C128.196 16.4375 127.936 16.9361 127.552 17.3622C127.173 17.7841 126.687 18.1122 126.095 18.3466C125.502 18.5767 124.825 18.6918 124.062 18.6918Z" fill="url(#paint3_linear_869_835)"/>
<defs>
<linearGradient id="paint0_linear_869_835" x1="5.99609" y1="11.0084" x2="14.3419" y2="11.0084" gradientUnits="userSpaceOnUse">
<stop stop-color="white"/>
<stop offset="1" stop-color="#999999"/>
</linearGradient>
<linearGradient id="paint1_linear_869_835" x1="13.2559" y1="14.2061" x2="18.0043" y2="14.2061" gradientUnits="userSpaceOnUse">
<stop stop-color="white"/>
<stop offset="1" stop-color="#999999"/>
</linearGradient>
<linearGradient id="paint2_linear_869_835" x1="0" y1="12" x2="24" y2="12" gradientUnits="userSpaceOnUse">
<stop stop-color="white"/>
<stop offset="1" stop-color="#999999"/>
</linearGradient>
<linearGradient id="paint3_linear_869_835" x1="36" y1="12" x2="130" y2="12" gradientUnits="userSpaceOnUse">
<stop stop-color="white"/>
<stop offset="1" stop-color="#999999"/>
</linearGradient>
</defs>
</svg>
