<svg width="86" height="30" viewBox="0 0 86 30" fill="none" xmlns="http://www.w3.org/2000/svg">
<path d="M15.48 26.25C21.705 26.25 26.75 21.2125 26.75 15C26.75 8.7875 21.705 3.75 15.48 3.75C9.575 3.75 4.73 8.28375 4.25 14.055H19.1462V15.9462H4.25C4.73125 21.7162 9.575 26.25 15.48 26.25Z" fill="url(#paint0_linear_869_777)"/>
<path d="M43.7912 21.5V8.40909H48.8026C49.7486 8.40909 50.5348 8.55824 51.1612 8.85653C51.7919 9.15057 52.2628 9.55327 52.5739 10.0646C52.8892 10.576 53.0469 11.1555 53.0469 11.8033C53.0469 12.3359 52.9446 12.7919 52.7401 13.1712C52.5355 13.5462 52.2607 13.8509 51.9155 14.0852C51.5703 14.3196 51.1847 14.4879 50.7585 14.5902V14.718C51.223 14.7436 51.6683 14.8864 52.0945 15.1463C52.5249 15.402 52.8764 15.7642 53.1491 16.233C53.4219 16.7017 53.5582 17.2685 53.5582 17.9332C53.5582 18.6108 53.3942 19.2202 53.0661 19.7614C52.7379 20.2983 52.2436 20.7223 51.5831 21.0334C50.9226 21.3445 50.0916 21.5 49.0902 21.5H43.7912ZM46.1626 19.5185H48.7131C49.5739 19.5185 50.1939 19.3544 50.5732 19.0263C50.9567 18.6939 51.1484 18.2678 51.1484 17.7479C51.1484 17.3601 51.0526 17.0107 50.8608 16.6996C50.669 16.3842 50.3963 16.1371 50.0426 15.9581C49.6889 15.7749 49.267 15.6832 48.777 15.6832H46.1626V19.5185ZM46.1626 13.9766H48.5085C48.9176 13.9766 49.2862 13.902 49.6143 13.7528C49.9425 13.5994 50.2003 13.3842 50.3878 13.1072C50.5795 12.826 50.6754 12.4936 50.6754 12.1101C50.6754 11.603 50.4964 11.1854 50.1385 10.8572C49.7848 10.5291 49.2585 10.3651 48.5597 10.3651H46.1626V13.9766ZM58.7043 21.6982C58.0821 21.6982 57.5218 21.5874 57.0232 21.3658C56.5289 21.1399 56.1368 20.8075 55.847 20.3686C55.5615 19.9297 55.4188 19.3885 55.4188 18.745C55.4188 18.1911 55.521 17.733 55.7256 17.3707C55.9301 17.0085 56.2093 16.7188 56.5629 16.5014C56.9166 16.2841 57.3151 16.12 57.7583 16.0092C58.2057 15.8942 58.6681 15.8111 59.1453 15.7599C59.7206 15.7003 60.1872 15.647 60.5452 15.6001C60.9031 15.549 61.1631 15.4723 61.325 15.37C61.4912 15.2635 61.5743 15.0994 61.5743 14.8778V14.8395C61.5743 14.358 61.4316 13.9851 61.146 13.7209C60.8605 13.4567 60.4493 13.3246 59.9124 13.3246C59.3456 13.3246 58.896 13.4482 58.5637 13.6953C58.2355 13.9425 58.0139 14.2344 57.8989 14.571L55.7384 14.2642C55.9088 13.6676 56.1901 13.169 56.5821 12.7685C56.9742 12.3636 57.4536 12.0611 58.0203 11.8608C58.5871 11.6562 59.2135 11.554 59.8996 11.554C60.3726 11.554 60.8435 11.6094 61.3122 11.7202C61.781 11.831 62.2093 12.0142 62.597 12.2699C62.9848 12.5213 63.2959 12.8643 63.5303 13.299C63.7689 13.7337 63.8882 14.277 63.8882 14.929V21.5H61.6638V20.1513H61.5871C61.4465 20.424 61.2483 20.6797 60.9926 20.9183C60.7412 21.1527 60.4237 21.3423 60.0402 21.4872C59.661 21.6278 59.2156 21.6982 58.7043 21.6982ZM59.3051 19.9979C59.7696 19.9979 60.1723 19.9062 60.5132 19.723C60.8541 19.5355 61.1162 19.2884 61.2995 18.9815C61.487 18.6747 61.5807 18.3402 61.5807 17.978V16.821C61.5083 16.8807 61.3847 16.9361 61.21 16.9872C61.0395 17.0384 60.8477 17.0831 60.6347 17.1214C60.4216 17.1598 60.2107 17.1939 60.0019 17.2237C59.7931 17.2536 59.612 17.2791 59.4585 17.3004C59.1134 17.3473 58.8044 17.424 58.5317 17.5305C58.259 17.6371 58.0438 17.7862 57.8861 17.978C57.7284 18.1655 57.6496 18.4084 57.6496 18.7067C57.6496 19.1328 57.8051 19.4545 58.1162 19.6719C58.4273 19.8892 58.8236 19.9979 59.3051 19.9979ZM74.3349 14.277L72.2255 14.5071C72.1658 14.294 72.0614 14.0938 71.9123 13.9062C71.7674 13.7188 71.5714 13.5675 71.3242 13.4524C71.0771 13.3374 70.7745 13.2798 70.4166 13.2798C69.935 13.2798 69.5302 13.3842 69.2021 13.593C68.8782 13.8018 68.7184 14.0724 68.7227 14.4048C68.7184 14.6903 68.8228 14.9226 69.0359 15.1016C69.2532 15.2805 69.6112 15.4276 70.1097 15.5426L71.7845 15.9006C72.7134 16.1009 73.4038 16.4183 73.8555 16.853C74.3114 17.2876 74.5416 17.8565 74.5458 18.5597C74.5416 19.1776 74.3604 19.723 74.0025 20.196C73.6488 20.6648 73.1566 21.0312 72.5259 21.2955C71.8952 21.5597 71.1708 21.6918 70.3526 21.6918C69.1509 21.6918 68.1836 21.4403 67.4506 20.9375C66.7177 20.4304 66.2809 19.7251 66.1403 18.8217L68.3967 18.6044C68.4989 19.0476 68.7163 19.3821 69.0487 19.608C69.381 19.8338 69.8136 19.9467 70.3462 19.9467C70.896 19.9467 71.337 19.8338 71.6694 19.608C72.006 19.3821 72.1744 19.103 72.1744 18.7706C72.1744 18.4893 72.0657 18.2571 71.8484 18.0739C71.6353 17.8906 71.3029 17.75 70.8512 17.652L69.1765 17.3004C68.2347 17.1044 67.538 16.7741 67.0863 16.3097C66.6346 15.8409 66.4109 15.2486 66.4151 14.5327C66.4109 13.9276 66.5749 13.4034 66.9073 12.9602C67.244 12.5128 67.7106 12.1676 68.3072 11.9247C68.908 11.6776 69.6005 11.554 70.3846 11.554C71.5352 11.554 72.4407 11.799 73.1012 12.2891C73.766 12.7791 74.1772 13.4418 74.3349 14.277ZM81.1604 21.6918C80.1761 21.6918 79.3259 21.4872 78.61 21.0781C77.8984 20.6648 77.3508 20.081 76.9673 19.3267C76.5837 18.5682 76.392 17.6754 76.392 16.6484C76.392 15.6385 76.5837 14.7521 76.9673 13.9893C77.355 13.2223 77.8962 12.6257 78.5908 12.1996C79.2854 11.7692 80.1015 11.554 81.039 11.554C81.6441 11.554 82.2151 11.652 82.7521 11.848C83.2932 12.0398 83.7705 12.3381 84.1839 12.7429C84.6015 13.1477 84.9296 13.6634 85.1682 14.2898C85.4069 14.9119 85.5262 15.6534 85.5262 16.5142V17.2237H77.4786V15.6641H83.3082C83.3039 15.2209 83.208 14.8267 83.0205 14.4815C82.833 14.1321 82.5709 13.8572 82.2343 13.657C81.9019 13.4567 81.5141 13.3565 81.0709 13.3565C80.5979 13.3565 80.1825 13.4716 79.8245 13.7017C79.4665 13.9276 79.1874 14.2259 78.9871 14.5966C78.7911 14.9631 78.691 15.3658 78.6867 15.8047V17.1662C78.6867 17.7372 78.7911 18.2273 78.9999 18.6364C79.2087 19.0412 79.5006 19.3523 79.8756 19.5696C80.2506 19.7827 80.6896 19.8892 81.1924 19.8892C81.529 19.8892 81.8337 19.8423 82.1065 19.7486C82.3792 19.6506 82.6157 19.5078 82.816 19.3203C83.0163 19.1328 83.1675 18.9006 83.2698 18.6236L85.4303 18.8665C85.294 19.4375 85.034 19.9361 84.6505 20.3622C84.2712 20.7841 83.7854 21.1122 83.1931 21.3466C82.6008 21.5767 81.9232 21.6918 81.1604 21.6918Z" fill="url(#paint1_linear_869_777)"/>
<defs>
<linearGradient id="paint0_linear_869_777" x1="4.25" y1="15" x2="26.75" y2="15" gradientUnits="userSpaceOnUse">
<stop stop-color="white"/>
<stop offset="1" stop-color="#999999"/>
</linearGradient>
<linearGradient id="paint1_linear_869_777" x1="42.5" y1="15" x2="87.5" y2="15" gradientUnits="userSpaceOnUse">
<stop stop-color="white"/>
<stop offset="1" stop-color="#999999"/>
</linearGradient>
</defs>
</svg>
