<svg width="120" height="24" viewBox="0 0 120 24" fill="none" xmlns="http://www.w3.org/2000/svg">
<g clip-path="url(#clip0_869_811)">
<path d="M0.3597 9.16796C0.8877 7.05596 1.8917 5.23597 3.3717 3.70797C4.8517 2.17997 6.6157 1.11997 8.6637 0.527965C10.7117 -0.0640348 12.7917 -0.0960348 14.9037 0.431965C17.0157 0.959965 18.8357 1.96397 20.3637 3.44397C21.8917 4.92397 22.9517 6.68796 23.5437 8.73596C24.1357 10.784 24.1677 12.864 23.6397 14.976C23.1117 17.088 22.1077 18.908 20.6277 20.436C19.1477 21.964 17.3837 23.024 15.3357 23.616C13.2877 24.208 11.2077 24.24 9.0957 23.712C6.9837 23.184 5.1637 22.18 3.6357 20.7C2.1077 19.22 1.0477 17.456 0.4557 15.408C-0.1363 13.36 -0.1683 11.28 0.3597 9.16796ZM5.8317 15.672L7.5597 16.104C7.6717 16.12 7.8317 16.16 8.0397 16.224C8.2477 16.288 8.3997 16.328 8.4957 16.344L7.9437 18.528L9.2637 18.864L9.7917 16.704C9.8877 16.736 10.0557 16.78 10.2957 16.836C10.5357 16.892 10.7197 16.936 10.8477 16.968L10.3197 19.128L11.6397 19.44L12.1677 17.256C12.9357 17.384 13.6197 17.444 14.2197 17.436C14.8197 17.428 15.3477 17.264 15.8037 16.944C16.2597 16.624 16.5997 16.136 16.8237 15.48C17.3357 14.04 16.9277 12.976 15.5997 12.288C16.5597 12.08 17.1197 11.44 17.2797 10.368C17.4877 8.99197 16.6077 7.98396 14.6397 7.34396L15.1917 5.15997L13.8717 4.84797L13.3437 6.95996C13.2157 6.92796 13.0317 6.88397 12.7917 6.82796C12.5517 6.77197 12.3837 6.72797 12.2877 6.69597L12.8157 4.58397L11.4957 4.24797L10.9677 6.40796C10.7277 6.37596 10.4477 6.31196 10.1277 6.21597L8.3037 5.75996L7.9677 7.17596L8.9037 7.39196C9.3517 7.50396 9.5597 7.75996 9.5277 8.15997L8.9037 10.632C8.9357 10.632 8.9837 10.648 9.0477 10.68C9.0317 10.664 9.0077 10.656 8.9757 10.656C8.9437 10.656 8.9197 10.648 8.9037 10.632L8.0397 14.088C7.9597 14.376 7.7597 14.48 7.4397 14.4L6.4797 14.16L5.8317 15.672ZM10.2237 15.12L10.9437 12.216C10.9597 12.216 11.1157 12.248 11.4117 12.312C11.7077 12.376 11.9317 12.432 12.0837 12.48C12.2357 12.528 12.4597 12.6 12.7557 12.696C13.0517 12.792 13.2797 12.896 13.4397 13.008C13.5997 13.12 13.7677 13.252 13.9437 13.404C14.1197 13.556 14.2357 13.732 14.2917 13.932C14.3477 14.132 14.3437 14.352 14.2797 14.592C14.2317 14.768 14.1597 14.92 14.0637 15.048C13.9677 15.176 13.8477 15.272 13.7037 15.336C13.5597 15.4 13.4117 15.456 13.2597 15.504C13.1077 15.552 12.9237 15.572 12.7077 15.564C12.4917 15.556 12.3037 15.544 12.1437 15.528C11.9837 15.512 11.7917 15.48 11.5677 15.432C11.3437 15.384 11.1717 15.348 11.0517 15.324C10.9317 15.3 10.7757 15.264 10.5837 15.216C10.3917 15.168 10.2717 15.136 10.2237 15.12ZM11.2797 10.896L11.9277 8.25597C11.9757 8.27197 12.0757 8.29597 12.2277 8.32796C12.3797 8.35997 12.5117 8.38796 12.6237 8.41196C12.7357 8.43596 12.8797 8.47597 13.0557 8.53197C13.2317 8.58797 13.3837 8.63997 13.5117 8.68796C13.6397 8.73596 13.7837 8.80396 13.9437 8.89196C14.1037 8.97997 14.2237 9.06797 14.3037 9.15596C14.3837 9.24397 14.4757 9.35196 14.5797 9.47997C14.6837 9.60797 14.7317 9.73997 14.7237 9.87597C14.7157 10.012 14.7037 10.168 14.6877 10.344C14.6397 10.552 14.5557 10.724 14.4357 10.86C14.3157 10.996 14.1637 11.088 13.9797 11.136C13.7957 11.184 13.6157 11.22 13.4397 11.244C13.2637 11.268 13.0517 11.26 12.8037 11.22C12.5557 11.18 12.3637 11.148 12.2277 11.124C12.0917 11.1 11.9077 11.056 11.6757 10.992C11.4437 10.928 11.3117 10.896 11.2797 10.896Z" fill="url(#paint0_linear_869_811)"/>
</g>
<path d="M37.2912 18.5V5.40909H42.3026C43.2486 5.40909 44.0348 5.55824 44.6612 5.85653C45.2919 6.15057 45.7628 6.55327 46.0739 7.06463C46.3892 7.57599 46.5469 8.15554 46.5469 8.80327C46.5469 9.33594 46.4446 9.7919 46.2401 10.1712C46.0355 10.5462 45.7607 10.8509 45.4155 11.0852C45.0703 11.3196 44.6847 11.4879 44.2585 11.5902V11.718C44.723 11.7436 45.1683 11.8864 45.5945 12.1463C46.0249 12.402 46.3764 12.7642 46.6491 13.233C46.9219 13.7017 47.0582 14.2685 47.0582 14.9332C47.0582 15.6108 46.8942 16.2202 46.5661 16.7614C46.2379 17.2983 45.7436 17.7223 45.0831 18.0334C44.4226 18.3445 43.5916 18.5 42.5902 18.5H37.2912ZM39.6626 16.5185H42.2131C43.0739 16.5185 43.6939 16.3544 44.0732 16.0263C44.4567 15.6939 44.6484 15.2678 44.6484 14.7479C44.6484 14.3601 44.5526 14.0107 44.3608 13.6996C44.169 13.3842 43.8963 13.1371 43.5426 12.9581C43.1889 12.7749 42.767 12.6832 42.277 12.6832H39.6626V16.5185ZM39.6626 10.9766H42.0085C42.4176 10.9766 42.7862 10.902 43.1143 10.7528C43.4425 10.5994 43.7003 10.3842 43.8878 10.1072C44.0795 9.82599 44.1754 9.49361 44.1754 9.11009C44.1754 8.60298 43.9964 8.18537 43.6385 7.85724C43.2848 7.52912 42.7585 7.36506 42.0597 7.36506H39.6626V10.9766ZM49.379 18.5V8.68182H51.6929V18.5H49.379ZM50.5424 7.28835C50.1759 7.28835 49.8605 7.1669 49.5963 6.92401C49.3321 6.67685 49.2 6.38068 49.2 6.03551C49.2 5.68608 49.3321 5.38991 49.5963 5.14702C49.8605 4.89986 50.1759 4.77628 50.5424 4.77628C50.9131 4.77628 51.2284 4.89986 51.4884 5.14702C51.7526 5.38991 51.8847 5.68608 51.8847 6.03551C51.8847 6.38068 51.7526 6.67685 51.4884 6.92401C51.2284 7.1669 50.9131 7.28835 50.5424 7.28835ZM59.3351 8.68182V10.4716H53.6909V8.68182H59.3351ZM55.0843 6.32955H57.3983V15.5469C57.3983 15.858 57.4451 16.0966 57.5389 16.2628C57.6369 16.4247 57.7647 16.5355 57.9224 16.5952C58.0801 16.6548 58.2548 16.6847 58.4466 16.6847C58.5914 16.6847 58.7236 16.674 58.8429 16.6527C58.9664 16.6314 59.0602 16.6122 59.1241 16.5952L59.514 18.4041C59.3905 18.4467 59.2136 18.4936 58.9835 18.5447C58.7576 18.5959 58.4807 18.6257 58.1525 18.6342C57.573 18.6513 57.051 18.5639 56.5865 18.3722C56.122 18.1761 55.7534 17.8736 55.4807 17.4645C55.2122 17.0554 55.0801 16.544 55.0843 15.9304V6.32955ZM65.8075 18.6918C64.8273 18.6918 63.9857 18.4766 63.2826 18.0462C62.5837 17.6158 62.0447 17.0213 61.6654 16.2628C61.2904 15.5 61.1029 14.6222 61.1029 13.6293C61.1029 12.6321 61.2947 11.7521 61.6782 10.9893C62.0617 10.2223 62.6029 9.62571 63.3018 9.19957C64.0049 8.76918 64.8359 8.55398 65.7947 8.55398C66.5915 8.55398 67.2968 8.70099 67.9104 8.99503C68.5283 9.2848 69.0205 9.69602 69.387 10.2287C69.7535 10.7571 69.9623 11.375 70.0134 12.0824H67.8018C67.7123 11.6094 67.4992 11.2152 67.1626 10.8999C66.8302 10.5803 66.3849 10.4205 65.8266 10.4205C65.3536 10.4205 64.9381 10.5483 64.5802 10.804C64.2222 11.0554 63.9431 11.4176 63.7428 11.8906C63.5468 12.3636 63.4488 12.9304 63.4488 13.5909C63.4488 14.2599 63.5468 14.8352 63.7428 15.3168C63.9388 15.794 64.2137 16.1626 64.5674 16.4226C64.9253 16.6783 65.3451 16.8061 65.8266 16.8061C66.1675 16.8061 66.4722 16.7422 66.7407 16.6143C67.0134 16.4822 67.2414 16.2926 67.4246 16.0455C67.6079 15.7983 67.7336 15.4979 67.8018 15.1442H70.0134C69.958 15.8388 69.7535 16.4545 69.3998 16.9915C69.0461 17.5241 68.5646 17.9418 67.9552 18.2443C67.3458 18.5426 66.6299 18.6918 65.8075 18.6918ZM76.5561 18.6918C75.5973 18.6918 74.7663 18.4808 74.0632 18.0589C73.3601 17.6371 72.8146 17.0469 72.4269 16.2884C72.0433 15.5298 71.8516 14.6435 71.8516 13.6293C71.8516 12.6151 72.0433 11.7266 72.4269 10.9638C72.8146 10.201 73.3601 9.60866 74.0632 9.18679C74.7663 8.76491 75.5973 8.55398 76.5561 8.55398C77.5149 8.55398 78.3459 8.76491 79.049 9.18679C79.7521 9.60866 80.2955 10.201 80.679 10.9638C81.0668 11.7266 81.2607 12.6151 81.2607 13.6293C81.2607 14.6435 81.0668 15.5298 80.679 16.2884C80.2955 17.0469 79.7521 17.6371 79.049 18.0589C78.3459 18.4808 77.5149 18.6918 76.5561 18.6918ZM76.5689 16.8381C77.0888 16.8381 77.5235 16.6953 77.8729 16.4098C78.2223 16.12 78.4823 15.7322 78.6527 15.2464C78.8274 14.7607 78.9148 14.2195 78.9148 13.6229C78.9148 13.022 78.8274 12.4787 78.6527 11.9929C78.4823 11.5028 78.2223 11.1129 77.8729 10.8232C77.5235 10.5334 77.0888 10.3885 76.5689 10.3885C76.0362 10.3885 75.5931 10.5334 75.2394 10.8232C74.8899 11.1129 74.6279 11.5028 74.4531 11.9929C74.2827 12.4787 74.1975 13.022 74.1975 13.6229C74.1975 14.2195 74.2827 14.7607 74.4531 15.2464C74.6279 15.7322 74.8899 16.12 75.2394 16.4098C75.5931 16.6953 76.0362 16.8381 76.5689 16.8381ZM83.5846 18.5V8.68182H85.8985V18.5H83.5846ZM84.748 7.28835C84.3815 7.28835 84.0662 7.1669 83.802 6.92401C83.5377 6.67685 83.4056 6.38068 83.4056 6.03551C83.4056 5.68608 83.5377 5.38991 83.802 5.14702C84.0662 4.89986 84.3815 4.77628 84.748 4.77628C85.1187 4.77628 85.4341 4.89986 85.694 5.14702C85.9582 5.38991 86.0903 5.68608 86.0903 6.03551C86.0903 6.38068 85.9582 6.67685 85.694 6.92401C85.4341 7.1669 85.1187 7.28835 84.748 7.28835ZM90.9519 12.7472V18.5H88.638V8.68182H90.8496V10.3501H90.9647C91.1905 9.80043 91.5506 9.36364 92.0449 9.03977C92.5435 8.71591 93.1593 8.55398 93.8922 8.55398C94.5698 8.55398 95.16 8.69886 95.6628 8.98864C96.1699 9.27841 96.562 9.69815 96.839 10.2479C97.1202 10.7976 97.2587 11.4645 97.2545 12.2486V18.5H94.9405V12.6065C94.9405 11.9503 94.7701 11.4368 94.4292 11.0661C94.0925 10.6953 93.6259 10.5099 93.0293 10.5099C92.6245 10.5099 92.2644 10.5994 91.9491 10.7784C91.638 10.9531 91.393 11.2067 91.214 11.5391C91.0393 11.8714 90.9519 12.2741 90.9519 12.7472Z" fill="url(#paint1_linear_869_811)"/>
<defs>
<linearGradient id="paint0_linear_869_811" x1="-0.0136719" y1="12.072" x2="24.0131" y2="12.072" gradientUnits="userSpaceOnUse">
<stop stop-color="white"/>
<stop offset="1" stop-color="#999999"/>
</linearGradient>
<linearGradient id="paint1_linear_869_811" x1="36" y1="12" x2="99" y2="12" gradientUnits="userSpaceOnUse">
<stop stop-color="white"/>
<stop offset="1" stop-color="#999999"/>
</linearGradient>
<clipPath id="clip0_869_811">
<rect width="24" height="24" fill="white"/>
</clipPath>
</defs>
</svg>
