<svg width="128" height="24" viewBox="0 0 128 24" fill="none" xmlns="http://www.w3.org/2000/svg">
<path d="M4.13136 3.6761L10.5001 0L16.8689 3.6761L14.5274 5.03415L10.5001 2.7161L6.47283 5.03415L4.13136 3.6761ZM16.8689 8.31219L14.5274 6.95415L10.5001 9.2722L6.47283 6.95415L4.13136 8.31219V11.0283L8.15867 13.3463V17.9824L10.5001 19.3405L12.8416 17.9824V13.3463L16.8689 11.0283V8.31219ZM16.8689 15.6644V12.9483L14.5274 14.3063V17.0224L16.8689 15.6644ZM18.5313 16.6244L14.504 18.9424V21.6585L20.8728 17.9824V10.6302L18.5313 11.9883V16.6244ZM16.1899 5.99415L18.5313 7.35219V10.0683L20.8728 8.71024V5.99415L18.5313 4.6361L16.1899 5.99415ZM8.15867 19.9259V22.642L10.5001 24L12.8416 22.642V19.9259L10.5001 21.2839L8.15867 19.9259ZM4.13136 15.6644L6.47283 17.0224V14.3063L4.13136 12.9483V15.6644ZM8.15867 5.99415L10.5001 7.35219L12.8416 5.99415L10.5001 4.6361L8.15867 5.99415ZM2.4689 7.35219L4.81037 5.99415L2.4689 4.6361L0.127441 5.99415V8.71024L2.4689 10.0683V7.35219ZM2.4689 11.9883L0.127441 10.6302V17.9824L6.49621 21.6585V18.9424L2.4689 16.6244V11.9883Z" fill="url(#paint0_linear_869_773)"/>
<path d="M34.1642 18.5V5.40909H39.1756C40.1216 5.40909 40.9078 5.55824 41.5343 5.85653C42.165 6.15057 42.6358 6.55327 42.9469 7.06463C43.2623 7.57599 43.4199 8.15554 43.4199 8.80327C43.4199 9.33594 43.3176 9.7919 43.1131 10.1712C42.9086 10.5462 42.6337 10.8509 42.2885 11.0852C41.9434 11.3196 41.5577 11.4879 41.1316 11.5902V11.718C41.5961 11.7436 42.0414 11.8864 42.4675 12.1463C42.8979 12.402 43.2495 12.7642 43.5222 13.233C43.7949 13.7017 43.9313 14.2685 43.9313 14.9332C43.9313 15.6108 43.7672 16.2202 43.4391 16.7614C43.111 17.2983 42.6167 17.7223 41.9561 18.0334C41.2956 18.3445 40.4647 18.5 39.4632 18.5H34.1642ZM36.5357 16.5185H39.0861C39.9469 16.5185 40.5669 16.3544 40.9462 16.0263C41.3297 15.6939 41.5215 15.2678 41.5215 14.7479C41.5215 14.3601 41.4256 14.0107 41.2338 13.6996C41.0421 13.3842 40.7694 13.1371 40.4157 12.9581C40.062 12.7749 39.6401 12.6832 39.15 12.6832H36.5357V16.5185ZM36.5357 10.9766H38.8816C39.2907 10.9766 39.6593 10.902 39.9874 10.7528C40.3155 10.5994 40.5733 10.3842 40.7608 10.1072C40.9526 9.82599 41.0485 9.49361 41.0485 9.11009C41.0485 8.60298 40.8695 8.18537 40.5115 7.85724C40.1578 7.52912 39.6316 7.36506 38.9327 7.36506H36.5357V10.9766ZM57.1121 5.40909V18.5H55.0028L48.8344 9.5831H48.7258V18.5H46.3543V5.40909H48.4765L54.6384 14.3324H54.7535V5.40909H57.1121ZM60.0561 18.5V5.40909H65.0675C66.0135 5.40909 66.7997 5.55824 67.4261 5.85653C68.0568 6.15057 68.5277 6.55327 68.8388 7.06463C69.1541 7.57599 69.3118 8.15554 69.3118 8.80327C69.3118 9.33594 69.2095 9.7919 69.005 10.1712C68.8004 10.5462 68.5256 10.8509 68.1804 11.0852C67.8352 11.3196 67.4496 11.4879 67.0234 11.5902V11.718C67.4879 11.7436 67.9332 11.8864 68.3594 12.1463C68.7898 12.402 69.1413 12.7642 69.4141 13.233C69.6868 13.7017 69.8232 14.2685 69.8232 14.9332C69.8232 15.6108 69.6591 16.2202 69.331 16.7614C69.0028 17.2983 68.5085 17.7223 67.848 18.0334C67.1875 18.3445 66.3565 18.5 65.3551 18.5H60.0561ZM62.4276 16.5185H64.978C65.8388 16.5185 66.4588 16.3544 66.8381 16.0263C67.2216 15.6939 67.4134 15.2678 67.4134 14.7479C67.4134 14.3601 67.3175 14.0107 67.1257 13.6996C66.934 13.3842 66.6612 13.1371 66.3075 12.9581C65.9538 12.7749 65.532 12.6832 65.0419 12.6832H62.4276V16.5185ZM62.4276 10.9766H64.7734C65.1825 10.9766 65.5511 10.902 65.8793 10.7528C66.2074 10.5994 66.4652 10.3842 66.6527 10.1072C66.8445 9.82599 66.9403 9.49361 66.9403 9.11009C66.9403 8.60298 66.7614 8.18537 66.4034 7.85724C66.0497 7.52912 65.5234 7.36506 64.8246 7.36506H62.4276V10.9766ZM88.2763 9.82599H85.8857C85.8175 9.43395 85.6918 9.08665 85.5085 8.78409C85.3253 8.47727 85.0973 8.21733 84.8246 8.00426C84.5519 7.79119 84.2408 7.63139 83.8913 7.52486C83.5462 7.41406 83.1733 7.35866 82.7727 7.35866C82.0611 7.35866 81.4304 7.53764 80.8807 7.8956C80.331 8.24929 79.9006 8.76918 79.5895 9.45526C79.2784 10.1371 79.1229 10.9702 79.1229 11.9545C79.1229 12.956 79.2784 13.7997 79.5895 14.4858C79.9048 15.1676 80.3352 15.6832 80.8807 16.0327C81.4304 16.3778 82.059 16.5504 82.7663 16.5504C83.1584 16.5504 83.5249 16.4993 83.8658 16.397C84.211 16.2905 84.5199 16.1349 84.7926 15.9304C85.0696 15.7259 85.3019 15.4744 85.4894 15.1761C85.6811 14.8778 85.8132 14.5369 85.8857 14.1534L88.2763 14.1662C88.1868 14.7884 87.9929 15.3722 87.6946 15.9176C87.4006 16.4631 87.0149 16.9446 86.5377 17.3622C86.0604 17.7756 85.5021 18.0994 84.8629 18.3338C84.2237 18.5639 83.5142 18.679 82.7344 18.679C81.5838 18.679 80.5568 18.4126 79.6534 17.88C78.75 17.3473 78.0384 16.5781 77.5185 15.5724C76.9986 14.5668 76.7386 13.3608 76.7386 11.9545C76.7386 10.544 77.0007 9.33807 77.5249 8.33665C78.049 7.33097 78.7628 6.56179 79.6662 6.02912C80.5696 5.49645 81.5923 5.23011 82.7344 5.23011C83.4631 5.23011 84.1406 5.33239 84.7671 5.53693C85.3935 5.74148 85.9517 6.0419 86.4418 6.43821C86.9318 6.83026 87.3345 7.31179 87.6499 7.88281C87.9695 8.44957 88.1783 9.0973 88.2763 9.82599ZM93.0196 12.7472V18.5H90.7057V5.40909H92.9685V10.3501H93.0836C93.3137 9.79616 93.6695 9.35937 94.151 9.03977C94.6368 8.71591 95.2547 8.55398 96.0047 8.55398C96.6865 8.55398 97.281 8.69673 97.7881 8.98224C98.2952 9.26776 98.6873 9.68537 98.9642 10.2351C99.2455 10.7848 99.3861 11.456 99.3861 12.2486V18.5H97.0722V12.6065C97.0722 11.946 96.9017 11.4325 96.5608 11.0661C96.2242 10.6953 95.7512 10.5099 95.1418 10.5099C94.7327 10.5099 94.3662 10.5994 94.0424 10.7784C93.7228 10.9531 93.4713 11.2067 93.2881 11.5391C93.1091 11.8714 93.0196 12.2741 93.0196 12.7472ZM104.93 18.6982C104.308 18.6982 103.748 18.5874 103.249 18.3658C102.755 18.1399 102.363 17.8075 102.073 17.3686C101.787 16.9297 101.645 16.3885 101.645 15.745C101.645 15.1911 101.747 14.733 101.951 14.3707C102.156 14.0085 102.435 13.7188 102.789 13.5014C103.142 13.2841 103.541 13.12 103.984 13.0092C104.431 12.8942 104.894 12.8111 105.371 12.7599C105.946 12.7003 106.413 12.647 106.771 12.6001C107.129 12.549 107.389 12.4723 107.551 12.37C107.717 12.2635 107.8 12.0994 107.8 11.8778V11.8395C107.8 11.358 107.657 10.9851 107.372 10.7209C107.086 10.4567 106.675 10.3246 106.138 10.3246C105.571 10.3246 105.122 10.4482 104.789 10.6953C104.461 10.9425 104.24 11.2344 104.125 11.571L101.964 11.2642C102.135 10.6676 102.416 10.169 102.808 9.76847C103.2 9.36364 103.679 9.06108 104.246 8.8608C104.813 8.65625 105.439 8.55398 106.125 8.55398C106.598 8.55398 107.069 8.60938 107.538 8.72017C108.007 8.83097 108.435 9.0142 108.823 9.26989C109.211 9.52131 109.522 9.86435 109.756 10.299C109.995 10.7337 110.114 11.277 110.114 11.929V18.5H107.89V17.1513H107.813C107.672 17.424 107.474 17.6797 107.218 17.9183C106.967 18.1527 106.65 18.3423 106.266 18.4872C105.887 18.6278 105.441 18.6982 104.93 18.6982ZM105.531 16.9979C105.995 16.9979 106.398 16.9062 106.739 16.723C107.08 16.5355 107.342 16.2884 107.525 15.9815C107.713 15.6747 107.806 15.3402 107.806 14.978V13.821C107.734 13.8807 107.61 13.9361 107.436 13.9872C107.265 14.0384 107.074 14.0831 106.86 14.1214C106.647 14.1598 106.436 14.1939 106.228 14.2237C106.019 14.2536 105.838 14.2791 105.684 14.3004C105.339 14.3473 105.03 14.424 104.757 14.5305C104.485 14.6371 104.27 14.7862 104.112 14.978C103.954 15.1655 103.875 15.4084 103.875 15.7067C103.875 16.1328 104.031 16.4545 104.342 16.6719C104.653 16.8892 105.049 16.9979 105.531 16.9979ZM112.801 18.5V8.68182H115.115V18.5H112.801ZM113.964 7.28835C113.598 7.28835 113.282 7.1669 113.018 6.92401C112.754 6.67685 112.622 6.38068 112.622 6.03551C112.622 5.68608 112.754 5.38991 113.018 5.14702C113.282 4.89986 113.598 4.77628 113.964 4.77628C114.335 4.77628 114.65 4.89986 114.91 5.14702C115.174 5.38991 115.306 5.68608 115.306 6.03551C115.306 6.38068 115.174 6.67685 114.91 6.92401C114.65 7.1669 114.335 7.28835 113.964 7.28835ZM120.168 12.7472V18.5H117.854V8.68182H120.066V10.3501H120.181C120.407 9.80043 120.767 9.36364 121.261 9.03977C121.76 8.71591 122.375 8.55398 123.108 8.55398C123.786 8.55398 124.376 8.69886 124.879 8.98864C125.386 9.27841 125.778 9.69815 126.055 10.2479C126.336 10.7976 126.475 11.4645 126.471 12.2486V18.5H124.157V12.6065C124.157 11.9503 123.986 11.4368 123.645 11.0661C123.309 10.6953 122.842 10.5099 122.245 10.5099C121.841 10.5099 121.48 10.5994 121.165 10.7784C120.854 10.9531 120.609 11.2067 120.43 11.5391C120.255 11.8714 120.168 12.2741 120.168 12.7472Z" fill="url(#paint1_linear_869_773)"/>
<defs>
<linearGradient id="paint0_linear_869_773" x1="0.127441" y1="12" x2="20.8728" y2="12" gradientUnits="userSpaceOnUse">
<stop stop-color="white"/>
<stop offset="1" stop-color="#999999"/>
</linearGradient>
<linearGradient id="paint1_linear_869_773" x1="32.873" y1="12" x2="127.873" y2="12" gradientUnits="userSpaceOnUse">
<stop stop-color="white"/>
<stop offset="1" stop-color="#999999"/>
</linearGradient>
</defs>
</svg>
