<svg width="80" height="22" viewBox="0 0 80 22" fill="none" xmlns="http://www.w3.org/2000/svg">
<g clip-path="url(#clip0_869_823)">
<path d="M16.0981 2.95509L13.5781 7.29159C12.8619 8.52308 11.072 8.52308 10.3559 7.29159L7.83587 2.95586L6.28516 0.183838H17.672L16.0981 2.95509Z" fill="url(#paint0_linear_869_823)"/>
<path d="M7.30455 3.2232L9.81604 7.56434C10.5267 8.79893 9.6341 10.3317 8.20726 10.3348H0.00390625L5.70894 0.465088L7.30455 3.2232Z" fill="url(#paint1_linear_869_823)"/>
<path d="M16.6119 3.2232L14.1012 7.56434C13.3897 8.79893 14.2831 10.3317 15.71 10.3348H23.9125L18.2091 0.465088L16.6135 3.2232H16.6119ZM7.81939 18.3295L10.3394 13.9938C11.0555 12.7615 12.8455 12.7615 13.5616 13.9938L16.0816 18.3295L17.6323 21.1007H6.24545L7.81939 18.3295ZM16.6119 18.0614L14.1012 13.7195C13.3897 12.4857 14.2831 10.9521 15.71 10.9498H23.9125L18.2091 20.8195L16.6135 18.0614H16.6119ZM7.30455 18.0614L9.81604 13.7195C10.5267 12.4857 9.6341 10.9521 8.20726 10.9498H0.00390625L5.70894 20.8195L7.30455 18.0614Z" fill="url(#paint2_linear_869_823)"/>
</g>
<path d="M48.4964 8.82599H46.1058C46.0376 8.43395 45.9119 8.08665 45.7287 7.78409C45.5455 7.47727 45.3175 7.21733 45.0447 7.00426C44.772 6.79119 44.4609 6.63139 44.1115 6.52486C43.7663 6.41406 43.3935 6.35866 42.9929 6.35866C42.2813 6.35866 41.6506 6.53764 41.1009 6.8956C40.5511 7.24929 40.1207 7.76918 39.8097 8.45526C39.4986 9.13707 39.343 9.97017 39.343 10.9545C39.343 11.956 39.4986 12.7997 39.8097 13.4858C40.125 14.1676 40.5554 14.6832 41.1009 15.0327C41.6506 15.3778 42.2791 15.5504 42.9865 15.5504C43.3786 15.5504 43.745 15.4993 44.0859 15.397C44.4311 15.2905 44.7401 15.1349 45.0128 14.9304C45.2898 14.7259 45.522 14.4744 45.7095 14.1761C45.9013 13.8778 46.0334 13.5369 46.1058 13.1534L48.4964 13.1662C48.407 13.7884 48.2131 14.3722 47.9148 14.9176C47.6207 15.4631 47.2351 15.9446 46.7578 16.3622C46.2805 16.7756 45.7223 17.0994 45.0831 17.3338C44.4439 17.5639 43.7344 17.679 42.9545 17.679C41.804 17.679 40.777 17.4126 39.8736 16.88C38.9702 16.3473 38.2585 15.5781 37.7386 14.5724C37.2188 13.5668 36.9588 12.3608 36.9588 10.9545C36.9588 9.54403 37.2209 8.33807 37.745 7.33665C38.2692 6.33097 38.983 5.56179 39.8864 5.02912C40.7898 4.49645 41.8125 4.23011 42.9545 4.23011C43.6832 4.23011 44.3608 4.33239 44.9872 4.53693C45.6136 4.74148 46.1719 5.0419 46.6619 5.43821C47.152 5.83026 47.5547 6.31179 47.87 6.88281C48.1896 7.44957 48.3984 8.0973 48.4964 8.82599ZM50.9259 17.5V7.68182H53.2398V17.5H50.9259ZM52.0892 6.28835C51.7227 6.28835 51.4074 6.1669 51.1432 5.92401C50.879 5.67685 50.7469 5.38068 50.7469 5.03551C50.7469 4.68608 50.879 4.38991 51.1432 4.14702C51.4074 3.89986 51.7227 3.77628 52.0892 3.77628C52.46 3.77628 52.7753 3.89986 53.0352 4.14702C53.2995 4.38991 53.4316 4.68608 53.4316 5.03551C53.4316 5.38068 53.2995 5.67685 53.0352 5.92401C52.7753 6.1669 52.46 6.28835 52.0892 6.28835ZM60.8819 7.68182V9.47159H55.2378V7.68182H60.8819ZM56.6312 5.32955H58.9451V14.5469C58.9451 14.858 58.992 15.0966 59.0858 15.2628C59.1838 15.4247 59.3116 15.5355 59.4693 15.5952C59.627 15.6548 59.8017 15.6847 59.9934 15.6847C60.1383 15.6847 60.2704 15.674 60.3897 15.6527C60.5133 15.6314 60.6071 15.6122 60.671 15.5952L61.0609 17.4041C60.9373 17.4467 60.7605 17.4936 60.5304 17.5447C60.3045 17.5959 60.0275 17.6257 59.6994 17.6342C59.1199 17.6513 58.5978 17.5639 58.1334 17.3722C57.6689 17.1761 57.3003 16.8736 57.0275 16.4645C56.7591 16.0554 56.627 15.544 56.6312 14.9304V5.32955ZM63.1771 17.5V7.68182H65.4207V9.31818H65.523C65.702 8.75142 66.0088 8.31463 66.4435 8.00781C66.8824 7.69673 67.3831 7.54119 67.9456 7.54119C68.0734 7.54119 68.2162 7.54758 68.3739 7.56037C68.5358 7.56889 68.67 7.58381 68.7766 7.60511V9.73366C68.6785 9.69957 68.523 9.66974 68.3099 9.64418C68.1011 9.61435 67.8987 9.59943 67.7027 9.59943C67.2808 9.59943 66.9016 9.69105 66.5649 9.87429C66.2325 10.0533 65.9704 10.3026 65.7787 10.6222C65.5869 10.9418 65.491 11.3104 65.491 11.728V17.5H63.1771ZM73.3233 17.6982C72.7012 17.6982 72.1408 17.5874 71.6422 17.3658C71.1479 17.1399 70.7559 16.8075 70.4661 16.3686C70.1806 15.9297 70.0378 15.3885 70.0378 14.745C70.0378 14.1911 70.1401 13.733 70.3447 13.3707C70.5492 13.0085 70.8283 12.7188 71.182 12.5014C71.5357 12.2841 71.9341 12.12 72.3773 12.0092C72.8248 11.8942 73.2871 11.8111 73.7644 11.7599C74.3397 11.7003 74.8063 11.647 75.1643 11.6001C75.5222 11.549 75.7822 11.4723 75.9441 11.37C76.1103 11.2635 76.1934 11.0994 76.1934 10.8778V10.8395C76.1934 10.358 76.0506 9.98509 75.7651 9.72088C75.4796 9.45668 75.0684 9.32457 74.5314 9.32457C73.9647 9.32457 73.5151 9.44815 73.1827 9.69531C72.8546 9.94247 72.633 10.2344 72.5179 10.571L70.3574 10.2642C70.5279 9.66761 70.8091 9.16903 71.2012 8.76847C71.5932 8.36364 72.0726 8.06108 72.6394 7.8608C73.2062 7.65625 73.8326 7.55398 74.5187 7.55398C74.9917 7.55398 75.4625 7.60938 75.9313 7.72017C76.4 7.83097 76.8283 8.0142 77.2161 8.26989C77.6039 8.52131 77.915 8.86435 78.1493 9.29901C78.388 9.73366 78.5073 10.277 78.5073 10.929V17.5H76.2829V16.1513H76.2062C76.0655 16.424 75.8674 16.6797 75.6117 16.9183C75.3603 17.1527 75.0428 17.3423 74.6593 17.4872C74.28 17.6278 73.8347 17.6982 73.3233 17.6982ZM73.9242 15.9979C74.3887 15.9979 74.7914 15.9062 75.1323 15.723C75.4732 15.5355 75.7353 15.2884 75.9185 14.9815C76.106 14.6747 76.1998 14.3402 76.1998 13.978V12.821C76.1273 12.8807 76.0037 12.9361 75.829 12.9872C75.6586 13.0384 75.4668 13.0831 75.2537 13.1214C75.0407 13.1598 74.8297 13.1939 74.6209 13.2237C74.4121 13.2536 74.231 13.2791 74.0776 13.3004C73.7324 13.3473 73.4235 13.424 73.1508 13.5305C72.878 13.6371 72.6628 13.7862 72.5052 13.978C72.3475 14.1655 72.2687 14.4084 72.2687 14.7067C72.2687 15.1328 72.4242 15.4545 72.7353 15.6719C73.0464 15.8892 73.4427 15.9979 73.9242 15.9979Z" fill="url(#paint3_linear_869_823)"/>
<defs>
<linearGradient id="paint0_linear_869_823" x1="6.28516" y1="4.19952" x2="17.672" y2="4.19952" gradientUnits="userSpaceOnUse">
<stop stop-color="white"/>
<stop offset="1" stop-color="#999999"/>
</linearGradient>
<linearGradient id="paint1_linear_869_823" x1="0.00390625" y1="5.39995" x2="10.0655" y2="5.39995" gradientUnits="userSpaceOnUse">
<stop stop-color="white"/>
<stop offset="1" stop-color="#999999"/>
</linearGradient>
<linearGradient id="paint2_linear_869_823" x1="0.00390625" y1="10.7829" x2="23.9125" y2="10.7829" gradientUnits="userSpaceOnUse">
<stop stop-color="white"/>
<stop offset="1" stop-color="#999999"/>
</linearGradient>
<linearGradient id="paint3_linear_869_823" x1="36" y1="11" x2="80" y2="11" gradientUnits="userSpaceOnUse">
<stop stop-color="white"/>
<stop offset="1" stop-color="#999999"/>
</linearGradient>
<clipPath id="clip0_869_823">
<rect width="24" height="21.6323" fill="white" transform="translate(0 0.183838)"/>
</clipPath>
</defs>
</svg>
