<svg width="122" height="41" viewBox="0 0 122 41" fill="none" xmlns="http://www.w3.org/2000/svg">
<path d="M24 22.6549L12 40.0127V30.2306L24 22.6549ZM17.64 28.7563L13.7879 31.1803V34.3184L17.64 28.7563Z" fill="url(#paint0_linear_869_757)"/>
<path d="M0 22.6549L12 40.0127V30.2306L0 22.6549ZM6.36005 28.7563L10.2121 31.1803V34.3184L6.36005 28.7563Z" fill="url(#paint1_linear_869_757)"/>
<path d="M13.5225 14.7186L21.4701 19.145L21.7518 20.0063L20.8055 20.8324L13.5225 16.7677V14.7186Z" fill="url(#paint2_linear_869_757)"/>
<path d="M10.4834 14.7186L2.53574 19.145L2.25403 20.0063L3.20035 20.8324L10.4834 16.7677V14.7186Z" fill="url(#paint3_linear_869_757)"/>
<path d="M12 0.00012207L24 20.5504L12 28.1074V0.00012207ZM13.7723 6.59231V24.9405L21.6118 20.0064L13.7723 6.59231Z" fill="url(#paint4_linear_869_757)"/>
<path d="M12 0L0 20.5503L12 28.1073V0ZM10.2277 6.59219V24.9404L2.38821 20.0062L10.2277 6.59219Z" fill="url(#paint5_linear_869_757)"/>
<path d="M37.2912 26.5062V13.4153H45.8054V15.4032H39.6626V18.9572H45.3643V20.9451H39.6626V24.5183H45.8565V26.5062H37.2912ZM53.3852 16.688V18.4778H47.741V16.688H53.3852ZM49.1345 14.3358H51.4484V23.5531C51.4484 23.8642 51.4953 24.1028 51.589 24.269C51.6871 24.4309 51.8149 24.5417 51.9726 24.6014C52.1302 24.6611 52.305 24.6909 52.4967 24.6909C52.6416 24.6909 52.7737 24.6802 52.893 24.6589C53.0166 24.6376 53.1104 24.6184 53.1743 24.6014L53.5642 26.4103C53.4406 26.453 53.2638 26.4998 53.0337 26.551C52.8078 26.6021 52.5308 26.6319 52.2027 26.6405C51.6231 26.6575 51.1011 26.5701 50.6366 26.3784C50.1721 26.1824 49.8035 25.8798 49.5308 25.4707C49.2623 25.0616 49.1302 24.5503 49.1345 23.9366V14.3358ZM58.2053 20.7534V26.5062H55.8913V13.4153H58.1541V18.3564H58.2692C58.4993 17.8024 58.8551 17.3656 59.3367 17.046C59.8224 16.7221 60.4403 16.5602 61.1903 16.5602C61.8722 16.5602 62.4666 16.703 62.9737 16.9885C63.4808 17.274 63.8729 17.6916 64.1499 18.2413C64.4311 18.791 64.5717 19.4622 64.5717 20.2548V26.5062H62.2578V20.6128C62.2578 19.9522 62.0874 19.4388 61.7465 19.0723C61.4098 18.7015 60.9368 18.5162 60.3274 18.5162C59.9183 18.5162 59.5519 18.6057 59.228 18.7846C58.9084 18.9594 58.657 19.2129 58.4737 19.5453C58.2948 19.8777 58.2053 20.2804 58.2053 20.7534ZM71.637 26.698C70.6526 26.698 69.8025 26.4934 69.0866 26.0844C68.3749 25.671 67.8273 25.0872 67.4438 24.3329C67.0603 23.5744 66.8685 22.6817 66.8685 21.6547C66.8685 20.6447 67.0603 19.7584 67.4438 18.9956C67.8316 18.2285 68.3728 17.6319 69.0674 17.2058C69.762 16.7754 70.578 16.5602 71.5155 16.5602C72.1207 16.5602 72.6917 16.6582 73.2286 16.8542C73.7698 17.046 74.2471 17.3443 74.6604 17.7491C75.078 18.154 75.4062 18.6696 75.6448 19.296C75.8834 19.9182 76.0028 20.6596 76.0028 21.5204V22.2299H67.9552V20.6703H73.7847C73.7805 20.2271 73.6846 19.8329 73.4971 19.4878C73.3096 19.1383 73.0475 18.8635 72.7109 18.6632C72.3785 18.4629 71.9907 18.3628 71.5475 18.3628C71.0745 18.3628 70.659 18.4778 70.3011 18.7079C69.9431 18.9338 69.664 19.2321 69.4637 19.6028C69.2677 19.9693 69.1675 20.372 69.1633 20.8109V22.1724C69.1633 22.7434 69.2677 23.2335 69.4765 23.6426C69.6853 24.0474 69.9772 24.3585 70.3522 24.5758C70.7272 24.7889 71.1661 24.8954 71.669 24.8954C72.0056 24.8954 72.3103 24.8486 72.583 24.7548C72.8557 24.6568 73.0923 24.514 73.2925 24.3265C73.4928 24.139 73.6441 23.9068 73.7464 23.6298L75.9069 23.8727C75.7705 24.4437 75.5106 24.9423 75.1271 25.3684C74.7478 25.7903 74.262 26.1184 73.6697 26.3528C73.0773 26.5829 72.3998 26.698 71.637 26.698ZM78.3203 26.5062V16.688H80.5639V18.3244H80.6662C80.8452 17.7576 81.152 17.3209 81.5867 17.014C82.0256 16.703 82.5263 16.5474 83.0888 16.5474C83.2166 16.5474 83.3594 16.5538 83.5171 16.5666C83.679 16.5751 83.8132 16.59 83.9198 16.6113V18.7399C83.8217 18.7058 83.6662 18.676 83.4531 18.6504C83.2443 18.6206 83.0419 18.6057 82.8459 18.6057C82.424 18.6057 82.0448 18.6973 81.7081 18.8805C81.3757 19.0595 81.1136 19.3088 80.9219 19.6284C80.7301 19.948 80.6342 20.3166 80.6342 20.7342V26.5062H78.3203ZM89.7593 26.698C88.775 26.698 87.9248 26.4934 87.2089 26.0844C86.4973 25.671 85.9497 25.0872 85.5662 24.3329C85.1826 23.5744 84.9909 22.6817 84.9909 21.6547C84.9909 20.6447 85.1826 19.7584 85.5662 18.9956C85.9539 18.2285 86.4951 17.6319 87.1897 17.2058C87.8843 16.7754 88.7004 16.5602 89.6379 16.5602C90.243 16.5602 90.814 16.6582 91.351 16.8542C91.8922 17.046 92.3694 17.3443 92.7828 17.7491C93.2004 18.154 93.5285 18.6696 93.7672 19.296C94.0058 19.9182 94.1251 20.6596 94.1251 21.5204V22.2299H86.0775V20.6703H91.9071C91.9028 20.2271 91.8069 19.8329 91.6194 19.4878C91.4319 19.1383 91.1699 18.8635 90.8332 18.6632C90.5008 18.4629 90.113 18.3628 89.6698 18.3628C89.1968 18.3628 88.7814 18.4778 88.4234 18.7079C88.0654 18.9338 87.7863 19.2321 87.586 19.6028C87.39 19.9693 87.2899 20.372 87.2856 20.8109V22.1724C87.2856 22.7434 87.39 23.2335 87.5988 23.6426C87.8076 24.0474 88.0995 24.3585 88.4745 24.5758C88.8495 24.7889 89.2885 24.8954 89.7913 24.8954C90.1279 24.8954 90.4326 24.8486 90.7054 24.7548C90.9781 24.6568 91.2146 24.514 91.4149 24.3265C91.6152 24.139 91.7664 23.9068 91.8687 23.6298L94.0292 23.8727C93.8929 24.4437 93.6329 24.9423 93.2494 25.3684C92.8701 25.7903 92.3843 26.1184 91.792 26.3528C91.1997 26.5829 90.5221 26.698 89.7593 26.698ZM102.7 22.377V16.688H105.014V26.5062H102.771V24.7612H102.669C102.447 25.3109 102.083 25.7605 101.575 26.1099C101.073 26.4594 100.453 26.6341 99.7154 26.6341C99.0719 26.6341 98.503 26.4913 98.0087 26.2058C97.5187 25.916 97.1351 25.4963 96.8582 24.9466C96.5812 24.3926 96.4427 23.7236 96.4427 22.9395V16.688H98.7566V22.5815C98.7566 23.2037 98.927 23.698 99.268 24.0645C99.6089 24.4309 100.056 24.6142 100.61 24.6142C100.951 24.6142 101.281 24.5311 101.601 24.3649C101.921 24.1987 102.183 23.9515 102.387 23.6234C102.596 23.291 102.7 22.8755 102.7 22.377ZM107.754 26.5062V16.688H109.965V18.3564H110.081C110.285 17.7939 110.624 17.3549 111.097 17.0396C111.57 16.72 112.135 16.5602 112.791 16.5602C113.456 16.5602 114.016 16.7221 114.472 17.046C114.932 17.3656 115.256 17.8024 115.443 18.3564H115.546C115.763 17.8109 116.13 17.3763 116.645 17.0524C117.165 16.7243 117.781 16.5602 118.492 16.5602C119.396 16.5602 120.133 16.8457 120.704 17.4167C121.275 17.9878 121.561 18.8209 121.561 19.916V26.5062H119.24V20.274C119.24 19.6646 119.078 19.2193 118.755 18.938C118.431 18.6525 118.034 18.5098 117.566 18.5098C117.007 18.5098 116.571 18.6845 116.255 19.0339C115.944 19.3791 115.789 19.8287 115.789 20.3826V26.5062H113.519V20.1781C113.519 19.671 113.366 19.2662 113.059 18.9636C112.757 18.6611 112.36 18.5098 111.87 18.5098C111.538 18.5098 111.235 18.595 110.963 18.7655C110.69 18.9317 110.473 19.1682 110.311 19.475C110.149 19.7775 110.068 20.1312 110.068 20.5361V26.5062H107.754Z" fill="url(#paint6_linear_869_757)"/>
<defs>
<linearGradient id="paint0_linear_869_757" x1="12" y1="31.3338" x2="24" y2="31.3338" gradientUnits="userSpaceOnUse">
<stop stop-color="white"/>
<stop offset="1" stop-color="#999999"/>
</linearGradient>
<linearGradient id="paint1_linear_869_757" x1="0" y1="31.3338" x2="12" y2="31.3338" gradientUnits="userSpaceOnUse">
<stop stop-color="white"/>
<stop offset="1" stop-color="#999999"/>
</linearGradient>
<linearGradient id="paint2_linear_869_757" x1="13.5225" y1="17.7755" x2="21.7518" y2="17.7755" gradientUnits="userSpaceOnUse">
<stop stop-color="white"/>
<stop offset="1" stop-color="#999999"/>
</linearGradient>
<linearGradient id="paint3_linear_869_757" x1="10.4834" y1="17.7755" x2="2.25403" y2="17.7755" gradientUnits="userSpaceOnUse">
<stop stop-color="white"/>
<stop offset="1" stop-color="#999999"/>
</linearGradient>
<linearGradient id="paint4_linear_869_757" x1="12" y1="14.0538" x2="24" y2="14.0538" gradientUnits="userSpaceOnUse">
<stop stop-color="white"/>
<stop offset="1" stop-color="#999999"/>
</linearGradient>
<linearGradient id="paint5_linear_869_757" x1="0" y1="14.0536" x2="12" y2="14.0536" gradientUnits="userSpaceOnUse">
<stop stop-color="white"/>
<stop offset="1" stop-color="#999999"/>
</linearGradient>
<linearGradient id="paint6_linear_869_757" x1="36" y1="20.0062" x2="123" y2="20.0062" gradientUnits="userSpaceOnUse">
<stop stop-color="white"/>
<stop offset="1" stop-color="#999999"/>
</linearGradient>
</defs>
</svg>
