<svg width="85" height="24" viewBox="0 0 85 24" fill="none" xmlns="http://www.w3.org/2000/svg">
<path d="M17.6316 21H3.47656V5.921H6.71456V18.078H17.6316V21ZM17.6326 8.841C19.2276 8.841 20.5216 7.534 20.5216 5.921C20.5216 4.308 19.2276 3 17.6316 3C16.0366 3 14.7436 4.308 14.7436 5.92C14.7436 7.534 16.0366 8.841 17.6326 8.841Z" fill="url(#paint0_linear_869_806)"/>
<path d="M37.2912 18.5V5.40909H39.6626V16.5121H45.4283V18.5H37.2912ZM47.7442 18.5V8.68182H50.0582V18.5H47.7442ZM48.9076 7.28835C48.5411 7.28835 48.2258 7.1669 47.9616 6.92401C47.6974 6.67685 47.5653 6.38068 47.5653 6.03551C47.5653 5.68608 47.6974 5.38991 47.9616 5.14702C48.2258 4.89986 48.5411 4.77628 48.9076 4.77628C49.2783 4.77628 49.5937 4.89986 49.8536 5.14702C50.1178 5.38991 50.2499 5.68608 50.2499 6.03551C50.2499 6.38068 50.1178 6.67685 49.8536 6.92401C49.5937 7.1669 49.2783 7.28835 48.9076 7.28835ZM55.1115 12.7472V18.5H52.7976V8.68182H55.0092V10.3501H55.1243C55.3501 9.80043 55.7102 9.36364 56.2046 9.03977C56.7031 8.71591 57.3189 8.55398 58.0519 8.55398C58.7294 8.55398 59.3196 8.69886 59.8225 8.98864C60.3296 9.27841 60.7216 9.69815 60.9986 10.2479C61.2798 10.7976 61.4183 11.4645 61.4141 12.2486V18.5H59.1001V12.6065C59.1001 11.9503 58.9297 11.4368 58.5888 11.0661C58.2521 10.6953 57.7855 10.5099 57.1889 10.5099C56.7841 10.5099 56.424 10.5994 56.1087 10.7784C55.7976 10.9531 55.5526 11.2067 55.3736 11.5391C55.1989 11.8714 55.1115 12.2741 55.1115 12.7472ZM68.4729 18.6918C67.4886 18.6918 66.6384 18.4872 65.9225 18.0781C65.2109 17.6648 64.6633 17.081 64.2798 16.3267C63.8962 15.5682 63.7045 14.6754 63.7045 13.6484C63.7045 12.6385 63.8962 11.7521 64.2798 10.9893C64.6675 10.2223 65.2087 9.62571 65.9033 9.19957C66.5979 8.76918 67.414 8.55398 68.3515 8.55398C68.9566 8.55398 69.5276 8.65199 70.0646 8.84801C70.6057 9.03977 71.083 9.33807 71.4964 9.7429C71.914 10.1477 72.2421 10.6634 72.4807 11.2898C72.7194 11.9119 72.8387 12.6534 72.8387 13.5142V14.2237H64.7911V12.6641H70.6207C70.6164 12.2209 70.5205 11.8267 70.333 11.4815C70.1455 11.1321 69.8834 10.8572 69.5468 10.657C69.2144 10.4567 68.8266 10.3565 68.3834 10.3565C67.9104 10.3565 67.495 10.4716 67.137 10.7017C66.779 10.9276 66.4999 11.2259 66.2996 11.5966C66.1036 11.9631 66.0035 12.3658 65.9992 12.8047V14.1662C65.9992 14.7372 66.1036 15.2273 66.3124 15.6364C66.5212 16.0412 66.8131 16.3523 67.1881 16.5696C67.5631 16.7827 68.0021 16.8892 68.5049 16.8892C68.8415 16.8892 69.1462 16.8423 69.419 16.7486C69.6917 16.6506 69.9282 16.5078 70.1285 16.3203C70.3288 16.1328 70.48 15.9006 70.5823 15.6236L72.7428 15.8665C72.6065 16.4375 72.3465 16.9361 71.963 17.3622C71.5837 17.7841 71.0979 18.1122 70.5056 18.3466C69.9133 18.5767 69.2357 18.6918 68.4729 18.6918ZM77.9815 18.6982C77.3594 18.6982 76.799 18.5874 76.3004 18.3658C75.8061 18.1399 75.4141 17.8075 75.1243 17.3686C74.8388 16.9297 74.696 16.3885 74.696 15.745C74.696 15.1911 74.7983 14.733 75.0029 14.3707C75.2074 14.0085 75.4865 13.7188 75.8402 13.5014C76.1939 13.2841 76.5923 13.12 77.0355 13.0092C77.483 12.8942 77.9453 12.8111 78.4226 12.7599C78.9979 12.7003 79.4645 12.647 79.8225 12.6001C80.1804 12.549 80.4404 12.4723 80.6023 12.37C80.7685 12.2635 80.8516 12.0994 80.8516 11.8778V11.8395C80.8516 11.358 80.7088 10.9851 80.4233 10.7209C80.1378 10.4567 79.7266 10.3246 79.1896 10.3246C78.6229 10.3246 78.1733 10.4482 77.8409 10.6953C77.5128 10.9425 77.2912 11.2344 77.1761 11.571L75.0156 11.2642C75.1861 10.6676 75.4673 10.169 75.8594 9.76847C76.2514 9.36364 76.7308 9.06108 77.2976 8.8608C77.8644 8.65625 78.4908 8.55398 79.1769 8.55398C79.6499 8.55398 80.1208 8.60938 80.5895 8.72017C81.0583 8.83097 81.4865 9.0142 81.8743 9.26989C82.2621 9.52131 82.5732 9.86435 82.8075 10.299C83.0462 10.7337 83.1655 11.277 83.1655 11.929V18.5H80.9411V17.1513H80.8644C80.7237 17.424 80.5256 17.6797 80.2699 17.9183C80.0185 18.1527 79.701 18.3423 79.3175 18.4872C78.9382 18.6278 78.4929 18.6982 77.9815 18.6982ZM78.5824 16.9979C79.0469 16.9979 79.4496 16.9062 79.7905 16.723C80.1314 16.5355 80.3935 16.2884 80.5767 15.9815C80.7642 15.6747 80.858 15.3402 80.858 14.978V13.821C80.7855 13.8807 80.6619 13.9361 80.4872 13.9872C80.3168 14.0384 80.125 14.0831 79.9119 14.1214C79.6989 14.1598 79.4879 14.1939 79.2791 14.2237C79.0703 14.2536 78.8892 14.2791 78.7358 14.3004C78.3906 14.3473 78.0817 14.424 77.809 14.5305C77.5362 14.6371 77.321 14.7862 77.1634 14.978C77.0057 15.1655 76.9269 15.4084 76.9269 15.7067C76.9269 16.1328 77.0824 16.4545 77.3935 16.6719C77.7046 16.8892 78.1009 16.9979 78.5824 16.9979Z" fill="url(#paint1_linear_869_806)"/>
<defs>
<linearGradient id="paint0_linear_869_806" x1="3.47656" y1="12" x2="20.5216" y2="12" gradientUnits="userSpaceOnUse">
<stop stop-color="white"/>
<stop offset="1" stop-color="#999999"/>
</linearGradient>
<linearGradient id="paint1_linear_869_806" x1="36" y1="12" x2="85" y2="12" gradientUnits="userSpaceOnUse">
<stop stop-color="white"/>
<stop offset="1" stop-color="#999999"/>
</linearGradient>
</defs>
</svg>
