<svg width="94" height="24" viewBox="0 0 94 24" fill="none" xmlns="http://www.w3.org/2000/svg">
<path fill-rule="evenodd" clip-rule="evenodd" d="M6.08204 20.6068C3.4615 18.6489 1.76489 15.5225 1.76489 12C1.76489 6.07149 6.57149 1.26489 12.5 1.26489C17.3946 1.26489 22.7374 4.19065 24.0298 8.66728C22.5862 3.6627 17.972 0 12.5 0C5.87305 0 0.5 5.37305 0.5 12C0.5 18.6269 5.87305 24 12.5 24C19.1269 24 24.5 18.6269 24.5 12V11.3676H23.8401C23.8208 11.3676 23.7906 11.3676 23.7521 11.3676C23.6751 11.3676 23.5623 11.3648 23.4193 11.3593C23.1361 11.3511 22.7429 11.3318 22.3029 11.2933C21.4038 11.2163 20.3753 11.0623 19.6769 10.7819C18.5522 10.3336 17.917 9.73694 17.1911 9.04125L17.1499 9C16.4239 8.30156 15.6072 7.51787 14.1911 6.84968C12.797 6.19248 11.2544 6.29973 10.1214 6.53071C9.54675 6.64895 9.05179 6.80568 8.70257 6.93217C8.52658 6.99542 8.38634 7.05316 8.28735 7.09441C7.71815 7.33364 7.16269 7.61961 6.60449 7.88084C6.60449 7.88084 7.70165 8.18332 8.2461 8.35105C8.26535 8.35655 8.2956 8.36755 8.33685 8.3813C8.41659 8.4088 8.53483 8.45005 8.67782 8.50779C8.9638 8.62328 9.34051 8.79927 9.71173 9.0385C10.2974 9.41522 10.7841 9.88818 10.9821 10.4711C9.73923 10.6334 8.57333 11.1806 7.6989 11.6948C7.17094 12.0055 6.73098 12.3162 6.42301 12.55C6.26902 12.6654 6.14528 12.7644 6.06279 12.8332C5.99129 12.8909 4.86939 13.8808 4.86939 13.8808C4.86939 13.8808 6.31852 14.0348 7.03346 14.1778C7.50917 14.2741 8.14986 14.428 8.81806 14.6618C9.489 14.8955 10.1682 15.2035 10.7319 15.5967C11.2956 15.9899 11.7108 16.4464 11.9143 16.9661C12.5083 18.484 11.9253 19.9633 10.7539 20.7938C9.59624 21.6187 7.83914 21.8139 6.08204 20.6068ZM10.1764 22.4849C10.6494 22.3309 11.0894 22.1082 11.4881 21.8277C13.0802 20.6948 13.9189 18.6214 13.0912 16.5096C12.7667 15.6792 12.1453 15.044 11.4551 14.5628C10.7649 14.0816 9.97021 13.7269 9.23327 13.4711C8.74931 13.3034 8.28185 13.1714 7.87489 13.0724C8.02062 12.9789 8.17736 12.8799 8.34235 12.7837C9.31577 12.2117 10.5394 11.6865 11.7136 11.6865C13.4844 11.6865 14.8016 12.2282 16.0582 12.8112C16.1737 12.8634 16.2864 12.9184 16.4019 12.9734C17.5266 13.5014 18.7062 14.0541 20.0784 14.0541C21.4093 14.0541 22.4459 13.6774 23.1609 13.2896C22.5257 18.6132 17.994 22.7379 12.5 22.7379C11.7026 22.7379 10.9244 22.6499 10.1764 22.4849ZM21.797 12.5115C21.324 12.6737 20.7521 12.7892 20.0811 12.7892C19.006 12.7892 18.0793 12.3575 16.9051 11.8103C16.8006 11.7608 16.6962 11.714 16.5889 11.6645C15.412 11.1201 14.0536 10.5426 12.2828 10.4381C12.0463 9.26673 11.1581 8.46379 10.3964 7.97708C10.3112 7.92209 10.2259 7.86984 10.1434 7.8231C10.2204 7.8066 10.2974 7.78735 10.3772 7.77085C11.4001 7.55912 12.621 7.50688 13.6549 7.99358C14.8813 8.57104 15.5742 9.23648 16.2947 9.92667L16.3194 9.95142C17.0619 10.6636 17.8456 11.4088 19.2122 11.956C19.9684 12.2585 20.9528 12.4207 21.797 12.5115Z" fill="url(#paint0_linear_869_839)"/>
<path d="M37.7912 5.40909H40.6932L44.5795 14.8949H44.733L48.6193 5.40909H51.5213V18.5H49.2457V9.50639H49.1243L45.5064 18.4616H43.8061L40.1882 9.48722H40.0668V18.5H37.7912V5.40909ZM57.1867 18.6982C56.5645 18.6982 56.0042 18.5874 55.5056 18.3658C55.0113 18.1399 54.6192 17.8075 54.3295 17.3686C54.0439 16.9297 53.9012 16.3885 53.9012 15.745C53.9012 15.1911 54.0035 14.733 54.208 14.3707C54.4126 14.0085 54.6917 13.7188 55.0454 13.5014C55.3991 13.2841 55.7975 13.12 56.2407 13.0092C56.6881 12.8942 57.1505 12.8111 57.6278 12.7599C58.203 12.7003 58.6697 12.647 59.0276 12.6001C59.3856 12.549 59.6455 12.4723 59.8074 12.37C59.9736 12.2635 60.0567 12.0994 60.0567 11.8778V11.8395C60.0567 11.358 59.914 10.9851 59.6285 10.7209C59.343 10.4567 58.9317 10.3246 58.3948 10.3246C57.828 10.3246 57.3785 10.4482 57.0461 10.6953C56.718 10.9425 56.4964 11.2344 56.3813 11.571L54.2208 11.2642C54.3913 10.6676 54.6725 10.169 55.0645 9.76847C55.4566 9.36364 55.936 9.06108 56.5028 8.8608C57.0695 8.65625 57.6959 8.55398 58.382 8.55398C58.855 8.55398 59.3259 8.60938 59.7947 8.72017C60.2634 8.83097 60.6917 9.0142 61.0795 9.26989C61.4672 9.52131 61.7783 9.86435 62.0127 10.299C62.2513 10.7337 62.3707 11.277 62.3707 11.929V18.5H60.1462V17.1513H60.0695C59.9289 17.424 59.7307 17.6797 59.4751 17.9183C59.2236 18.1527 58.9062 18.3423 58.5226 18.4872C58.1434 18.6278 57.6981 18.6982 57.1867 18.6982ZM57.7876 16.9979C58.252 16.9979 58.6547 16.9062 58.9957 16.723C59.3366 16.5355 59.5986 16.2884 59.7819 15.9815C59.9694 15.6747 60.0631 15.3402 60.0631 14.978V13.821C59.9907 13.8807 59.8671 13.9361 59.6924 13.9872C59.5219 14.0384 59.3302 14.0831 59.1171 14.1214C58.904 14.1598 58.6931 14.1939 58.4843 14.2237C58.2755 14.2536 58.0944 14.2791 57.941 14.3004C57.5958 14.3473 57.2868 14.424 57.0141 14.5305C56.7414 14.6371 56.5262 14.7862 56.3685 14.978C56.2109 15.1655 56.132 15.4084 56.132 15.7067C56.132 16.1328 56.2876 16.4545 56.5986 16.6719C56.9097 16.8892 57.306 16.9979 57.7876 16.9979ZM67.3713 12.7472V18.5H65.0574V8.68182H67.269V10.3501H67.3841C67.6099 9.80043 67.97 9.36364 68.4643 9.03977C68.9629 8.71591 69.5787 8.55398 70.3116 8.55398C70.9892 8.55398 71.5794 8.69886 72.0822 8.98864C72.5893 9.27841 72.9814 9.69815 73.2584 10.2479C73.5396 10.7976 73.6781 11.4645 73.6738 12.2486V18.5H71.3599V12.6065C71.3599 11.9503 71.1895 11.4368 70.8486 11.0661C70.5119 10.6953 70.0453 10.5099 69.4487 10.5099C69.0439 10.5099 68.6838 10.5994 68.3684 10.7784C68.0574 10.9531 67.8123 11.2067 67.6334 11.5391C67.4586 11.8714 67.3713 12.2741 67.3713 12.7472ZM81.2888 8.68182V10.4716H75.6446V8.68182H81.2888ZM77.0381 6.32955H79.352V15.5469C79.352 15.858 79.3989 16.0966 79.4926 16.2628C79.5907 16.4247 79.7185 16.5355 79.8762 16.5952C80.0338 16.6548 80.2086 16.6847 80.4003 16.6847C80.5452 16.6847 80.6773 16.674 80.7966 16.6527C80.9202 16.6314 81.014 16.6122 81.0779 16.5952L81.4678 18.4041C81.3442 18.4467 81.1674 18.4936 80.9372 18.5447C80.7114 18.5959 80.4344 18.6257 80.1063 18.6342C79.5267 18.6513 79.0047 18.5639 78.5402 18.3722C78.0757 18.1761 77.7071 17.8736 77.4344 17.4645C77.1659 17.0554 77.0338 16.544 77.0381 15.9304V6.32955ZM86.4093 18.6982C85.7871 18.6982 85.2268 18.5874 84.7282 18.3658C84.2339 18.1399 83.8418 17.8075 83.552 17.3686C83.2665 16.9297 83.1238 16.3885 83.1238 15.745C83.1238 15.1911 83.226 14.733 83.4306 14.3707C83.6351 14.0085 83.9143 13.7188 84.2679 13.5014C84.6216 13.2841 85.0201 13.12 85.4633 13.0092C85.9107 12.8942 86.3731 12.8111 86.8503 12.7599C87.4256 12.7003 87.8922 12.647 88.2502 12.6001C88.6081 12.549 88.8681 12.4723 89.03 12.37C89.1962 12.2635 89.2793 12.0994 89.2793 11.8778V11.8395C89.2793 11.358 89.1366 10.9851 88.851 10.7209C88.5655 10.4567 88.1543 10.3246 87.6174 10.3246C87.0506 10.3246 86.601 10.4482 86.2687 10.6953C85.9405 10.9425 85.7189 11.2344 85.6039 11.571L83.4434 11.2642C83.6138 10.6676 83.8951 10.169 84.2871 9.76847C84.6792 9.36364 85.1586 9.06108 85.7253 8.8608C86.2921 8.65625 86.9185 8.55398 87.6046 8.55398C88.0776 8.55398 88.5485 8.60938 89.0172 8.72017C89.486 8.83097 89.9143 9.0142 90.302 9.26989C90.6898 9.52131 91.0009 9.86435 91.2353 10.299C91.4739 10.7337 91.5932 11.277 91.5932 11.929V18.5H89.3688V17.1513H89.2921C89.1515 17.424 88.9533 17.6797 88.6976 17.9183C88.4462 18.1527 88.1287 18.3423 87.7452 18.4872C87.366 18.6278 86.9206 18.6982 86.4093 18.6982ZM87.0101 16.9979C87.4746 16.9979 87.8773 16.9062 88.2182 16.723C88.5591 16.5355 88.8212 16.2884 89.0045 15.9815C89.192 15.6747 89.2857 15.3402 89.2857 14.978V13.821C89.2133 13.8807 89.0897 13.9361 88.915 13.9872C88.7445 14.0384 88.5527 14.0831 88.3397 14.1214C88.1266 14.1598 87.9157 14.1939 87.7069 14.2237C87.4981 14.2536 87.317 14.2791 87.1635 14.3004C86.8184 14.3473 86.5094 14.424 86.2367 14.5305C85.964 14.6371 85.7488 14.7862 85.5911 14.978C85.4334 15.1655 85.3546 15.4084 85.3546 15.7067C85.3546 16.1328 85.5101 16.4545 85.8212 16.6719C86.1323 16.8892 86.5286 16.9979 87.0101 16.9979Z" fill="url(#paint1_linear_869_839)"/>
<defs>
<linearGradient id="paint0_linear_869_839" x1="0.5" y1="12" x2="24.5" y2="12" gradientUnits="userSpaceOnUse">
<stop stop-color="white"/>
<stop offset="1" stop-color="#999999"/>
</linearGradient>
<linearGradient id="paint1_linear_869_839" x1="36.5" y1="12" x2="93.5" y2="12" gradientUnits="userSpaceOnUse">
<stop stop-color="white"/>
<stop offset="1" stop-color="#999999"/>
</linearGradient>
</defs>
</svg>
