<svg width="106" height="32" viewBox="0 0 106 32" fill="none" xmlns="http://www.w3.org/2000/svg">
<path d="M17.2373 8.10933L17.852 4.14267C17.2393 4.04733 16.6201 3.99964 16 4H15.9933V12.1H16C16.3453 12.1 16.6747 12.1453 17.0053 12.228L18.0547 8.28134C17.7854 8.20981 17.5126 8.1524 17.2373 8.10933ZM14.0507 12.6253L12.024 9.152C11.7894 9.29052 11.562 9.44094 11.3427 9.60267L8.93333 6.30267C9.43828 5.92866 9.97346 5.5973 10.5333 5.312L12.3707 8.88934C12.7467 8.70267 13.1213 8.53734 13.5187 8.40934L12.272 4.58667C12.8699 4.39364 13.482 4.24786 14.1027 4.15067L14.748 8.18667C14.4744 8.22757 14.2037 8.28546 13.9373 8.36L14.988 12.236C14.6582 12.3212 14.3422 12.4527 14.0493 12.6267M5.296 10.5627L8.94133 12.416C8.75467 12.7893 8.588 13.1653 8.46133 13.5627L4.576 12.3027C4.77067 11.7036 5.01067 11.1236 5.296 10.5627ZM22.8467 12.0253L19.3733 14.0493C19.5467 14.3427 19.6733 14.6493 19.764 14.98L23.6413 13.9307C23.7169 14.2 23.7747 14.4698 23.8147 14.74L27.848 14.1027C27.7494 13.4796 27.6018 12.8652 27.4067 12.2653L23.58 13.5173C23.4557 13.1197 23.2978 12.7335 23.108 12.3627L26.6787 10.5253C26.3933 9.96807 26.0647 9.434 25.696 8.928L22.3973 11.3333C22.5627 11.5587 22.712 11.784 22.848 12.024M19.6907 4.576C20.2907 4.77067 20.8747 5.01067 21.4307 5.296L19.5773 8.93333C19.2101 8.74689 18.8289 8.58909 18.4373 8.46134L19.6907 4.576ZM19.9827 9.076L17.9427 12.616C18.2427 12.7893 18.512 12.9907 18.752 13.2387L24.468 7.50134C24.0251 7.05712 23.5481 6.64831 23.0413 6.27867L20.68 9.53467C20.4571 9.37056 20.2242 9.22049 19.9827 9.08534V9.076ZM12.6173 14.056L9.07733 12.016C9.22 11.776 9.37733 11.544 9.53467 11.3187L6.28 8.95733C6.6497 8.45101 7.0585 7.97445 7.50267 7.532L13.24 13.248C12.9982 13.488 12.7907 13.7578 12.6173 14.0573M8.28267 13.9453L12.228 14.9947C12.1429 15.323 12.0999 15.6608 12.1 16H4C4 15.3773 4.04533 14.7467 4.14933 14.14L8.10933 14.7547C8.15467 14.4853 8.216 14.208 8.28267 13.9453ZM23.0573 19.5853L26.7027 21.4387C26.988 20.8747 27.2267 20.2893 27.4227 19.6973L23.5373 18.4373C23.4093 18.828 23.244 19.2173 23.0573 19.584M17.9573 19.3733L19.968 22.8467C20.2089 22.7116 20.4387 22.5613 20.6573 22.396L23.0653 25.696C22.5612 26.0699 22.027 26.4012 21.468 26.6867L19.6293 23.1093C19.256 23.296 18.88 23.4613 18.4747 23.5893L19.728 27.4133C19.128 27.6 18.512 27.7507 17.8893 27.848L17.252 23.8133C17.5222 23.7751 17.7924 23.7173 18.0627 23.64L17.012 19.764C17.3398 19.6741 17.6548 19.5428 17.9493 19.3733H17.9573ZM9.152 19.9733L12.6253 17.9493C12.4521 17.659 12.3205 17.3457 12.2347 17.0187L8.35733 18.068C8.28285 17.8021 8.22496 17.5318 8.184 17.2587L4.14933 17.896C4.24889 18.52 4.39644 19.1324 4.592 19.7333L8.41867 18.48C8.54578 18.8773 8.70267 19.2627 8.88933 19.636L5.32 21.4747C5.60533 22.0293 5.93467 22.5693 6.30267 23.072L9.60267 20.6667C9.43834 20.446 9.28782 20.2153 9.152 19.976M12.3093 27.424C11.7114 27.2299 11.1296 26.9892 10.5693 26.704L12.4147 23.0667C12.7898 23.2533 13.172 23.4107 13.5613 23.5387L12.3093 27.424ZM12.0173 22.924L14.0573 19.384C13.7624 19.2139 13.4905 19.0069 13.248 18.768L7.532 24.5067C7.97467 24.9413 8.45467 25.3533 8.95867 25.72L11.32 22.4733C11.5449 22.6316 11.7773 22.7818 12.0173 22.924ZM19.3827 17.944L22.916 19.984C22.7807 20.2283 22.6302 20.4639 22.4653 20.6893L25.712 23.044C25.3451 23.5523 24.939 24.0311 24.4973 24.476L18.76 18.7533C19.0009 18.5133 19.2084 18.2436 19.3827 17.944ZM14.996 19.7733L13.9453 23.72C14.2147 23.7933 14.4853 23.8467 14.7627 23.8907L14.148 27.8587C14.7607 27.954 15.3799 28.0017 16 28.0013H16.008V19.9013H16C15.6608 19.9015 15.3243 19.8585 14.996 19.7733ZM19.7707 17.0067C19.8558 16.6783 19.8988 16.3405 19.8987 16.0013H28C28 16.624 27.9547 17.2547 27.8493 17.8613L23.8893 17.2467C23.844 17.5189 23.7866 17.7889 23.7173 18.056L19.7707 17.0067Z" fill="url(#paint0_linear_869_782)"/>
<path d="M45.2912 9.40909H48.1932L52.0795 18.8949H52.233L56.1193 9.40909H59.0213V22.5H56.7457V13.5064H56.6243L53.0064 22.4616H51.3061L47.6882 13.4872H47.5668V22.5H45.2912V9.40909ZM64.6867 22.6982C64.0645 22.6982 63.5042 22.5874 63.0056 22.3658C62.5113 22.1399 62.1192 21.8075 61.8295 21.3686C61.5439 20.9297 61.4012 20.3885 61.4012 19.745C61.4012 19.1911 61.5035 18.733 61.708 18.3707C61.9126 18.0085 62.1917 17.7188 62.5454 17.5014C62.8991 17.2841 63.2975 17.12 63.7407 17.0092C64.1881 16.8942 64.6505 16.8111 65.1278 16.7599C65.703 16.7003 66.1697 16.647 66.5276 16.6001C66.8856 16.549 67.1455 16.4723 67.3074 16.37C67.4736 16.2635 67.5567 16.0994 67.5567 15.8778V15.8395C67.5567 15.358 67.414 14.9851 67.1285 14.7209C66.843 14.4567 66.4317 14.3246 65.8948 14.3246C65.328 14.3246 64.8785 14.4482 64.5461 14.6953C64.218 14.9425 63.9964 15.2344 63.8813 15.571L61.7208 15.2642C61.8913 14.6676 62.1725 14.169 62.5645 13.7685C62.9566 13.3636 63.436 13.0611 64.0028 12.8608C64.5695 12.6562 65.1959 12.554 65.882 12.554C66.355 12.554 66.8259 12.6094 67.2947 12.7202C67.7634 12.831 68.1917 13.0142 68.5795 13.2699C68.9672 13.5213 69.2783 13.8643 69.5127 14.299C69.7513 14.7337 69.8707 15.277 69.8707 15.929V22.5H67.6462V21.1513H67.5695C67.4289 21.424 67.2307 21.6797 66.9751 21.9183C66.7236 22.1527 66.4062 22.3423 66.0226 22.4872C65.6434 22.6278 65.1981 22.6982 64.6867 22.6982ZM65.2876 20.9979C65.752 20.9979 66.1547 20.9062 66.4957 20.723C66.8366 20.5355 67.0986 20.2884 67.2819 19.9815C67.4694 19.6747 67.5631 19.3402 67.5631 18.978V17.821C67.4907 17.8807 67.3671 17.9361 67.1924 17.9872C67.0219 18.0384 66.8302 18.0831 66.6171 18.1214C66.404 18.1598 66.1931 18.1939 65.9843 18.2237C65.7755 18.2536 65.5944 18.2791 65.441 18.3004C65.0958 18.3473 64.7868 18.424 64.5141 18.5305C64.2414 18.6371 64.0262 18.7862 63.8685 18.978C63.7109 19.1655 63.632 19.4084 63.632 19.7067C63.632 20.1328 63.7876 20.4545 64.0986 20.6719C64.4097 20.8892 64.806 20.9979 65.2876 20.9979ZM74.8713 16.7472V22.5H72.5574V12.6818H74.769V14.3501H74.8841C75.1099 13.8004 75.47 13.3636 75.9643 13.0398C76.4629 12.7159 77.0787 12.554 77.8116 12.554C78.4892 12.554 79.0794 12.6989 79.5822 12.9886C80.0893 13.2784 80.4814 13.6982 80.7584 14.2479C81.0396 14.7976 81.1781 15.4645 81.1738 16.2486V22.5H78.8599V16.6065C78.8599 15.9503 78.6895 15.4368 78.3486 15.0661C78.0119 14.6953 77.5453 14.5099 76.9487 14.5099C76.5439 14.5099 76.1838 14.5994 75.8684 14.7784C75.5574 14.9531 75.3123 15.2067 75.1334 15.5391C74.9586 15.8714 74.8713 16.2741 74.8713 16.7472ZM88.7888 12.6818V14.4716H83.1446V12.6818H88.7888ZM84.5381 10.3295H86.852V19.5469C86.852 19.858 86.8989 20.0966 86.9926 20.2628C87.0907 20.4247 87.2185 20.5355 87.3762 20.5952C87.5338 20.6548 87.7086 20.6847 87.9003 20.6847C88.0452 20.6847 88.1773 20.674 88.2966 20.6527C88.4202 20.6314 88.514 20.6122 88.5779 20.5952L88.9678 22.4041C88.8442 22.4467 88.6674 22.4936 88.4372 22.5447C88.2114 22.5959 87.9344 22.6257 87.6063 22.6342C87.0267 22.6513 86.5047 22.5639 86.0402 22.3722C85.5757 22.1761 85.2071 21.8736 84.9344 21.4645C84.6659 21.0554 84.5338 20.544 84.5381 19.9304V10.3295ZM93.6089 9.40909V22.5H91.2949V9.40909H93.6089ZM100.695 22.6918C99.7105 22.6918 98.8604 22.4872 98.1445 22.0781C97.4328 21.6648 96.8852 21.081 96.5017 20.3267C96.1182 19.5682 95.9264 18.6754 95.9264 17.6484C95.9264 16.6385 96.1182 15.7521 96.5017 14.9893C96.8895 14.2223 97.4307 13.6257 98.1253 13.1996C98.8199 12.7692 99.6359 12.554 100.573 12.554C101.179 12.554 101.75 12.652 102.287 12.848C102.828 13.0398 103.305 13.3381 103.718 13.7429C104.136 14.1477 104.464 14.6634 104.703 15.2898C104.941 15.9119 105.061 16.6534 105.061 17.5142V18.2237H97.0131V16.6641H102.843C102.838 16.2209 102.742 15.8267 102.555 15.4815C102.367 15.1321 102.105 14.8572 101.769 14.657C101.436 14.4567 101.049 14.3565 100.605 14.3565C100.132 14.3565 99.7169 14.4716 99.3589 14.7017C99.001 14.9276 98.7219 15.2259 98.5216 15.5966C98.3256 15.9631 98.2254 16.3658 98.2212 16.8047V18.1662C98.2212 18.7372 98.3256 19.2273 98.5344 19.6364C98.7432 20.0412 99.0351 20.3523 99.4101 20.5696C99.7851 20.7827 100.224 20.8892 100.727 20.8892C101.063 20.8892 101.368 20.8423 101.641 20.7486C101.914 20.6506 102.15 20.5078 102.35 20.3203C102.551 20.1328 102.702 19.9006 102.804 19.6236L104.965 19.8665C104.828 20.4375 104.568 20.9361 104.185 21.3622C103.806 21.7841 103.32 22.1122 102.728 22.3466C102.135 22.5767 101.458 22.6918 100.695 22.6918Z" fill="url(#paint1_linear_869_782)"/>
<defs>
<linearGradient id="paint0_linear_869_782" x1="4" y1="16.0007" x2="28" y2="16.0007" gradientUnits="userSpaceOnUse">
<stop stop-color="white"/>
<stop offset="1" stop-color="#999999"/>
</linearGradient>
<linearGradient id="paint1_linear_869_782" x1="44" y1="16" x2="106" y2="16" gradientUnits="userSpaceOnUse">
<stop stop-color="white"/>
<stop offset="1" stop-color="#999999"/>
</linearGradient>
</defs>
</svg>
