<svg width="124" height="24" viewBox="0 0 124 24" fill="none" xmlns="http://www.w3.org/2000/svg">
<rect x="0.5" width="24" height="24" rx="12" fill="url(#paint0_linear_869_801)" fill-opacity="0.1"/>
<path fill-rule="evenodd" clip-rule="evenodd" d="M4.466 15.801C5.11867 16.2677 5.956 16.501 6.978 16.501C8.214 16.501 9.20133 16.2217 9.94 15.663C10.6787 15.0963 11.1983 14.2423 11.499 13.101C11.679 12.401 11.8337 11.68 11.963 10.938C12.005 10.6727 12.0263 10.4517 12.027 10.275C12.027 9.69233 11.8767 9.19267 11.576 8.776C11.2661 8.34454 10.8358 8.01408 10.339 7.826C9.815 7.60933 9.22267 7.501 8.562 7.501C6.13267 7.501 4.626 8.64667 4.042 10.938C3.86306 11.6545 3.704 12.3757 3.565 13.101C3.52633 13.3243 3.50467 13.549 3.5 13.775C3.5 14.651 3.822 15.3263 4.466 15.801ZM9.116 13.026C8.869 13.983 8.19 14.606 7.158 14.606C6.138 14.606 5.79 13.916 5.974 13.026C6.102 12.3369 6.25678 11.6531 6.438 10.976C6.703 9.942 7.328 9.396 8.394 9.396C9.411 9.396 9.742 10.076 9.567 10.976C9.44063 11.6644 9.2902 12.3481 9.116 13.026ZM13.018 16.411C13.0687 16.471 13.14 16.5007 13.232 16.5H14.936C15.0232 16.4985 15.1072 16.4671 15.174 16.411C15.2484 16.3545 15.2978 16.2713 15.312 16.179L15.85 13.659H17.583C18.677 13.659 19.533 13.129 20.159 12.657C20.7943 12.1857 21.2163 11.457 21.425 10.471C21.475 10.239 21.5 10.0157 21.5 9.801C21.5 9.05633 21.2163 8.48633 20.649 8.091C20.089 7.697 19.3457 7.5 18.419 7.5H15.086C14.9987 7.50176 14.9146 7.53354 14.848 7.59C14.7752 7.64784 14.7261 7.73038 14.71 7.822L12.98 16.178C12.9704 16.2172 12.9688 16.258 12.9753 16.2979C12.9819 16.3377 12.9964 16.3769 13.018 16.411ZM19.108 10.444C18.951 11.133 18.351 11.763 17.646 11.763H16.206L16.702 9.394H18.205C18.717 9.394 19.145 9.496 19.145 10.059C19.145 10.169 19.1327 10.2973 19.108 10.444Z" fill="url(#paint1_linear_869_801)"/>
<path d="M49.4886 11.9545C49.4886 13.3651 49.2244 14.5732 48.696 15.5788C48.1719 16.5803 47.456 17.3473 46.5483 17.88C45.6449 18.4126 44.62 18.679 43.4737 18.679C42.3274 18.679 41.3004 18.4126 40.3928 17.88C39.4893 17.343 38.7734 16.5739 38.245 15.5724C37.7209 14.5668 37.4588 13.3608 37.4588 11.9545C37.4588 10.544 37.7209 9.33807 38.245 8.33665C38.7734 7.33097 39.4893 6.56179 40.3928 6.02912C41.3004 5.49645 42.3274 5.23011 43.4737 5.23011C44.62 5.23011 45.6449 5.49645 46.5483 6.02912C47.456 6.56179 48.1719 7.33097 48.696 8.33665C49.2244 9.33807 49.4886 10.544 49.4886 11.9545ZM47.1044 11.9545C47.1044 10.9616 46.9489 10.1243 46.6378 9.44247C46.331 8.75639 45.9048 8.23864 45.3594 7.8892C44.8139 7.53551 44.1854 7.35866 43.4737 7.35866C42.7621 7.35866 42.1335 7.53551 41.5881 7.8892C41.0426 8.23864 40.6143 8.75639 40.3033 9.44247C39.9964 10.1243 39.843 10.9616 39.843 11.9545C39.843 12.9474 39.9964 13.7869 40.3033 14.473C40.6143 15.1548 41.0426 15.6726 41.5881 16.0263C42.1335 16.3757 42.7621 16.5504 43.4737 16.5504C44.1854 16.5504 44.8139 16.3757 45.3594 16.0263C45.9048 15.6726 46.331 15.1548 46.6378 14.473C46.9489 13.7869 47.1044 12.9474 47.1044 11.9545ZM51.9884 22.1818V8.68182H54.2639V10.3054H54.3982C54.5175 10.0668 54.6858 9.81321 54.9031 9.54474C55.1205 9.27202 55.4145 9.03977 55.7852 8.84801C56.156 8.65199 56.629 8.55398 57.2043 8.55398C57.9628 8.55398 58.6468 8.74787 59.2561 9.13565C59.8698 9.51918 60.3556 10.0881 60.7135 10.8423C61.0757 11.5923 61.2568 12.5128 61.2568 13.6037C61.2568 14.6818 61.08 15.598 60.7263 16.3523C60.3726 17.1065 59.8911 17.6818 59.2817 18.0781C58.6723 18.4744 57.982 18.6726 57.2107 18.6726C56.6482 18.6726 56.1816 18.5788 55.8108 18.3913C55.4401 18.2038 55.1418 17.978 54.9159 17.7138C54.6943 17.4453 54.5218 17.1918 54.3982 16.9531H54.3023V22.1818H51.9884ZM54.2575 13.5909C54.2575 14.2259 54.347 14.782 54.526 15.2592C54.7093 15.7365 54.9713 16.1094 55.3122 16.3778C55.6574 16.642 56.075 16.7741 56.5651 16.7741C57.0764 16.7741 57.5047 16.6378 57.8499 16.3651C58.195 16.0881 58.455 15.7109 58.6297 15.2337C58.8087 14.7521 58.8982 14.2045 58.8982 13.5909C58.8982 12.9815 58.8108 12.4403 58.6361 11.9673C58.4614 11.4943 58.2014 11.1236 57.8563 10.8551C57.5111 10.5866 57.0807 10.4524 56.5651 10.4524C56.0708 10.4524 55.651 10.5824 55.3058 10.8423C54.9607 11.1023 54.6986 11.4666 54.5196 11.9354C54.3449 12.4041 54.2575 12.956 54.2575 13.5909ZM68.5011 8.68182V10.4716H62.8569V8.68182H68.5011ZM64.2504 6.32955H66.5643V15.5469C66.5643 15.858 66.6112 16.0966 66.7049 16.2628C66.8029 16.4247 66.9308 16.5355 67.0884 16.5952C67.2461 16.6548 67.4208 16.6847 67.6126 16.6847C67.7575 16.6847 67.8896 16.674 68.0089 16.6527C68.1325 16.6314 68.2262 16.6122 68.2901 16.5952L68.68 18.4041C68.5565 18.4467 68.3796 18.4936 68.1495 18.5447C67.9237 18.5959 67.6467 18.6257 67.3185 18.6342C66.739 18.6513 66.217 18.5639 65.7525 18.3722C65.288 18.1761 64.9194 17.8736 64.6467 17.4645C64.3782 17.0554 64.2461 16.544 64.2504 15.9304V6.32955ZM70.7963 18.5V8.68182H73.1102V18.5H70.7963ZM71.9596 7.28835C71.5931 7.28835 71.2778 7.1669 71.0136 6.92401C70.7494 6.67685 70.6173 6.38068 70.6173 6.03551C70.6173 5.68608 70.7494 5.38991 71.0136 5.14702C71.2778 4.89986 71.5931 4.77628 71.9596 4.77628C72.3304 4.77628 72.6457 4.89986 72.9056 5.14702C73.1698 5.38991 73.3019 5.68608 73.3019 6.03551C73.3019 6.38068 73.1698 6.67685 72.9056 6.92401C72.6457 7.1669 72.3304 7.28835 71.9596 7.28835ZM75.8496 18.5V8.68182H78.0613V10.3501H78.1763C78.3809 9.78764 78.7197 9.34872 79.1927 9.03338C79.6657 8.71378 80.2303 8.55398 80.8866 8.55398C81.5513 8.55398 82.1117 8.71591 82.5677 9.03977C83.0279 9.35937 83.3518 9.79616 83.5393 10.3501H83.6415C83.8589 9.80469 84.2253 9.37003 84.741 9.04616C85.2608 8.71804 85.8766 8.55398 86.5883 8.55398C87.4917 8.55398 88.2289 8.83949 88.7999 9.41051C89.3709 9.98153 89.6564 10.8146 89.6564 11.9098V18.5H87.3361V12.2678C87.3361 11.6584 87.1742 11.2131 86.8503 10.9318C86.5265 10.6463 86.1302 10.5036 85.6614 10.5036C85.1032 10.5036 84.6664 10.6783 84.351 11.0277C84.04 11.3729 83.8844 11.8224 83.8844 12.3764V18.5H81.6152V12.1719C81.6152 11.6648 81.4618 11.2599 81.155 10.9574C80.8525 10.6548 80.4562 10.5036 79.9661 10.5036C79.6337 10.5036 79.3312 10.5888 79.0584 10.7592C78.7857 10.9254 78.5684 11.1619 78.4064 11.4688C78.2445 11.7713 78.1635 12.125 78.1635 12.5298V18.5H75.8496ZM92.3639 18.5V8.68182H94.6778V18.5H92.3639ZM93.5273 7.28835C93.1608 7.28835 92.8455 7.1669 92.5812 6.92401C92.317 6.67685 92.1849 6.38068 92.1849 6.03551C92.1849 5.68608 92.317 5.38991 92.5812 5.14702C92.8455 4.89986 93.1608 4.77628 93.5273 4.77628C93.898 4.77628 94.2134 4.89986 94.4733 5.14702C94.7375 5.38991 94.8696 5.68608 94.8696 6.03551C94.8696 6.38068 94.7375 6.67685 94.4733 6.92401C94.2134 7.1669 93.898 7.28835 93.5273 7.28835ZM105.177 11.277L103.068 11.5071C103.008 11.294 102.904 11.0938 102.755 10.9062C102.61 10.7188 102.414 10.5675 102.167 10.4524C101.919 10.3374 101.617 10.2798 101.259 10.2798C100.777 10.2798 100.373 10.3842 100.044 10.593C99.7205 10.8018 99.5607 11.0724 99.565 11.4048C99.5607 11.6903 99.6651 11.9226 99.8782 12.1016C100.096 12.2805 100.454 12.4276 100.952 12.5426L102.627 12.9006C103.556 13.1009 104.246 13.4183 104.698 13.853C105.154 14.2876 105.384 14.8565 105.388 15.5597C105.384 16.1776 105.203 16.723 104.845 17.196C104.491 17.6648 103.999 18.0312 103.368 18.2955C102.738 18.5597 102.013 18.6918 101.195 18.6918C99.9933 18.6918 99.0259 18.4403 98.293 17.9375C97.56 17.4304 97.1232 16.7251 96.9826 15.8217L99.239 15.6044C99.3413 16.0476 99.5586 16.3821 99.891 16.608C100.223 16.8338 100.656 16.9467 101.189 16.9467C101.738 16.9467 102.179 16.8338 102.512 16.608C102.848 16.3821 103.017 16.103 103.017 15.7706C103.017 15.4893 102.908 15.2571 102.691 15.0739C102.478 14.8906 102.145 14.75 101.694 14.652L100.019 14.3004C99.0771 14.1044 98.3803 13.7741 97.9286 13.3097C97.4769 12.8409 97.2532 12.2486 97.2575 11.5327C97.2532 10.9276 97.4173 10.4034 97.7497 9.96023C98.0863 9.51278 98.5529 9.16761 99.1495 8.92472C99.7504 8.67756 100.443 8.55398 101.227 8.55398C102.378 8.55398 103.283 8.79901 103.944 9.28906C104.608 9.77912 105.02 10.4418 105.177 11.277ZM107.656 18.5V8.68182H109.868V10.3501H109.983C110.187 9.78764 110.526 9.34872 110.999 9.03338C111.472 8.71378 112.037 8.55398 112.693 8.55398C113.358 8.55398 113.918 8.71591 114.374 9.03977C114.834 9.35937 115.158 9.79616 115.346 10.3501H115.448C115.665 9.80469 116.032 9.37003 116.548 9.04616C117.067 8.71804 117.683 8.55398 118.395 8.55398C119.298 8.55398 120.035 8.83949 120.606 9.41051C121.177 9.98153 121.463 10.8146 121.463 11.9098V18.5H119.143V12.2678C119.143 11.6584 118.981 11.2131 118.657 10.9318C118.333 10.6463 117.937 10.5036 117.468 10.5036C116.91 10.5036 116.473 10.6783 116.158 11.0277C115.847 11.3729 115.691 11.8224 115.691 12.3764V18.5H113.422V12.1719C113.422 11.6648 113.268 11.2599 112.962 10.9574C112.659 10.6548 112.263 10.5036 111.773 10.5036C111.44 10.5036 111.138 10.5888 110.865 10.7592C110.592 10.9254 110.375 11.1619 110.213 11.4688C110.051 11.7713 109.97 12.125 109.97 12.5298V18.5H107.656Z" fill="url(#paint2_linear_869_801)"/>
<defs>
<linearGradient id="paint0_linear_869_801" x1="0.5" y1="12" x2="24.5" y2="12" gradientUnits="userSpaceOnUse">
<stop stop-color="white"/>
<stop offset="1" stop-color="#999999"/>
</linearGradient>
<linearGradient id="paint1_linear_869_801" x1="3.5" y1="12.0005" x2="21.5" y2="12.0005" gradientUnits="userSpaceOnUse">
<stop stop-color="white"/>
<stop offset="1" stop-color="#999999"/>
</linearGradient>
<linearGradient id="paint2_linear_869_801" x1="36.5" y1="12" x2="123.5" y2="12" gradientUnits="userSpaceOnUse">
<stop stop-color="white"/>
<stop offset="1" stop-color="#999999"/>
</linearGradient>
</defs>
</svg>
