<svg width="108" height="24" viewBox="0 0 108 24" fill="none" xmlns="http://www.w3.org/2000/svg">
<g clip-path="url(#clip0_869_767)">
<path opacity="0.1" d="M12 0C18.6278 0 24 5.37225 24 12C24 18.6278 18.6278 24 12 24C5.37225 24 0 18.6278 0 12C0 5.37225 5.37225 0 12 0Z" fill="url(#paint0_linear_869_767)"/>
<path d="M16.1072 9.23314C15.9508 9.14982 15.7764 9.10624 15.5992 9.10624C15.4221 9.10624 15.2476 9.14982 15.0913 9.23314L12.8012 10.5875L11.2014 11.4766L8.91128 12.8316C8.75494 12.915 8.5805 12.9585 8.40334 12.9585C8.22618 12.9585 8.05174 12.915 7.8954 12.8316L6.07534 11.7725C5.92554 11.6861 5.80024 11.5629 5.7113 11.4146C5.62235 11.2663 5.5727 11.0978 5.56703 10.925V8.8107C5.5638 8.63601 5.60972 8.46394 5.69956 8.31409C5.78941 8.16424 5.91955 8.04266 6.07515 7.9632L7.8954 6.94751C8.05163 6.86384 8.22611 6.82006 8.40334 6.82006C8.58057 6.82006 8.75505 6.86384 8.91128 6.94751L10.7313 7.96339C10.8811 8.0498 11.0064 8.17297 11.0953 8.32126C11.1842 8.46956 11.2338 8.63808 11.2395 8.81089V10.1643L12.8012 9.23333V7.92158C12.8054 7.74775 12.7608 7.57622 12.6725 7.42643C12.5843 7.27663 12.4558 7.15457 12.3017 7.07408L8.9529 5.12745C8.79667 5.04378 8.62219 5 8.44496 5C8.26774 5 8.09326 5.04378 7.93703 5.12745L4.55115 7.07408C4.38212 7.13974 4.23803 7.25692 4.13929 7.40903C4.04056 7.56113 3.99219 7.74045 4.00103 7.92158V11.8574C3.99855 12.0314 4.04486 12.2025 4.1347 12.3515C4.22454 12.5005 4.35433 12.6214 4.50934 12.7004L7.8954 14.6517C8.05174 14.735 8.22618 14.7786 8.40334 14.7786C8.5805 14.7786 8.75494 14.735 8.91128 14.6517L11.2014 13.3392L12.7674 12.4083L15.0497 11.1001C15.206 11.0168 15.3804 10.9732 15.5576 10.9732C15.7347 10.9732 15.9092 11.0168 16.0655 11.1001L17.8856 12.1159C18.0353 12.2024 18.1605 12.3256 18.2493 12.4739C18.3381 12.6222 18.3876 12.7907 18.3932 12.9635V15.0376C18.3964 15.2121 18.3505 15.384 18.2608 15.5337C18.1711 15.6835 18.041 15.8049 17.8856 15.8843L16.0655 16.9418C15.9093 17.0255 15.7348 17.0693 15.5576 17.0693C15.3804 17.0693 15.2059 17.0255 15.0497 16.9418L13.2296 15.9259C13.0798 15.8397 12.9546 15.7168 12.8656 15.5686C12.7767 15.4205 12.727 15.2521 12.7213 15.0794V13.72L11.2014 14.6084V15.9619C11.1981 16.1366 11.2439 16.3087 11.3336 16.4585C11.4234 16.6084 11.5534 16.73 11.709 16.8094L15.095 18.7559C15.2514 18.8396 15.426 18.8833 15.6033 18.8833C15.7807 18.8833 15.9553 18.8396 16.1117 18.7559L19.4975 16.8091C19.6463 16.7223 19.7706 16.5992 19.8588 16.4513C19.947 16.3033 19.9961 16.1354 20.0015 15.9633V12.0258C20.0048 11.8511 19.9588 11.6791 19.8689 11.5294C19.7791 11.3797 19.6488 11.2582 19.4932 11.179L16.1072 9.23314Z" fill="url(#paint1_linear_869_767)"/>
</g>
<path d="M37.2912 18.5V5.40909H42.2003C43.206 5.40909 44.0497 5.59659 44.7315 5.97159C45.4176 6.34659 45.9354 6.86222 46.2848 7.51847C46.6385 8.17045 46.8153 8.91193 46.8153 9.7429C46.8153 10.5824 46.6385 11.3281 46.2848 11.9801C45.9311 12.6321 45.4091 13.1456 44.7188 13.5206C44.0284 13.8913 43.1783 14.0767 42.1683 14.0767H38.9148V12.1271H41.8487C42.4368 12.1271 42.9183 12.0249 43.2933 11.8203C43.6683 11.6158 43.9453 11.3345 44.1243 10.9766C44.3075 10.6186 44.3991 10.2074 44.3991 9.7429C44.3991 9.27841 44.3075 8.86932 44.1243 8.51562C43.9453 8.16193 43.6662 7.88707 43.2869 7.69105C42.9119 7.49077 42.4283 7.39062 41.8359 7.39062H39.6626V18.5H37.2912ZM53.275 18.6918C52.3161 18.6918 51.4852 18.4808 50.7821 18.0589C50.0789 17.6371 49.5335 17.0469 49.1457 16.2884C48.7622 15.5298 48.5704 14.6435 48.5704 13.6293C48.5704 12.6151 48.7622 11.7266 49.1457 10.9638C49.5335 10.201 50.0789 9.60866 50.7821 9.18679C51.4852 8.76491 52.3161 8.55398 53.275 8.55398C54.2338 8.55398 55.0647 8.76491 55.7678 9.18679C56.471 9.60866 57.0143 10.201 57.3978 10.9638C57.7856 11.7266 57.9795 12.6151 57.9795 13.6293C57.9795 14.6435 57.7856 15.5298 57.3978 16.2884C57.0143 17.0469 56.471 17.6371 55.7678 18.0589C55.0647 18.4808 54.2338 18.6918 53.275 18.6918ZM53.2877 16.8381C53.8076 16.8381 54.2423 16.6953 54.5917 16.4098C54.9411 16.12 55.2011 15.7322 55.3715 15.2464C55.5463 14.7607 55.6336 14.2195 55.6336 13.6229C55.6336 13.022 55.5463 12.4787 55.3715 11.9929C55.2011 11.5028 54.9411 11.1129 54.5917 10.8232C54.2423 10.5334 53.8076 10.3885 53.2877 10.3885C52.7551 10.3885 52.3119 10.5334 51.9582 10.8232C51.6088 11.1129 51.3467 11.5028 51.172 11.9929C51.0015 12.4787 50.9163 13.022 50.9163 13.6229C50.9163 14.2195 51.0015 14.7607 51.172 15.2464C51.3467 15.7322 51.6088 16.12 51.9582 16.4098C52.3119 16.6953 52.7551 16.8381 53.2877 16.8381ZM62.6174 5.40909V18.5H60.3035V5.40909H62.6174ZM66.795 22.1818C66.4797 22.1818 66.1878 22.1563 65.9193 22.1051C65.6551 22.0582 65.4442 22.0028 65.2865 21.9389L65.8234 20.1364C66.1601 20.2344 66.4605 20.2813 66.7247 20.277C66.9889 20.2727 67.2212 20.1896 67.4214 20.0277C67.626 19.87 67.7986 19.6058 67.9392 19.2351L68.1374 18.7045L64.577 8.68182H67.0315L69.2943 16.0966H69.3966L71.6658 8.68182H74.1267L70.1956 19.6889C70.0124 20.2088 69.7695 20.6541 69.4669 21.0249C69.1643 21.3999 68.7936 21.6854 68.3547 21.8814C67.92 22.0817 67.4001 22.1818 66.795 22.1818ZM80.0238 22.3864C79.1928 22.3864 78.4791 22.2734 77.8825 22.0476C77.2859 21.826 76.8065 21.5277 76.4443 21.1527C76.082 20.7777 75.8306 20.3622 75.69 19.9062L77.7738 19.4013C77.8676 19.593 78.0039 19.7827 78.1829 19.9702C78.3619 20.1619 78.6026 20.3196 78.9052 20.4432C79.212 20.571 79.5977 20.6349 80.0622 20.6349C80.7184 20.6349 81.2617 20.4751 81.6921 20.1555C82.1225 19.8402 82.3377 19.3203 82.3377 18.5959V16.7358H82.2227C82.1034 16.9744 81.9286 17.2195 81.6985 17.4709C81.4727 17.7223 81.1722 17.9332 80.7972 18.1037C80.4265 18.2741 79.9599 18.3594 79.3974 18.3594C78.6431 18.3594 77.9592 18.1825 77.3455 17.8288C76.7362 17.4709 76.2504 16.9382 75.8882 16.2308C75.5302 15.5192 75.3512 14.6286 75.3512 13.5589C75.3512 12.4808 75.5302 11.571 75.8882 10.8295C76.2504 10.0838 76.7383 9.51918 77.3519 9.13565C77.9656 8.74787 78.6495 8.55398 79.4038 8.55398C79.9791 8.55398 80.4521 8.65199 80.8228 8.84801C81.1978 9.03977 81.4961 9.27202 81.7177 9.54474C81.9393 9.81321 82.1076 10.0668 82.2227 10.3054H82.3505V8.68182H84.6325V18.6598C84.6325 19.4993 84.4322 20.1939 84.0316 20.7436C83.631 21.2933 83.0835 21.7045 82.3889 21.9773C81.6943 22.25 80.9059 22.3864 80.0238 22.3864ZM80.043 16.544C80.533 16.544 80.9507 16.4247 81.2958 16.1861C81.641 15.9474 81.9031 15.6044 82.082 15.157C82.261 14.7095 82.3505 14.1726 82.3505 13.5462C82.3505 12.9283 82.261 12.3871 82.082 11.9226C81.9073 11.4581 81.6474 11.098 81.3022 10.8423C80.9613 10.5824 80.5416 10.4524 80.043 10.4524C79.5274 10.4524 79.097 10.5866 78.7518 10.8551C78.4066 11.1236 78.1467 11.4922 77.972 11.9609C77.7972 12.4254 77.7099 12.9538 77.7099 13.5462C77.7099 14.147 77.7972 14.6733 77.972 15.125C78.1509 15.5724 78.413 15.9219 78.7582 16.1733C79.1076 16.4205 79.5359 16.544 80.043 16.544ZM91.6466 18.6918C90.6878 18.6918 89.8568 18.4808 89.1537 18.0589C88.4506 17.6371 87.9051 17.0469 87.5173 16.2884C87.1338 15.5298 86.942 14.6435 86.942 13.6293C86.942 12.6151 87.1338 11.7266 87.5173 10.9638C87.9051 10.201 88.4506 9.60866 89.1537 9.18679C89.8568 8.76491 90.6878 8.55398 91.6466 8.55398C92.6054 8.55398 93.4364 8.76491 94.1395 9.18679C94.8426 9.60866 95.3859 10.201 95.7695 10.9638C96.1572 11.7266 96.3511 12.6151 96.3511 13.6293C96.3511 14.6435 96.1572 15.5298 95.7695 16.2884C95.3859 17.0469 94.8426 17.6371 94.1395 18.0589C93.4364 18.4808 92.6054 18.6918 91.6466 18.6918ZM91.6594 16.8381C92.1793 16.8381 92.6139 16.6953 92.9634 16.4098C93.3128 16.12 93.5727 15.7322 93.7432 15.2464C93.9179 14.7607 94.0053 14.2195 94.0053 13.6229C94.0053 13.022 93.9179 12.4787 93.7432 11.9929C93.5727 11.5028 93.3128 11.1129 92.9634 10.8232C92.6139 10.5334 92.1793 10.3885 91.6594 10.3885C91.1267 10.3885 90.6835 10.5334 90.3298 10.8232C89.9804 11.1129 89.7183 11.5028 89.5436 11.9929C89.3732 12.4787 89.2879 13.022 89.2879 13.6229C89.2879 14.2195 89.3732 14.7607 89.5436 15.2464C89.7183 15.7322 89.9804 16.12 90.3298 16.4098C90.6835 16.6953 91.1267 16.8381 91.6594 16.8381ZM100.989 12.7472V18.5H98.6751V8.68182H100.887V10.3501H101.002C101.228 9.80043 101.588 9.36364 102.082 9.03977C102.581 8.71591 103.196 8.55398 103.929 8.55398C104.607 8.55398 105.197 8.69886 105.7 8.98864C106.207 9.27841 106.599 9.69815 106.876 10.2479C107.157 10.7976 107.296 11.4645 107.292 12.2486V18.5H104.978V12.6065C104.978 11.9503 104.807 11.4368 104.466 11.0661C104.13 10.6953 103.663 10.5099 103.066 10.5099C102.662 10.5099 102.302 10.5994 101.986 10.7784C101.675 10.9531 101.43 11.2067 101.251 11.5391C101.076 11.8714 100.989 12.2741 100.989 12.7472Z" fill="url(#paint2_linear_869_767)"/>
<defs>
<linearGradient id="paint0_linear_869_767" x1="0" y1="12" x2="24" y2="12" gradientUnits="userSpaceOnUse">
<stop stop-color="white"/>
<stop offset="1" stop-color="#999999"/>
</linearGradient>
<linearGradient id="paint1_linear_869_767" x1="4" y1="11.9417" x2="20.0017" y2="11.9417" gradientUnits="userSpaceOnUse">
<stop stop-color="white"/>
<stop offset="1" stop-color="#999999"/>
</linearGradient>
<linearGradient id="paint2_linear_869_767" x1="36" y1="12" x2="109" y2="12" gradientUnits="userSpaceOnUse">
<stop stop-color="white"/>
<stop offset="1" stop-color="#999999"/>
</linearGradient>
<clipPath id="clip0_869_767">
<rect width="24" height="24" fill="white"/>
</clipPath>
</defs>
</svg>
