<svg width="80" height="22" viewBox="0 0 80 22" fill="none" xmlns="http://www.w3.org/2000/svg">
<g id="layer1">
<g id="g109">
<path id="path76" fill-rule="evenodd" clip-rule="evenodd" d="M35.8033 14.4373C36.6087 15.4195 37.7486 16.205 39.1635 16.205C40.4407 16.205 41.561 15.3801 41.561 14.1423C41.561 12.0414 38.6527 11.8053 36.8253 10.607C35.8427 9.95881 35.0759 9.01647 35.0759 7.58241C35.0759 5.57906 36.8444 3.92922 39.2419 3.92922C40.9905 3.92922 42.2092 4.6948 42.9362 5.30394L41.7768 6.73757C41.0303 6.10893 40.1855 5.79481 39.3208 5.79481C38.1809 5.79481 37.0411 6.44295 37.0411 7.6409C37.0411 9.38947 39.9689 9.76212 41.7374 10.941C42.6611 11.5501 43.5254 12.5124 43.5254 14.0834C43.5254 16.4996 41.659 18.071 39.2614 18.071C37.3751 18.071 35.6655 17.2461 34.4473 15.773L35.8033 14.4373ZM53.8429 15.9104C53.0765 17.1872 51.4259 18.071 49.7358 18.071C46.8868 18.071 44.8038 15.9888 44.8038 13.2589C44.8038 10.5285 46.8474 8.44675 49.618 8.44675C50.3844 8.4481 51.1396 8.63021 51.8224 8.97831C52.5052 9.32641 53.0962 9.83064 53.5475 10.4501L52.1724 11.6091C51.6616 10.902 50.7968 10.2144 49.618 10.2144C47.9478 10.2144 46.6706 11.5107 46.6706 13.2589C46.6706 15.0659 47.9673 16.3033 49.7358 16.3033C50.9541 16.3033 51.8188 15.6552 52.4085 14.8693L53.8429 15.9104ZM60.7015 10.2928C60.4853 10.2339 60.2691 10.2143 59.9741 10.2143C59.0118 10.2143 57.9898 10.882 57.479 11.7658V17.8747H55.6122V8.64295H57.4201V9.70354C57.872 9.0749 58.8347 8.44628 60.1907 8.44628C60.3874 8.44628 60.7015 8.46654 60.9181 8.50524L60.7015 10.2928ZM66.3812 16.3033C68.0908 16.3033 69.2891 14.9477 69.2891 13.2585C69.2891 11.5696 68.0904 10.214 66.3812 10.214C64.6716 10.214 63.4729 11.5696 63.4729 13.2585C63.4729 14.9477 64.6716 16.3033 66.3812 16.3033ZM66.3812 8.44633C69.1119 8.44633 71.1559 10.509 71.1559 13.2585C71.1559 16.0083 69.1119 18.071 66.3812 18.071C63.65 18.071 61.6065 16.0083 61.6065 13.2585C61.6065 10.509 63.65 8.44633 66.3812 8.44633ZM73.3182 17.8747H75.185V3.9288H73.3182V17.8747ZM78.1332 17.8747H80V3.9288H78.1332V17.8747ZM6.47984 0.435303C2.90142 0.435303 0 3.33512 0 6.91272C0 10.4895 2.90142 13.3893 6.47984 13.3893C8.14165 13.3877 9.73969 12.7494 10.9454 11.6058L22.6953 0.435303H6.47984Z" fill="url(#paint0_linear_869_788)"/>
<path id="path78" fill-rule="evenodd" clip-rule="evenodd" d="M18.4176 21.5646C21.9964 21.5646 24.897 18.6648 24.897 15.0872C24.897 11.5104 21.9964 8.6106 18.4176 8.6106C16.7558 8.61219 15.1578 9.25045 13.9521 10.3941L2.20215 21.5646H18.4176Z" fill="url(#paint1_linear_869_788)"/>
</g>
</g>
<defs>
<linearGradient id="paint0_linear_869_788" x1="0" y1="9.25316" x2="80" y2="9.25316" gradientUnits="userSpaceOnUse">
<stop stop-color="white"/>
<stop offset="1" stop-color="#999999"/>
</linearGradient>
<linearGradient id="paint1_linear_869_788" x1="2.20215" y1="15.0876" x2="24.897" y2="15.0876" gradientUnits="userSpaceOnUse">
<stop stop-color="white"/>
<stop offset="1" stop-color="#999999"/>
</linearGradient>
</defs>
</svg>
