<svg width="100" height="19" viewBox="0 0 100 19" fill="none" xmlns="http://www.w3.org/2000/svg">
<g clip-path="url(#clip0_869_750)">
<path d="M4.03243 14.1201C4.17487 13.9776 4.37072 13.8945 4.57845 13.8945H23.4159C23.7602 13.8945 23.9323 14.31 23.6889 14.5533L19.9677 18.2745C19.8253 18.417 19.6294 18.5 19.4217 18.5H0.584233C0.240007 18.5 0.0678934 18.0846 0.311226 17.8413L4.03243 14.1201Z" fill="url(#paint0_linear_869_750)"/>
<path d="M4.03243 0.225528C4.1808 0.0830891 4.37666 0 4.57845 0H23.4159C23.7602 0 23.9323 0.415446 23.6889 0.658778L19.9677 4.37998C19.8253 4.52242 19.6294 4.60551 19.4217 4.60551H0.584233C0.240007 4.60551 0.0678934 4.19007 0.311226 3.94673L4.03243 0.225528Z" fill="url(#paint1_linear_869_750)"/>
<path d="M19.9677 7.12787C19.8253 6.98543 19.6294 6.90234 19.4217 6.90234H0.584233C0.240007 6.90234 0.0678934 7.31779 0.311226 7.56112L4.03243 11.2823C4.17487 11.4248 4.37072 11.5079 4.57845 11.5079H23.4159C23.7602 11.5079 23.9323 11.0924 23.6889 10.8491L19.9677 7.12787Z" fill="url(#paint2_linear_869_750)"/>
</g>
<path d="M44.4055 6.25745C44.3459 5.69921 44.0945 5.26455 43.6513 4.95347C43.2124 4.64239 42.6413 4.48685 41.9382 4.48685C41.4439 4.48685 41.0199 4.56142 40.6662 4.71057C40.3125 4.85972 40.0419 5.06213 39.8544 5.31781C39.6669 5.5735 39.571 5.8654 39.5668 6.19353C39.5668 6.46625 39.6286 6.70276 39.7521 6.90304C39.88 7.10333 40.0526 7.27378 40.2699 7.41441C40.4872 7.55077 40.728 7.66583 40.9922 7.75958C41.2564 7.85333 41.5227 7.93216 41.7912 7.99608L43.0185 8.3029C43.5128 8.41796 43.9879 8.5735 44.4439 8.76952C44.9041 8.96554 45.3153 9.2127 45.6776 9.511C46.044 9.80929 46.3338 10.1694 46.5469 10.5913C46.7599 11.0131 46.8665 11.5074 46.8665 12.0742C46.8665 12.8413 46.6705 13.5167 46.2784 14.1005C45.8864 14.68 45.3196 15.1339 44.5781 15.462C43.8409 15.7859 42.9482 15.9478 41.8999 15.9478C40.8814 15.9478 39.9972 15.7901 39.2472 15.4748C38.5014 15.1594 37.9176 14.6992 37.4957 14.0941C37.0781 13.489 36.8523 12.7518 36.8182 11.8824H39.1513C39.1854 12.3384 39.326 12.7177 39.5732 13.0202C39.8203 13.3228 40.142 13.5486 40.5384 13.6978C40.9389 13.8469 41.3864 13.9215 41.8807 13.9215C42.3963 13.9215 42.848 13.8448 43.2358 13.6914C43.6278 13.5337 43.9347 13.3164 44.1562 13.0394C44.3778 12.7582 44.4908 12.43 44.495 12.055C44.4908 11.7141 44.3906 11.4329 44.1946 11.2113C43.9986 10.9854 43.7237 10.7979 43.37 10.6488C43.0206 10.4954 42.6115 10.359 42.1428 10.2397L40.6534 9.85617C39.5753 9.57918 38.723 9.15943 38.0966 8.59693C37.4744 8.03017 37.1634 7.27804 37.1634 6.34054C37.1634 5.56924 37.3722 4.89381 37.7898 4.31426C38.2116 3.73472 38.7848 3.28514 39.5092 2.96554C40.2337 2.64168 41.054 2.47975 41.9702 2.47975C42.8991 2.47975 43.7131 2.64168 44.4119 2.96554C45.1151 3.28514 45.6669 3.73046 46.0675 4.30148C46.468 4.86824 46.6747 5.52023 46.6875 6.25745H44.4055ZM53.521 15.9414C52.5622 15.9414 51.7313 15.7305 51.0281 15.3086C50.325 14.8867 49.7796 14.2965 49.3918 13.538C49.0083 12.7795 48.8165 11.8931 48.8165 10.8789C48.8165 9.86469 49.0083 8.9762 49.3918 8.21341C49.7796 7.45063 50.325 6.8583 51.0281 6.43642C51.7313 6.01455 52.5622 5.80361 53.521 5.80361C54.4799 5.80361 55.3108 6.01455 56.0139 6.43642C56.7171 6.8583 57.2604 7.45063 57.6439 8.21341C58.0317 8.9762 58.2256 9.86469 58.2256 10.8789C58.2256 11.8931 58.0317 12.7795 57.6439 13.538C57.2604 14.2965 56.7171 14.8867 56.0139 15.3086C55.3108 15.7305 54.4799 15.9414 53.521 15.9414ZM53.5338 14.0877C54.0537 14.0877 54.4884 13.9449 54.8378 13.6594C55.1872 13.3697 55.4472 12.9819 55.6176 12.4961C55.7924 12.0103 55.8797 11.4691 55.8797 10.8725C55.8797 10.2717 55.7924 9.72833 55.6176 9.24253C55.4472 8.75247 55.1872 8.36256 54.8378 8.07279C54.4884 7.78301 54.0537 7.63813 53.5338 7.63813C53.0012 7.63813 52.558 7.78301 52.2043 8.07279C51.8549 8.36256 51.5928 8.75247 51.4181 9.24253C51.2476 9.72833 51.1624 10.2717 51.1624 10.8725C51.1624 11.4691 51.2476 12.0103 51.4181 12.4961C51.5928 12.9819 51.8549 13.3697 52.2043 13.6594C52.558 13.9449 53.0012 14.0877 53.5338 14.0877ZM62.8635 2.65872V15.7496H60.5495V2.65872H62.8635ZM68.4282 15.9478C67.806 15.9478 67.2457 15.837 66.7471 15.6154C66.2528 15.3895 65.8607 15.0572 65.5709 14.6182C65.2854 14.1793 65.1427 13.6381 65.1427 12.9947C65.1427 12.4407 65.245 11.9826 65.4495 11.6204C65.654 11.2582 65.9332 10.9684 66.2869 10.7511C66.6405 10.5337 67.039 10.3697 67.4822 10.2589C67.9296 10.1438 68.392 10.0607 68.8692 10.0096C69.4445 9.94992 69.9111 9.89665 70.2691 9.84978C70.6271 9.79864 70.887 9.72193 71.0489 9.61966C71.2151 9.51313 71.2982 9.34907 71.2982 9.12747V9.08912C71.2982 8.60759 71.1555 8.23472 70.87 7.97051C70.5844 7.70631 70.1732 7.57421 69.6363 7.57421C69.0695 7.57421 68.62 7.69779 68.2876 7.94495C67.9594 8.19211 67.7378 8.48401 67.6228 8.82066L65.4623 8.51384C65.6327 7.91725 65.914 7.41867 66.306 7.0181C66.6981 6.61327 67.1775 6.31071 67.7442 6.11043C68.311 5.90588 68.9374 5.80361 69.6235 5.80361C70.0965 5.80361 70.5674 5.85901 71.0361 5.9698C71.5049 6.0806 71.9332 6.26384 72.3209 6.51952C72.7087 6.77094 73.0198 7.11398 73.2542 7.54864C73.4928 7.9833 73.6121 8.52662 73.6121 9.17861V15.7496H71.3877V14.4009H71.311C71.1704 14.6736 70.9722 14.9293 70.7165 15.168C70.4651 15.4023 70.1476 15.592 69.7641 15.7368C69.3849 15.8775 68.9396 15.9478 68.4282 15.9478ZM69.029 14.2475C69.4935 14.2475 69.8962 14.1559 70.2371 13.9726C70.578 13.7851 70.8401 13.538 71.0234 13.2312C71.2109 12.9243 71.3046 12.5898 71.3046 12.2276V11.0707C71.2322 11.1303 71.1086 11.1857 70.9339 11.2368C70.7634 11.288 70.5717 11.3327 70.3586 11.3711C70.1455 11.4094 69.9346 11.4435 69.7258 11.4734C69.517 11.5032 69.3359 11.5288 69.1825 11.5501C68.8373 11.5969 68.5283 11.6736 68.2556 11.7802C67.9829 11.8867 67.7677 12.0359 67.61 12.2276C67.4523 12.4151 67.3735 12.658 67.3735 12.9563C67.3735 13.3824 67.529 13.7042 67.8401 13.9215C68.1512 14.1388 68.5475 14.2475 69.029 14.2475ZM78.6128 9.99679V15.7496H76.2988V5.93145H78.5105V7.59978H78.6255C78.8514 7.05006 79.2115 6.61327 79.7058 6.28941C80.2044 5.96554 80.8201 5.80361 81.5531 5.80361C82.2307 5.80361 82.8209 5.9485 83.3237 6.23827C83.8308 6.52804 84.2228 6.94779 84.4998 7.4975C84.7811 8.04722 84.9196 8.71412 84.9153 9.49821V15.7496H82.6014V9.85617C82.6014 9.19992 82.4309 8.68642 82.09 8.31568C81.7534 7.94495 81.2868 7.75958 80.6902 7.75958C80.2853 7.75958 79.9253 7.84907 79.6099 8.02804C79.2988 8.20276 79.0538 8.45631 78.8748 8.7887C78.7001 9.12108 78.6128 9.52378 78.6128 9.99679ZM90.4529 15.9478C89.8307 15.9478 89.2703 15.837 88.7718 15.6154C88.2774 15.3895 87.8854 15.0572 87.5956 14.6182C87.3101 14.1793 87.1674 13.6381 87.1674 12.9947C87.1674 12.4407 87.2696 11.9826 87.4742 11.6204C87.6787 11.2582 87.9578 10.9684 88.3115 10.7511C88.6652 10.5337 89.0637 10.3697 89.5069 10.2589C89.9543 10.1438 90.4167 10.0607 90.8939 10.0096C91.4692 9.94992 91.9358 9.89665 92.2938 9.84978C92.6517 9.79864 92.9117 9.72193 93.0736 9.61966C93.2398 9.51313 93.3229 9.34907 93.3229 9.12747V9.08912C93.3229 8.60759 93.1801 8.23472 92.8946 7.97051C92.6091 7.70631 92.1979 7.57421 91.661 7.57421C91.0942 7.57421 90.6446 7.69779 90.3123 7.94495C89.9841 8.19211 89.7625 8.48401 89.6475 8.82066L87.487 8.51384C87.6574 7.91725 87.9387 7.41867 88.3307 7.0181C88.7228 6.61327 89.2022 6.31071 89.7689 6.11043C90.3357 5.90588 90.9621 5.80361 91.6482 5.80361C92.1212 5.80361 92.5921 5.85901 93.0608 5.9698C93.5296 6.0806 93.9578 6.26384 94.3456 6.51952C94.7334 6.77094 95.0445 7.11398 95.2789 7.54864C95.5175 7.9833 95.6368 8.52662 95.6368 9.17861V15.7496H93.4124V14.4009H93.3357C93.1951 14.6736 92.9969 14.9293 92.7412 15.168C92.4898 15.4023 92.1723 15.592 91.7888 15.7368C91.4096 15.8775 90.9642 15.9478 90.4529 15.9478ZM91.0537 14.2475C91.5182 14.2475 91.9209 14.1559 92.2618 13.9726C92.6027 13.7851 92.8648 13.538 93.048 13.2312C93.2355 12.9243 93.3293 12.5898 93.3293 12.2276V11.0707C93.2569 11.1303 93.1333 11.1857 92.9586 11.2368C92.7881 11.288 92.5963 11.3327 92.3833 11.3711C92.1702 11.4094 91.9593 11.4435 91.7505 11.4734C91.5417 11.5032 91.3605 11.5288 91.2071 11.5501C90.862 11.5969 90.553 11.6736 90.2803 11.7802C90.0076 11.8867 89.7924 12.0359 89.6347 12.2276C89.477 12.4151 89.3982 12.658 89.3982 12.9563C89.3982 13.3824 89.5537 13.7042 89.8648 13.9215C90.1759 14.1388 90.5722 14.2475 91.0537 14.2475Z" fill="url(#paint3_linear_869_750)"/>
<defs>
<linearGradient id="paint0_linear_869_750" x1="0.197266" y1="16.1973" x2="23.8029" y2="16.1973" gradientUnits="userSpaceOnUse">
<stop stop-color="white"/>
<stop offset="1" stop-color="#999999"/>
</linearGradient>
<linearGradient id="paint1_linear_869_750" x1="0.197266" y1="2.30276" x2="23.8029" y2="2.30276" gradientUnits="userSpaceOnUse">
<stop stop-color="white"/>
<stop offset="1" stop-color="#999999"/>
</linearGradient>
<linearGradient id="paint2_linear_869_750" x1="0.197266" y1="9.2051" x2="23.8029" y2="9.2051" gradientUnits="userSpaceOnUse">
<stop stop-color="white"/>
<stop offset="1" stop-color="#999999"/>
</linearGradient>
<linearGradient id="paint3_linear_869_750" x1="36" y1="9.24963" x2="97" y2="9.24963" gradientUnits="userSpaceOnUse">
<stop stop-color="white"/>
<stop offset="1" stop-color="#999999"/>
</linearGradient>
<clipPath id="clip0_869_750">
<rect width="24" height="18.4992" fill="white"/>
</clipPath>
</defs>
</svg>
