<svg width="98" height="26" viewBox="0 0 98 26" fill="none" xmlns="http://www.w3.org/2000/svg">
<path fill-rule="evenodd" clip-rule="evenodd" d="M15.7332 9.09522C15.6457 8.94481 15.6582 8.7568 15.7582 8.60639L19.9369 2.40218C20.0494 2.22671 20.062 2.01363 19.9619 1.83817C19.8618 1.65015 19.6741 1.54989 19.474 1.54989H17.8476C17.6724 1.54989 17.4973 1.63762 17.3846 1.80056L12.5054 9.07015C12.3804 9.25815 12.1802 9.35842 11.955 9.35842H11.342C11.1168 9.35842 10.9166 9.24562 10.7915 9.07015L5.93732 1.78803C5.83724 1.62508 5.64958 1.53735 5.47443 1.53735H3.84803C3.64786 1.53735 3.44769 1.65015 3.36011 1.83817C3.26003 2.02617 3.28504 2.23925 3.38514 2.40218L7.56372 8.61893C7.66381 8.7568 7.67631 8.94481 7.58875 9.09522C7.50117 9.25815 7.35104 9.34589 7.17589 9.34589H0.782895C0.470126 9.34589 0.232422 9.59656 0.232422 9.89737V11.251C0.232422 11.5644 0.482637 11.8025 0.782895 11.8025H22.5391C22.8518 11.8025 23.0895 11.5518 23.0895 11.251V9.89737C23.0895 9.60909 22.8769 9.38349 22.6017 9.34589C22.5766 9.34589 22.5516 9.34589 22.5266 9.34589H16.1461C15.9709 9.34589 15.8083 9.25815 15.7332 9.09522ZM10.804 17.0792L5.92482 24.3488C5.82473 24.5117 5.63707 24.5995 5.46191 24.5995H3.83551C3.63534 24.5995 3.44768 24.4867 3.34759 24.3112C3.24751 24.1357 3.26003 23.9101 3.37262 23.7472L7.5387 17.543C7.63878 17.3926 7.6513 17.2171 7.56372 17.0542C7.47614 16.9037 7.32602 16.8035 7.15086 16.8035H0.782895C0.482637 16.8035 0.232422 16.5653 0.232422 16.2519V14.8983C0.232422 14.5976 0.470126 14.3469 0.782895 14.3469H22.4891C22.4891 14.3469 22.5266 14.3469 22.5391 14.3469C22.8394 14.3469 23.0895 14.585 23.0895 14.8983V16.2519C23.0895 16.5528 22.8518 16.8035 22.5391 16.8035H16.1586C15.9709 16.8035 15.8209 16.8912 15.7458 17.0542C15.6582 17.2171 15.6707 17.3926 15.7708 17.5304L19.9494 23.7472C20.0494 23.9101 20.0745 24.1232 19.9743 24.3112C19.8743 24.4992 19.6867 24.612 19.4865 24.612H17.8601C17.6724 24.612 17.5098 24.5243 17.4097 24.3739L12.5305 17.1043C12.4054 16.9163 12.2052 16.816 11.9801 16.816H11.367C11.1418 16.816 10.9416 16.9289 10.8165 17.1043L10.804 17.0792Z" fill="url(#paint0_linear_869_817)"/>
<path d="M44.4055 10.0078C44.3459 9.44957 44.0945 9.01491 43.6513 8.70384C43.2124 8.39276 42.6413 8.23722 41.9382 8.23722C41.4439 8.23722 41.0199 8.31179 40.6662 8.46094C40.3125 8.61008 40.0419 8.8125 39.8544 9.06818C39.6669 9.32386 39.571 9.61577 39.5668 9.94389C39.5668 10.2166 39.6286 10.4531 39.7521 10.6534C39.88 10.8537 40.0526 11.0241 40.2699 11.1648C40.4872 11.3011 40.728 11.4162 40.9922 11.5099C41.2564 11.6037 41.5227 11.6825 41.7912 11.7464L43.0185 12.0533C43.5128 12.1683 43.9879 12.3239 44.4439 12.5199C44.9041 12.7159 45.3153 12.9631 45.6776 13.2614C46.044 13.5597 46.3338 13.9197 46.5469 14.3416C46.7599 14.7635 46.8665 15.2578 46.8665 15.8246C46.8665 16.5916 46.6705 17.267 46.2784 17.8509C45.8864 18.4304 45.3196 18.8842 44.5781 19.2124C43.8409 19.5362 42.9482 19.6982 41.8999 19.6982C40.8814 19.6982 39.9972 19.5405 39.2472 19.2251C38.5014 18.9098 37.9176 18.4496 37.4957 17.8445C37.0781 17.2393 36.8523 16.5021 36.8182 15.6328H39.1513C39.1854 16.0888 39.326 16.468 39.5732 16.7706C39.8203 17.0732 40.142 17.299 40.5384 17.4482C40.9389 17.5973 41.3864 17.6719 41.8807 17.6719C42.3963 17.6719 42.848 17.5952 43.2358 17.4418C43.6278 17.2841 43.9347 17.0668 44.1562 16.7898C44.3778 16.5085 44.4908 16.1804 44.495 15.8054C44.4908 15.4645 44.3906 15.1832 44.1946 14.9616C43.9986 14.7358 43.7237 14.5483 43.37 14.3991C43.0206 14.2457 42.6115 14.1094 42.1428 13.9901L40.6534 13.6065C39.5753 13.3295 38.723 12.9098 38.0966 12.3473C37.4744 11.7805 37.1634 11.0284 37.1634 10.0909C37.1634 9.3196 37.3722 8.64418 37.7898 8.06463C38.2116 7.48509 38.7848 7.03551 39.5092 6.71591C40.2337 6.39204 41.054 6.23011 41.9702 6.23011C42.8991 6.23011 43.7131 6.39204 44.4119 6.71591C45.1151 7.03551 45.6669 7.48082 46.0675 8.05185C46.468 8.61861 46.6747 9.2706 46.6875 10.0078H44.4055ZM54.1411 9.68182V11.4716H48.4969V9.68182H54.1411ZM49.8904 7.32955H52.2043V16.5469C52.2043 16.858 52.2512 17.0966 52.3449 17.2628C52.4429 17.4247 52.5708 17.5355 52.7284 17.5952C52.8861 17.6548 53.0608 17.6847 53.2526 17.6847C53.3975 17.6847 53.5296 17.674 53.6489 17.6527C53.7725 17.6314 53.8662 17.6122 53.9301 17.5952L54.32 19.4041C54.1965 19.4467 54.0196 19.4936 53.7895 19.5447C53.5637 19.5959 53.2867 19.6257 52.9585 19.6342C52.379 19.6513 51.857 19.5639 51.3925 19.3722C50.928 19.1761 50.5594 18.8736 50.2867 18.4645C50.0182 18.0554 49.8861 17.544 49.8904 16.9304V7.32955ZM59.2615 19.6982C58.6394 19.6982 58.079 19.5874 57.5804 19.3658C57.0861 19.1399 56.6941 18.8075 56.4043 18.3686C56.1188 17.9297 55.976 17.3885 55.976 16.745C55.976 16.1911 56.0783 15.733 56.2829 15.3707C56.4874 15.0085 56.7665 14.7188 57.1202 14.5014C57.4739 14.2841 57.8723 14.12 58.3155 14.0092C58.763 13.8942 59.2253 13.8111 59.7026 13.7599C60.2779 13.7003 60.7445 13.647 61.1025 13.6001C61.4604 13.549 61.7204 13.4723 61.8823 13.37C62.0485 13.2635 62.1316 13.0994 62.1316 12.8778V12.8395C62.1316 12.358 61.9888 11.9851 61.7033 11.7209C61.4178 11.4567 61.0066 11.3246 60.4696 11.3246C59.9029 11.3246 59.4533 11.4482 59.1209 11.6953C58.7928 11.9425 58.5712 12.2344 58.4561 12.571L56.2956 12.2642C56.4661 11.6676 56.7473 11.169 57.1394 10.7685C57.5314 10.3636 58.0108 10.0611 58.5776 9.8608C59.1444 9.65625 59.7708 9.55398 60.4569 9.55398C60.9299 9.55398 61.4008 9.60938 61.8695 9.72017C62.3383 9.83097 62.7665 10.0142 63.1543 10.2699C63.5421 10.5213 63.8532 10.8643 64.0875 11.299C64.3262 11.7337 64.4455 12.277 64.4455 12.929V19.5H62.2211V18.1513H62.1444C62.0037 18.424 61.8056 18.6797 61.5499 18.9183C61.2985 19.1527 60.981 19.3423 60.5975 19.4872C60.2182 19.6278 59.7729 19.6982 59.2615 19.6982ZM59.8624 17.9979C60.3269 17.9979 60.7296 17.9062 61.0705 17.723C61.4114 17.5355 61.6735 17.2884 61.8567 16.9815C62.0442 16.6747 62.138 16.3402 62.138 15.978V14.821C62.0655 14.8807 61.9419 14.9361 61.7672 14.9872C61.5968 15.0384 61.405 15.0831 61.1919 15.1214C60.9789 15.1598 60.7679 15.1939 60.5591 15.2237C60.3503 15.2536 60.1692 15.2791 60.0158 15.3004C59.6706 15.3473 59.3617 15.424 59.089 15.5305C58.8162 15.6371 58.601 15.7862 58.4434 15.978C58.2857 16.1655 58.2069 16.4084 58.2069 16.7067C58.2069 17.1328 58.3624 17.4545 58.6735 17.6719C58.9846 17.8892 59.3809 17.9979 59.8624 17.9979ZM71.4149 19.6918C70.4348 19.6918 69.5931 19.4766 68.89 19.0462C68.1912 18.6158 67.6521 18.0213 67.2728 17.2628C66.8978 16.5 66.7103 15.6222 66.7103 14.6293C66.7103 13.6321 66.9021 12.7521 67.2856 11.9893C67.6691 11.2223 68.2103 10.6257 68.9092 10.1996C69.6123 9.76918 70.4433 9.55398 71.4021 9.55398C72.199 9.55398 72.9042 9.70099 73.5179 9.99503C74.1358 10.2848 74.6279 10.696 74.9944 11.2287C75.3609 11.7571 75.5697 12.375 75.6208 13.0824H73.4092C73.3197 12.6094 73.1066 12.2152 72.77 11.8999C72.4376 11.5803 71.9923 11.4205 71.434 11.4205C70.961 11.4205 70.5456 11.5483 70.1876 11.804C69.8296 12.0554 69.5505 12.4176 69.3502 12.8906C69.1542 13.3636 69.0562 13.9304 69.0562 14.5909C69.0562 15.2599 69.1542 15.8352 69.3502 16.3168C69.5463 16.794 69.8211 17.1626 70.1748 17.4226C70.5328 17.6783 70.9525 17.8061 71.434 17.8061C71.775 17.8061 72.0796 17.7422 72.3481 17.6143C72.6208 17.4822 72.8488 17.2926 73.0321 17.0455C73.2153 16.7983 73.341 16.4979 73.4092 16.1442H75.6208C75.5654 16.8388 75.3609 17.4545 75.0072 17.9915C74.6535 18.5241 74.172 18.9418 73.5626 19.2443C72.9532 19.5426 72.2373 19.6918 71.4149 19.6918ZM79.9902 16.419L79.9839 13.6257H80.3546L83.883 9.68182H86.5868L82.2466 14.5142H81.7672L79.9902 16.419ZM77.8809 19.5V6.40909H80.1948V19.5H77.8809ZM84.0428 19.5L80.8468 15.032L82.4064 13.402L86.8106 19.5H84.0428ZM96.2489 12.277L94.1395 12.5071C94.0798 12.294 93.9754 12.0938 93.8263 11.9062C93.6814 11.7188 93.4854 11.5675 93.2382 11.4524C92.9911 11.3374 92.6885 11.2798 92.3305 11.2798C91.849 11.2798 91.4442 11.3842 91.1161 11.593C90.7922 11.8018 90.6324 12.0724 90.6366 12.4048C90.6324 12.6903 90.7368 12.9226 90.9499 13.1016C91.1672 13.2805 91.5251 13.4276 92.0237 13.5426L93.6984 13.9006C94.6274 14.1009 95.3178 14.4183 95.7695 14.853C96.2254 15.2876 96.4555 15.8565 96.4598 16.5597C96.4555 17.1776 96.2744 17.723 95.9165 18.196C95.5628 18.6648 95.0706 19.0312 94.4399 19.2955C93.8092 19.5597 93.0848 19.6918 92.2666 19.6918C91.0649 19.6918 90.0976 19.4403 89.3646 18.9375C88.6317 18.4304 88.1949 17.7251 88.0543 16.8217L90.3107 16.6044C90.4129 17.0476 90.6303 17.3821 90.9626 17.608C91.295 17.8338 91.7276 17.9467 92.2602 17.9467C92.8099 17.9467 93.251 17.8338 93.5834 17.608C93.92 17.3821 94.0884 17.103 94.0884 16.7706C94.0884 16.4893 93.9797 16.2571 93.7624 16.0739C93.5493 15.8906 93.2169 15.75 92.7652 15.652L91.0905 15.3004C90.1487 15.1044 89.452 14.7741 89.0003 14.3097C88.5486 13.8409 88.3249 13.2486 88.3291 12.5327C88.3249 11.9276 88.4889 11.4034 88.8213 10.9602C89.158 10.5128 89.6246 10.1676 90.2212 9.92472C90.822 9.67756 91.5145 9.55398 92.2986 9.55398C93.4491 9.55398 94.3547 9.79901 95.0152 10.2891C95.68 10.7791 96.0912 11.4418 96.2489 12.277Z" fill="url(#paint1_linear_869_817)"/>
<defs>
<linearGradient id="paint0_linear_869_817" x1="0.232422" y1="13.0747" x2="23.0895" y2="13.0747" gradientUnits="userSpaceOnUse">
<stop stop-color="white"/>
<stop offset="1" stop-color="#999999"/>
</linearGradient>
<linearGradient id="paint1_linear_869_817" x1="36" y1="13" x2="98" y2="13" gradientUnits="userSpaceOnUse">
<stop stop-color="white"/>
<stop offset="1" stop-color="#999999"/>
</linearGradient>
</defs>
</svg>
