<svg width="140" height="28" viewBox="0 0 140 28" fill="none" xmlns="http://www.w3.org/2000/svg">
<g clip-path="url(#clip0_869_830)">
<path d="M0.5 27.7622L19.7152 19.6706L13.6323 13.5025L0.5 27.7622ZM7.55882 7.34375L13.6417 13.5025L24.5 0.237549L7.55882 7.34375Z" fill="url(#paint0_linear_869_830)"/>
</g>
<path d="M37.2159 9.39702V7.40909H47.6605V9.39702H43.6143V20.5H41.2621V9.39702H37.2159ZM52.2457 14.7472V20.5H49.9317V7.40909H52.1945V12.3501H52.3096C52.5397 11.7962 52.8955 11.3594 53.377 11.0398C53.8628 10.7159 54.4807 10.554 55.2307 10.554C55.9126 10.554 56.507 10.6967 57.0141 10.9822C57.5212 11.2678 57.9133 11.6854 58.1903 12.2351C58.4715 12.7848 58.6121 13.456 58.6121 14.2486V20.5H56.2982V14.6065C56.2982 13.946 56.1278 13.4325 55.7868 13.0661C55.4502 12.6953 54.9772 12.5099 54.3678 12.5099C53.9587 12.5099 53.5922 12.5994 53.2684 12.7784C52.9488 12.9531 52.6974 13.2067 52.5141 13.5391C52.3351 13.8714 52.2457 14.2741 52.2457 14.7472ZM65.6135 20.6918C64.6547 20.6918 63.8237 20.4808 63.1206 20.0589C62.4174 19.6371 61.872 19.0469 61.4842 18.2884C61.1007 17.5298 60.9089 16.6435 60.9089 15.6293C60.9089 14.6151 61.1007 13.7266 61.4842 12.9638C61.872 12.201 62.4174 11.6087 63.1206 11.1868C63.8237 10.7649 64.6547 10.554 65.6135 10.554C66.5723 10.554 67.4032 10.7649 68.1064 11.1868C68.8095 11.6087 69.3528 12.201 69.7363 12.9638C70.1241 13.7266 70.318 14.6151 70.318 15.6293C70.318 16.6435 70.1241 17.5298 69.7363 18.2884C69.3528 19.0469 68.8095 19.6371 68.1064 20.0589C67.4032 20.4808 66.5723 20.6918 65.6135 20.6918ZM65.6262 18.8381C66.1461 18.8381 66.5808 18.6953 66.9302 18.4098C67.2797 18.12 67.5396 17.7322 67.7101 17.2464C67.8848 16.7607 67.9721 16.2195 67.9721 15.6229C67.9721 15.022 67.8848 14.4787 67.7101 13.9929C67.5396 13.5028 67.2797 13.1129 66.9302 12.8232C66.5808 12.5334 66.1461 12.3885 65.6262 12.3885C65.0936 12.3885 64.6504 12.5334 64.2967 12.8232C63.9473 13.1129 63.6852 13.5028 63.5105 13.9929C63.34 14.4787 63.2548 15.022 63.2548 15.6229C63.2548 16.2195 63.34 16.7607 63.5105 17.2464C63.6852 17.7322 63.9473 18.12 64.2967 18.4098C64.6504 18.6953 65.0936 18.8381 65.6262 18.8381ZM72.642 20.5V10.6818H74.8856V12.3182H74.9878C75.1668 11.7514 75.4736 11.3146 75.9083 11.0078C76.3472 10.6967 76.8479 10.5412 77.4104 10.5412C77.5383 10.5412 77.681 10.5476 77.8387 10.5604C78.0006 10.5689 78.1349 10.5838 78.2414 10.6051V12.7337C78.1434 12.6996 77.9879 12.6697 77.7748 12.6442C77.566 12.6143 77.3636 12.5994 77.1675 12.5994C76.7457 12.5994 76.3664 12.6911 76.0298 12.8743C75.6974 13.0533 75.4353 13.3026 75.2435 13.6222C75.0518 13.9418 74.9559 14.3104 74.9559 14.728V20.5H72.642ZM85.6502 14.0952V16H79.7568V14.0952H85.6502ZM99.7515 11.826H97.3609C97.2927 11.4339 97.167 11.0866 96.9838 10.7841C96.8005 10.4773 96.5725 10.2173 96.2998 10.0043C96.0271 9.79119 95.716 9.63139 95.3666 9.52486C95.0214 9.41406 94.6485 9.35866 94.248 9.35866C93.5363 9.35866 92.9056 9.53764 92.3559 9.8956C91.8062 10.2493 91.3758 10.7692 91.0647 11.4553C90.7537 12.1371 90.5981 12.9702 90.5981 13.9545C90.5981 14.956 90.7537 15.7997 91.0647 16.4858C91.3801 17.1676 91.8105 17.6832 92.3559 18.0327C92.9056 18.3778 93.5342 18.5504 94.2416 18.5504C94.6336 18.5504 95.0001 18.4993 95.341 18.397C95.6862 18.2905 95.9951 18.1349 96.2679 17.9304C96.5449 17.7259 96.7771 17.4744 96.9646 17.1761C97.1564 16.8778 97.2885 16.5369 97.3609 16.1534L99.7515 16.1662C99.662 16.7884 99.4681 17.3722 99.1698 17.9176C98.8758 18.4631 98.4902 18.9446 98.0129 19.3622C97.5356 19.7756 96.9774 20.0994 96.3382 20.3338C95.699 20.5639 94.9895 20.679 94.2096 20.679C93.0591 20.679 92.0321 20.4126 91.1287 19.88C90.2252 19.3473 89.5136 18.5781 88.9937 17.5724C88.4738 16.5668 88.2139 15.3608 88.2139 13.9545C88.2139 12.544 88.476 11.3381 89.0001 10.3366C89.5243 9.33097 90.238 8.56179 91.1414 8.02912C92.0449 7.49645 93.0676 7.23011 94.2096 7.23011C94.9383 7.23011 95.6159 7.33239 96.2423 7.53693C96.8687 7.74148 97.427 8.0419 97.917 8.43821C98.4071 8.83026 98.8098 9.31179 99.1251 9.88281C99.4447 10.4496 99.6535 11.0973 99.7515 11.826ZM104.495 14.7472V20.5H102.181V7.40909H104.444V12.3501H104.559C104.789 11.7962 105.145 11.3594 105.626 11.0398C106.112 10.7159 106.73 10.554 107.48 10.554C108.162 10.554 108.756 10.6967 109.263 10.9822C109.77 11.2678 110.162 11.6854 110.439 12.2351C110.721 12.7848 110.861 13.456 110.861 14.2486V20.5H108.547V14.6065C108.547 13.946 108.377 13.4325 108.036 13.0661C107.699 12.6953 107.226 12.5099 106.617 12.5099C106.208 12.5099 105.841 12.5994 105.518 12.7784C105.198 12.9531 104.947 13.2067 104.763 13.5391C104.584 13.8714 104.495 14.2741 104.495 14.7472ZM116.405 20.6982C115.783 20.6982 115.223 20.5874 114.724 20.3658C114.23 20.1399 113.838 19.8075 113.548 19.3686C113.263 18.9297 113.12 18.3885 113.12 17.745C113.12 17.1911 113.222 16.733 113.427 16.3707C113.631 16.0085 113.91 15.7188 114.264 15.5014C114.618 15.2841 115.016 15.12 115.459 15.0092C115.907 14.8942 116.369 14.8111 116.846 14.7599C117.422 14.7003 117.888 14.647 118.246 14.6001C118.604 14.549 118.864 14.4723 119.026 14.37C119.192 14.2635 119.275 14.0994 119.275 13.8778V13.8395C119.275 13.358 119.133 12.9851 118.847 12.7209C118.562 12.4567 118.15 12.3246 117.613 12.3246C117.047 12.3246 116.597 12.4482 116.265 12.6953C115.937 12.9425 115.715 13.2344 115.6 13.571L113.439 13.2642C113.61 12.6676 113.891 12.169 114.283 11.7685C114.675 11.3636 115.155 11.0611 115.721 10.8608C116.288 10.6562 116.915 10.554 117.601 10.554C118.074 10.554 118.544 10.6094 119.013 10.7202C119.482 10.831 119.91 11.0142 120.298 11.2699C120.686 11.5213 120.997 11.8643 121.231 12.299C121.47 12.7337 121.589 13.277 121.589 13.929V20.5H119.365V19.1513H119.288C119.147 19.424 118.949 19.6797 118.694 19.9183C118.442 20.1527 118.125 20.3423 117.741 20.4872C117.362 20.6278 116.917 20.6982 116.405 20.6982ZM117.006 18.9979C117.471 18.9979 117.873 18.9062 118.214 18.723C118.555 18.5355 118.817 18.2884 119 17.9815C119.188 17.6747 119.282 17.3402 119.282 16.978V15.821C119.209 15.8807 119.086 15.9361 118.911 15.9872C118.741 16.0384 118.549 16.0831 118.336 16.1214C118.123 16.1598 117.912 16.1939 117.703 16.2237C117.494 16.2536 117.313 16.2791 117.16 16.3004C116.814 16.3473 116.505 16.424 116.233 16.5305C115.96 16.6371 115.745 16.7862 115.587 16.978C115.429 17.1655 115.351 17.4084 115.351 17.7067C115.351 18.1328 115.506 18.4545 115.817 18.6719C116.128 18.8892 116.525 18.9979 117.006 18.9979ZM124.276 20.5V10.6818H126.59V20.5H124.276ZM125.439 9.28835C125.073 9.28835 124.757 9.1669 124.493 8.92401C124.229 8.67685 124.097 8.38068 124.097 8.03551C124.097 7.68608 124.229 7.38991 124.493 7.14702C124.757 6.89986 125.073 6.77628 125.439 6.77628C125.81 6.77628 126.125 6.89986 126.385 7.14702C126.65 7.38991 126.782 7.68608 126.782 8.03551C126.782 8.38068 126.65 8.67685 126.385 8.92401C126.125 9.1669 125.81 9.28835 125.439 9.28835ZM131.643 14.7472V20.5H129.329V10.6818H131.541V12.3501H131.656C131.882 11.8004 132.242 11.3636 132.736 11.0398C133.235 10.7159 133.851 10.554 134.584 10.554C135.261 10.554 135.851 10.6989 136.354 10.9886C136.861 11.2784 137.253 11.6982 137.53 12.2479C137.812 12.7976 137.95 13.4645 137.946 14.2486V20.5H135.632V14.6065C135.632 13.9503 135.461 13.4368 135.121 13.0661C134.784 12.6953 134.317 12.5099 133.721 12.5099C133.316 12.5099 132.956 12.5994 132.64 12.7784C132.329 12.9531 132.084 13.2067 131.905 13.5391C131.731 13.8714 131.643 14.2741 131.643 14.7472Z" fill="url(#paint1_linear_869_830)"/>
<defs>
<linearGradient id="paint0_linear_869_830" x1="0.5" y1="13.9999" x2="24.5" y2="13.9999" gradientUnits="userSpaceOnUse">
<stop stop-color="white"/>
<stop offset="1" stop-color="#999999"/>
</linearGradient>
<linearGradient id="paint1_linear_869_830" x1="36.5" y1="14" x2="139.5" y2="14" gradientUnits="userSpaceOnUse">
<stop stop-color="white"/>
<stop offset="1" stop-color="#999999"/>
</linearGradient>
<clipPath id="clip0_869_830">
<rect width="24" height="27.5247" fill="white" transform="translate(0.5 0.237549)"/>
</clipPath>
</defs>
</svg>
